G75*
%MOIN*%
%OFA0B0*%
%FSLAX25Y25*%
%IPPOS*%
%LPD*%
%AMOC8*
5,1,8,0,0,1.08239X$1,22.5*
%
%ADD10C,0.00000*%
%ADD11C,0.00400*%
%ADD12C,0.00600*%
%ADD13C,0.03000*%
%ADD14R,0.02000X0.03000*%
%ADD15R,0.04000X0.03000*%
%ADD16C,0.00500*%
%ADD17R,0.00133X0.00133*%
%ADD18R,0.00133X0.06501*%
%ADD19R,0.00133X0.46172*%
%ADD20R,0.00133X0.06369*%
%ADD21R,0.00133X0.06368*%
%ADD22R,0.00133X0.06369*%
%ADD23R,0.00133X0.06501*%
%ADD24R,0.00133X0.52673*%
%ADD25R,0.00133X0.52540*%
%ADD26R,0.00133X0.06236*%
%ADD27R,0.00133X0.46039*%
%ADD28R,0.00133X0.06103*%
%ADD29R,0.00133X0.45906*%
%ADD30R,0.00133X0.05970*%
%ADD31R,0.00133X0.45774*%
%ADD32R,0.00133X0.05837*%
%ADD33R,0.00133X0.45641*%
%ADD34R,0.00133X0.05705*%
%ADD35R,0.00133X0.45509*%
%ADD36R,0.00133X0.05572*%
%ADD37R,0.00133X0.45376*%
%ADD38R,0.00133X0.05439*%
%ADD39R,0.00133X0.45243*%
%ADD40R,0.00133X0.05307*%
%ADD41R,0.00133X0.45110*%
%ADD42R,0.00133X0.05174*%
%ADD43R,0.00133X0.44978*%
%ADD44R,0.00133X0.05042*%
%ADD45R,0.00133X0.44845*%
%ADD46R,0.00133X0.04909*%
%ADD47R,0.00133X0.44712*%
%ADD48R,0.00133X0.44580*%
%ADD49R,0.00133X0.04643*%
%ADD50R,0.00133X0.44447*%
%ADD51R,0.00133X0.44315*%
%ADD52R,0.00133X0.04511*%
%ADD53R,0.00133X0.44181*%
%ADD54R,0.00133X0.04378*%
%ADD55R,0.00133X0.04245*%
%ADD56R,0.00133X0.44049*%
%ADD57R,0.00133X0.04113*%
%ADD58R,0.00133X0.43916*%
%ADD59R,0.00133X0.03980*%
%ADD60R,0.00133X0.43784*%
%ADD61R,0.00133X0.03848*%
%ADD62R,0.00133X0.43651*%
%ADD63R,0.00133X0.03715*%
%ADD64R,0.00133X0.43519*%
%ADD65R,0.00133X0.03582*%
%ADD66R,0.00133X0.43385*%
%ADD67R,0.00133X0.03449*%
%ADD68R,0.00133X0.43253*%
%ADD69R,0.00133X0.03317*%
%ADD70R,0.00133X0.43120*%
%ADD71R,0.00133X0.03184*%
%ADD72R,0.00133X0.42987*%
%ADD73R,0.00133X0.03051*%
%ADD74R,0.00133X0.42855*%
%ADD75R,0.00133X0.02919*%
%ADD76R,0.00133X0.42722*%
%ADD77R,0.00133X0.42590*%
%ADD78R,0.00133X0.02786*%
%ADD79R,0.00133X0.42457*%
%ADD80R,0.00133X0.02654*%
%ADD81R,0.00133X0.42324*%
%ADD82R,0.00133X0.02520*%
%ADD83R,0.00133X0.42191*%
%ADD84R,0.00133X0.02388*%
%ADD85R,0.00133X0.02255*%
%ADD86R,0.00133X0.42059*%
%ADD87R,0.00133X0.02122*%
%ADD88R,0.00133X0.41926*%
%ADD89R,0.00133X0.01990*%
%ADD90R,0.00133X0.41793*%
%ADD91R,0.00133X0.01857*%
%ADD92R,0.00133X0.41661*%
%ADD93R,0.00133X0.01725*%
%ADD94R,0.00133X0.41528*%
%ADD95R,0.00133X0.01592*%
%ADD96R,0.00133X0.41396*%
%ADD97R,0.00133X0.01459*%
%ADD98R,0.00133X0.41263*%
%ADD99R,0.00133X0.01326*%
%ADD100R,0.00133X0.41130*%
%ADD101R,0.00133X0.01194*%
%ADD102R,0.00133X0.40997*%
%ADD103R,0.00133X0.01061*%
%ADD104R,0.00133X0.40865*%
%ADD105R,0.00133X0.00928*%
%ADD106R,0.00133X0.40732*%
%ADD107R,0.00133X0.00796*%
%ADD108R,0.00133X0.40599*%
%ADD109R,0.00133X0.40467*%
%ADD110R,0.00133X0.00663*%
%ADD111R,0.00133X0.40334*%
%ADD112R,0.00133X0.00398*%
%ADD113R,0.00133X0.40202*%
%ADD114R,0.00133X0.00265*%
%ADD115R,0.00133X0.40069*%
%ADD116R,0.00133X0.00132*%
%ADD117R,0.00133X0.39936*%
%ADD118R,0.00133X0.39803*%
%ADD119R,0.00133X0.00133*%
%ADD120R,0.00133X0.39670*%
%ADD121R,0.00133X0.00266*%
%ADD122R,0.00133X0.39538*%
%ADD123R,0.00133X0.00398*%
%ADD124R,0.00133X0.39405*%
%ADD125R,0.00133X0.00531*%
%ADD126R,0.00133X0.39273*%
%ADD127R,0.00133X0.00663*%
%ADD128R,0.00133X0.39140*%
%ADD129R,0.00133X0.00796*%
%ADD130R,0.00133X0.39007*%
%ADD131R,0.00133X0.00929*%
%ADD132R,0.00133X0.38874*%
%ADD133R,0.00133X0.01062*%
%ADD134R,0.00133X0.38742*%
%ADD135R,0.00133X0.38609*%
%ADD136R,0.00133X0.38476*%
%ADD137R,0.00133X0.01327*%
%ADD138R,0.00133X0.38344*%
%ADD139R,0.00133X0.01460*%
%ADD140R,0.00133X0.38211*%
%ADD141R,0.00133X0.01593*%
%ADD142R,0.00133X0.38079*%
%ADD143R,0.00133X0.01725*%
%ADD144R,0.00133X0.37946*%
%ADD145R,0.00133X0.01857*%
%ADD146R,0.00133X0.01991*%
%ADD147R,0.00133X0.37813*%
%ADD148R,0.00133X0.02123*%
%ADD149R,0.00133X0.37680*%
%ADD150R,0.00133X0.02256*%
%ADD151R,0.00133X0.37548*%
%ADD152R,0.00133X0.37415*%
%ADD153R,0.00133X0.02521*%
%ADD154R,0.00133X0.37282*%
%ADD155R,0.00133X0.37150*%
%ADD156R,0.00133X0.02787*%
%ADD157R,0.00133X0.37017*%
%ADD158R,0.00133X0.02919*%
%ADD159R,0.00133X0.36885*%
%ADD160R,0.00133X0.03052*%
%ADD161R,0.00133X0.36752*%
%ADD162R,0.00133X0.03185*%
%ADD163R,0.00133X0.36619*%
%ADD164R,0.00133X0.03317*%
%ADD165R,0.00133X0.36486*%
%ADD166R,0.00133X0.36354*%
%ADD167R,0.00133X0.03450*%
%ADD168R,0.00133X0.36221*%
%ADD169R,0.00133X0.03715*%
%ADD170R,0.00133X0.35956*%
%ADD171R,0.00133X0.35823*%
%ADD172R,0.00133X0.03981*%
%ADD173R,0.00133X0.04113*%
%ADD174R,0.00133X0.35690*%
%ADD175R,0.00133X0.04246*%
%ADD176R,0.00133X0.35557*%
%ADD177R,0.00133X0.04379*%
%ADD178R,0.00133X0.35425*%
%ADD179R,0.00133X0.04511*%
%ADD180R,0.00133X0.35292*%
%ADD181R,0.00133X0.04644*%
%ADD182R,0.00133X0.35160*%
%ADD183R,0.00133X0.04776*%
%ADD184R,0.00133X0.35027*%
%ADD185R,0.00133X0.04909*%
%ADD186R,0.00133X0.34894*%
%ADD187R,0.00133X0.00265*%
%ADD188R,0.00133X0.31709*%
%ADD189R,0.00133X0.11145*%
%ADD190R,0.00133X0.06103*%
%ADD191R,0.00133X0.04909*%
%ADD192R,0.00133X0.05174*%
%ADD193R,0.00133X0.19769*%
%ADD194R,0.00133X0.05175*%
%ADD195R,0.00133X0.25341*%
%ADD196R,0.00133X0.12605*%
%ADD197R,0.00133X0.08226*%
%ADD198R,0.00133X0.05307*%
%ADD199R,0.00133X0.25076*%
%ADD200R,0.00133X0.13798*%
%ADD201R,0.00133X0.09818*%
%ADD202R,0.00133X0.19902*%
%ADD203R,0.00133X0.05440*%
%ADD204R,0.00133X0.24810*%
%ADD205R,0.00133X0.14594*%
%ADD206R,0.00133X0.11278*%
%ADD207R,0.00133X0.20035*%
%ADD208R,0.00133X0.05573*%
%ADD209R,0.00133X0.24678*%
%ADD210R,0.00133X0.03184*%
%ADD211R,0.00133X0.14993*%
%ADD212R,0.00133X0.11941*%
%ADD213R,0.00133X0.20167*%
%ADD214R,0.00133X0.24413*%
%ADD215R,0.00133X0.03317*%
%ADD216R,0.00133X0.15789*%
%ADD217R,0.00133X0.13003*%
%ADD218R,0.00133X0.05440*%
%ADD219R,0.00133X0.20300*%
%ADD220R,0.00133X0.05705*%
%ADD221R,0.00133X0.24148*%
%ADD222R,0.00133X0.03450*%
%ADD223R,0.00133X0.16187*%
%ADD224R,0.00133X0.13798*%
%ADD225R,0.00133X0.05838*%
%ADD226R,0.00133X0.23882*%
%ADD227R,0.00133X0.16585*%
%ADD228R,0.00133X0.14462*%
%ADD229R,0.00133X0.20565*%
%ADD230R,0.00133X0.05970*%
%ADD231R,0.00133X0.23749*%
%ADD232R,0.00133X0.03715*%
%ADD233R,0.00133X0.16983*%
%ADD234R,0.00133X0.15125*%
%ADD235R,0.00133X0.06104*%
%ADD236R,0.00133X0.23484*%
%ADD237R,0.00133X0.17381*%
%ADD238R,0.00133X0.15656*%
%ADD239R,0.00133X0.20698*%
%ADD240R,0.00133X0.23219*%
%ADD241R,0.00133X0.03980*%
%ADD242R,0.00133X0.17646*%
%ADD243R,0.00133X0.20831*%
%ADD244R,0.00133X0.22953*%
%ADD245R,0.00133X0.17912*%
%ADD246R,0.00133X0.16718*%
%ADD247R,0.00133X0.20963*%
%ADD248R,0.00133X0.06502*%
%ADD249R,0.00133X0.22688*%
%ADD250R,0.00133X0.18177*%
%ADD251R,0.00133X0.17248*%
%ADD252R,0.00133X0.05706*%
%ADD253R,0.00133X0.21096*%
%ADD254R,0.00133X0.06634*%
%ADD255R,0.00133X0.22422*%
%ADD256R,0.00133X0.04378*%
%ADD257R,0.00133X0.18443*%
%ADD258R,0.00133X0.17646*%
%ADD259R,0.00133X0.21229*%
%ADD260R,0.00133X0.06767*%
%ADD261R,0.00133X0.22157*%
%ADD262R,0.00133X0.04511*%
%ADD263R,0.00133X0.18707*%
%ADD264R,0.00133X0.18044*%
%ADD265R,0.00133X0.21361*%
%ADD266R,0.00133X0.06899*%
%ADD267R,0.00133X0.21892*%
%ADD268R,0.00133X0.04644*%
%ADD269R,0.00133X0.18973*%
%ADD270R,0.00133X0.18575*%
%ADD271R,0.00133X0.07032*%
%ADD272R,0.00133X0.21627*%
%ADD273R,0.00133X0.19106*%
%ADD274R,0.00133X0.18840*%
%ADD275R,0.00133X0.21494*%
%ADD276R,0.00133X0.07165*%
%ADD277R,0.00133X0.19371*%
%ADD278R,0.00133X0.19238*%
%ADD279R,0.00133X0.21626*%
%ADD280R,0.00133X0.07298*%
%ADD281R,0.00133X0.19504*%
%ADD282R,0.00133X0.19636*%
%ADD283R,0.00133X0.21759*%
%ADD284R,0.00133X0.07430*%
%ADD285R,0.00133X0.20830*%
%ADD286R,0.00133X0.21892*%
%ADD287R,0.00133X0.20565*%
%ADD288R,0.00133X0.19902*%
%ADD289R,0.00133X0.20034*%
%ADD290R,0.00133X0.22025*%
%ADD291R,0.00133X0.07563*%
%ADD292R,0.00133X0.20432*%
%ADD293R,0.00133X0.20433*%
%ADD294R,0.00133X0.07696*%
%ADD295R,0.00133X0.22290*%
%ADD296R,0.00133X0.07828*%
%ADD297R,0.00133X0.20300*%
%ADD298R,0.00133X0.20963*%
%ADD299R,0.00133X0.22423*%
%ADD300R,0.00133X0.07961*%
%ADD301R,0.00133X0.20432*%
%ADD302R,0.00133X0.21228*%
%ADD303R,0.00133X0.08093*%
%ADD304R,0.00133X0.05838*%
%ADD305R,0.00133X0.20565*%
%ADD306R,0.00133X0.21361*%
%ADD307R,0.00133X0.22555*%
%ADD308R,0.00133X0.19239*%
%ADD309R,0.00133X0.05971*%
%ADD310R,0.00133X0.22688*%
%ADD311R,0.00133X0.08359*%
%ADD312R,0.00133X0.18973*%
%ADD313R,0.00133X0.22820*%
%ADD314R,0.00133X0.08492*%
%ADD315R,0.00133X0.18708*%
%ADD316R,0.00133X0.22954*%
%ADD317R,0.00133X0.08624*%
%ADD318R,0.00133X0.18442*%
%ADD319R,0.00133X0.05042*%
%ADD320R,0.00133X0.08757*%
%ADD321R,0.00133X0.18176*%
%ADD322R,0.00133X0.23086*%
%ADD323R,0.00133X0.08890*%
%ADD324R,0.00133X0.17911*%
%ADD325R,0.00133X0.22555*%
%ADD326R,0.00133X0.23219*%
%ADD327R,0.00133X0.09022*%
%ADD328R,0.00133X0.06767*%
%ADD329R,0.00133X0.12870*%
%ADD330R,0.00133X0.10348*%
%ADD331R,0.00133X0.10216*%
%ADD332R,0.00133X0.09155*%
%ADD333R,0.00133X0.17381*%
%ADD334R,0.00133X0.06900*%
%ADD335R,0.00133X0.10083*%
%ADD336R,0.00133X0.09287*%
%ADD337R,0.00133X0.17115*%
%ADD338R,0.00133X0.08757*%
%ADD339R,0.00133X0.06634*%
%ADD340R,0.00133X0.09420*%
%ADD341R,0.00133X0.16850*%
%ADD342R,0.00133X0.07165*%
%ADD343R,0.00133X0.07297*%
%ADD344R,0.00133X0.09553*%
%ADD345R,0.00133X0.16585*%
%ADD346R,0.00133X0.06899*%
%ADD347R,0.00133X0.16452*%
%ADD348R,0.00133X0.07032*%
%ADD349R,0.00133X0.09686*%
%ADD350R,0.00133X0.06633*%
%ADD351R,0.00133X0.15921*%
%ADD352R,0.00133X0.07563*%
%ADD353R,0.00133X0.09951*%
%ADD354R,0.00133X0.15788*%
%ADD355R,0.00133X0.07695*%
%ADD356R,0.00133X0.10084*%
%ADD357R,0.00133X0.15523*%
%ADD358R,0.00133X0.10217*%
%ADD359R,0.00133X0.15257*%
%ADD360R,0.00133X0.07961*%
%ADD361R,0.00133X0.10349*%
%ADD362R,0.00133X0.14993*%
%ADD363R,0.00133X0.08094*%
%ADD364R,0.00133X0.10482*%
%ADD365R,0.00133X0.14727*%
%ADD366R,0.00133X0.08226*%
%ADD367R,0.00133X0.05572*%
%ADD368R,0.00133X0.10615*%
%ADD369R,0.00133X0.08359*%
%ADD370R,0.00133X0.10747*%
%ADD371R,0.00133X0.14196*%
%ADD372R,0.00133X0.08491*%
%ADD373R,0.00133X0.10880*%
%ADD374R,0.00133X0.13931*%
%ADD375R,0.00133X0.11012*%
%ADD376R,0.00133X0.13666*%
%ADD377R,0.00133X0.05307*%
%ADD378R,0.00133X0.11145*%
%ADD379R,0.00133X0.13400*%
%ADD380R,0.00133X0.08889*%
%ADD381R,0.00133X0.13135*%
%ADD382R,0.00133X0.11411*%
%ADD383R,0.00133X0.12869*%
%ADD384R,0.00133X0.11543*%
%ADD385R,0.00133X0.09155*%
%ADD386R,0.00133X0.11676*%
%ADD387R,0.00133X0.12472*%
%ADD388R,0.00133X0.09288*%
%ADD389R,0.00133X0.12206*%
%ADD390R,0.00133X0.09420*%
%ADD391R,0.00133X0.11809*%
%ADD392R,0.00133X0.11941*%
%ADD393R,0.00133X0.09553*%
%ADD394R,0.00133X0.11808*%
%ADD395R,0.00133X0.09685*%
%ADD396R,0.00133X0.12074*%
%ADD397R,0.00133X0.09951*%
%ADD398R,0.00133X0.12339*%
%ADD399R,0.00133X0.10879*%
%ADD400R,0.00133X0.10083*%
%ADD401R,0.00133X0.05041*%
%ADD402R,0.00133X0.10481*%
%ADD403R,0.00133X0.10349*%
%ADD404R,0.00133X0.12737*%
%ADD405R,0.00133X0.10216*%
%ADD406R,0.00133X0.12870*%
%ADD407R,0.00133X0.09950*%
%ADD408R,0.00133X0.10614*%
%ADD409R,0.00133X0.10747*%
%ADD410R,0.00133X0.10880*%
%ADD411R,0.00133X0.13268*%
%ADD412R,0.00133X0.07828*%
%ADD413R,0.00133X0.09420*%
%ADD414R,0.00133X0.08491*%
%ADD415R,0.00133X0.09287*%
%ADD416R,0.00133X0.08093*%
%ADD417R,0.00133X0.07960*%
%ADD418R,0.00133X0.11543*%
%ADD419R,0.00133X0.07562*%
%ADD420R,0.00133X0.12074*%
%ADD421R,0.00133X0.12339*%
%ADD422R,0.00133X0.12604*%
%ADD423R,0.00133X0.12737*%
%ADD424R,0.00133X0.13002*%
%ADD425R,0.00133X0.09154*%
%ADD426R,0.00133X0.13135*%
%ADD427R,0.00133X0.13268*%
%ADD428R,0.00133X0.13401*%
%ADD429R,0.00133X0.09022*%
%ADD430R,0.00133X0.13533*%
%ADD431R,0.00133X0.13931*%
%ADD432R,0.00133X0.09022*%
%ADD433R,0.00133X0.14064*%
%ADD434R,0.00133X0.04777*%
%ADD435R,0.00133X0.14330*%
%ADD436R,0.00133X0.14462*%
%ADD437R,0.00133X0.14595*%
%ADD438R,0.00133X0.14727*%
%ADD439R,0.00133X0.15125*%
%ADD440R,0.00133X0.15258*%
%ADD441R,0.00133X0.15391*%
%ADD442R,0.00133X0.15524*%
%ADD443R,0.00133X0.08756*%
%ADD444R,0.00133X0.15656*%
%ADD445R,0.00133X0.14728*%
%ADD446R,0.00133X0.15789*%
%ADD447R,0.00133X0.14197*%
%ADD448R,0.00133X0.16054*%
%ADD449R,0.00133X0.16319*%
%ADD450R,0.00133X0.13400*%
%ADD451R,0.00133X0.13135*%
%ADD452R,0.00133X0.12604*%
%ADD453R,0.00133X0.16850*%
%ADD454R,0.00133X0.17115*%
%ADD455R,0.00133X0.11676*%
%ADD456R,0.00133X0.17513*%
%ADD457R,0.00133X0.17646*%
%ADD458R,0.00133X0.17779*%
%ADD459R,0.00133X0.04776*%
%ADD460R,0.00133X0.14064*%
%ADD461R,0.00133X0.18044*%
%ADD462R,0.00133X0.28393*%
%ADD463R,0.00133X0.18177*%
%ADD464R,0.00133X0.18309*%
%ADD465R,0.00133X0.28128*%
%ADD466R,0.00133X0.18841*%
%ADD467R,0.00133X0.07297*%
%ADD468R,0.00133X0.19769*%
%ADD469R,0.00133X0.07164*%
%ADD470R,0.00133X0.20034*%
%ADD471R,0.00133X0.27995*%
%ADD472R,0.00133X0.27863*%
%ADD473R,0.00133X0.20698*%
%ADD474R,0.00133X0.07031*%
%ADD475R,0.00133X0.21228*%
%ADD476R,0.00133X0.22157*%
%ADD477R,0.00133X0.22422*%
%ADD478R,0.00133X0.23086*%
%ADD479R,0.00133X0.23617*%
%ADD480R,0.00133X0.23882*%
%ADD481R,0.00133X0.24015*%
%ADD482R,0.00133X0.24280*%
%ADD483R,0.00133X0.24413*%
%ADD484R,0.00133X0.24545*%
%ADD485R,0.00133X0.24811*%
%ADD486R,0.00133X0.24943*%
%ADD487R,0.00133X0.25076*%
%ADD488R,0.00133X0.25209*%
%ADD489R,0.00133X0.25342*%
%ADD490R,0.00133X0.25474*%
%ADD491R,0.00133X0.25607*%
%ADD492R,0.00133X0.25739*%
%ADD493R,0.00133X0.25872*%
%ADD494R,0.00133X0.26005*%
%ADD495R,0.00133X0.26137*%
%ADD496R,0.00133X0.26270*%
%ADD497R,0.00133X0.26403*%
%ADD498R,0.00133X0.26536*%
%ADD499R,0.00133X0.26668*%
%ADD500R,0.00133X0.26801*%
%ADD501R,0.00133X0.26933*%
%ADD502R,0.00133X0.27066*%
%ADD503R,0.00133X0.27199*%
%ADD504R,0.00133X0.27331*%
%ADD505R,0.00133X0.19106*%
%ADD506R,0.00133X0.06766*%
%ADD507R,0.00133X0.07828*%
%ADD508R,0.00133X0.09685*%
%ADD509R,0.00133X0.11543*%
%ADD510R,0.00133X0.12073*%
%ADD511R,0.00133X0.10746*%
%ADD512R,0.00133X0.14860*%
%ADD513R,0.00133X0.57184*%
%ADD514R,0.00133X0.22556*%
%ADD515R,0.00133X0.57051*%
%ADD516R,0.00133X0.56919*%
%ADD517R,0.00133X0.13931*%
%ADD518R,0.00133X0.22024*%
%ADD519R,0.00133X0.56786*%
%ADD520R,0.00133X0.17779*%
%ADD521R,0.00133X0.56653*%
%ADD522R,0.00133X0.14461*%
%ADD523R,0.00133X0.21759*%
%ADD524R,0.00133X0.56520*%
%ADD525R,0.00133X0.21493*%
%ADD526R,0.00133X0.56387*%
%ADD527R,0.00133X0.14992*%
%ADD528R,0.00133X0.17513*%
%ADD529R,0.00133X0.56255*%
%ADD530R,0.00133X0.56122*%
%ADD531R,0.00133X0.55990*%
%ADD532R,0.00133X0.55857*%
%ADD533R,0.00133X0.20167*%
%ADD534R,0.00133X0.16983*%
%ADD535R,0.00133X0.55724*%
%ADD536R,0.00133X0.19636*%
%ADD537R,0.00133X0.55592*%
%ADD538R,0.00133X0.19370*%
%ADD539R,0.00133X0.16584*%
%ADD540R,0.00133X0.55459*%
%ADD541R,0.00133X0.16850*%
%ADD542R,0.00133X0.19105*%
%ADD543R,0.00133X0.16452*%
%ADD544R,0.00133X0.55326*%
%ADD545R,0.00133X0.17116*%
%ADD546R,0.00133X0.55193*%
%ADD547R,0.00133X0.17380*%
%ADD548R,0.00133X0.55061*%
%ADD549R,0.00133X0.54928*%
%ADD550R,0.00133X0.17911*%
%ADD551R,0.00133X0.17514*%
%ADD552R,0.00133X0.54796*%
%ADD553R,0.00133X0.16982*%
%ADD554R,0.00133X0.15523*%
%ADD555R,0.00133X0.54663*%
%ADD556R,0.00133X0.16452*%
%ADD557R,0.00133X0.54530*%
%ADD558R,0.00133X0.54398*%
%ADD559R,0.00133X0.19238*%
%ADD560R,0.00133X0.54132*%
%ADD561R,0.00133X0.19371*%
%ADD562R,0.00133X0.14329*%
%ADD563R,0.00133X0.14063*%
%ADD564R,0.00133X0.53999*%
%ADD565R,0.00133X0.19769*%
%ADD566R,0.00133X0.53867*%
%ADD567R,0.00133X0.15391*%
%ADD568R,0.00133X0.12472*%
%ADD569R,0.00133X0.53734*%
%ADD570R,0.00133X0.11675*%
%ADD571R,0.00133X0.20299*%
%ADD572R,0.00133X0.53602*%
%ADD573R,0.00133X0.53469*%
%ADD574R,0.00133X0.10614*%
%ADD575R,0.00133X0.53204*%
%ADD576R,0.00133X0.29189*%
%ADD577R,0.00133X0.29322*%
%ADD578R,0.00133X0.29454*%
%ADD579R,0.00133X0.29587*%
%ADD580R,0.00133X0.29720*%
%ADD581R,0.00133X0.29853*%
%ADD582R,0.00133X0.29985*%
%ADD583R,0.00133X0.30118*%
%ADD584R,0.00133X0.30251*%
%ADD585R,0.00133X0.30383*%
%ADD586R,0.00133X0.30516*%
%ADD587R,0.00133X0.30648*%
%ADD588R,0.00133X0.30781*%
%ADD589R,0.00133X0.30914*%
%ADD590R,0.00133X0.31047*%
%ADD591R,0.00133X0.31180*%
%ADD592R,0.00133X0.31312*%
%ADD593R,0.00133X0.31445*%
%ADD594R,0.00133X0.31577*%
%ADD595R,0.00133X0.31710*%
%ADD596R,0.00133X0.31843*%
%ADD597R,0.00133X0.31976*%
%ADD598R,0.00133X0.32108*%
%ADD599R,0.00133X0.32241*%
%ADD600R,0.00133X0.32374*%
%ADD601R,0.00133X0.32506*%
%ADD602R,0.00133X0.32639*%
D10*
X0020685Y0060655D02*
X0079740Y0001600D01*
X0138795Y0060655D01*
X0138795Y0493726D01*
X0079740Y0552781D01*
X0020685Y0493726D01*
X0020685Y0060655D01*
D11*
X0042953Y0169200D02*
X0042953Y0174404D01*
X0044688Y0170935D02*
X0042953Y0169200D01*
X0044688Y0170935D02*
X0046422Y0169200D01*
X0046422Y0174404D01*
X0053298Y0174404D02*
X0053298Y0169200D01*
X0060141Y0170067D02*
X0061008Y0169200D01*
X0063610Y0169200D01*
X0063610Y0174404D01*
X0061008Y0174404D01*
X0060141Y0173537D01*
X0060141Y0172670D01*
X0061008Y0171802D01*
X0063610Y0171802D01*
X0064438Y0166004D02*
X0066173Y0165137D01*
X0067907Y0163402D01*
X0065305Y0163402D01*
X0064438Y0162535D01*
X0064438Y0161667D01*
X0065305Y0160800D01*
X0067040Y0160800D01*
X0067907Y0161667D01*
X0067907Y0163402D01*
X0069594Y0163402D02*
X0069594Y0161667D01*
X0070462Y0160800D01*
X0072196Y0160800D01*
X0073064Y0161667D01*
X0073064Y0163402D02*
X0071329Y0164270D01*
X0070462Y0164270D01*
X0069594Y0163402D01*
X0069594Y0166004D02*
X0073064Y0166004D01*
X0073064Y0163402D01*
X0074751Y0164270D02*
X0074751Y0165137D01*
X0075618Y0166004D01*
X0077353Y0166004D01*
X0078220Y0165137D01*
X0074751Y0164270D02*
X0078220Y0160800D01*
X0074751Y0160800D01*
X0078196Y0169200D02*
X0077329Y0170067D01*
X0077329Y0171802D01*
X0079064Y0171802D01*
X0080798Y0170067D02*
X0079931Y0169200D01*
X0078196Y0169200D01*
X0077329Y0173537D02*
X0078196Y0174404D01*
X0079931Y0174404D01*
X0080798Y0173537D01*
X0080798Y0170067D01*
X0080790Y0177600D02*
X0081658Y0177600D01*
X0081658Y0178467D01*
X0080790Y0178467D01*
X0080790Y0177600D01*
X0079080Y0178467D02*
X0078212Y0177600D01*
X0076477Y0177600D01*
X0075610Y0178467D01*
X0073923Y0178467D02*
X0073056Y0177600D01*
X0071321Y0177600D01*
X0070454Y0178467D01*
X0070454Y0181937D01*
X0071321Y0182804D01*
X0073056Y0182804D01*
X0073923Y0181937D01*
X0073923Y0178467D01*
X0075610Y0181937D02*
X0076477Y0182804D01*
X0078212Y0182804D01*
X0079080Y0181937D01*
X0079080Y0178467D01*
X0079080Y0186000D02*
X0077345Y0186000D01*
X0078212Y0186000D02*
X0078212Y0191204D01*
X0077345Y0191204D02*
X0079080Y0191204D01*
X0080766Y0191204D02*
X0084236Y0186000D01*
X0083345Y0182804D02*
X0086814Y0177600D01*
X0087674Y0174404D02*
X0087674Y0169200D01*
X0088533Y0166004D02*
X0088533Y0160800D01*
X0085063Y0160800D01*
X0083377Y0159933D02*
X0079907Y0159933D01*
X0085063Y0166004D02*
X0088533Y0166004D01*
X0090220Y0165137D02*
X0091087Y0166004D01*
X0092822Y0166004D01*
X0093689Y0165137D01*
X0093689Y0164270D01*
X0092822Y0163402D01*
X0091087Y0163402D01*
X0090220Y0162535D01*
X0090220Y0161667D01*
X0091087Y0160800D01*
X0092822Y0160800D01*
X0093689Y0161667D01*
X0095376Y0161667D02*
X0096244Y0160800D01*
X0098846Y0160800D01*
X0098846Y0166004D01*
X0096244Y0166004D01*
X0095376Y0165137D01*
X0095376Y0164270D01*
X0096244Y0163402D01*
X0098846Y0163402D01*
X0097986Y0169200D02*
X0097986Y0174404D01*
X0095384Y0174404D01*
X0094517Y0173537D01*
X0094517Y0171802D01*
X0095384Y0170935D01*
X0097986Y0170935D01*
X0096252Y0170935D02*
X0094517Y0169200D01*
X0096244Y0163402D02*
X0095376Y0162535D01*
X0095376Y0161667D01*
X0095392Y0177600D02*
X0095392Y0182804D01*
X0097127Y0182804D02*
X0093657Y0182804D01*
X0091971Y0182804D02*
X0091971Y0177600D01*
X0088501Y0177600D01*
X0090236Y0180202D02*
X0091971Y0180202D01*
X0091971Y0182804D02*
X0088501Y0182804D01*
X0089392Y0186000D02*
X0085923Y0186000D01*
X0087658Y0188602D02*
X0089392Y0188602D01*
X0089392Y0191204D02*
X0089392Y0186000D01*
X0091079Y0186000D02*
X0091079Y0191204D01*
X0092814Y0189470D01*
X0094549Y0191204D01*
X0094549Y0186000D01*
X0096268Y0194400D02*
X0096268Y0197870D01*
X0094533Y0199604D01*
X0092798Y0197870D01*
X0092798Y0194400D01*
X0092798Y0197002D02*
X0096268Y0197002D01*
X0097954Y0199604D02*
X0101424Y0199604D01*
X0101424Y0194400D01*
X0101424Y0197002D02*
X0099689Y0197002D01*
X0099705Y0202800D02*
X0099705Y0208004D01*
X0097970Y0206270D01*
X0096236Y0208004D01*
X0096236Y0202800D01*
X0094549Y0202800D02*
X0094549Y0208004D01*
X0091079Y0208004D01*
X0089392Y0208004D02*
X0089392Y0202800D01*
X0091079Y0202800D02*
X0094549Y0202800D01*
X0094549Y0205402D02*
X0092814Y0205402D01*
X0091111Y0199604D02*
X0091111Y0194400D01*
X0088509Y0194400D01*
X0087642Y0195267D01*
X0087642Y0196135D01*
X0088509Y0197002D01*
X0091111Y0197002D01*
X0088509Y0197002D02*
X0087642Y0197870D01*
X0087642Y0198737D01*
X0088509Y0199604D01*
X0091111Y0199604D01*
X0085923Y0202800D02*
X0089392Y0208004D01*
X0085923Y0208004D02*
X0085923Y0202800D01*
X0085955Y0199604D02*
X0083353Y0199604D01*
X0082485Y0198737D01*
X0082485Y0197002D01*
X0083353Y0196135D01*
X0085955Y0196135D01*
X0085955Y0194400D02*
X0085955Y0199604D01*
X0084220Y0196135D02*
X0082485Y0194400D01*
X0080798Y0194400D02*
X0079064Y0194400D01*
X0079931Y0194400D02*
X0079931Y0199604D01*
X0080798Y0199604D02*
X0079064Y0199604D01*
X0077361Y0198737D02*
X0077361Y0195267D01*
X0076493Y0194400D01*
X0074759Y0194400D01*
X0073891Y0195267D01*
X0072204Y0194400D02*
X0072204Y0197870D01*
X0070470Y0199604D01*
X0068735Y0197870D01*
X0068735Y0194400D01*
X0067048Y0195267D02*
X0066181Y0194400D01*
X0064446Y0194400D01*
X0063578Y0195267D01*
X0061892Y0194400D02*
X0060157Y0194400D01*
X0061024Y0194400D02*
X0061024Y0199604D01*
X0060157Y0199604D02*
X0061892Y0199604D01*
X0063578Y0198737D02*
X0064446Y0199604D01*
X0066181Y0199604D01*
X0067048Y0198737D01*
X0067048Y0195267D01*
X0068735Y0197002D02*
X0072204Y0197002D01*
X0073891Y0198737D02*
X0074759Y0199604D01*
X0076493Y0199604D01*
X0077361Y0198737D01*
X0078212Y0202800D02*
X0076477Y0202800D01*
X0075610Y0203667D01*
X0075610Y0207137D01*
X0076477Y0208004D01*
X0078212Y0208004D01*
X0079080Y0207137D01*
X0079080Y0203667D01*
X0078212Y0202800D01*
X0080766Y0208004D02*
X0084236Y0208004D01*
X0082501Y0208004D02*
X0082501Y0202800D01*
X0084236Y0191204D02*
X0080766Y0186000D01*
X0086814Y0182804D02*
X0083345Y0177600D01*
X0085923Y0191204D02*
X0089392Y0191204D01*
X0088533Y0163402D02*
X0086798Y0163402D01*
X0074775Y0186000D02*
X0073040Y0186000D01*
X0072172Y0186867D01*
X0070486Y0186867D02*
X0070486Y0190337D01*
X0069618Y0191204D01*
X0067883Y0191204D01*
X0067016Y0190337D01*
X0067016Y0186867D01*
X0067883Y0186000D01*
X0069618Y0186000D01*
X0070486Y0186867D01*
X0072172Y0190337D02*
X0073040Y0191204D01*
X0074775Y0191204D01*
X0075642Y0190337D01*
X0075642Y0186867D01*
X0074775Y0186000D01*
X0070486Y0174404D02*
X0070486Y0169200D01*
X0068767Y0177600D02*
X0068767Y0182804D01*
X0067032Y0181070D01*
X0065297Y0182804D01*
X0065297Y0177600D01*
X0061008Y0171802D02*
X0060141Y0170935D01*
X0060141Y0170067D01*
X0060149Y0166004D02*
X0059281Y0165137D01*
X0059281Y0164270D01*
X0060149Y0163402D01*
X0061884Y0163402D01*
X0062751Y0164270D01*
X0062751Y0165137D01*
X0061884Y0166004D01*
X0060149Y0166004D01*
X0060149Y0163402D02*
X0059281Y0162535D01*
X0059281Y0161667D01*
X0060149Y0160800D01*
X0061884Y0160800D01*
X0062751Y0161667D01*
X0062751Y0162535D01*
X0061884Y0163402D01*
X0057587Y0194400D02*
X0055852Y0194400D01*
X0054984Y0195267D01*
X0054984Y0198737D01*
X0055852Y0199604D01*
X0057587Y0199604D01*
X0058454Y0198737D01*
X0058454Y0195267D01*
X0057587Y0194400D01*
X0058454Y0202800D02*
X0055852Y0202800D01*
X0054984Y0203667D01*
X0054984Y0207137D01*
X0055852Y0208004D01*
X0058454Y0208004D01*
X0058454Y0202800D01*
X0060141Y0202800D02*
X0063610Y0202800D01*
X0063610Y0208004D01*
X0060141Y0208004D01*
X0061876Y0205402D02*
X0063610Y0205402D01*
X0065297Y0202800D02*
X0068767Y0202800D01*
X0068767Y0208004D01*
X0053298Y0199604D02*
X0053298Y0194400D01*
X0049828Y0194400D02*
X0053298Y0199604D01*
X0049828Y0199604D02*
X0049828Y0194400D01*
X0088102Y0087404D02*
X0090404Y0087404D01*
X0090404Y0082800D01*
X0088102Y0082800D01*
X0087335Y0083567D01*
X0087335Y0086637D01*
X0088102Y0087404D01*
X0087335Y0078404D02*
X0087335Y0075335D01*
X0088869Y0073800D01*
X0090404Y0075335D01*
X0090404Y0078404D01*
X0091939Y0077637D02*
X0091939Y0076869D01*
X0095008Y0073800D01*
X0091939Y0073800D01*
X0091939Y0077637D02*
X0092706Y0078404D01*
X0094241Y0078404D01*
X0095008Y0077637D01*
X0096543Y0073800D02*
X0099612Y0073800D01*
X0098077Y0073800D02*
X0098077Y0078404D01*
X0099612Y0076869D01*
X0098844Y0082800D02*
X0097310Y0082800D01*
X0096543Y0083567D01*
X0096543Y0085102D01*
X0098077Y0085102D01*
X0096543Y0086637D02*
X0097310Y0087404D01*
X0098844Y0087404D01*
X0099612Y0086637D01*
X0099612Y0083567D01*
X0098844Y0082800D01*
X0101146Y0076102D02*
X0104216Y0076102D01*
X0102681Y0077637D02*
X0102681Y0074567D01*
X0095008Y0082800D02*
X0095008Y0087404D01*
X0091939Y0082800D01*
X0091939Y0087404D01*
X0105713Y0160800D02*
X0106580Y0160800D01*
X0106580Y0161667D01*
X0105713Y0161667D01*
X0105713Y0160800D01*
X0105713Y0163402D02*
X0106580Y0163402D01*
X0106580Y0164270D01*
X0105713Y0164270D01*
X0105713Y0163402D01*
X0104862Y0169200D02*
X0104862Y0174404D01*
X0103970Y0177600D02*
X0103970Y0181070D01*
X0105705Y0182804D01*
X0107440Y0181070D01*
X0107440Y0177600D01*
X0109127Y0178467D02*
X0109127Y0182804D01*
X0107440Y0180202D02*
X0103970Y0180202D01*
X0104862Y0186000D02*
X0101392Y0191204D01*
X0104862Y0191204D02*
X0101392Y0186000D01*
X0102283Y0182804D02*
X0098814Y0177600D01*
X0098814Y0182804D01*
X0102283Y0182804D02*
X0102283Y0177600D01*
X0106548Y0186000D02*
X0110018Y0186000D01*
X0110018Y0191204D01*
X0106548Y0191204D01*
X0108283Y0188602D02*
X0110018Y0188602D01*
X0111705Y0191204D02*
X0115174Y0191204D01*
X0116861Y0191204D02*
X0116861Y0186000D01*
X0120331Y0191204D01*
X0120331Y0186000D01*
X0122018Y0186000D02*
X0122018Y0189470D01*
X0123752Y0191204D01*
X0125487Y0189470D01*
X0125487Y0186000D01*
X0127174Y0186867D02*
X0127174Y0191204D01*
X0125487Y0188602D02*
X0122018Y0188602D01*
X0122050Y0194400D02*
X0118580Y0194400D01*
X0116893Y0194400D02*
X0116893Y0199604D01*
X0113424Y0194400D01*
X0113424Y0199604D01*
X0111737Y0198737D02*
X0111737Y0195267D01*
X0110869Y0194400D01*
X0109135Y0194400D01*
X0108267Y0195267D01*
X0108267Y0198737D01*
X0109135Y0199604D01*
X0110869Y0199604D01*
X0111737Y0198737D01*
X0114291Y0201339D02*
X0113424Y0202207D01*
X0112572Y0202800D02*
X0114307Y0202800D01*
X0115174Y0203667D01*
X0114307Y0205402D02*
X0112572Y0205402D01*
X0111705Y0204535D01*
X0111705Y0203667D01*
X0112572Y0202800D01*
X0114291Y0201339D02*
X0116026Y0201339D01*
X0116893Y0200472D01*
X0118580Y0199604D02*
X0122050Y0199604D01*
X0122050Y0194400D01*
X0122050Y0197002D02*
X0120315Y0197002D01*
X0123752Y0202800D02*
X0122018Y0204535D01*
X0122018Y0208004D01*
X0125487Y0204535D02*
X0123752Y0202800D01*
X0125487Y0204535D02*
X0125487Y0208004D01*
X0127174Y0207137D02*
X0128041Y0208004D01*
X0129776Y0208004D01*
X0130644Y0207137D01*
X0127174Y0206270D02*
X0130644Y0202800D01*
X0127174Y0202800D01*
X0126339Y0199604D02*
X0127206Y0198737D01*
X0127206Y0197870D01*
X0126339Y0197002D01*
X0124604Y0197002D01*
X0123736Y0196135D01*
X0123736Y0195267D01*
X0124604Y0194400D01*
X0126339Y0194400D01*
X0127206Y0195267D01*
X0128909Y0194400D02*
X0130644Y0194400D01*
X0129776Y0194400D02*
X0129776Y0199604D01*
X0128909Y0199604D02*
X0130644Y0199604D01*
X0132330Y0198737D02*
X0133198Y0199604D01*
X0135800Y0199604D01*
X0135800Y0194400D01*
X0133198Y0194400D01*
X0132330Y0195267D01*
X0132330Y0198737D01*
X0132330Y0202800D02*
X0135800Y0202800D01*
X0134065Y0202800D02*
X0134065Y0208004D01*
X0135800Y0206270D01*
X0134933Y0191204D02*
X0133198Y0191204D01*
X0132330Y0190337D01*
X0130644Y0191204D02*
X0130644Y0186867D01*
X0129776Y0186000D01*
X0128041Y0186000D01*
X0127174Y0186867D01*
X0127174Y0182804D02*
X0127174Y0177600D01*
X0128909Y0179335D01*
X0130644Y0177600D01*
X0130644Y0182804D01*
X0132330Y0182804D02*
X0132330Y0177600D01*
X0134065Y0179335D01*
X0135800Y0177600D01*
X0135800Y0182804D01*
X0134933Y0186000D02*
X0133198Y0186000D01*
X0132330Y0186867D01*
X0134933Y0186000D02*
X0135800Y0186867D01*
X0135800Y0190337D01*
X0134933Y0191204D01*
X0134933Y0174404D02*
X0133198Y0174404D01*
X0132330Y0173537D01*
X0130644Y0173537D02*
X0130644Y0170067D01*
X0129776Y0169200D01*
X0128041Y0169200D01*
X0127174Y0170067D01*
X0127174Y0173537D01*
X0128041Y0174404D01*
X0129776Y0174404D01*
X0130644Y0173537D01*
X0132330Y0170067D02*
X0133198Y0169200D01*
X0134933Y0169200D01*
X0135800Y0170067D01*
X0135800Y0173537D01*
X0134933Y0174404D01*
X0134933Y0166004D02*
X0133198Y0166004D01*
X0132330Y0165137D01*
X0130644Y0165137D02*
X0130644Y0161667D01*
X0129776Y0160800D01*
X0128041Y0160800D01*
X0127174Y0161667D01*
X0127174Y0165137D01*
X0128041Y0166004D01*
X0129776Y0166004D01*
X0130644Y0165137D01*
X0132330Y0161667D02*
X0133198Y0160800D01*
X0134933Y0160800D01*
X0135800Y0161667D01*
X0135800Y0165137D01*
X0134933Y0166004D01*
X0125487Y0166004D02*
X0122885Y0166004D01*
X0122018Y0165137D01*
X0122018Y0161667D01*
X0122885Y0160800D01*
X0125487Y0160800D01*
X0125487Y0166004D01*
X0125487Y0169200D02*
X0122018Y0169200D01*
X0120331Y0170067D02*
X0120331Y0173537D01*
X0119463Y0174404D01*
X0117729Y0174404D01*
X0116861Y0173537D01*
X0116861Y0170067D01*
X0117729Y0169200D01*
X0119463Y0169200D01*
X0120331Y0170067D01*
X0120331Y0166004D02*
X0118596Y0166004D01*
X0119463Y0166004D02*
X0119463Y0160800D01*
X0118596Y0160800D02*
X0120331Y0160800D01*
X0116893Y0161667D02*
X0116026Y0160800D01*
X0114291Y0160800D01*
X0113424Y0161667D01*
X0113424Y0163402D01*
X0115158Y0163402D01*
X0113424Y0165137D02*
X0114291Y0166004D01*
X0116026Y0166004D01*
X0116893Y0165137D01*
X0116893Y0161667D01*
X0115174Y0169200D02*
X0115174Y0174404D01*
X0112572Y0174404D01*
X0111705Y0173537D01*
X0111705Y0171802D01*
X0112572Y0170935D01*
X0115174Y0170935D01*
X0113440Y0170935D02*
X0111705Y0169200D01*
X0110869Y0166004D02*
X0111737Y0165137D01*
X0111737Y0161667D01*
X0110869Y0160800D01*
X0109135Y0160800D01*
X0108267Y0161667D01*
X0108267Y0165137D01*
X0109135Y0166004D01*
X0110869Y0166004D01*
X0111729Y0177600D02*
X0109994Y0177600D01*
X0109127Y0178467D01*
X0111729Y0177600D02*
X0112596Y0178467D01*
X0112596Y0182804D01*
X0114283Y0181937D02*
X0115150Y0182804D01*
X0116885Y0182804D01*
X0117753Y0181937D01*
X0117753Y0178467D01*
X0116885Y0177600D01*
X0115150Y0177600D01*
X0114283Y0178467D01*
X0113440Y0186000D02*
X0113440Y0191204D01*
X0110018Y0202800D02*
X0106548Y0202800D01*
X0104862Y0203667D02*
X0104862Y0207137D01*
X0103994Y0208004D01*
X0102259Y0208004D01*
X0101392Y0207137D01*
X0101392Y0205402D02*
X0103127Y0205402D01*
X0101392Y0205402D02*
X0101392Y0203667D01*
X0102259Y0202800D01*
X0103994Y0202800D01*
X0104862Y0203667D01*
X0106548Y0208004D02*
X0110018Y0208004D01*
X0110018Y0202800D01*
X0110018Y0205402D02*
X0108283Y0205402D01*
X0111705Y0207137D02*
X0112572Y0208004D01*
X0114307Y0208004D01*
X0115174Y0207137D01*
X0115174Y0206270D01*
X0114307Y0205402D01*
X0122018Y0182804D02*
X0122018Y0177600D01*
X0123752Y0179335D01*
X0125487Y0177600D01*
X0125487Y0182804D01*
X0125487Y0174404D02*
X0125487Y0169200D01*
X0120331Y0177600D02*
X0119463Y0177600D01*
X0119463Y0178467D01*
X0120331Y0178467D01*
X0120331Y0177600D01*
X0123736Y0198737D02*
X0124604Y0199604D01*
X0126339Y0199604D01*
X0127174Y0206270D02*
X0127174Y0207137D01*
D12*
X0071925Y0090120D02*
X0071925Y0080120D01*
X0071925Y0070120D01*
X0061925Y0070120D01*
X0061925Y0080120D01*
X0061925Y0090120D01*
X0071925Y0090120D01*
X0071925Y0080120D02*
X0061925Y0080120D01*
D13*
X0059425Y0085120D02*
X0036925Y0085120D01*
X0036925Y0075120D02*
X0059425Y0075120D01*
D14*
X0060925Y0075120D03*
X0060925Y0085120D03*
D15*
X0073925Y0085120D03*
X0073925Y0075120D03*
D16*
X0074571Y0092870D02*
X0074571Y0097374D01*
X0072319Y0097374D01*
X0071569Y0096623D01*
X0071569Y0095122D01*
X0072319Y0094371D01*
X0074571Y0094371D01*
X0076923Y0093620D02*
X0076923Y0097374D01*
X0076173Y0097374D02*
X0077674Y0097374D01*
X0076923Y0093620D02*
X0077674Y0092870D01*
X0078425Y0092870D01*
X0079175Y0093620D01*
X0069967Y0092870D02*
X0066965Y0092870D01*
X0068466Y0092870D02*
X0068466Y0097374D01*
X0069967Y0095872D01*
D17*
X0088626Y0252349D03*
X0093005Y0252349D03*
X0067531Y0403469D03*
D18*
X0067663Y0406520D03*
X0067796Y0406653D03*
X0069521Y0408245D03*
X0069654Y0408378D03*
X0071378Y0409969D03*
X0071776Y0410368D03*
X0071909Y0410501D03*
X0072174Y0410766D03*
X0073501Y0411960D03*
X0073634Y0412092D03*
X0073899Y0412358D03*
X0074032Y0412491D03*
X0075757Y0414083D03*
X0076022Y0414348D03*
X0076155Y0414481D03*
X0076287Y0414614D03*
X0092607Y0460918D03*
X0098843Y0442210D03*
X0118744Y0436373D03*
X0093137Y0350663D03*
X0093668Y0282865D03*
X0093668Y0265882D03*
X0093933Y0233907D03*
D19*
X0076287Y0441082D03*
X0076155Y0441082D03*
X0076022Y0441082D03*
X0075889Y0441082D03*
X0075757Y0441082D03*
X0075624Y0441082D03*
X0075491Y0441082D03*
X0075359Y0441082D03*
X0075226Y0441082D03*
X0075093Y0441082D03*
X0074961Y0441082D03*
X0074828Y0441082D03*
X0074695Y0441082D03*
X0074563Y0441082D03*
X0074430Y0441082D03*
X0074297Y0441082D03*
X0074165Y0441082D03*
X0074032Y0441082D03*
X0073899Y0441082D03*
X0073767Y0441082D03*
X0073634Y0441082D03*
X0073501Y0441082D03*
X0073369Y0441082D03*
X0073236Y0441082D03*
X0073103Y0441082D03*
X0072970Y0441082D03*
X0072838Y0441082D03*
X0072705Y0441082D03*
X0072572Y0441082D03*
X0072440Y0441082D03*
X0072307Y0441082D03*
X0072174Y0441082D03*
X0072042Y0441082D03*
X0071909Y0441082D03*
X0071776Y0441082D03*
X0071644Y0441082D03*
X0071511Y0441082D03*
X0071378Y0441082D03*
X0071246Y0441082D03*
X0071113Y0441082D03*
X0070980Y0441082D03*
X0070848Y0441082D03*
X0070715Y0441082D03*
X0070582Y0441082D03*
X0070450Y0441082D03*
X0070317Y0441082D03*
X0070184Y0441082D03*
X0070052Y0441082D03*
X0069919Y0441082D03*
X0069786Y0441082D03*
X0069654Y0441082D03*
X0069521Y0441082D03*
X0069388Y0441082D03*
X0069256Y0441082D03*
X0069123Y0441082D03*
X0068990Y0441082D03*
X0068857Y0441082D03*
X0068725Y0441082D03*
X0068592Y0441082D03*
X0068459Y0441082D03*
X0068327Y0441082D03*
X0068194Y0441082D03*
X0068061Y0441082D03*
X0067929Y0441082D03*
X0067796Y0441082D03*
X0067663Y0441082D03*
X0130685Y0441082D03*
X0130818Y0441082D03*
X0130950Y0441082D03*
X0131083Y0441082D03*
X0131216Y0441082D03*
X0131348Y0441082D03*
X0131481Y0441082D03*
X0131614Y0441082D03*
X0131746Y0441082D03*
X0131879Y0441082D03*
X0132012Y0441082D03*
X0132144Y0441082D03*
X0132277Y0441082D03*
X0132410Y0441082D03*
X0132543Y0441082D03*
X0132675Y0441082D03*
X0132808Y0441082D03*
X0132941Y0441082D03*
X0133073Y0441082D03*
X0133206Y0441082D03*
X0133339Y0441082D03*
X0133471Y0441082D03*
X0133604Y0441082D03*
X0133737Y0441082D03*
X0133869Y0441082D03*
X0134002Y0441082D03*
X0134135Y0441082D03*
D20*
X0121530Y0339319D03*
X0121663Y0316233D03*
X0121663Y0298985D03*
X0121398Y0233708D03*
X0094066Y0233708D03*
X0093005Y0350730D03*
X0092872Y0350730D03*
X0092739Y0350730D03*
X0092607Y0350730D03*
X0074430Y0412822D03*
X0074297Y0412690D03*
X0073236Y0411761D03*
X0073103Y0411628D03*
X0072970Y0411496D03*
X0071644Y0410302D03*
X0070715Y0409373D03*
X0070450Y0409107D03*
X0070184Y0408842D03*
X0069123Y0407913D03*
X0068857Y0407648D03*
X0067929Y0406719D03*
X0075491Y0413884D03*
X0075624Y0414017D03*
X0092474Y0460984D03*
D21*
X0075226Y0413618D03*
X0074961Y0413353D03*
X0074695Y0413088D03*
X0073369Y0411894D03*
X0072705Y0411230D03*
X0072440Y0410965D03*
X0071113Y0409771D03*
X0070848Y0409505D03*
X0070582Y0409240D03*
X0069919Y0408577D03*
X0069256Y0408046D03*
X0068592Y0407382D03*
X0068327Y0407117D03*
X0068061Y0406852D03*
D22*
X0068194Y0406984D03*
X0068459Y0407250D03*
X0068725Y0407515D03*
X0068990Y0407781D03*
X0069388Y0408179D03*
X0069786Y0408444D03*
X0070052Y0408709D03*
X0070317Y0408975D03*
X0070980Y0409638D03*
X0071246Y0409903D03*
X0071511Y0410169D03*
X0072307Y0410832D03*
X0072572Y0411097D03*
X0072838Y0411363D03*
X0073767Y0412292D03*
X0074165Y0412557D03*
X0074828Y0413220D03*
X0075093Y0413486D03*
X0075359Y0413751D03*
X0090086Y0421181D03*
X0121265Y0421181D03*
D23*
X0075889Y0414215D03*
X0074563Y0413021D03*
X0072042Y0410633D03*
D24*
X0076420Y0437832D03*
D25*
X0076553Y0437898D03*
D26*
X0076685Y0414879D03*
X0089953Y0421114D03*
X0098975Y0442210D03*
X0092341Y0461051D03*
X0118611Y0436373D03*
X0121398Y0421114D03*
X0121398Y0339518D03*
X0121530Y0298786D03*
X0093801Y0282998D03*
X0093801Y0265617D03*
X0092474Y0350796D03*
X0092341Y0350796D03*
X0092209Y0350796D03*
X0092076Y0350796D03*
D27*
X0076685Y0441149D03*
D28*
X0076818Y0414945D03*
X0121132Y0233443D03*
D29*
X0076818Y0441215D03*
D30*
X0076951Y0415011D03*
X0094066Y0265352D03*
D31*
X0076951Y0441282D03*
D32*
X0077083Y0415078D03*
X0099506Y0441879D03*
X0099241Y0442144D03*
X0100567Y0440950D03*
X0100833Y0440684D03*
X0101098Y0440419D03*
X0101761Y0439756D03*
X0102425Y0439225D03*
X0094066Y0283329D03*
D33*
X0077083Y0441348D03*
D34*
X0077216Y0415144D03*
X0121132Y0316830D03*
X0121132Y0298388D03*
X0120734Y0233111D03*
D35*
X0077216Y0441414D03*
D36*
X0077349Y0415210D03*
X0091678Y0461382D03*
X0115427Y0439093D03*
X0115693Y0438827D03*
X0115825Y0438694D03*
X0115958Y0438562D03*
X0116223Y0438296D03*
X0116621Y0437898D03*
X0117019Y0437633D03*
X0117152Y0437500D03*
X0117285Y0437368D03*
X0117550Y0437102D03*
X0117948Y0436704D03*
X0118213Y0436439D03*
X0120602Y0340248D03*
X0120867Y0298189D03*
X0120602Y0233045D03*
X0120469Y0232912D03*
X0094730Y0233045D03*
X0094597Y0264887D03*
X0094464Y0265020D03*
X0094464Y0283728D03*
X0094597Y0283728D03*
X0094730Y0283860D03*
D37*
X0077349Y0441481D03*
D38*
X0077481Y0415277D03*
X0119938Y0340712D03*
X0120204Y0340580D03*
X0120469Y0317228D03*
X0120602Y0317228D03*
X0120734Y0317096D03*
X0120336Y0232846D03*
X0094995Y0232846D03*
D39*
X0077481Y0441547D03*
D40*
X0077614Y0415343D03*
X0091413Y0461515D03*
X0089290Y0351260D03*
X0089157Y0351260D03*
X0089024Y0351260D03*
X0095791Y0284391D03*
X0094995Y0264622D03*
X0095128Y0232780D03*
X0095260Y0232780D03*
X0120204Y0232780D03*
X0120336Y0317294D03*
X0119142Y0341309D03*
X0119009Y0341442D03*
X0118877Y0341442D03*
X0118744Y0341442D03*
D41*
X0077614Y0441613D03*
D42*
X0077747Y0415409D03*
X0095526Y0284324D03*
X0095658Y0284324D03*
X0118611Y0297194D03*
X0119142Y0297327D03*
X0118346Y0341774D03*
X0118213Y0341774D03*
X0118081Y0341906D03*
X0117948Y0341906D03*
D43*
X0077747Y0441680D03*
D44*
X0077880Y0415476D03*
X0088626Y0420517D03*
X0091147Y0461648D03*
X0104680Y0346484D03*
X0105609Y0346219D03*
X0106007Y0346086D03*
X0106936Y0345820D03*
X0107467Y0345687D03*
X0108263Y0345422D03*
X0108395Y0345422D03*
X0108793Y0345290D03*
X0109191Y0345157D03*
X0109324Y0345157D03*
X0109722Y0345024D03*
X0110120Y0344892D03*
X0110651Y0344759D03*
X0111049Y0344626D03*
X0112376Y0344228D03*
X0112906Y0344096D03*
X0113172Y0343963D03*
X0113437Y0343830D03*
X0113570Y0343830D03*
X0113968Y0343698D03*
X0114233Y0343565D03*
X0114366Y0343565D03*
X0114896Y0343299D03*
X0115294Y0343167D03*
X0115560Y0343034D03*
X0115693Y0343034D03*
X0115825Y0342902D03*
X0115958Y0342902D03*
X0116223Y0342769D03*
X0116356Y0342636D03*
X0116489Y0342636D03*
X0116621Y0342636D03*
X0116754Y0342504D03*
X0116887Y0342504D03*
X0117152Y0342371D03*
X0115427Y0318621D03*
X0116356Y0318489D03*
X0116489Y0318489D03*
X0117683Y0318224D03*
X0117815Y0318224D03*
X0118213Y0318091D03*
X0118346Y0318091D03*
X0118611Y0317958D03*
X0118744Y0317958D03*
X0118877Y0317958D03*
X0119142Y0317826D03*
X0119275Y0317826D03*
X0119540Y0317693D03*
X0119275Y0297393D03*
X0118479Y0297128D03*
X0118346Y0297128D03*
X0118213Y0297128D03*
X0117948Y0296995D03*
X0117815Y0296995D03*
X0117683Y0296995D03*
X0117152Y0296863D03*
X0116621Y0296730D03*
X0116489Y0296730D03*
X0116356Y0296730D03*
X0115560Y0296597D03*
X0115427Y0296597D03*
X0114233Y0296464D03*
X0114100Y0296464D03*
X0110120Y0296199D03*
X0109987Y0296199D03*
X0109855Y0296199D03*
X0109722Y0296199D03*
X0109589Y0296199D03*
X0109722Y0285983D03*
X0109855Y0285983D03*
X0107599Y0285850D03*
X0107467Y0285850D03*
X0107334Y0285850D03*
X0104946Y0295934D03*
X0102690Y0285585D03*
X0102557Y0285585D03*
X0102425Y0285585D03*
X0099904Y0285320D03*
X0099771Y0285320D03*
X0099639Y0285320D03*
X0098843Y0285187D03*
X0098710Y0285187D03*
X0098179Y0285054D03*
X0098046Y0285054D03*
X0097118Y0284789D03*
X0096985Y0284789D03*
X0096852Y0284789D03*
X0096587Y0284656D03*
X0096454Y0284656D03*
X0096322Y0284656D03*
X0095526Y0295403D03*
X0095393Y0295403D03*
X0097648Y0295536D03*
X0100302Y0295669D03*
X0104946Y0319285D03*
X0109589Y0319020D03*
X0109722Y0319020D03*
X0109855Y0319020D03*
X0111845Y0318887D03*
X0119540Y0286514D03*
X0119673Y0286514D03*
X0121928Y0286646D03*
X0122061Y0286646D03*
X0118611Y0262234D03*
X0118479Y0262234D03*
X0118346Y0262234D03*
X0118213Y0262234D03*
X0118081Y0262234D03*
X0117948Y0262234D03*
X0122857Y0261969D03*
X0122990Y0261969D03*
X0123122Y0261969D03*
X0117815Y0231983D03*
X0117683Y0231983D03*
X0117019Y0231851D03*
X0116887Y0231851D03*
X0116754Y0231851D03*
X0116621Y0231851D03*
X0115294Y0231718D03*
X0115162Y0231718D03*
X0115029Y0231718D03*
X0114896Y0231718D03*
X0114764Y0231718D03*
X0108528Y0262764D03*
X0108395Y0262764D03*
X0108263Y0262764D03*
X0108130Y0262764D03*
X0107997Y0262764D03*
X0107865Y0262764D03*
X0103619Y0263030D03*
X0103486Y0263030D03*
X0103354Y0263030D03*
X0103221Y0263030D03*
X0103088Y0263030D03*
X0102956Y0263030D03*
X0102823Y0263030D03*
X0101629Y0263163D03*
X0101496Y0263163D03*
X0101363Y0263163D03*
X0099373Y0263428D03*
X0099241Y0263428D03*
X0098444Y0263561D03*
X0098312Y0263561D03*
X0098179Y0263561D03*
X0097781Y0263693D03*
X0097648Y0263693D03*
X0097516Y0263693D03*
X0097250Y0263826D03*
X0097118Y0263826D03*
X0096985Y0263826D03*
X0096852Y0263958D03*
X0096720Y0263958D03*
X0096587Y0263958D03*
X0090617Y0295137D03*
X0088759Y0295005D03*
X0090086Y0320081D03*
X0090219Y0320081D03*
X0095128Y0319815D03*
X0097383Y0319683D03*
X0097648Y0231983D03*
X0097781Y0231983D03*
X0098312Y0231851D03*
X0098444Y0231851D03*
X0098577Y0231851D03*
X0100302Y0231718D03*
X0100435Y0231718D03*
X0122724Y0420517D03*
D45*
X0077880Y0441746D03*
D46*
X0078012Y0415542D03*
X0078145Y0415542D03*
X0110783Y0344693D03*
X0110916Y0344693D03*
X0114366Y0296531D03*
X0114498Y0296531D03*
X0114631Y0296531D03*
X0114764Y0296531D03*
X0114896Y0296531D03*
X0115029Y0296531D03*
X0115162Y0296531D03*
X0115294Y0296531D03*
X0118744Y0262167D03*
X0118877Y0262167D03*
X0119009Y0262167D03*
X0119142Y0262167D03*
X0119275Y0262167D03*
X0119407Y0262167D03*
X0119540Y0262167D03*
X0119673Y0262167D03*
X0119806Y0262167D03*
X0119938Y0262167D03*
X0120071Y0262167D03*
X0120204Y0262167D03*
X0118081Y0232050D03*
X0117948Y0232050D03*
X0114631Y0231652D03*
X0114498Y0231652D03*
X0114366Y0231652D03*
X0114233Y0231652D03*
X0114100Y0231652D03*
X0113968Y0231652D03*
X0113835Y0231652D03*
X0113702Y0231652D03*
X0113570Y0231652D03*
X0113437Y0231652D03*
X0113304Y0231652D03*
X0113172Y0231652D03*
X0113039Y0231652D03*
X0112906Y0231652D03*
X0112774Y0231652D03*
X0112641Y0231652D03*
X0112508Y0231652D03*
X0112376Y0231652D03*
X0112243Y0231652D03*
X0112110Y0231652D03*
X0111978Y0231652D03*
X0111845Y0231652D03*
X0111712Y0231652D03*
X0111580Y0231652D03*
X0111447Y0231652D03*
X0111314Y0231652D03*
X0111181Y0231652D03*
X0111049Y0231652D03*
X0110916Y0231652D03*
X0110783Y0231652D03*
X0110651Y0231652D03*
X0110518Y0231652D03*
X0110385Y0231652D03*
X0110253Y0231652D03*
X0110120Y0231652D03*
X0109987Y0231652D03*
X0109855Y0231652D03*
X0109722Y0231652D03*
X0109589Y0231652D03*
X0109457Y0231652D03*
X0109324Y0231652D03*
X0109191Y0231652D03*
X0109059Y0231652D03*
X0108926Y0231652D03*
X0108793Y0231652D03*
X0108661Y0231652D03*
X0108528Y0231652D03*
X0108395Y0231652D03*
X0108263Y0231652D03*
X0108130Y0231652D03*
X0107997Y0231652D03*
X0107865Y0231652D03*
X0107732Y0231652D03*
X0107599Y0231652D03*
X0107467Y0231652D03*
X0107334Y0231652D03*
X0107201Y0231652D03*
X0107069Y0231652D03*
X0106936Y0231652D03*
X0106803Y0231652D03*
X0106670Y0231652D03*
X0106538Y0231652D03*
X0106405Y0231652D03*
X0106272Y0231652D03*
X0106140Y0231652D03*
X0106007Y0231652D03*
X0105874Y0231652D03*
X0105742Y0231652D03*
X0105609Y0231652D03*
X0105476Y0231652D03*
X0105344Y0231652D03*
X0105211Y0231652D03*
X0105078Y0231652D03*
X0104946Y0231652D03*
X0104813Y0231652D03*
X0104680Y0231652D03*
X0104548Y0231652D03*
X0104415Y0231652D03*
X0104282Y0231652D03*
X0104150Y0231652D03*
X0104017Y0231652D03*
X0103884Y0231652D03*
X0103752Y0231652D03*
X0103619Y0231652D03*
X0103486Y0231652D03*
X0103354Y0231652D03*
X0103221Y0231652D03*
X0103088Y0231652D03*
X0102956Y0231652D03*
X0102823Y0231652D03*
X0102690Y0231652D03*
X0102557Y0231652D03*
X0102425Y0231652D03*
X0102292Y0231652D03*
X0102159Y0231652D03*
X0102027Y0231652D03*
X0101894Y0231652D03*
X0101761Y0231652D03*
X0101629Y0231652D03*
X0101496Y0231652D03*
X0101363Y0231652D03*
X0101231Y0231652D03*
X0101098Y0231652D03*
X0100965Y0231652D03*
X0100833Y0231652D03*
X0100700Y0231652D03*
X0100567Y0231652D03*
X0097516Y0232050D03*
X0097383Y0232050D03*
X0098577Y0263494D03*
X0098710Y0263494D03*
X0098843Y0263494D03*
X0098975Y0263494D03*
X0099108Y0263494D03*
X0098577Y0285120D03*
X0098444Y0285120D03*
X0098312Y0285120D03*
D47*
X0078012Y0441812D03*
D48*
X0078145Y0441879D03*
D49*
X0078278Y0415675D03*
X0078410Y0415675D03*
D50*
X0078278Y0441945D03*
D51*
X0078410Y0442011D03*
D52*
X0078543Y0415741D03*
D53*
X0078543Y0442078D03*
X0078676Y0442078D03*
D54*
X0078676Y0415807D03*
D55*
X0078808Y0415874D03*
X0126705Y0307742D03*
D56*
X0078808Y0442144D03*
D57*
X0078941Y0415940D03*
X0090086Y0462112D03*
D58*
X0078941Y0442210D03*
D59*
X0079074Y0416006D03*
D60*
X0079074Y0442277D03*
D61*
X0079206Y0416073D03*
X0087432Y0419920D03*
X0089820Y0462245D03*
X0115825Y0419920D03*
X0123919Y0419920D03*
X0124051Y0419920D03*
D62*
X0079206Y0442343D03*
D63*
X0079339Y0416139D03*
D64*
X0079339Y0442409D03*
D65*
X0079472Y0416205D03*
X0087167Y0419788D03*
X0089555Y0462377D03*
X0124317Y0419788D03*
D66*
X0079472Y0442476D03*
D67*
X0079604Y0416272D03*
D68*
X0079604Y0442542D03*
D69*
X0079737Y0416338D03*
D70*
X0079737Y0442608D03*
D71*
X0079870Y0416405D03*
D72*
X0079870Y0442675D03*
D73*
X0080002Y0416471D03*
D74*
X0080002Y0442741D03*
D75*
X0080135Y0416537D03*
X0080268Y0416537D03*
X0088626Y0462709D03*
X0088892Y0462709D03*
D76*
X0080135Y0442807D03*
D77*
X0080268Y0442874D03*
D78*
X0080400Y0416604D03*
D79*
X0080400Y0442940D03*
D80*
X0086106Y0419323D03*
X0080533Y0416670D03*
X0125245Y0419323D03*
D81*
X0080533Y0443006D03*
D82*
X0080666Y0416736D03*
D83*
X0080666Y0443073D03*
X0080798Y0443073D03*
D84*
X0085840Y0419191D03*
X0080798Y0416802D03*
X0125511Y0419191D03*
D85*
X0080931Y0416869D03*
D86*
X0080931Y0443139D03*
D87*
X0081064Y0416935D03*
D88*
X0081064Y0443206D03*
D89*
X0081196Y0417002D03*
D90*
X0081196Y0443272D03*
D91*
X0081329Y0417068D03*
D92*
X0081329Y0443338D03*
D93*
X0081462Y0417134D03*
D94*
X0081462Y0443405D03*
D95*
X0081594Y0417201D03*
D96*
X0081594Y0443471D03*
D97*
X0081727Y0417267D03*
D98*
X0081727Y0443537D03*
D99*
X0081860Y0417333D03*
D100*
X0081860Y0443603D03*
D101*
X0084646Y0418594D03*
X0081993Y0417399D03*
D102*
X0081993Y0443670D03*
D103*
X0082125Y0417466D03*
D104*
X0082125Y0443736D03*
D105*
X0082258Y0417532D03*
D106*
X0082258Y0443803D03*
D107*
X0082391Y0417599D03*
X0082523Y0417599D03*
D108*
X0082391Y0443869D03*
D109*
X0082523Y0443935D03*
D110*
X0082656Y0417665D03*
D111*
X0082656Y0444002D03*
D112*
X0082789Y0417798D03*
X0082921Y0417798D03*
D113*
X0082921Y0444068D03*
X0082789Y0444068D03*
D114*
X0083054Y0417864D03*
D115*
X0083054Y0444134D03*
D116*
X0083187Y0417930D03*
X0088626Y0377198D03*
X0104946Y0398294D03*
X0088626Y0297327D03*
D117*
X0083187Y0444200D03*
D118*
X0083319Y0444267D03*
D119*
X0083452Y0418063D03*
X0088759Y0241204D03*
D120*
X0083452Y0444333D03*
D121*
X0083585Y0418129D03*
D122*
X0083585Y0444400D03*
D123*
X0083717Y0418196D03*
D124*
X0083717Y0444466D03*
D125*
X0083850Y0418262D03*
X0104946Y0316233D03*
D126*
X0083850Y0444532D03*
D127*
X0083983Y0418328D03*
D128*
X0083983Y0444599D03*
D129*
X0084115Y0418395D03*
D130*
X0084115Y0444665D03*
D131*
X0084248Y0418461D03*
D132*
X0084248Y0444731D03*
D133*
X0084381Y0418527D03*
X0084513Y0418527D03*
D134*
X0084381Y0444797D03*
D135*
X0084513Y0444864D03*
D136*
X0084646Y0444930D03*
D137*
X0084779Y0418660D03*
X0126572Y0418660D03*
X0126705Y0418660D03*
D138*
X0084779Y0444997D03*
D139*
X0084911Y0418726D03*
X0126439Y0418726D03*
D140*
X0084911Y0445063D03*
D141*
X0085044Y0418793D03*
D142*
X0085044Y0445129D03*
D143*
X0085177Y0418859D03*
X0126307Y0418859D03*
D144*
X0085309Y0445196D03*
X0085177Y0445196D03*
D145*
X0085309Y0418925D03*
X0126041Y0418925D03*
X0126174Y0418925D03*
D146*
X0125909Y0418992D03*
X0085442Y0418992D03*
D147*
X0085442Y0445262D03*
D148*
X0085575Y0419058D03*
X0125776Y0419058D03*
D149*
X0085575Y0445328D03*
D150*
X0085707Y0419124D03*
X0125643Y0419124D03*
D151*
X0085707Y0445394D03*
D152*
X0085840Y0445461D03*
D153*
X0085973Y0419257D03*
X0125378Y0419257D03*
D154*
X0085973Y0445527D03*
D155*
X0086106Y0445594D03*
D156*
X0088759Y0462775D03*
X0086238Y0419390D03*
X0125113Y0419390D03*
D157*
X0086238Y0445660D03*
D158*
X0086371Y0419456D03*
X0124980Y0419456D03*
D159*
X0086371Y0445726D03*
D160*
X0089024Y0462643D03*
X0086504Y0419522D03*
X0124847Y0419522D03*
D161*
X0086504Y0445793D03*
D162*
X0086636Y0419589D03*
X0124715Y0419589D03*
D163*
X0086636Y0445859D03*
D164*
X0086769Y0419655D03*
X0086902Y0419655D03*
X0124582Y0419655D03*
D165*
X0086769Y0445925D03*
D166*
X0086902Y0445992D03*
D167*
X0087034Y0419721D03*
X0124449Y0419721D03*
D168*
X0087167Y0446058D03*
X0087034Y0446058D03*
D169*
X0087300Y0419854D03*
X0097516Y0419854D03*
X0097648Y0419854D03*
X0097781Y0419854D03*
X0097914Y0419854D03*
X0098046Y0419854D03*
X0098179Y0419854D03*
X0098312Y0419854D03*
X0098444Y0419854D03*
X0098577Y0419854D03*
X0098710Y0419854D03*
X0098843Y0419854D03*
X0098975Y0419854D03*
X0099108Y0419854D03*
X0099241Y0419854D03*
X0099373Y0419854D03*
X0099506Y0419854D03*
X0099639Y0419854D03*
X0099771Y0419854D03*
X0099904Y0419854D03*
X0100037Y0419854D03*
X0100169Y0419854D03*
X0100302Y0419854D03*
X0100435Y0419854D03*
X0100567Y0419854D03*
X0100700Y0419854D03*
X0100833Y0419854D03*
X0100965Y0419854D03*
X0101098Y0419854D03*
X0101231Y0419854D03*
X0101363Y0419854D03*
X0101496Y0419854D03*
X0101629Y0419854D03*
X0101761Y0419854D03*
X0101894Y0419854D03*
X0102027Y0419854D03*
X0102159Y0419854D03*
X0102292Y0419854D03*
X0102425Y0419854D03*
X0102557Y0419854D03*
X0102690Y0419854D03*
X0102823Y0419854D03*
X0102956Y0419854D03*
X0103088Y0419854D03*
X0103221Y0419854D03*
X0103354Y0419854D03*
X0103486Y0419854D03*
X0103619Y0419854D03*
X0103752Y0419854D03*
X0103884Y0419854D03*
X0104017Y0419854D03*
X0104150Y0419854D03*
X0104282Y0419854D03*
X0104415Y0419854D03*
X0104548Y0419854D03*
X0104680Y0419854D03*
X0104813Y0419854D03*
X0104946Y0419854D03*
X0105078Y0419854D03*
X0105211Y0419854D03*
X0105344Y0419854D03*
X0105476Y0419854D03*
X0105609Y0419854D03*
X0105742Y0419854D03*
X0105874Y0419854D03*
X0106007Y0419854D03*
X0106140Y0419854D03*
X0106272Y0419854D03*
X0106405Y0419854D03*
X0106538Y0419854D03*
X0106670Y0419854D03*
X0106803Y0419854D03*
X0106936Y0419854D03*
X0107069Y0419854D03*
X0107201Y0419854D03*
X0107334Y0419854D03*
X0107467Y0419854D03*
X0107599Y0419854D03*
X0107732Y0419854D03*
X0107865Y0419854D03*
X0107997Y0419854D03*
X0108130Y0419854D03*
X0108263Y0419854D03*
X0108395Y0419854D03*
X0108528Y0419854D03*
X0108661Y0419854D03*
X0108793Y0419854D03*
X0108926Y0419854D03*
X0109059Y0419854D03*
X0109191Y0419854D03*
X0109324Y0419854D03*
X0109457Y0419854D03*
X0109589Y0419854D03*
X0109722Y0419854D03*
X0109855Y0419854D03*
X0109987Y0419854D03*
X0110120Y0419854D03*
X0110253Y0419854D03*
X0110385Y0419854D03*
X0110518Y0419854D03*
X0110651Y0419854D03*
X0110783Y0419854D03*
X0110916Y0419854D03*
X0111049Y0419854D03*
X0111181Y0419854D03*
X0111314Y0419854D03*
X0111447Y0419854D03*
X0111580Y0419854D03*
X0111712Y0419854D03*
X0111845Y0419854D03*
X0111978Y0419854D03*
X0112110Y0419854D03*
X0112243Y0419854D03*
X0112376Y0419854D03*
X0112508Y0419854D03*
X0112641Y0419854D03*
X0112774Y0419854D03*
X0112906Y0419854D03*
X0113039Y0419854D03*
X0113172Y0419854D03*
X0113304Y0419854D03*
X0113437Y0419854D03*
X0113570Y0419854D03*
X0113702Y0419854D03*
X0113835Y0419854D03*
X0113968Y0419854D03*
X0114100Y0419854D03*
X0114233Y0419854D03*
X0114366Y0419854D03*
X0114498Y0419854D03*
X0114631Y0419854D03*
X0114764Y0419854D03*
X0114896Y0419854D03*
X0115029Y0419854D03*
X0115162Y0419854D03*
X0115294Y0419854D03*
X0115427Y0419854D03*
X0115560Y0419854D03*
X0115693Y0419854D03*
X0115958Y0419854D03*
X0116091Y0419854D03*
X0116223Y0419854D03*
X0124184Y0419854D03*
D170*
X0087300Y0446191D03*
D171*
X0087432Y0446257D03*
X0087565Y0446257D03*
D172*
X0087565Y0419987D03*
X0123786Y0419987D03*
D173*
X0123653Y0420053D03*
X0087698Y0420053D03*
D174*
X0087698Y0446323D03*
D175*
X0090219Y0462045D03*
X0087830Y0420119D03*
X0123520Y0420119D03*
D176*
X0087830Y0446390D03*
D177*
X0087963Y0420186D03*
X0123388Y0420186D03*
D178*
X0087963Y0446456D03*
D179*
X0088096Y0420252D03*
X0104150Y0351526D03*
X0104282Y0351526D03*
X0104415Y0351526D03*
X0117948Y0351393D03*
X0118081Y0351393D03*
X0118213Y0351393D03*
X0118346Y0351393D03*
X0118479Y0351393D03*
X0118611Y0351393D03*
X0118744Y0351393D03*
X0118877Y0351393D03*
X0119009Y0351393D03*
X0119142Y0351393D03*
X0119275Y0351393D03*
X0119407Y0351393D03*
X0119540Y0351393D03*
X0119673Y0351393D03*
X0119806Y0351393D03*
X0119938Y0351393D03*
X0120071Y0351393D03*
X0120204Y0351393D03*
X0120336Y0351393D03*
X0120469Y0351393D03*
X0120602Y0351393D03*
X0120734Y0351393D03*
X0120867Y0351393D03*
X0121000Y0351393D03*
X0121132Y0351393D03*
X0121265Y0351393D03*
X0121398Y0351393D03*
X0121530Y0351393D03*
X0121663Y0351393D03*
X0121796Y0351393D03*
X0121928Y0351393D03*
X0122061Y0351393D03*
X0122194Y0351393D03*
X0122326Y0351393D03*
X0122459Y0351393D03*
X0122592Y0351393D03*
X0122724Y0351393D03*
X0122857Y0351393D03*
X0122990Y0351393D03*
X0123122Y0351393D03*
X0126705Y0351393D03*
X0123255Y0420252D03*
D180*
X0088096Y0446522D03*
D181*
X0088228Y0420319D03*
X0123122Y0420319D03*
D182*
X0088228Y0446589D03*
D183*
X0090882Y0461780D03*
X0088361Y0420385D03*
X0093005Y0395176D03*
X0093137Y0395176D03*
X0093270Y0395176D03*
X0093403Y0395176D03*
X0104150Y0395176D03*
X0104813Y0395176D03*
X0109324Y0395176D03*
X0109457Y0395176D03*
X0110120Y0395176D03*
X0110253Y0395176D03*
X0110385Y0395176D03*
X0119009Y0395176D03*
X0119142Y0395176D03*
X0121530Y0374876D03*
X0121663Y0374876D03*
X0121796Y0374876D03*
X0122326Y0374876D03*
X0126572Y0351393D03*
X0112508Y0296331D03*
X0114366Y0286248D03*
X0114764Y0286248D03*
X0102425Y0319418D03*
X0102292Y0319418D03*
X0097914Y0295536D03*
X0122990Y0420385D03*
D184*
X0088361Y0446655D03*
D185*
X0088494Y0420451D03*
X0093535Y0395243D03*
X0093668Y0395243D03*
X0093801Y0395243D03*
X0093933Y0395243D03*
X0094066Y0395243D03*
X0094199Y0395243D03*
X0094331Y0395243D03*
X0094464Y0395243D03*
X0094597Y0395243D03*
X0094730Y0395243D03*
X0094862Y0395243D03*
X0094995Y0395243D03*
X0095128Y0395243D03*
X0095260Y0395243D03*
X0095393Y0395243D03*
X0095526Y0395243D03*
X0095658Y0395243D03*
X0095791Y0395243D03*
X0095924Y0395243D03*
X0096056Y0395243D03*
X0096189Y0395243D03*
X0096322Y0395243D03*
X0096454Y0395243D03*
X0096587Y0395243D03*
X0096720Y0395243D03*
X0096852Y0395243D03*
X0096985Y0395243D03*
X0097118Y0395243D03*
X0097250Y0395243D03*
X0097383Y0395243D03*
X0097516Y0395243D03*
X0097648Y0395243D03*
X0097781Y0395243D03*
X0097914Y0395243D03*
X0098046Y0395243D03*
X0098179Y0395243D03*
X0098312Y0395243D03*
X0098444Y0395243D03*
X0098577Y0395243D03*
X0098710Y0395243D03*
X0098843Y0395243D03*
X0098975Y0395243D03*
X0099108Y0395243D03*
X0099241Y0395243D03*
X0099373Y0395243D03*
X0099506Y0395243D03*
X0099639Y0395243D03*
X0099771Y0395243D03*
X0099904Y0395243D03*
X0100037Y0395243D03*
X0100169Y0395243D03*
X0100302Y0395243D03*
X0100435Y0395243D03*
X0100567Y0395243D03*
X0100700Y0395243D03*
X0100833Y0395243D03*
X0100965Y0395243D03*
X0101098Y0395243D03*
X0101231Y0395243D03*
X0101363Y0395243D03*
X0101496Y0395243D03*
X0101629Y0395243D03*
X0101761Y0395243D03*
X0101894Y0395243D03*
X0102027Y0395243D03*
X0102159Y0395243D03*
X0102292Y0395243D03*
X0102425Y0395243D03*
X0102557Y0395243D03*
X0102690Y0395243D03*
X0102823Y0395243D03*
X0102956Y0395243D03*
X0103088Y0395243D03*
X0103221Y0395243D03*
X0103354Y0395243D03*
X0103486Y0395243D03*
X0103619Y0395243D03*
X0103752Y0395243D03*
X0103884Y0395243D03*
X0104017Y0395243D03*
X0104282Y0395243D03*
X0104415Y0395243D03*
X0104548Y0395243D03*
X0104680Y0395243D03*
X0104946Y0395243D03*
X0109589Y0395243D03*
X0109722Y0395243D03*
X0109855Y0395243D03*
X0109987Y0395243D03*
X0110518Y0395243D03*
X0110651Y0395243D03*
X0110783Y0395243D03*
X0110916Y0395243D03*
X0111049Y0395243D03*
X0111181Y0395243D03*
X0111314Y0395243D03*
X0111447Y0395243D03*
X0111580Y0395243D03*
X0111712Y0395243D03*
X0111845Y0395243D03*
X0111978Y0395243D03*
X0112110Y0395243D03*
X0112243Y0395243D03*
X0112376Y0395243D03*
X0112508Y0395243D03*
X0112641Y0395243D03*
X0112774Y0395243D03*
X0112906Y0395243D03*
X0113039Y0395243D03*
X0113172Y0395243D03*
X0113304Y0395243D03*
X0113437Y0395243D03*
X0113570Y0395243D03*
X0113702Y0395243D03*
X0113835Y0395243D03*
X0113968Y0395243D03*
X0114100Y0395243D03*
X0114233Y0395243D03*
X0114366Y0395243D03*
X0114498Y0395243D03*
X0114631Y0395243D03*
X0114764Y0395243D03*
X0114896Y0395243D03*
X0115029Y0395243D03*
X0115162Y0395243D03*
X0115294Y0395243D03*
X0115427Y0395243D03*
X0115560Y0395243D03*
X0115693Y0395243D03*
X0115825Y0395243D03*
X0115958Y0395243D03*
X0116091Y0395243D03*
X0116223Y0395243D03*
X0116356Y0395243D03*
X0116489Y0395243D03*
X0116621Y0395243D03*
X0116754Y0395243D03*
X0116887Y0395243D03*
X0117019Y0395243D03*
X0117152Y0395243D03*
X0117285Y0395243D03*
X0117417Y0395243D03*
X0117550Y0395243D03*
X0117683Y0395243D03*
X0117815Y0395243D03*
X0117948Y0395243D03*
X0118081Y0395243D03*
X0118213Y0395243D03*
X0118346Y0395243D03*
X0118479Y0395243D03*
X0118611Y0395243D03*
X0118744Y0395243D03*
X0118877Y0395243D03*
X0119275Y0395243D03*
X0119407Y0395243D03*
X0119540Y0395243D03*
X0119673Y0395243D03*
X0119673Y0374943D03*
X0119806Y0374943D03*
X0119938Y0374943D03*
X0120071Y0374943D03*
X0120204Y0374943D03*
X0120336Y0374943D03*
X0120469Y0374943D03*
X0120602Y0374943D03*
X0120734Y0374943D03*
X0120867Y0374943D03*
X0121000Y0374943D03*
X0121132Y0374943D03*
X0121265Y0374943D03*
X0121398Y0374943D03*
X0121928Y0374943D03*
X0122061Y0374943D03*
X0122194Y0374943D03*
X0119540Y0374943D03*
X0119407Y0374943D03*
X0119275Y0374943D03*
X0119142Y0374943D03*
X0119009Y0374943D03*
X0118877Y0374943D03*
X0118744Y0374943D03*
X0118611Y0374943D03*
X0118479Y0374943D03*
X0118346Y0374943D03*
X0118213Y0374943D03*
X0118081Y0374943D03*
X0117948Y0374943D03*
X0117815Y0374943D03*
X0117683Y0374943D03*
X0117550Y0374943D03*
X0117417Y0374943D03*
X0117285Y0374943D03*
X0117152Y0374943D03*
X0117019Y0374943D03*
X0116887Y0374943D03*
X0116754Y0374943D03*
X0116621Y0374943D03*
X0116489Y0374943D03*
X0116356Y0374943D03*
X0116223Y0374943D03*
X0116091Y0374943D03*
X0115958Y0374943D03*
X0115825Y0374943D03*
X0115693Y0374943D03*
X0115560Y0374943D03*
X0115427Y0374943D03*
X0115294Y0374943D03*
X0115162Y0374943D03*
X0115029Y0374943D03*
X0114896Y0374943D03*
X0114764Y0374943D03*
X0114631Y0374943D03*
X0114498Y0374943D03*
X0114366Y0374943D03*
X0114233Y0374943D03*
X0114100Y0374943D03*
X0113968Y0374943D03*
X0113835Y0374943D03*
X0113702Y0374943D03*
X0113570Y0374943D03*
X0113437Y0374943D03*
X0113304Y0374943D03*
X0113172Y0374943D03*
X0113039Y0374943D03*
X0112906Y0374943D03*
X0112774Y0374943D03*
X0112641Y0374943D03*
X0112508Y0374943D03*
X0112376Y0374943D03*
X0112243Y0374943D03*
X0112110Y0374943D03*
X0111978Y0374943D03*
X0111845Y0374943D03*
X0111712Y0374943D03*
X0111580Y0374943D03*
X0111447Y0374943D03*
X0111314Y0374943D03*
X0111181Y0374943D03*
X0111049Y0374943D03*
X0110916Y0374943D03*
X0110783Y0374943D03*
X0110651Y0374943D03*
X0110518Y0374943D03*
X0110385Y0374943D03*
X0110253Y0374943D03*
X0110120Y0374943D03*
X0109987Y0374943D03*
X0109855Y0374943D03*
X0109722Y0374943D03*
X0109589Y0374943D03*
X0109457Y0374943D03*
X0109324Y0374943D03*
X0109191Y0374943D03*
X0109059Y0374943D03*
X0108926Y0374943D03*
X0108793Y0374943D03*
X0108661Y0374943D03*
X0108528Y0374943D03*
X0108395Y0374943D03*
X0108263Y0374943D03*
X0108130Y0374943D03*
X0107997Y0374943D03*
X0107865Y0374943D03*
X0107732Y0374943D03*
X0107599Y0374943D03*
X0107467Y0374943D03*
X0107334Y0374943D03*
X0107201Y0374943D03*
X0107069Y0374943D03*
X0106936Y0374943D03*
X0106803Y0374943D03*
X0106670Y0374943D03*
X0106538Y0374943D03*
X0106405Y0374943D03*
X0106272Y0374943D03*
X0106140Y0374943D03*
X0106007Y0374943D03*
X0105874Y0374943D03*
X0105742Y0374943D03*
X0105609Y0374943D03*
X0105476Y0374943D03*
X0105344Y0374943D03*
X0105211Y0374943D03*
X0105078Y0374943D03*
X0104946Y0374943D03*
X0104813Y0374943D03*
X0104680Y0374943D03*
X0104548Y0374943D03*
X0104415Y0374943D03*
X0104282Y0374943D03*
X0104150Y0374943D03*
X0104017Y0374943D03*
X0103884Y0374943D03*
X0103752Y0374943D03*
X0103619Y0374943D03*
X0103486Y0374943D03*
X0103354Y0374943D03*
X0103221Y0374943D03*
X0103088Y0374943D03*
X0102956Y0374943D03*
X0102823Y0374943D03*
X0102690Y0374943D03*
X0102557Y0374943D03*
X0102425Y0374943D03*
X0102292Y0374943D03*
X0102159Y0374943D03*
X0102027Y0374943D03*
X0101894Y0374943D03*
X0101761Y0374943D03*
X0101629Y0374943D03*
X0101496Y0374943D03*
X0101363Y0374943D03*
X0101231Y0374943D03*
X0101098Y0374943D03*
X0100965Y0374943D03*
X0100833Y0374943D03*
X0100700Y0374943D03*
X0100567Y0374943D03*
X0100435Y0374943D03*
X0100302Y0374943D03*
X0100169Y0374943D03*
X0100037Y0374943D03*
X0099904Y0374943D03*
X0099771Y0374943D03*
X0099639Y0374943D03*
X0099506Y0374943D03*
X0099373Y0374943D03*
X0099241Y0374943D03*
X0099108Y0374943D03*
X0098975Y0374943D03*
X0098843Y0374943D03*
X0098710Y0374943D03*
X0098577Y0374943D03*
X0098444Y0374943D03*
X0098312Y0374943D03*
X0098179Y0374943D03*
X0098046Y0374943D03*
X0097914Y0374943D03*
X0097781Y0374943D03*
X0097648Y0374943D03*
X0097516Y0374943D03*
X0097383Y0374943D03*
X0097250Y0374943D03*
X0097118Y0374943D03*
X0096985Y0374943D03*
X0096852Y0374943D03*
X0096720Y0374943D03*
X0096587Y0374943D03*
X0096454Y0374943D03*
X0096322Y0374943D03*
X0096189Y0374943D03*
X0096056Y0374943D03*
X0095924Y0374943D03*
X0095791Y0374943D03*
X0095658Y0374943D03*
X0095526Y0374943D03*
X0095393Y0374943D03*
X0095260Y0374943D03*
X0095128Y0374943D03*
X0094995Y0374943D03*
X0094862Y0374943D03*
X0094730Y0374943D03*
X0094597Y0374943D03*
X0094464Y0374943D03*
X0094331Y0374943D03*
X0094199Y0374943D03*
X0094066Y0374943D03*
X0093933Y0374943D03*
X0093801Y0374943D03*
X0093668Y0374943D03*
X0093535Y0374943D03*
X0093403Y0374943D03*
X0093270Y0374943D03*
X0093137Y0374943D03*
X0093005Y0374943D03*
X0092872Y0374943D03*
X0092739Y0374943D03*
X0092607Y0374943D03*
X0092474Y0374943D03*
X0092341Y0374943D03*
X0092209Y0374943D03*
X0092076Y0374943D03*
X0091943Y0374943D03*
X0091811Y0374943D03*
X0091678Y0374943D03*
X0091545Y0374943D03*
X0091413Y0374943D03*
X0091280Y0374943D03*
X0091147Y0374943D03*
X0091015Y0374943D03*
X0090882Y0374943D03*
X0090749Y0374943D03*
X0090617Y0374943D03*
X0090484Y0374943D03*
X0090351Y0374943D03*
X0090219Y0374943D03*
X0090086Y0374943D03*
X0089953Y0374943D03*
X0089820Y0374943D03*
X0089688Y0374943D03*
X0089555Y0374943D03*
X0089422Y0374943D03*
X0089290Y0374943D03*
X0089157Y0374943D03*
X0089024Y0374943D03*
X0088892Y0374943D03*
X0088759Y0374943D03*
X0101231Y0285519D03*
X0101363Y0285519D03*
X0101496Y0285519D03*
X0101629Y0285519D03*
X0101761Y0285519D03*
X0101894Y0285519D03*
X0102027Y0285519D03*
X0102159Y0285519D03*
X0102292Y0285519D03*
X0098179Y0231917D03*
X0098046Y0231917D03*
X0097914Y0231917D03*
X0117152Y0231917D03*
X0117285Y0231917D03*
X0117417Y0231917D03*
X0117550Y0231917D03*
X0120336Y0262035D03*
X0120469Y0262035D03*
X0120602Y0262035D03*
X0120734Y0262035D03*
X0120867Y0262035D03*
X0121000Y0262035D03*
X0121132Y0262035D03*
X0121265Y0262035D03*
X0121398Y0262035D03*
X0121530Y0262035D03*
X0121663Y0262035D03*
X0121796Y0262035D03*
X0121928Y0262035D03*
X0122061Y0262035D03*
X0122194Y0262035D03*
X0122326Y0262035D03*
X0122459Y0262035D03*
X0122592Y0262035D03*
X0122724Y0262035D03*
X0125776Y0261769D03*
X0125909Y0261769D03*
X0126041Y0261769D03*
X0126174Y0261769D03*
X0126307Y0261769D03*
X0126439Y0261769D03*
X0126572Y0261769D03*
X0126705Y0261769D03*
X0115427Y0343100D03*
X0122857Y0420451D03*
D186*
X0088494Y0446721D03*
D187*
X0088626Y0352985D03*
D188*
X0088626Y0445262D03*
D189*
X0097648Y0458596D03*
X0126174Y0458596D03*
X0126307Y0458596D03*
X0088759Y0246976D03*
D190*
X0093933Y0265418D03*
X0088759Y0274440D03*
X0093933Y0283196D03*
X0094199Y0233576D03*
X0121265Y0233576D03*
X0121530Y0316366D03*
X0091943Y0350862D03*
X0091811Y0350862D03*
X0091678Y0350862D03*
X0092209Y0461117D03*
D191*
X0091015Y0461714D03*
X0104150Y0346683D03*
X0104282Y0346550D03*
X0104415Y0346550D03*
X0104548Y0346550D03*
X0104813Y0346418D03*
X0104946Y0346418D03*
X0105078Y0346418D03*
X0105211Y0346285D03*
X0105344Y0346285D03*
X0105476Y0346285D03*
X0105742Y0346152D03*
X0105874Y0346152D03*
X0106140Y0346019D03*
X0106272Y0346019D03*
X0106405Y0346019D03*
X0106670Y0345886D03*
X0106803Y0345886D03*
X0107069Y0345754D03*
X0107201Y0345754D03*
X0107334Y0345754D03*
X0107599Y0345621D03*
X0107997Y0345489D03*
X0108130Y0345489D03*
X0108528Y0345356D03*
X0108661Y0345356D03*
X0108926Y0345223D03*
X0109059Y0345223D03*
X0109457Y0345091D03*
X0109589Y0345091D03*
X0109855Y0344958D03*
X0109987Y0344958D03*
X0110253Y0344825D03*
X0110385Y0344825D03*
X0110518Y0344825D03*
X0111181Y0344560D03*
X0111314Y0344560D03*
X0111447Y0344560D03*
X0111580Y0344427D03*
X0111712Y0344427D03*
X0111845Y0344427D03*
X0112110Y0344295D03*
X0112243Y0344295D03*
X0112508Y0344162D03*
X0112641Y0344162D03*
X0112774Y0344162D03*
X0113039Y0344029D03*
X0113304Y0343897D03*
X0113702Y0343764D03*
X0113835Y0343764D03*
X0114100Y0343631D03*
X0114764Y0343366D03*
X0115029Y0343233D03*
X0115162Y0343233D03*
X0113835Y0318821D03*
X0113702Y0318821D03*
X0113570Y0318821D03*
X0113437Y0318821D03*
X0113304Y0318821D03*
X0113172Y0318821D03*
X0113039Y0318821D03*
X0112906Y0318821D03*
X0112774Y0318821D03*
X0112641Y0318821D03*
X0112508Y0318821D03*
X0112376Y0318821D03*
X0112243Y0318821D03*
X0112110Y0318821D03*
X0111978Y0318821D03*
X0111712Y0318953D03*
X0111580Y0318953D03*
X0111447Y0318953D03*
X0111314Y0318953D03*
X0111181Y0318953D03*
X0111049Y0318953D03*
X0110916Y0318953D03*
X0110783Y0318953D03*
X0110651Y0318953D03*
X0110518Y0318953D03*
X0110385Y0318953D03*
X0110253Y0318953D03*
X0110120Y0318953D03*
X0109987Y0318953D03*
X0109457Y0319086D03*
X0109324Y0319086D03*
X0109191Y0319086D03*
X0104813Y0319351D03*
X0104680Y0319351D03*
X0104548Y0319351D03*
X0104415Y0319351D03*
X0104282Y0319351D03*
X0104150Y0319351D03*
X0104017Y0319351D03*
X0103884Y0319351D03*
X0103752Y0319351D03*
X0103619Y0319351D03*
X0103486Y0319351D03*
X0103354Y0319351D03*
X0103221Y0319351D03*
X0103088Y0319351D03*
X0102956Y0319351D03*
X0102823Y0319351D03*
X0102690Y0319351D03*
X0102557Y0319351D03*
X0102159Y0319484D03*
X0102027Y0319484D03*
X0101894Y0319484D03*
X0101761Y0319484D03*
X0101629Y0319484D03*
X0101496Y0319484D03*
X0101363Y0319484D03*
X0101231Y0319484D03*
X0101098Y0319484D03*
X0100965Y0319484D03*
X0100037Y0319616D03*
X0099904Y0319616D03*
X0099771Y0319616D03*
X0099639Y0319616D03*
X0099506Y0319616D03*
X0099373Y0319616D03*
X0099241Y0319616D03*
X0099108Y0319616D03*
X0098975Y0319616D03*
X0098843Y0319616D03*
X0098710Y0319616D03*
X0098577Y0319616D03*
X0098444Y0319616D03*
X0098312Y0319616D03*
X0098179Y0319616D03*
X0098046Y0319616D03*
X0097914Y0319616D03*
X0097781Y0319616D03*
X0097648Y0319616D03*
X0097516Y0319616D03*
X0097250Y0319749D03*
X0097118Y0319749D03*
X0096985Y0319749D03*
X0096852Y0319749D03*
X0096720Y0319749D03*
X0096587Y0319749D03*
X0096454Y0319749D03*
X0096322Y0319749D03*
X0096189Y0319749D03*
X0096056Y0319749D03*
X0095924Y0319749D03*
X0095791Y0319749D03*
X0095658Y0319749D03*
X0095526Y0319749D03*
X0095393Y0319749D03*
X0095260Y0319749D03*
X0094995Y0319882D03*
X0094862Y0319882D03*
X0094730Y0319882D03*
X0094597Y0319882D03*
X0094464Y0319882D03*
X0094331Y0319882D03*
X0094199Y0319882D03*
X0094066Y0319882D03*
X0093933Y0319882D03*
X0093801Y0319882D03*
X0093668Y0319882D03*
X0093535Y0319882D03*
X0093403Y0319882D03*
X0093270Y0319882D03*
X0093137Y0319882D03*
X0093005Y0319882D03*
X0092872Y0319882D03*
X0092739Y0319882D03*
X0092474Y0320015D03*
X0092341Y0320015D03*
X0092209Y0320015D03*
X0092076Y0320015D03*
X0091943Y0320015D03*
X0091811Y0320015D03*
X0091678Y0320015D03*
X0091545Y0320015D03*
X0091413Y0320015D03*
X0091280Y0320015D03*
X0091147Y0320015D03*
X0091015Y0320015D03*
X0090882Y0320015D03*
X0090749Y0320015D03*
X0090617Y0320015D03*
X0090484Y0320015D03*
X0090351Y0320015D03*
X0089953Y0320147D03*
X0089820Y0320147D03*
X0089688Y0320147D03*
X0089555Y0320147D03*
X0089422Y0320147D03*
X0089290Y0320147D03*
X0089157Y0320147D03*
X0089024Y0320147D03*
X0088892Y0320147D03*
X0088759Y0320147D03*
X0090749Y0295204D03*
X0090882Y0295204D03*
X0091015Y0295204D03*
X0091147Y0295204D03*
X0091280Y0295204D03*
X0091413Y0295204D03*
X0091545Y0295204D03*
X0091678Y0295204D03*
X0091811Y0295204D03*
X0091943Y0295204D03*
X0092076Y0295204D03*
X0092209Y0295204D03*
X0092341Y0295204D03*
X0092474Y0295204D03*
X0092607Y0295204D03*
X0092739Y0295204D03*
X0092872Y0295204D03*
X0093005Y0295337D03*
X0093137Y0295337D03*
X0093270Y0295337D03*
X0093403Y0295337D03*
X0093535Y0295337D03*
X0093668Y0295337D03*
X0093801Y0295337D03*
X0093933Y0295337D03*
X0094066Y0295337D03*
X0094199Y0295337D03*
X0094331Y0295337D03*
X0094464Y0295337D03*
X0094597Y0295337D03*
X0094730Y0295337D03*
X0094862Y0295337D03*
X0094995Y0295337D03*
X0095128Y0295337D03*
X0095260Y0295337D03*
X0095658Y0295469D03*
X0095791Y0295469D03*
X0095924Y0295469D03*
X0096056Y0295469D03*
X0096189Y0295469D03*
X0096322Y0295469D03*
X0096454Y0295469D03*
X0096587Y0295469D03*
X0096720Y0295469D03*
X0096852Y0295469D03*
X0096985Y0295469D03*
X0097118Y0295469D03*
X0097250Y0295469D03*
X0097383Y0295469D03*
X0097516Y0295469D03*
X0097781Y0295469D03*
X0098046Y0295602D03*
X0098179Y0295602D03*
X0098312Y0295602D03*
X0098444Y0295602D03*
X0098577Y0295602D03*
X0098710Y0295602D03*
X0098843Y0295602D03*
X0098975Y0295602D03*
X0099108Y0295602D03*
X0099241Y0295602D03*
X0099373Y0295602D03*
X0099506Y0295602D03*
X0099639Y0295602D03*
X0099771Y0295602D03*
X0099904Y0295602D03*
X0100037Y0295602D03*
X0100169Y0295602D03*
X0100435Y0295735D03*
X0100567Y0295735D03*
X0100700Y0295735D03*
X0100833Y0295735D03*
X0100965Y0295735D03*
X0101098Y0295735D03*
X0101231Y0295735D03*
X0101363Y0295735D03*
X0101496Y0295735D03*
X0101629Y0295735D03*
X0101761Y0295735D03*
X0101894Y0295735D03*
X0102027Y0295735D03*
X0102159Y0295735D03*
X0102292Y0295735D03*
X0102425Y0295735D03*
X0102557Y0295735D03*
X0102690Y0295868D03*
X0102823Y0295868D03*
X0102956Y0295868D03*
X0103088Y0295868D03*
X0103221Y0295868D03*
X0103354Y0295868D03*
X0103486Y0295868D03*
X0103619Y0295868D03*
X0103752Y0295868D03*
X0103884Y0295868D03*
X0104017Y0295868D03*
X0104150Y0295868D03*
X0104282Y0295868D03*
X0104415Y0295868D03*
X0104548Y0295868D03*
X0104680Y0295868D03*
X0104813Y0295868D03*
X0105211Y0285784D03*
X0105344Y0285784D03*
X0105476Y0285784D03*
X0105609Y0285784D03*
X0105742Y0285784D03*
X0105874Y0285784D03*
X0106007Y0285784D03*
X0106140Y0285784D03*
X0106272Y0285784D03*
X0106405Y0285784D03*
X0106538Y0285784D03*
X0106670Y0285784D03*
X0106803Y0285784D03*
X0106936Y0285784D03*
X0107069Y0285784D03*
X0107201Y0285784D03*
X0107732Y0285917D03*
X0107865Y0285917D03*
X0107997Y0285917D03*
X0108130Y0285917D03*
X0108263Y0285917D03*
X0108395Y0285917D03*
X0108528Y0285917D03*
X0108661Y0285917D03*
X0108793Y0285917D03*
X0108926Y0285917D03*
X0109059Y0285917D03*
X0109191Y0285917D03*
X0109324Y0285917D03*
X0109457Y0285917D03*
X0109589Y0285917D03*
X0109987Y0286049D03*
X0110120Y0286049D03*
X0110253Y0286049D03*
X0110385Y0286049D03*
X0110518Y0286049D03*
X0110651Y0286049D03*
X0110783Y0286049D03*
X0110916Y0286049D03*
X0111049Y0286049D03*
X0111181Y0286049D03*
X0111314Y0286049D03*
X0111447Y0286049D03*
X0111580Y0286049D03*
X0111712Y0286049D03*
X0111845Y0286049D03*
X0111978Y0286049D03*
X0113039Y0286182D03*
X0113172Y0286182D03*
X0113304Y0286182D03*
X0113437Y0286182D03*
X0113570Y0286182D03*
X0113702Y0286182D03*
X0113835Y0286182D03*
X0113968Y0286182D03*
X0114100Y0286182D03*
X0114233Y0286182D03*
X0114498Y0286314D03*
X0114631Y0286314D03*
X0114896Y0286314D03*
X0115029Y0286314D03*
X0115162Y0286314D03*
X0115294Y0286314D03*
X0115427Y0286314D03*
X0115560Y0286314D03*
X0115693Y0286314D03*
X0115825Y0286314D03*
X0115958Y0286314D03*
X0116091Y0286314D03*
X0116223Y0286314D03*
X0116356Y0286314D03*
X0116489Y0286314D03*
X0116621Y0286314D03*
X0116754Y0286314D03*
X0117550Y0286447D03*
X0117683Y0286447D03*
X0117815Y0286447D03*
X0117948Y0286447D03*
X0118081Y0286447D03*
X0118213Y0286447D03*
X0118346Y0286447D03*
X0118479Y0286447D03*
X0118611Y0286447D03*
X0118744Y0286447D03*
X0118877Y0286447D03*
X0119009Y0286447D03*
X0119142Y0286447D03*
X0119275Y0286447D03*
X0119407Y0286447D03*
X0119806Y0286580D03*
X0119938Y0286580D03*
X0120071Y0286580D03*
X0120204Y0286580D03*
X0120336Y0286580D03*
X0120469Y0286580D03*
X0120602Y0286580D03*
X0120734Y0286580D03*
X0120867Y0286580D03*
X0121000Y0286580D03*
X0121132Y0286580D03*
X0121265Y0286580D03*
X0121398Y0286580D03*
X0121530Y0286580D03*
X0121663Y0286580D03*
X0121796Y0286580D03*
X0122194Y0286713D03*
X0122326Y0286713D03*
X0122459Y0286713D03*
X0122592Y0286713D03*
X0122724Y0286713D03*
X0122857Y0286713D03*
X0122990Y0286713D03*
X0123122Y0286713D03*
X0123255Y0286713D03*
X0123388Y0286713D03*
X0123520Y0286713D03*
X0123653Y0286713D03*
X0123786Y0286713D03*
X0123919Y0286713D03*
X0124051Y0286713D03*
X0124184Y0286713D03*
X0124317Y0286845D03*
X0124449Y0286845D03*
X0124582Y0286845D03*
X0124715Y0286845D03*
X0124847Y0286845D03*
X0124980Y0286845D03*
X0125113Y0286845D03*
X0125245Y0286845D03*
X0125378Y0286845D03*
X0125511Y0286845D03*
X0125643Y0286845D03*
X0125776Y0286845D03*
X0125909Y0286845D03*
X0126041Y0286845D03*
X0126174Y0286845D03*
X0126307Y0286845D03*
X0126439Y0286845D03*
X0126705Y0286845D03*
X0124980Y0261902D03*
X0124847Y0261902D03*
X0124715Y0261902D03*
X0124582Y0261902D03*
X0124449Y0261902D03*
X0124317Y0261902D03*
X0124184Y0261902D03*
X0124051Y0261902D03*
X0123919Y0261902D03*
X0123786Y0261902D03*
X0123653Y0261902D03*
X0123520Y0261902D03*
X0123388Y0261902D03*
X0123255Y0261902D03*
X0117815Y0262300D03*
X0117683Y0262300D03*
X0117550Y0262300D03*
X0117417Y0262300D03*
X0117285Y0262300D03*
X0117152Y0262300D03*
X0117019Y0262300D03*
X0116887Y0262300D03*
X0116754Y0262300D03*
X0116621Y0262300D03*
X0116489Y0262300D03*
X0116356Y0262300D03*
X0116223Y0262300D03*
X0116091Y0262300D03*
X0115958Y0262300D03*
X0115825Y0262300D03*
X0115693Y0262433D03*
X0115560Y0262433D03*
X0115427Y0262433D03*
X0115294Y0262433D03*
X0115162Y0262433D03*
X0115029Y0262433D03*
X0114896Y0262433D03*
X0114764Y0262433D03*
X0114631Y0262433D03*
X0114498Y0262433D03*
X0114366Y0262433D03*
X0114233Y0262433D03*
X0114100Y0262433D03*
X0113968Y0262433D03*
X0113835Y0262433D03*
X0113702Y0262433D03*
X0113570Y0262433D03*
X0113437Y0262433D03*
X0113304Y0262433D03*
X0113172Y0262566D03*
X0113039Y0262566D03*
X0112906Y0262566D03*
X0112774Y0262566D03*
X0112641Y0262566D03*
X0112508Y0262566D03*
X0112376Y0262566D03*
X0112243Y0262566D03*
X0112110Y0262566D03*
X0111978Y0262566D03*
X0111845Y0262566D03*
X0111712Y0262566D03*
X0111580Y0262566D03*
X0111447Y0262566D03*
X0111314Y0262566D03*
X0111181Y0262566D03*
X0111049Y0262566D03*
X0110783Y0262698D03*
X0110651Y0262698D03*
X0110518Y0262698D03*
X0110385Y0262698D03*
X0110253Y0262698D03*
X0110120Y0262698D03*
X0109987Y0262698D03*
X0109855Y0262698D03*
X0109722Y0262698D03*
X0109589Y0262698D03*
X0109457Y0262698D03*
X0109324Y0262698D03*
X0109191Y0262698D03*
X0109059Y0262698D03*
X0108926Y0262698D03*
X0108793Y0262698D03*
X0108661Y0262698D03*
X0107732Y0262831D03*
X0107599Y0262831D03*
X0107467Y0262831D03*
X0107334Y0262831D03*
X0107201Y0262831D03*
X0107069Y0262831D03*
X0106936Y0262831D03*
X0106803Y0262831D03*
X0106670Y0262831D03*
X0106538Y0262831D03*
X0106405Y0262831D03*
X0106272Y0262831D03*
X0106140Y0262831D03*
X0105874Y0262964D03*
X0105742Y0262964D03*
X0105609Y0262964D03*
X0105476Y0262964D03*
X0105344Y0262964D03*
X0105211Y0262964D03*
X0105078Y0262964D03*
X0104946Y0262964D03*
X0104813Y0262964D03*
X0104680Y0262964D03*
X0104548Y0262964D03*
X0104415Y0262964D03*
X0104282Y0262964D03*
X0104150Y0262964D03*
X0104017Y0262964D03*
X0103884Y0262964D03*
X0103752Y0262964D03*
X0102690Y0263096D03*
X0102557Y0263096D03*
X0102425Y0263096D03*
X0102292Y0263096D03*
X0102159Y0263096D03*
X0102027Y0263096D03*
X0101894Y0263096D03*
X0101761Y0263096D03*
X0101231Y0263229D03*
X0101098Y0263229D03*
X0100965Y0263229D03*
X0100833Y0263229D03*
X0100700Y0263229D03*
X0100567Y0263229D03*
X0100435Y0263229D03*
X0100037Y0263361D03*
X0099904Y0263361D03*
X0099771Y0263361D03*
X0099639Y0263361D03*
X0099506Y0263361D03*
X0098046Y0263627D03*
X0097914Y0263627D03*
X0097383Y0263760D03*
X0096720Y0284723D03*
X0097250Y0284855D03*
X0097648Y0284988D03*
X0097781Y0284988D03*
X0097914Y0284988D03*
X0098975Y0285253D03*
X0099108Y0285253D03*
X0099241Y0285253D03*
X0099373Y0285253D03*
X0099506Y0285253D03*
X0100037Y0285386D03*
X0100169Y0285386D03*
X0100302Y0285386D03*
X0100435Y0285386D03*
X0100567Y0285386D03*
X0100700Y0285386D03*
X0100833Y0285386D03*
X0102823Y0285651D03*
X0102956Y0285651D03*
X0103088Y0285651D03*
X0103221Y0285651D03*
X0103354Y0285651D03*
X0103486Y0285651D03*
X0103619Y0285651D03*
X0103752Y0285651D03*
X0103884Y0285651D03*
X0104017Y0285651D03*
X0104150Y0285651D03*
X0104282Y0285651D03*
X0104415Y0285651D03*
X0104548Y0285651D03*
X0104680Y0285651D03*
X0104813Y0285651D03*
X0109191Y0296132D03*
X0109324Y0296132D03*
X0109457Y0296132D03*
X0110253Y0296265D03*
X0110385Y0296265D03*
X0110518Y0296265D03*
X0110651Y0296265D03*
X0110783Y0296265D03*
X0110916Y0296265D03*
X0111049Y0296265D03*
X0111181Y0296265D03*
X0111314Y0296265D03*
X0111447Y0296265D03*
X0111580Y0296265D03*
X0111712Y0296265D03*
X0111845Y0296265D03*
X0111978Y0296265D03*
X0112110Y0296265D03*
X0112243Y0296265D03*
X0112376Y0296265D03*
X0112641Y0296398D03*
X0112774Y0296398D03*
X0112906Y0296398D03*
X0113039Y0296398D03*
X0113172Y0296398D03*
X0113304Y0296398D03*
X0113437Y0296398D03*
X0113570Y0296398D03*
X0113702Y0296398D03*
X0113835Y0296398D03*
X0113968Y0296398D03*
X0115693Y0296664D03*
X0115825Y0296664D03*
X0115958Y0296664D03*
X0116091Y0296664D03*
X0116223Y0296664D03*
X0116754Y0296796D03*
X0116887Y0296796D03*
X0117019Y0296796D03*
X0117285Y0296929D03*
X0117417Y0296929D03*
X0117550Y0296929D03*
X0118081Y0297062D03*
X0118081Y0318157D03*
X0117948Y0318157D03*
X0117550Y0318290D03*
X0117417Y0318290D03*
X0117285Y0318290D03*
X0116887Y0318422D03*
X0116754Y0318422D03*
X0116621Y0318422D03*
X0116223Y0318555D03*
X0116091Y0318555D03*
X0115958Y0318555D03*
X0115825Y0318555D03*
X0115693Y0318555D03*
X0115560Y0318555D03*
X0115294Y0318688D03*
X0115162Y0318688D03*
X0115029Y0318688D03*
X0114896Y0318688D03*
X0114764Y0318688D03*
X0114631Y0318688D03*
X0114498Y0318688D03*
X0114366Y0318688D03*
X0114233Y0318688D03*
X0115427Y0231784D03*
X0115560Y0231784D03*
X0115693Y0231784D03*
X0115825Y0231784D03*
X0115958Y0231784D03*
X0116091Y0231784D03*
X0116223Y0231784D03*
X0116356Y0231784D03*
X0116489Y0231784D03*
X0100169Y0231784D03*
X0100037Y0231784D03*
X0099904Y0231784D03*
X0099771Y0231784D03*
X0099639Y0231784D03*
X0099506Y0231784D03*
X0099373Y0231784D03*
X0099241Y0231784D03*
X0099108Y0231784D03*
X0098975Y0231784D03*
X0098843Y0231784D03*
X0098710Y0231784D03*
X0090484Y0295071D03*
X0090351Y0295071D03*
X0090219Y0295071D03*
X0090086Y0295071D03*
X0089953Y0295071D03*
X0089820Y0295071D03*
X0089688Y0295071D03*
X0089555Y0295071D03*
X0089422Y0295071D03*
X0089290Y0295071D03*
X0089157Y0295071D03*
X0089024Y0295071D03*
X0088892Y0295071D03*
D192*
X0095658Y0264290D03*
X0095791Y0264290D03*
X0095924Y0264290D03*
X0095924Y0232447D03*
X0096056Y0232447D03*
X0095791Y0232447D03*
X0118479Y0318025D03*
X0119009Y0317892D03*
X0119407Y0317759D03*
X0119673Y0297592D03*
X0119806Y0297592D03*
X0119540Y0297459D03*
X0119407Y0297459D03*
X0118611Y0341641D03*
X0118479Y0341641D03*
X0117815Y0342039D03*
X0117683Y0342039D03*
X0117019Y0342437D03*
X0116091Y0342835D03*
X0088892Y0351327D03*
X0088759Y0351327D03*
X0091280Y0461581D03*
X0119407Y0232447D03*
X0119540Y0232447D03*
X0119673Y0232447D03*
D193*
X0091280Y0242664D03*
X0088892Y0402672D03*
X0088759Y0402672D03*
D194*
X0088759Y0420584D03*
X0117550Y0342172D03*
X0119673Y0317626D03*
X0119806Y0317626D03*
X0119938Y0317494D03*
X0120071Y0297725D03*
X0119806Y0232580D03*
X0095658Y0232580D03*
X0095526Y0232580D03*
X0096454Y0264025D03*
X0096056Y0264157D03*
X0095924Y0284457D03*
X0096189Y0284590D03*
X0122592Y0420584D03*
D195*
X0088759Y0442210D03*
D196*
X0095526Y0442210D03*
X0096720Y0424299D03*
X0088892Y0246246D03*
D197*
X0088892Y0274307D03*
X0098843Y0349801D03*
X0098975Y0349801D03*
X0099108Y0349801D03*
X0092076Y0422110D03*
X0119275Y0422110D03*
X0122194Y0315039D03*
D198*
X0120204Y0317427D03*
X0120071Y0317427D03*
X0120469Y0297924D03*
X0120204Y0297791D03*
X0119938Y0297658D03*
X0119540Y0341044D03*
X0119407Y0341177D03*
X0119275Y0341177D03*
X0122459Y0420650D03*
X0088892Y0420650D03*
X0094995Y0283993D03*
X0095393Y0232647D03*
X0119938Y0232647D03*
X0120071Y0232647D03*
D199*
X0088892Y0442210D03*
D200*
X0100435Y0457269D03*
X0123388Y0457269D03*
X0089024Y0245649D03*
D201*
X0089024Y0274307D03*
X0093801Y0422906D03*
X0096189Y0459259D03*
X0117683Y0422906D03*
X0127633Y0459259D03*
D202*
X0116887Y0454218D03*
X0106936Y0454218D03*
X0089024Y0402739D03*
X0091280Y0274307D03*
D203*
X0094730Y0264821D03*
X0094862Y0283926D03*
X0120336Y0297857D03*
X0120602Y0297990D03*
X0119673Y0340978D03*
X0122326Y0420717D03*
X0091545Y0461448D03*
X0089024Y0420717D03*
D204*
X0089024Y0442210D03*
D205*
X0089157Y0245251D03*
D206*
X0089157Y0274241D03*
X0095260Y0423635D03*
X0096322Y0442210D03*
X0097781Y0458530D03*
X0121265Y0436373D03*
X0121398Y0436373D03*
X0126041Y0458530D03*
D207*
X0126041Y0436372D03*
X0089157Y0402805D03*
X0091545Y0242531D03*
X0123919Y0242531D03*
D208*
X0090219Y0351127D03*
X0090086Y0351127D03*
X0089953Y0351127D03*
X0089820Y0351127D03*
X0089290Y0420783D03*
X0089157Y0420783D03*
X0115029Y0439490D03*
X0115294Y0439225D03*
X0115560Y0438960D03*
X0116754Y0437766D03*
X0116887Y0437766D03*
X0118081Y0436571D03*
X0122194Y0420783D03*
D209*
X0111978Y0451830D03*
X0089157Y0442276D03*
D210*
X0089157Y0462576D03*
D211*
X0101629Y0456672D03*
X0101761Y0456672D03*
X0122194Y0456672D03*
X0125378Y0330496D03*
X0089290Y0245052D03*
D212*
X0089290Y0274307D03*
X0098444Y0458198D03*
X0125378Y0458198D03*
D213*
X0116621Y0454085D03*
X0107201Y0454085D03*
X0091545Y0442277D03*
X0089290Y0402871D03*
X0091678Y0242465D03*
X0123786Y0242465D03*
D214*
X0089290Y0442277D03*
D215*
X0089290Y0462510D03*
D216*
X0123653Y0436373D03*
X0123786Y0436373D03*
X0124980Y0330894D03*
X0089422Y0244654D03*
D217*
X0089422Y0274307D03*
X0097118Y0424498D03*
D218*
X0089688Y0351194D03*
X0089555Y0351194D03*
X0089422Y0351194D03*
X0094862Y0264688D03*
X0095128Y0264556D03*
X0094862Y0232979D03*
X0120734Y0298123D03*
X0119806Y0340845D03*
D219*
X0116489Y0454019D03*
X0107334Y0454019D03*
X0089555Y0402938D03*
X0089422Y0402938D03*
D220*
X0089422Y0420849D03*
X0116356Y0438230D03*
X0116489Y0438097D03*
X0117815Y0436903D03*
X0121928Y0420849D03*
X0122061Y0420849D03*
X0120734Y0340182D03*
X0120867Y0233244D03*
D221*
X0089422Y0442277D03*
X0111447Y0452095D03*
D222*
X0089422Y0462444D03*
D223*
X0093668Y0442277D03*
X0102956Y0456075D03*
X0120867Y0456075D03*
X0124582Y0331226D03*
X0090086Y0274307D03*
X0089555Y0244455D03*
D224*
X0089555Y0274307D03*
D225*
X0094199Y0265153D03*
X0091015Y0350995D03*
X0090882Y0350995D03*
X0090749Y0350995D03*
X0089555Y0420916D03*
X0099639Y0441746D03*
X0099373Y0442011D03*
X0100700Y0440817D03*
X0100965Y0440552D03*
X0101231Y0440286D03*
X0101894Y0439623D03*
X0121000Y0339850D03*
X0121132Y0339850D03*
X0121265Y0316631D03*
D226*
X0089555Y0442277D03*
D227*
X0089688Y0244256D03*
D228*
X0089688Y0274374D03*
X0094597Y0442210D03*
D229*
X0089820Y0403070D03*
X0089688Y0403070D03*
X0107599Y0453886D03*
X0116223Y0453886D03*
X0126307Y0436372D03*
D230*
X0121796Y0420982D03*
X0118479Y0436373D03*
X0102292Y0439292D03*
X0102159Y0439424D03*
X0102027Y0439557D03*
X0099108Y0442210D03*
X0089688Y0420982D03*
X0091147Y0350929D03*
X0091280Y0350929D03*
X0091413Y0350929D03*
X0091545Y0350929D03*
X0121265Y0339651D03*
X0121398Y0298654D03*
X0121265Y0298521D03*
X0094331Y0233377D03*
D231*
X0089688Y0442210D03*
X0111049Y0452294D03*
D232*
X0089688Y0462311D03*
D233*
X0120071Y0455677D03*
X0089820Y0244057D03*
D234*
X0089820Y0274307D03*
D235*
X0089820Y0421048D03*
X0121530Y0421048D03*
X0121663Y0421048D03*
D236*
X0110783Y0452427D03*
X0110651Y0452427D03*
X0089820Y0442210D03*
D237*
X0104282Y0455478D03*
X0119540Y0455478D03*
X0089953Y0243858D03*
D238*
X0089953Y0274307D03*
D239*
X0091678Y0274307D03*
X0092209Y0242199D03*
X0123255Y0242199D03*
X0089953Y0403137D03*
D240*
X0089953Y0442210D03*
D241*
X0089953Y0462178D03*
D242*
X0090086Y0243725D03*
X0125378Y0243725D03*
D243*
X0090086Y0403203D03*
X0107865Y0453753D03*
X0115958Y0453753D03*
D244*
X0090086Y0442210D03*
D245*
X0104813Y0455213D03*
X0119009Y0455213D03*
X0122724Y0332486D03*
X0122857Y0332354D03*
X0124847Y0307676D03*
X0090219Y0243593D03*
D246*
X0090219Y0274307D03*
X0103486Y0455810D03*
X0120336Y0455810D03*
D247*
X0090219Y0403269D03*
X0092474Y0242067D03*
X0122857Y0242067D03*
X0122990Y0242067D03*
D248*
X0121663Y0339120D03*
X0121132Y0421247D03*
X0090219Y0421247D03*
D249*
X0090219Y0442210D03*
D250*
X0090351Y0243460D03*
D251*
X0090351Y0274307D03*
X0123653Y0331889D03*
X0125511Y0243924D03*
X0119806Y0455544D03*
X0119673Y0455544D03*
X0104150Y0455544D03*
X0104017Y0455544D03*
D252*
X0091811Y0461316D03*
X0118346Y0436372D03*
X0120867Y0340049D03*
X0094331Y0283528D03*
X0094331Y0265086D03*
X0090617Y0351061D03*
X0090484Y0351061D03*
X0090351Y0351061D03*
D253*
X0090351Y0403336D03*
X0091015Y0442210D03*
X0108130Y0453621D03*
X0108263Y0453621D03*
X0115560Y0453621D03*
X0115693Y0453621D03*
X0126572Y0436373D03*
X0122724Y0242001D03*
X0092607Y0242001D03*
D254*
X0090351Y0421314D03*
X0092739Y0460851D03*
X0121000Y0421314D03*
D255*
X0090351Y0442210D03*
X0092739Y0274374D03*
D256*
X0090351Y0461979D03*
D257*
X0090484Y0243327D03*
D258*
X0090484Y0274374D03*
X0092872Y0442210D03*
D259*
X0090484Y0403402D03*
X0092739Y0241934D03*
X0092872Y0241934D03*
X0122592Y0241934D03*
D260*
X0094199Y0350530D03*
X0094066Y0350530D03*
X0093933Y0350530D03*
X0090484Y0421380D03*
X0098710Y0442210D03*
X0120867Y0421380D03*
D261*
X0091545Y0403867D03*
X0090484Y0442210D03*
D262*
X0090484Y0461913D03*
D263*
X0105609Y0454815D03*
X0118213Y0454815D03*
X0125245Y0436373D03*
X0090617Y0243195D03*
D264*
X0090617Y0274307D03*
X0122592Y0332553D03*
X0125113Y0243526D03*
D265*
X0122459Y0241868D03*
X0090749Y0403468D03*
X0090617Y0403468D03*
X0090882Y0442210D03*
X0108528Y0453488D03*
X0115294Y0453488D03*
X0115427Y0453488D03*
X0126705Y0436373D03*
D266*
X0120734Y0421446D03*
X0106538Y0434714D03*
X0090617Y0421446D03*
X0093535Y0282533D03*
X0121663Y0234239D03*
D267*
X0090617Y0442210D03*
X0109059Y0453223D03*
D268*
X0090749Y0461847D03*
X0090617Y0461847D03*
X0104548Y0351459D03*
X0104680Y0351459D03*
X0104813Y0351459D03*
X0104946Y0351459D03*
X0105078Y0351459D03*
X0105211Y0351459D03*
X0105344Y0351459D03*
X0105476Y0351459D03*
X0105609Y0351459D03*
X0105742Y0351459D03*
X0105874Y0351459D03*
X0106007Y0351459D03*
X0106140Y0351459D03*
X0106272Y0351459D03*
X0106405Y0351459D03*
X0106538Y0351459D03*
X0106670Y0351459D03*
X0106803Y0351459D03*
X0106936Y0351459D03*
X0107069Y0351459D03*
X0107201Y0351459D03*
X0107334Y0351459D03*
X0107467Y0351459D03*
X0107599Y0351459D03*
X0107732Y0351459D03*
X0107865Y0351459D03*
X0107997Y0351459D03*
X0108130Y0351459D03*
X0108263Y0351459D03*
X0108395Y0351459D03*
X0108528Y0351459D03*
X0108661Y0351459D03*
X0108793Y0351459D03*
X0108926Y0351459D03*
X0109059Y0351459D03*
X0109191Y0351459D03*
X0109324Y0351459D03*
X0109457Y0351459D03*
X0109589Y0351459D03*
X0109722Y0351459D03*
X0109855Y0351459D03*
X0109987Y0351459D03*
X0110120Y0351459D03*
X0110253Y0351459D03*
X0110385Y0351459D03*
X0110518Y0351459D03*
X0110651Y0351459D03*
X0110783Y0351459D03*
X0110916Y0351459D03*
X0111049Y0351459D03*
X0111181Y0351459D03*
X0111314Y0351459D03*
X0111447Y0351459D03*
X0111580Y0351459D03*
X0111712Y0351459D03*
X0111845Y0351459D03*
X0111978Y0351459D03*
X0112110Y0351459D03*
X0112243Y0351459D03*
X0112376Y0351459D03*
X0112508Y0351459D03*
X0112641Y0351459D03*
X0112774Y0351459D03*
X0112906Y0351459D03*
X0113039Y0351459D03*
X0113172Y0351459D03*
X0113304Y0351459D03*
X0113437Y0351459D03*
X0113570Y0351459D03*
X0113702Y0351459D03*
X0113835Y0351459D03*
X0113968Y0351459D03*
X0114100Y0351459D03*
X0114233Y0351459D03*
X0114366Y0351459D03*
X0114498Y0351459D03*
X0114631Y0351459D03*
X0114764Y0351459D03*
X0114896Y0351459D03*
X0115029Y0351459D03*
X0115162Y0351459D03*
X0115294Y0351459D03*
X0115427Y0351459D03*
X0115560Y0351459D03*
X0115693Y0351459D03*
X0115825Y0351459D03*
X0115958Y0351459D03*
X0116091Y0351459D03*
X0116223Y0351459D03*
X0116356Y0351459D03*
X0116489Y0351459D03*
X0116621Y0351459D03*
X0116754Y0351459D03*
X0116887Y0351459D03*
X0117019Y0351459D03*
X0117152Y0351459D03*
X0117285Y0351459D03*
X0117417Y0351459D03*
X0117550Y0351459D03*
X0117683Y0351459D03*
X0117815Y0351459D03*
X0123255Y0351327D03*
X0123388Y0351327D03*
X0123520Y0351327D03*
X0123653Y0351327D03*
X0123786Y0351327D03*
X0123919Y0351327D03*
X0124051Y0351327D03*
X0124184Y0351327D03*
X0124317Y0351327D03*
X0124449Y0351327D03*
X0124582Y0351327D03*
X0124715Y0351327D03*
X0124847Y0351327D03*
X0124980Y0351327D03*
X0125113Y0351327D03*
X0125245Y0351327D03*
X0125378Y0351327D03*
X0125511Y0351327D03*
X0125643Y0351327D03*
X0125776Y0351327D03*
X0125909Y0351327D03*
X0126041Y0351327D03*
X0126174Y0351327D03*
X0126307Y0351327D03*
X0126439Y0351327D03*
D269*
X0090749Y0243062D03*
D270*
X0090749Y0274307D03*
X0124847Y0243261D03*
X0124582Y0307609D03*
X0118346Y0454881D03*
X0105476Y0454881D03*
D271*
X0108528Y0432790D03*
X0108793Y0432525D03*
X0120602Y0421513D03*
X0095128Y0350398D03*
X0094995Y0350398D03*
X0094862Y0350398D03*
X0090749Y0421513D03*
X0121928Y0315769D03*
D272*
X0090749Y0442210D03*
D273*
X0090882Y0242996D03*
X0124582Y0242996D03*
D274*
X0090882Y0274307D03*
D275*
X0090882Y0403535D03*
X0108661Y0453421D03*
X0115162Y0453421D03*
D276*
X0119142Y0436439D03*
X0115162Y0426488D03*
X0115029Y0426620D03*
X0114896Y0426754D03*
X0114631Y0427019D03*
X0115294Y0426355D03*
X0113172Y0428346D03*
X0112906Y0428611D03*
X0112774Y0428743D03*
X0112508Y0429009D03*
X0112376Y0429142D03*
X0111978Y0429540D03*
X0111712Y0429805D03*
X0111447Y0430070D03*
X0111181Y0430336D03*
X0110916Y0430601D03*
X0110783Y0430601D03*
X0110651Y0430734D03*
X0110385Y0430999D03*
X0110253Y0431131D03*
X0110120Y0431265D03*
X0109987Y0431397D03*
X0109855Y0431530D03*
X0109589Y0431795D03*
X0109457Y0431928D03*
X0109324Y0432061D03*
X0109191Y0432193D03*
X0109059Y0432326D03*
X0108926Y0432459D03*
X0108263Y0432989D03*
X0107997Y0433255D03*
X0107865Y0433387D03*
X0107599Y0433653D03*
X0107467Y0433785D03*
X0107334Y0433918D03*
X0107201Y0434050D03*
X0107069Y0434183D03*
X0106803Y0434449D03*
X0106670Y0434581D03*
X0120469Y0421579D03*
X0121928Y0338656D03*
X0095658Y0350331D03*
X0095526Y0350331D03*
X0095393Y0350331D03*
X0095260Y0350331D03*
X0090882Y0421579D03*
D277*
X0091943Y0442277D03*
X0106405Y0454483D03*
X0117417Y0454483D03*
X0117550Y0454483D03*
X0091015Y0242863D03*
D278*
X0091015Y0274374D03*
X0124449Y0242929D03*
X0117683Y0454549D03*
X0106272Y0454549D03*
X0106140Y0454549D03*
D279*
X0108793Y0453355D03*
X0115029Y0453355D03*
X0091015Y0403601D03*
X0092209Y0274374D03*
D280*
X0122061Y0299715D03*
X0120336Y0421645D03*
X0116223Y0425493D03*
X0115560Y0426156D03*
X0114233Y0427350D03*
X0113968Y0427616D03*
X0113702Y0427881D03*
X0110518Y0430933D03*
X0098444Y0442210D03*
X0091015Y0421645D03*
D281*
X0106538Y0454417D03*
X0117285Y0454417D03*
X0124317Y0242797D03*
X0091147Y0242797D03*
D282*
X0091147Y0274307D03*
X0124184Y0242730D03*
X0091811Y0442277D03*
X0106670Y0454350D03*
X0117152Y0454350D03*
D283*
X0108926Y0453289D03*
X0091147Y0403668D03*
X0092341Y0274307D03*
D284*
X0096056Y0350199D03*
X0096189Y0350199D03*
X0096322Y0350199D03*
X0096454Y0350199D03*
X0096587Y0350199D03*
X0091280Y0421711D03*
X0091147Y0421711D03*
X0093668Y0460454D03*
X0120204Y0421711D03*
X0130154Y0460454D03*
X0122061Y0315437D03*
D285*
X0123122Y0242133D03*
X0092341Y0242133D03*
X0126439Y0436373D03*
X0091147Y0442210D03*
D286*
X0091280Y0403734D03*
D287*
X0091280Y0442210D03*
D288*
X0124051Y0307609D03*
X0124051Y0242597D03*
X0091413Y0242597D03*
D289*
X0091413Y0274374D03*
X0091678Y0442210D03*
D290*
X0091413Y0403800D03*
X0109191Y0453156D03*
X0092474Y0274307D03*
D291*
X0093535Y0234703D03*
X0091413Y0421778D03*
X0120071Y0421778D03*
X0119407Y0436372D03*
D292*
X0091413Y0442277D03*
D293*
X0123786Y0307609D03*
X0091545Y0274307D03*
D294*
X0093270Y0266612D03*
X0091545Y0421844D03*
X0119806Y0421844D03*
X0119938Y0421844D03*
D295*
X0108926Y0403933D03*
X0108793Y0403933D03*
X0108661Y0403933D03*
X0106140Y0403933D03*
X0106007Y0403933D03*
X0105874Y0403933D03*
X0105742Y0403933D03*
X0105609Y0403933D03*
X0105476Y0403933D03*
X0105344Y0403933D03*
X0105211Y0403933D03*
X0091678Y0403933D03*
X0109457Y0453024D03*
X0122724Y0307609D03*
X0092607Y0274307D03*
D296*
X0093270Y0282069D03*
X0121928Y0234836D03*
X0119673Y0421911D03*
X0129756Y0460254D03*
X0094066Y0460254D03*
X0091678Y0421911D03*
D297*
X0091811Y0242399D03*
X0123653Y0242399D03*
D298*
X0123520Y0307609D03*
X0091811Y0274307D03*
X0107997Y0453687D03*
X0115825Y0453687D03*
D299*
X0109059Y0403999D03*
X0108528Y0403999D03*
X0108395Y0403999D03*
X0108263Y0403999D03*
X0108130Y0403999D03*
X0107997Y0403999D03*
X0107865Y0403999D03*
X0107732Y0403999D03*
X0107599Y0403999D03*
X0107467Y0403999D03*
X0107334Y0403999D03*
X0107201Y0403999D03*
X0107069Y0403999D03*
X0106936Y0403999D03*
X0106803Y0403999D03*
X0106670Y0403999D03*
X0106538Y0403999D03*
X0106405Y0403999D03*
X0106272Y0403999D03*
X0105078Y0403999D03*
X0091943Y0403999D03*
X0091811Y0403999D03*
D300*
X0091811Y0421977D03*
X0093403Y0234902D03*
D301*
X0091943Y0242332D03*
X0123520Y0242332D03*
X0116356Y0453952D03*
X0107467Y0453952D03*
D302*
X0091943Y0274307D03*
D303*
X0091943Y0422043D03*
X0119407Y0422043D03*
X0119540Y0422043D03*
D304*
X0101629Y0439889D03*
X0101496Y0440021D03*
X0101363Y0440154D03*
X0100435Y0441083D03*
X0100302Y0441215D03*
X0100169Y0441348D03*
X0100037Y0441348D03*
X0099771Y0441613D03*
X0091943Y0461250D03*
X0094199Y0283462D03*
X0094464Y0233310D03*
X0121000Y0233310D03*
D305*
X0123388Y0242266D03*
X0092076Y0242266D03*
D306*
X0092076Y0274374D03*
D307*
X0092076Y0404065D03*
X0109722Y0452891D03*
D308*
X0092076Y0442210D03*
D309*
X0092076Y0461183D03*
X0099904Y0441547D03*
X0121398Y0316565D03*
D310*
X0122459Y0307543D03*
X0092209Y0404132D03*
X0109855Y0452824D03*
D311*
X0105742Y0434781D03*
X0119142Y0422176D03*
X0119806Y0436373D03*
X0099506Y0349734D03*
X0099373Y0349734D03*
X0099241Y0349734D03*
X0092209Y0422176D03*
D312*
X0092209Y0442210D03*
X0106007Y0454682D03*
X0117948Y0454682D03*
X0125378Y0436373D03*
D313*
X0109987Y0452758D03*
X0092341Y0404198D03*
D314*
X0092341Y0422242D03*
X0119009Y0422242D03*
X0122061Y0235168D03*
D315*
X0092341Y0442210D03*
D316*
X0092474Y0404265D03*
X0092607Y0404265D03*
X0110120Y0452692D03*
D317*
X0105609Y0434780D03*
X0097648Y0442210D03*
X0094862Y0459856D03*
X0092474Y0422308D03*
X0100302Y0349602D03*
X0100435Y0349602D03*
X0100965Y0349469D03*
X0093137Y0281538D03*
X0093137Y0267209D03*
X0118877Y0422308D03*
X0119938Y0436373D03*
X0128960Y0459856D03*
D318*
X0125113Y0436373D03*
X0118479Y0454947D03*
X0105344Y0454947D03*
X0092474Y0442210D03*
D319*
X0106538Y0345953D03*
X0114498Y0343432D03*
X0114631Y0343432D03*
X0117285Y0342238D03*
X0117417Y0342238D03*
X0114100Y0318754D03*
X0113968Y0318754D03*
X0116887Y0286381D03*
X0117019Y0286381D03*
X0117152Y0286381D03*
X0117285Y0286381D03*
X0117417Y0286381D03*
X0125113Y0261836D03*
X0125245Y0261836D03*
X0125378Y0261836D03*
X0125511Y0261836D03*
X0125643Y0261836D03*
X0126572Y0286912D03*
X0119275Y0232381D03*
X0119142Y0232249D03*
X0119009Y0232249D03*
X0118877Y0232249D03*
X0118744Y0232249D03*
X0096587Y0232249D03*
X0096454Y0232249D03*
X0096322Y0232249D03*
X0096189Y0232381D03*
X0096189Y0264091D03*
X0096322Y0264091D03*
X0096056Y0284523D03*
X0092607Y0319948D03*
D320*
X0092607Y0422375D03*
X0118744Y0422375D03*
D321*
X0092607Y0442210D03*
D322*
X0092739Y0404331D03*
D323*
X0092739Y0422441D03*
X0118611Y0422441D03*
D324*
X0092739Y0442210D03*
D325*
X0092872Y0274307D03*
D326*
X0092872Y0404397D03*
X0110385Y0452559D03*
X0110518Y0452559D03*
D327*
X0101761Y0430866D03*
X0101496Y0430601D03*
X0100833Y0429938D03*
X0100567Y0429672D03*
X0100302Y0429407D03*
X0092872Y0422508D03*
X0095393Y0459657D03*
X0118479Y0422508D03*
X0128562Y0459657D03*
D328*
X0121796Y0338855D03*
X0092872Y0460785D03*
D329*
X0103486Y0434648D03*
X0126174Y0329169D03*
X0093005Y0237622D03*
D330*
X0093005Y0268071D03*
D331*
X0093005Y0280609D03*
X0120734Y0436372D03*
D332*
X0118346Y0422574D03*
X0105344Y0434780D03*
X0099639Y0428810D03*
X0099373Y0428544D03*
X0097383Y0442210D03*
X0093005Y0422574D03*
X0102425Y0349204D03*
X0102557Y0349204D03*
X0102690Y0349204D03*
X0122326Y0314442D03*
X0122326Y0300776D03*
D333*
X0093005Y0442210D03*
D334*
X0098577Y0442277D03*
X0093137Y0460719D03*
X0093005Y0460719D03*
X0094331Y0350464D03*
X0094464Y0350464D03*
X0094597Y0350464D03*
X0094730Y0350464D03*
D335*
X0093137Y0236096D03*
D336*
X0093137Y0422640D03*
X0097781Y0426886D03*
X0098179Y0427284D03*
X0098444Y0427550D03*
X0098577Y0427682D03*
X0098710Y0427815D03*
X0098975Y0428080D03*
X0118213Y0422640D03*
D337*
X0093137Y0442210D03*
D338*
X0094995Y0459790D03*
X0102292Y0431397D03*
X0100833Y0349535D03*
X0100700Y0349535D03*
X0100567Y0349535D03*
X0101098Y0349403D03*
X0101231Y0349403D03*
X0101363Y0349403D03*
X0101496Y0349403D03*
X0128828Y0459790D03*
X0093270Y0235433D03*
D339*
X0121530Y0233973D03*
X0121796Y0315968D03*
X0093801Y0350597D03*
X0093668Y0350597D03*
X0093535Y0350597D03*
X0093403Y0350597D03*
X0093270Y0350597D03*
D340*
X0103354Y0349071D03*
X0103486Y0349071D03*
X0103619Y0349071D03*
X0093270Y0422707D03*
X0118081Y0422707D03*
X0120336Y0436372D03*
D341*
X0093270Y0442210D03*
D342*
X0093270Y0460586D03*
X0093403Y0460586D03*
X0107732Y0433520D03*
X0111845Y0429672D03*
X0113039Y0428478D03*
X0130420Y0460586D03*
X0093403Y0282401D03*
D343*
X0093403Y0266281D03*
X0095791Y0350265D03*
X0095924Y0350265D03*
X0115958Y0425758D03*
X0115825Y0425891D03*
X0115693Y0426024D03*
X0114498Y0427085D03*
X0114366Y0427218D03*
X0113437Y0428147D03*
X0113304Y0428279D03*
X0112110Y0429341D03*
X0130287Y0460520D03*
X0093535Y0460520D03*
X0126572Y0307543D03*
D344*
X0104017Y0349005D03*
X0103884Y0349005D03*
X0103752Y0349005D03*
X0093535Y0422773D03*
X0093403Y0422773D03*
X0117948Y0422773D03*
D345*
X0124184Y0436373D03*
X0120469Y0455876D03*
X0103354Y0455876D03*
X0093403Y0442210D03*
D346*
X0093535Y0266081D03*
D347*
X0093535Y0442277D03*
X0103221Y0455942D03*
X0120602Y0455942D03*
D348*
X0130552Y0460653D03*
X0106405Y0434781D03*
X0121928Y0299450D03*
X0093668Y0234305D03*
D349*
X0093668Y0422839D03*
X0097118Y0442210D03*
X0105078Y0434780D03*
X0117815Y0422839D03*
D350*
X0093801Y0234106D03*
D351*
X0124847Y0330961D03*
X0125909Y0244588D03*
X0093801Y0442277D03*
X0102690Y0456208D03*
X0121132Y0456208D03*
D352*
X0130022Y0460387D03*
X0122061Y0338324D03*
X0096985Y0350132D03*
X0096852Y0350132D03*
X0096720Y0350132D03*
X0093801Y0460387D03*
D353*
X0093933Y0422972D03*
X0117417Y0422972D03*
X0117550Y0422972D03*
X0120602Y0436372D03*
D354*
X0093933Y0442210D03*
D355*
X0098179Y0442277D03*
X0093933Y0460321D03*
X0097118Y0350066D03*
X0097250Y0350066D03*
X0097383Y0350066D03*
X0129889Y0460321D03*
D356*
X0094066Y0423038D03*
D357*
X0094066Y0442210D03*
D358*
X0096587Y0459060D03*
X0094199Y0423105D03*
X0117152Y0423105D03*
X0117285Y0423105D03*
X0127235Y0459060D03*
D359*
X0094199Y0442210D03*
D360*
X0094199Y0460188D03*
X0098046Y0349933D03*
X0098179Y0349933D03*
X0098312Y0349933D03*
X0129624Y0460188D03*
D361*
X0117019Y0423171D03*
X0094331Y0423171D03*
D362*
X0094331Y0442210D03*
D363*
X0094331Y0460122D03*
X0119673Y0436372D03*
X0129491Y0460122D03*
X0098710Y0349867D03*
X0098577Y0349867D03*
X0098444Y0349867D03*
X0122194Y0300113D03*
D364*
X0126307Y0307543D03*
X0116887Y0423237D03*
X0120867Y0436372D03*
X0126970Y0458928D03*
X0094464Y0423237D03*
D365*
X0094464Y0442210D03*
D366*
X0094464Y0460056D03*
X0129358Y0460056D03*
D367*
X0117417Y0437235D03*
X0117683Y0436969D03*
X0116091Y0438429D03*
X0115162Y0439358D03*
X0120071Y0340646D03*
X0120336Y0340513D03*
X0120469Y0340381D03*
X0120867Y0317029D03*
X0121000Y0316897D03*
X0121000Y0298322D03*
X0094597Y0233177D03*
D368*
X0094597Y0423304D03*
X0116754Y0423304D03*
D369*
X0129226Y0459989D03*
X0094597Y0459989D03*
D370*
X0096587Y0442210D03*
X0094730Y0423370D03*
X0116621Y0423370D03*
X0121000Y0436373D03*
D371*
X0122990Y0457070D03*
X0100833Y0457070D03*
X0094730Y0442210D03*
D372*
X0094730Y0459923D03*
X0099639Y0349668D03*
X0099771Y0349668D03*
X0099904Y0349668D03*
X0100037Y0349668D03*
X0100169Y0349668D03*
X0129093Y0459923D03*
D373*
X0116489Y0423436D03*
X0104548Y0434714D03*
X0094862Y0423436D03*
D374*
X0094862Y0442210D03*
D375*
X0097516Y0458662D03*
X0104415Y0434648D03*
X0094995Y0423503D03*
X0116356Y0423503D03*
X0121132Y0436373D03*
D376*
X0122592Y0436373D03*
X0123520Y0457336D03*
X0103088Y0434647D03*
X0100302Y0457336D03*
X0094995Y0442210D03*
X0125909Y0329700D03*
D377*
X0095526Y0264356D03*
X0095393Y0264489D03*
X0095260Y0264489D03*
X0095260Y0284125D03*
X0095128Y0284125D03*
X0095393Y0284258D03*
D378*
X0095128Y0423569D03*
D379*
X0095128Y0442210D03*
D380*
X0097516Y0442210D03*
X0102159Y0431331D03*
X0102027Y0431198D03*
X0101231Y0430402D03*
X0105476Y0434781D03*
X0095260Y0459724D03*
X0095128Y0459724D03*
X0120071Y0436373D03*
X0128695Y0459724D03*
X0101894Y0349336D03*
X0101761Y0349336D03*
X0101629Y0349336D03*
D381*
X0097250Y0424564D03*
X0095260Y0442210D03*
X0122326Y0436373D03*
D382*
X0125909Y0458463D03*
X0104282Y0434714D03*
X0097914Y0458463D03*
X0095393Y0423702D03*
D383*
X0095393Y0442210D03*
D384*
X0096189Y0442210D03*
X0095526Y0423768D03*
X0104150Y0434780D03*
D385*
X0099904Y0429075D03*
X0099506Y0428677D03*
X0099241Y0428412D03*
X0095526Y0459591D03*
X0128297Y0459591D03*
X0128430Y0459591D03*
D386*
X0125643Y0458331D03*
X0098179Y0458331D03*
X0095791Y0423834D03*
X0095658Y0423834D03*
D387*
X0096587Y0424232D03*
X0095658Y0442277D03*
X0098975Y0457933D03*
X0124847Y0457933D03*
D388*
X0128164Y0459525D03*
X0105211Y0434847D03*
X0098312Y0427417D03*
X0098046Y0427151D03*
X0095658Y0459525D03*
X0102823Y0349137D03*
X0102956Y0349137D03*
X0103088Y0349137D03*
X0103221Y0349137D03*
D389*
X0096322Y0424100D03*
X0095791Y0442276D03*
X0098710Y0458065D03*
X0125113Y0458065D03*
D390*
X0128031Y0459458D03*
X0097250Y0442210D03*
X0097648Y0426820D03*
X0095791Y0459458D03*
D391*
X0095924Y0423901D03*
X0121663Y0436372D03*
D392*
X0095924Y0442277D03*
X0096056Y0423967D03*
D393*
X0095924Y0459392D03*
X0127899Y0459392D03*
D394*
X0125511Y0458264D03*
X0098312Y0458264D03*
X0096056Y0442210D03*
D395*
X0096056Y0459326D03*
X0127766Y0459326D03*
D396*
X0096189Y0424033D03*
D397*
X0096322Y0459193D03*
X0127501Y0459193D03*
D398*
X0121928Y0436372D03*
X0096454Y0424166D03*
D399*
X0096454Y0442277D03*
D400*
X0096454Y0459127D03*
X0127368Y0459127D03*
D401*
X0107865Y0345555D03*
X0107732Y0345555D03*
X0111978Y0344361D03*
X0117019Y0318356D03*
X0117152Y0318356D03*
X0118744Y0297260D03*
X0118877Y0297260D03*
X0119009Y0297260D03*
X0112906Y0286116D03*
X0112774Y0286116D03*
X0112641Y0286116D03*
X0112508Y0286116D03*
X0112376Y0286116D03*
X0112243Y0286116D03*
X0112110Y0286116D03*
X0110916Y0262632D03*
X0118213Y0232116D03*
X0118346Y0232116D03*
X0118479Y0232116D03*
X0118611Y0232116D03*
X0100302Y0263295D03*
X0100169Y0263295D03*
X0097516Y0284921D03*
X0097383Y0284921D03*
X0100169Y0319550D03*
X0100302Y0319550D03*
X0100435Y0319550D03*
X0100567Y0319550D03*
X0100700Y0319550D03*
X0100833Y0319550D03*
X0097250Y0232116D03*
X0097118Y0232116D03*
X0096985Y0232116D03*
X0096852Y0232116D03*
X0096720Y0232116D03*
D402*
X0104680Y0434780D03*
X0096720Y0442210D03*
D403*
X0096720Y0458994D03*
X0096852Y0458994D03*
X0127103Y0458994D03*
D404*
X0096852Y0424365D03*
D405*
X0096852Y0442210D03*
X0104813Y0434781D03*
X0126705Y0247440D03*
D406*
X0096985Y0424431D03*
X0099373Y0457733D03*
X0099506Y0457733D03*
X0122194Y0436372D03*
X0124317Y0457733D03*
X0124449Y0457733D03*
D407*
X0104946Y0434780D03*
X0096985Y0442210D03*
D408*
X0096985Y0458861D03*
X0126837Y0458861D03*
D409*
X0126705Y0458795D03*
X0097118Y0458795D03*
D410*
X0097250Y0458729D03*
X0097383Y0458729D03*
X0126439Y0458729D03*
X0126572Y0458729D03*
D411*
X0097383Y0424631D03*
X0126439Y0245914D03*
D412*
X0097914Y0350000D03*
X0097781Y0350000D03*
X0097648Y0350000D03*
X0097516Y0350000D03*
X0106007Y0434781D03*
D413*
X0097516Y0426687D03*
D414*
X0097781Y0442277D03*
D415*
X0099108Y0428213D03*
X0098843Y0427947D03*
X0097914Y0427019D03*
X0126705Y0327378D03*
D416*
X0122194Y0337926D03*
X0105874Y0434780D03*
X0097914Y0442210D03*
D417*
X0098046Y0442277D03*
D418*
X0098046Y0458397D03*
X0125776Y0458397D03*
D419*
X0106140Y0434780D03*
X0098312Y0442210D03*
D420*
X0103884Y0434648D03*
X0098577Y0458132D03*
X0125245Y0458132D03*
X0126572Y0246512D03*
D421*
X0126307Y0328904D03*
X0103752Y0434648D03*
X0098843Y0457999D03*
X0124980Y0457999D03*
D422*
X0124715Y0457866D03*
X0099108Y0457866D03*
D423*
X0099241Y0457800D03*
X0124582Y0457800D03*
D424*
X0124184Y0457667D03*
X0099639Y0457667D03*
D425*
X0100037Y0429208D03*
X0099771Y0428943D03*
X0120204Y0436372D03*
X0122194Y0235632D03*
D426*
X0124051Y0457601D03*
X0099771Y0457601D03*
D427*
X0099904Y0457535D03*
X0123919Y0457535D03*
X0126041Y0329501D03*
X0125909Y0307609D03*
D428*
X0123786Y0457468D03*
X0100037Y0457468D03*
D429*
X0101629Y0430734D03*
X0101363Y0430468D03*
X0101098Y0430203D03*
X0100435Y0429540D03*
X0100169Y0429274D03*
D430*
X0100169Y0457402D03*
X0123653Y0457402D03*
D431*
X0123255Y0457203D03*
X0102956Y0434648D03*
X0100567Y0457203D03*
D432*
X0101894Y0430999D03*
X0100965Y0430070D03*
X0100700Y0429805D03*
X0102027Y0349270D03*
X0102159Y0349270D03*
X0102292Y0349270D03*
X0122326Y0337329D03*
X0126439Y0307609D03*
D433*
X0123122Y0457136D03*
X0100700Y0457136D03*
D434*
X0100965Y0285452D03*
X0101098Y0285452D03*
D435*
X0100965Y0457004D03*
X0122857Y0457004D03*
D436*
X0122724Y0456938D03*
X0102690Y0434648D03*
X0101098Y0456938D03*
X0125643Y0330098D03*
D437*
X0122592Y0456871D03*
X0101231Y0456871D03*
D438*
X0101363Y0456805D03*
X0101496Y0456805D03*
X0122459Y0456805D03*
X0125511Y0330231D03*
D439*
X0125245Y0330563D03*
X0122061Y0456606D03*
X0101894Y0456606D03*
D440*
X0102027Y0456539D03*
X0121928Y0456539D03*
X0123388Y0436372D03*
X0123520Y0436372D03*
D441*
X0121796Y0456473D03*
X0121663Y0456473D03*
X0102159Y0456473D03*
D442*
X0102292Y0456407D03*
X0121530Y0456407D03*
X0125511Y0307543D03*
D443*
X0102425Y0431530D03*
D444*
X0102425Y0456341D03*
X0121398Y0456341D03*
D445*
X0123122Y0436372D03*
X0102557Y0434648D03*
D446*
X0102557Y0456274D03*
X0121265Y0456274D03*
D447*
X0122857Y0436372D03*
X0102823Y0434648D03*
D448*
X0102823Y0456142D03*
X0121000Y0456142D03*
X0123919Y0436373D03*
X0124715Y0331160D03*
X0125378Y0307676D03*
D449*
X0125776Y0244389D03*
X0124051Y0436373D03*
X0120734Y0456009D03*
X0103088Y0456009D03*
D450*
X0103221Y0434648D03*
X0122459Y0436373D03*
D451*
X0103354Y0434648D03*
D452*
X0103619Y0434648D03*
X0122061Y0436372D03*
D453*
X0120204Y0455744D03*
X0103752Y0455744D03*
X0103619Y0455744D03*
X0124184Y0331558D03*
X0125643Y0244123D03*
D454*
X0123786Y0331823D03*
X0119938Y0455611D03*
X0103884Y0455611D03*
D455*
X0104017Y0434714D03*
X0126439Y0328572D03*
D456*
X0123255Y0332154D03*
X0119407Y0455412D03*
X0104415Y0455412D03*
D457*
X0104548Y0455345D03*
X0119275Y0455345D03*
X0124715Y0436372D03*
X0123122Y0332221D03*
D458*
X0109191Y0401677D03*
X0104680Y0455279D03*
X0119142Y0455279D03*
X0125245Y0243659D03*
D459*
X0106007Y0262897D03*
X0105078Y0285718D03*
X0104946Y0285718D03*
D460*
X0126307Y0245517D03*
X0104946Y0408179D03*
D461*
X0104946Y0455146D03*
X0118877Y0455146D03*
D462*
X0105344Y0307609D03*
X0105211Y0307609D03*
X0105078Y0307609D03*
D463*
X0122459Y0332619D03*
X0124980Y0436372D03*
X0118744Y0455080D03*
X0105078Y0455080D03*
D464*
X0105211Y0455014D03*
X0118611Y0455014D03*
X0124715Y0307609D03*
X0124980Y0243394D03*
D465*
X0107201Y0307609D03*
X0107069Y0307609D03*
X0106936Y0307609D03*
X0106803Y0307609D03*
X0106670Y0307609D03*
X0106538Y0307609D03*
X0106405Y0307609D03*
X0106272Y0307609D03*
X0106140Y0307609D03*
X0106007Y0307609D03*
X0105874Y0307609D03*
X0105742Y0307609D03*
X0105609Y0307609D03*
X0105476Y0307609D03*
D466*
X0124715Y0243128D03*
X0118081Y0454748D03*
X0105874Y0454748D03*
X0105742Y0454748D03*
D467*
X0106272Y0434913D03*
X0111049Y0430402D03*
X0111314Y0430137D03*
X0111580Y0429871D03*
X0112641Y0428943D03*
X0113835Y0427748D03*
X0114100Y0427483D03*
X0115427Y0426289D03*
X0116091Y0425626D03*
X0119275Y0436372D03*
X0121796Y0234438D03*
D468*
X0117019Y0454284D03*
X0106803Y0454284D03*
D469*
X0106936Y0434316D03*
X0109722Y0431662D03*
X0112243Y0429274D03*
X0113570Y0428080D03*
X0114764Y0426886D03*
D470*
X0116754Y0454151D03*
X0107069Y0454151D03*
D471*
X0107334Y0307543D03*
X0107467Y0307543D03*
X0107599Y0307543D03*
D472*
X0107732Y0307609D03*
X0107865Y0307609D03*
X0107997Y0307609D03*
X0108130Y0307609D03*
X0108263Y0307609D03*
X0108395Y0307609D03*
X0108528Y0307609D03*
X0108661Y0307609D03*
X0108793Y0307609D03*
X0108926Y0307609D03*
X0109059Y0307609D03*
D473*
X0123653Y0307609D03*
X0116091Y0453820D03*
X0107732Y0453820D03*
D474*
X0108130Y0433188D03*
X0108395Y0432923D03*
X0108661Y0432657D03*
D475*
X0108395Y0453554D03*
X0123388Y0307609D03*
D476*
X0109324Y0453090D03*
D477*
X0109589Y0452957D03*
D478*
X0110253Y0452626D03*
D479*
X0110916Y0452360D03*
D480*
X0111181Y0452227D03*
D481*
X0111314Y0452161D03*
D482*
X0111580Y0452029D03*
D483*
X0111712Y0451962D03*
D484*
X0111845Y0451896D03*
D485*
X0112110Y0451763D03*
D486*
X0112243Y0451697D03*
D487*
X0112376Y0451630D03*
D488*
X0112508Y0451564D03*
X0112641Y0451564D03*
D489*
X0112774Y0451498D03*
D490*
X0112906Y0451431D03*
D491*
X0113039Y0451365D03*
D492*
X0113172Y0451299D03*
D493*
X0113304Y0451232D03*
D494*
X0113437Y0451166D03*
D495*
X0113570Y0451100D03*
D496*
X0113702Y0451033D03*
D497*
X0113835Y0450967D03*
D498*
X0113968Y0450901D03*
D499*
X0114100Y0450834D03*
D500*
X0114233Y0450768D03*
D501*
X0114366Y0450702D03*
D502*
X0114498Y0450635D03*
D503*
X0114631Y0450569D03*
X0114764Y0450569D03*
D504*
X0114896Y0450503D03*
D505*
X0117815Y0454616D03*
D506*
X0118877Y0436372D03*
X0119009Y0436372D03*
X0121796Y0299184D03*
D507*
X0119540Y0436372D03*
D508*
X0120469Y0436372D03*
D509*
X0121530Y0436372D03*
D510*
X0121796Y0436372D03*
D511*
X0122326Y0236561D03*
D512*
X0126174Y0245119D03*
X0125643Y0307609D03*
X0122326Y0456739D03*
D513*
X0122459Y0387547D03*
D514*
X0122592Y0307609D03*
D515*
X0122592Y0387481D03*
D516*
X0122724Y0387415D03*
D517*
X0122724Y0436372D03*
D518*
X0122857Y0307609D03*
X0122990Y0307609D03*
D519*
X0122857Y0387348D03*
D520*
X0122990Y0332287D03*
D521*
X0122990Y0387282D03*
D522*
X0122990Y0436372D03*
D523*
X0123122Y0307609D03*
D524*
X0123122Y0387216D03*
D525*
X0123255Y0307609D03*
D526*
X0123255Y0387149D03*
D527*
X0123255Y0436372D03*
D528*
X0123388Y0332022D03*
X0123520Y0332022D03*
D529*
X0123388Y0387083D03*
D530*
X0123520Y0387017D03*
D531*
X0123653Y0386950D03*
D532*
X0123786Y0386884D03*
D533*
X0123919Y0307609D03*
D534*
X0124051Y0331624D03*
X0123919Y0331757D03*
D535*
X0123919Y0386818D03*
X0124051Y0386818D03*
D536*
X0124184Y0307609D03*
D537*
X0124184Y0386751D03*
D538*
X0124317Y0307609D03*
D539*
X0124317Y0331425D03*
D540*
X0124317Y0386685D03*
D541*
X0124317Y0436372D03*
D542*
X0124449Y0307609D03*
D543*
X0124449Y0331358D03*
D544*
X0124449Y0386619D03*
D545*
X0124449Y0436372D03*
D546*
X0124582Y0386552D03*
D547*
X0124582Y0436372D03*
D548*
X0124715Y0386486D03*
D549*
X0124847Y0386419D03*
D550*
X0124847Y0436372D03*
D551*
X0124980Y0307609D03*
D552*
X0124980Y0386353D03*
D553*
X0125113Y0307609D03*
D554*
X0125113Y0330761D03*
D555*
X0125113Y0386287D03*
D556*
X0125245Y0307609D03*
D557*
X0125245Y0386221D03*
X0125378Y0386221D03*
D558*
X0125511Y0386154D03*
D559*
X0125511Y0436372D03*
D560*
X0125643Y0386022D03*
D561*
X0125643Y0436439D03*
D562*
X0125776Y0307609D03*
D563*
X0125776Y0329899D03*
D564*
X0125776Y0385955D03*
D565*
X0125776Y0436372D03*
X0125909Y0436372D03*
D566*
X0125909Y0385889D03*
D567*
X0126041Y0244853D03*
D568*
X0126041Y0307609D03*
D569*
X0126041Y0385822D03*
X0126174Y0385822D03*
D570*
X0126174Y0307609D03*
D571*
X0126174Y0436372D03*
D572*
X0126307Y0385756D03*
D573*
X0126439Y0385690D03*
D574*
X0126572Y0328042D03*
D575*
X0126572Y0385557D03*
X0126705Y0385557D03*
D576*
X0126837Y0432591D03*
D577*
X0126970Y0432657D03*
D578*
X0127103Y0432724D03*
D579*
X0127235Y0432790D03*
D580*
X0127368Y0432856D03*
D581*
X0127501Y0432923D03*
D582*
X0127633Y0432989D03*
D583*
X0127766Y0433056D03*
D584*
X0127899Y0433122D03*
D585*
X0128031Y0433188D03*
X0128164Y0433188D03*
D586*
X0128297Y0433255D03*
D587*
X0128430Y0433321D03*
D588*
X0128562Y0433387D03*
D589*
X0128695Y0433453D03*
D590*
X0128828Y0433520D03*
D591*
X0128960Y0433586D03*
D592*
X0129093Y0433653D03*
D593*
X0129226Y0433719D03*
D594*
X0129358Y0433785D03*
D595*
X0129491Y0433852D03*
D596*
X0129624Y0433918D03*
D597*
X0129756Y0433984D03*
D598*
X0129889Y0434050D03*
D599*
X0130022Y0434117D03*
D600*
X0130154Y0434183D03*
X0130287Y0434183D03*
D601*
X0130420Y0434250D03*
D602*
X0130552Y0434316D03*
M02*
