G75*
%MOIN*%
%OFA0B0*%
%FSLAX25Y25*%
%IPPOS*%
%LPD*%
%AMOC8*
5,1,8,0,0,1.08239X$1,22.5*
%
%ADD10C,0.00000*%
%ADD11C,0.00400*%
%ADD12R,0.00044X0.00044*%
%ADD13R,0.02161X0.00044*%
%ADD14R,0.15345X0.00044*%
%ADD15R,0.02117X0.00044*%
%ADD16R,0.17506X0.00044*%
%ADD17R,0.17461X0.00044*%
%ADD18R,0.02072X0.00044*%
%ADD19R,0.15301X0.00044*%
%ADD20R,0.02028X0.00044*%
%ADD21R,0.15257X0.00044*%
%ADD22R,0.01984X0.00044*%
%ADD23R,0.15213X0.00044*%
%ADD24R,0.01940X0.00044*%
%ADD25R,0.15169X0.00044*%
%ADD26R,0.01896X0.00044*%
%ADD27R,0.15124X0.00044*%
%ADD28R,0.01852X0.00044*%
%ADD29R,0.15080X0.00044*%
%ADD30R,0.01808X0.00044*%
%ADD31R,0.15036X0.00044*%
%ADD32R,0.01764X0.00044*%
%ADD33R,0.14992X0.00044*%
%ADD34R,0.01720X0.00044*%
%ADD35R,0.14948X0.00044*%
%ADD36R,0.01676X0.00044*%
%ADD37R,0.14904X0.00044*%
%ADD38R,0.01631X0.00044*%
%ADD39R,0.14860X0.00044*%
%ADD40R,0.14816X0.00044*%
%ADD41R,0.01543X0.00044*%
%ADD42R,0.14772X0.00044*%
%ADD43R,0.14728X0.00044*%
%ADD44R,0.01499X0.00044*%
%ADD45R,0.14683X0.00044*%
%ADD46R,0.01455X0.00044*%
%ADD47R,0.01411X0.00044*%
%ADD48R,0.14639X0.00044*%
%ADD49R,0.01367X0.00044*%
%ADD50R,0.14595X0.00044*%
%ADD51R,0.01323X0.00044*%
%ADD52R,0.14551X0.00044*%
%ADD53R,0.01279X0.00044*%
%ADD54R,0.14507X0.00044*%
%ADD55R,0.01235X0.00044*%
%ADD56R,0.14463X0.00044*%
%ADD57R,0.01191X0.00044*%
%ADD58R,0.14419X0.00044*%
%ADD59R,0.01146X0.00044*%
%ADD60R,0.14375X0.00044*%
%ADD61R,0.01102X0.00044*%
%ADD62R,0.14331X0.00044*%
%ADD63R,0.01058X0.00044*%
%ADD64R,0.14287X0.00044*%
%ADD65R,0.01014X0.00044*%
%ADD66R,0.14243X0.00044*%
%ADD67R,0.00970X0.00044*%
%ADD68R,0.14198X0.00044*%
%ADD69R,0.14154X0.00044*%
%ADD70R,0.00926X0.00044*%
%ADD71R,0.14110X0.00044*%
%ADD72R,0.00882X0.00044*%
%ADD73R,0.14066X0.00044*%
%ADD74R,0.00838X0.00044*%
%ADD75R,0.14022X0.00044*%
%ADD76R,0.00794X0.00044*%
%ADD77R,0.00750X0.00044*%
%ADD78R,0.13978X0.00044*%
%ADD79R,0.00706X0.00044*%
%ADD80R,0.13934X0.00044*%
%ADD81R,0.00661X0.00044*%
%ADD82R,0.13890X0.00044*%
%ADD83R,0.00617X0.00044*%
%ADD84R,0.13846X0.00044*%
%ADD85R,0.00573X0.00044*%
%ADD86R,0.13802X0.00044*%
%ADD87R,0.00529X0.00044*%
%ADD88R,0.13757X0.00044*%
%ADD89R,0.00485X0.00044*%
%ADD90R,0.13713X0.00044*%
%ADD91R,0.00441X0.00044*%
%ADD92R,0.13669X0.00044*%
%ADD93R,0.00397X0.00044*%
%ADD94R,0.13625X0.00044*%
%ADD95R,0.00353X0.00044*%
%ADD96R,0.13581X0.00044*%
%ADD97R,0.00309X0.00044*%
%ADD98R,0.13537X0.00044*%
%ADD99R,0.00265X0.00044*%
%ADD100R,0.13493X0.00044*%
%ADD101R,0.13449X0.00044*%
%ADD102R,0.00220X0.00044*%
%ADD103R,0.13405X0.00044*%
%ADD104R,0.00132X0.00044*%
%ADD105R,0.13361X0.00044*%
%ADD106R,0.00088X0.00044*%
%ADD107R,0.13317X0.00044*%
%ADD108R,0.13272X0.00044*%
%ADD109R,0.13228X0.00044*%
%ADD110R,0.13184X0.00044*%
%ADD111R,0.13140X0.00044*%
%ADD112R,0.13096X0.00044*%
%ADD113R,0.00176X0.00044*%
%ADD114R,0.13052X0.00044*%
%ADD115R,0.13008X0.00044*%
%ADD116R,0.12964X0.00044*%
%ADD117R,0.12920X0.00044*%
%ADD118R,0.12876X0.00044*%
%ADD119R,0.12831X0.00044*%
%ADD120R,0.12787X0.00044*%
%ADD121R,0.12743X0.00044*%
%ADD122R,0.12699X0.00044*%
%ADD123R,0.12655X0.00044*%
%ADD124R,0.12611X0.00044*%
%ADD125R,0.12567X0.00044*%
%ADD126R,0.12523X0.00044*%
%ADD127R,0.12479X0.00044*%
%ADD128R,0.12435X0.00044*%
%ADD129R,0.12391X0.00044*%
%ADD130R,0.12346X0.00044*%
%ADD131R,0.12302X0.00044*%
%ADD132R,0.12258X0.00044*%
%ADD133R,0.12214X0.00044*%
%ADD134R,0.12170X0.00044*%
%ADD135R,0.12126X0.00044*%
%ADD136R,0.12082X0.00044*%
%ADD137R,0.12038X0.00044*%
%ADD138R,0.11950X0.00044*%
%ADD139R,0.11906X0.00044*%
%ADD140R,0.11861X0.00044*%
%ADD141R,0.11817X0.00044*%
%ADD142R,0.11773X0.00044*%
%ADD143R,0.11729X0.00044*%
%ADD144R,0.11685X0.00044*%
%ADD145R,0.01587X0.00044*%
%ADD146R,0.11641X0.00044*%
%ADD147R,0.11597X0.00044*%
%ADD148R,0.10539X0.00044*%
%ADD149R,0.03704X0.00044*%
%ADD150R,0.06570X0.00044*%
%ADD151R,0.08422X0.00044*%
%ADD152R,0.04189X0.00044*%
%ADD153R,0.02734X0.00044*%
%ADD154R,0.08334X0.00044*%
%ADD155R,0.04586X0.00044*%
%ADD156R,0.03263X0.00044*%
%ADD157R,0.06614X0.00044*%
%ADD158R,0.08246X0.00044*%
%ADD159R,0.04850X0.00044*%
%ADD160R,0.03748X0.00044*%
%ADD161R,0.06658X0.00044*%
%ADD162R,0.08202X0.00044*%
%ADD163R,0.04983X0.00044*%
%ADD164R,0.03969X0.00044*%
%ADD165R,0.06702X0.00044*%
%ADD166R,0.08113X0.00044*%
%ADD167R,0.05247X0.00044*%
%ADD168R,0.04321X0.00044*%
%ADD169R,0.06746X0.00044*%
%ADD170R,0.08025X0.00044*%
%ADD171R,0.05380X0.00044*%
%ADD172R,0.07937X0.00044*%
%ADD173R,0.05512X0.00044*%
%ADD174R,0.04806X0.00044*%
%ADD175R,0.06835X0.00044*%
%ADD176R,0.07893X0.00044*%
%ADD177R,0.05644X0.00044*%
%ADD178R,0.05027X0.00044*%
%ADD179R,0.07805X0.00044*%
%ADD180R,0.05776X0.00044*%
%ADD181R,0.05203X0.00044*%
%ADD182R,0.06879X0.00044*%
%ADD183R,0.07717X0.00044*%
%ADD184R,0.05865X0.00044*%
%ADD185R,0.06923X0.00044*%
%ADD186R,0.07628X0.00044*%
%ADD187R,0.05953X0.00044*%
%ADD188R,0.05556X0.00044*%
%ADD189R,0.06967X0.00044*%
%ADD190R,0.07540X0.00044*%
%ADD191R,0.06041X0.00044*%
%ADD192R,0.05732X0.00044*%
%ADD193R,0.07011X0.00044*%
%ADD194R,0.02205X0.00044*%
%ADD195R,0.07452X0.00044*%
%ADD196R,0.06129X0.00044*%
%ADD197R,0.07055X0.00044*%
%ADD198R,0.02249X0.00044*%
%ADD199R,0.07364X0.00044*%
%ADD200R,0.06217X0.00044*%
%ADD201R,0.05997X0.00044*%
%ADD202R,0.07099X0.00044*%
%ADD203R,0.02293X0.00044*%
%ADD204R,0.07276X0.00044*%
%ADD205R,0.06306X0.00044*%
%ADD206R,0.06173X0.00044*%
%ADD207R,0.02337X0.00044*%
%ADD208R,0.07187X0.00044*%
%ADD209R,0.06350X0.00044*%
%ADD210R,0.06261X0.00044*%
%ADD211R,0.07143X0.00044*%
%ADD212R,0.02381X0.00044*%
%ADD213R,0.06438X0.00044*%
%ADD214R,0.06394X0.00044*%
%ADD215R,0.02425X0.00044*%
%ADD216R,0.06482X0.00044*%
%ADD217R,0.06526X0.00044*%
%ADD218R,0.07231X0.00044*%
%ADD219R,0.02469X0.00044*%
%ADD220R,0.07320X0.00044*%
%ADD221R,0.02513X0.00044*%
%ADD222R,0.06791X0.00044*%
%ADD223R,0.02557X0.00044*%
%ADD224R,0.07408X0.00044*%
%ADD225R,0.02602X0.00044*%
%ADD226R,0.02646X0.00044*%
%ADD227R,0.02690X0.00044*%
%ADD228R,0.07496X0.00044*%
%ADD229R,0.02778X0.00044*%
%ADD230R,0.07584X0.00044*%
%ADD231R,0.02822X0.00044*%
%ADD232R,0.02866X0.00044*%
%ADD233R,0.02910X0.00044*%
%ADD234R,0.07672X0.00044*%
%ADD235R,0.02954X0.00044*%
%ADD236R,0.02998X0.00044*%
%ADD237R,0.04277X0.00044*%
%ADD238R,0.03439X0.00044*%
%ADD239R,0.03395X0.00044*%
%ADD240R,0.03043X0.00044*%
%ADD241R,0.03351X0.00044*%
%ADD242R,0.03087X0.00044*%
%ADD243R,0.05688X0.00044*%
%ADD244R,0.03131X0.00044*%
%ADD245R,0.05600X0.00044*%
%ADD246R,0.03175X0.00044*%
%ADD247R,0.05468X0.00044*%
%ADD248R,0.03219X0.00044*%
%ADD249R,0.05291X0.00044*%
%ADD250R,0.03307X0.00044*%
%ADD251R,0.05159X0.00044*%
%ADD252R,0.05071X0.00044*%
%ADD253R,0.03483X0.00044*%
%ADD254R,0.04894X0.00044*%
%ADD255R,0.03528X0.00044*%
%ADD256R,0.03572X0.00044*%
%ADD257R,0.04718X0.00044*%
%ADD258R,0.03616X0.00044*%
%ADD259R,0.04630X0.00044*%
%ADD260R,0.03660X0.00044*%
%ADD261R,0.04542X0.00044*%
%ADD262R,0.04454X0.00044*%
%ADD263R,0.04365X0.00044*%
%ADD264R,0.03792X0.00044*%
%ADD265R,0.03836X0.00044*%
%ADD266R,0.03880X0.00044*%
%ADD267R,0.04145X0.00044*%
%ADD268R,0.04057X0.00044*%
%ADD269R,0.03924X0.00044*%
%ADD270R,0.04013X0.00044*%
%ADD271R,0.04101X0.00044*%
%ADD272R,0.04233X0.00044*%
%ADD273R,0.04409X0.00044*%
%ADD274R,0.04498X0.00044*%
%ADD275R,0.04674X0.00044*%
%ADD276R,0.04762X0.00044*%
%ADD277R,0.05115X0.00044*%
%ADD278R,0.05335X0.00044*%
%ADD279R,0.05424X0.00044*%
%ADD280R,0.05820X0.00044*%
%ADD281R,0.05909X0.00044*%
%ADD282R,0.09436X0.00044*%
%ADD283R,0.06085X0.00044*%
%ADD284R,0.09348X0.00044*%
%ADD285R,0.09304X0.00044*%
%ADD286R,0.09260X0.00044*%
%ADD287R,0.07849X0.00044*%
%ADD288R,0.07981X0.00044*%
%ADD289R,0.08069X0.00044*%
%ADD290R,0.08157X0.00044*%
%ADD291R,0.08290X0.00044*%
%ADD292R,0.08378X0.00044*%
%ADD293R,0.08466X0.00044*%
%ADD294R,0.08510X0.00044*%
%ADD295R,0.08554X0.00044*%
%ADD296R,0.08598X0.00044*%
%ADD297R,0.08643X0.00044*%
%ADD298R,0.08687X0.00044*%
%ADD299R,0.08731X0.00044*%
%ADD300R,0.08775X0.00044*%
%ADD301R,0.08819X0.00044*%
%ADD302R,0.08863X0.00044*%
%ADD303R,0.08907X0.00044*%
%ADD304R,0.08951X0.00044*%
%ADD305R,0.08995X0.00044*%
%ADD306R,0.09039X0.00044*%
%ADD307R,0.09083X0.00044*%
%ADD308R,0.04939X0.00044*%
%ADD309R,0.19005X0.00044*%
%ADD310R,0.18961X0.00044*%
%ADD311R,0.18917X0.00044*%
%ADD312R,0.18872X0.00044*%
%ADD313R,0.18828X0.00044*%
%ADD314R,0.18784X0.00044*%
%ADD315R,0.18740X0.00044*%
%ADD316R,0.18696X0.00044*%
%ADD317R,0.18652X0.00044*%
%ADD318R,0.18608X0.00044*%
%ADD319R,0.18564X0.00044*%
%ADD320R,0.18520X0.00044*%
%ADD321R,0.18476X0.00044*%
%ADD322R,0.18431X0.00044*%
%ADD323R,0.18387X0.00044*%
%ADD324R,0.18343X0.00044*%
%ADD325R,0.18299X0.00044*%
%ADD326R,0.18255X0.00044*%
%ADD327R,0.18211X0.00044*%
%ADD328R,0.18167X0.00044*%
%ADD329R,0.18123X0.00044*%
%ADD330R,0.18079X0.00044*%
%ADD331R,0.17991X0.00044*%
%ADD332R,0.17946X0.00044*%
%ADD333R,0.17902X0.00044*%
%ADD334R,0.17858X0.00044*%
%ADD335R,0.17814X0.00044*%
%ADD336R,0.17770X0.00044*%
%ADD337R,0.17682X0.00044*%
%ADD338R,0.09701X0.00044*%
%ADD339R,0.09745X0.00044*%
%ADD340R,0.09789X0.00044*%
%ADD341R,0.09833X0.00044*%
%ADD342R,0.09877X0.00044*%
%ADD343R,0.09921X0.00044*%
%ADD344R,0.09965X0.00044*%
%ADD345R,0.10009X0.00044*%
%ADD346R,0.10054X0.00044*%
%ADD347R,0.10098X0.00044*%
%ADD348R,0.10142X0.00044*%
%ADD349R,0.10186X0.00044*%
%ADD350R,0.10230X0.00044*%
%ADD351R,0.10274X0.00044*%
%ADD352R,0.10318X0.00044*%
%ADD353R,0.10362X0.00044*%
%ADD354R,0.10406X0.00044*%
%ADD355R,0.10450X0.00044*%
%ADD356R,0.10494X0.00044*%
%ADD357R,0.10583X0.00044*%
%ADD358R,0.10627X0.00044*%
%ADD359R,0.10671X0.00044*%
%ADD360R,0.10715X0.00044*%
%ADD361R,0.10759X0.00044*%
%ADD362R,0.10803X0.00044*%
%ADD363R,0.10847X0.00044*%
D10*
X0020685Y0060655D02*
X0079740Y0001600D01*
X0138795Y0060655D01*
X0138795Y0493726D01*
X0079740Y0552781D01*
X0020685Y0493726D01*
X0020685Y0060655D01*
D11*
X0033070Y0088040D02*
X0036139Y0088040D01*
X0037674Y0088040D02*
X0037674Y0092644D01*
X0040743Y0092644D01*
X0042278Y0092644D02*
X0042278Y0088040D01*
X0044580Y0088040D01*
X0045347Y0088807D01*
X0045347Y0091877D01*
X0044580Y0092644D01*
X0042278Y0092644D01*
X0040743Y0088040D02*
X0037674Y0088040D01*
X0037674Y0090342D02*
X0039209Y0090342D01*
X0037811Y0076600D02*
X0037922Y0076527D01*
X0038035Y0076458D01*
X0038149Y0076391D01*
X0038266Y0076328D01*
X0038384Y0076269D01*
X0038505Y0076213D01*
X0038626Y0076160D01*
X0038749Y0076111D01*
X0038874Y0076066D01*
X0039000Y0076024D01*
X0039127Y0075986D01*
X0039255Y0075952D01*
X0039384Y0075921D01*
X0039514Y0075894D01*
X0039644Y0075871D01*
X0039775Y0075852D01*
X0039907Y0075837D01*
X0040039Y0075825D01*
X0040171Y0075817D01*
X0040304Y0075813D01*
X0040436Y0075813D01*
X0040569Y0075817D01*
X0040701Y0075825D01*
X0040833Y0075837D01*
X0040965Y0075852D01*
X0041096Y0075871D01*
X0041226Y0075894D01*
X0041356Y0075921D01*
X0041485Y0075952D01*
X0041613Y0075986D01*
X0041740Y0076024D01*
X0041866Y0076066D01*
X0041991Y0076111D01*
X0042114Y0076160D01*
X0042235Y0076213D01*
X0042356Y0076269D01*
X0042474Y0076328D01*
X0042591Y0076391D01*
X0042705Y0076458D01*
X0042818Y0076527D01*
X0042929Y0076600D01*
X0043918Y0075325D02*
X0046472Y0075325D01*
X0046472Y0075025D02*
X0043618Y0075025D01*
X0044307Y0075714D01*
X0046472Y0075714D01*
X0046472Y0075025D01*
X0034268Y0075025D01*
X0034268Y0085655D02*
X0046472Y0085655D01*
X0046882Y0088040D02*
X0049951Y0091109D01*
X0049951Y0091877D01*
X0049184Y0092644D01*
X0047649Y0092644D01*
X0046882Y0091877D01*
X0046882Y0088040D02*
X0049951Y0088040D01*
X0057720Y0060609D02*
X0060022Y0060609D01*
X0060789Y0059841D01*
X0060789Y0058307D01*
X0060022Y0057539D01*
X0057720Y0057539D01*
X0057720Y0056005D02*
X0057720Y0060609D01*
X0059254Y0057539D02*
X0060789Y0056005D01*
X0062324Y0056005D02*
X0065393Y0056005D01*
X0063858Y0056005D02*
X0063858Y0060609D01*
X0062324Y0059074D01*
X0072440Y0053274D02*
X0072440Y0048670D01*
X0075509Y0048670D01*
X0077044Y0048670D02*
X0077044Y0053274D01*
X0080113Y0053274D01*
X0081648Y0053274D02*
X0081648Y0048670D01*
X0083950Y0048670D01*
X0084717Y0049437D01*
X0084717Y0052507D01*
X0083950Y0053274D01*
X0081648Y0053274D01*
X0080113Y0048670D02*
X0077044Y0048670D01*
X0077044Y0050972D02*
X0078579Y0050972D01*
X0077181Y0037230D02*
X0077292Y0037157D01*
X0077405Y0037088D01*
X0077519Y0037021D01*
X0077636Y0036958D01*
X0077754Y0036899D01*
X0077875Y0036843D01*
X0077996Y0036790D01*
X0078119Y0036741D01*
X0078244Y0036696D01*
X0078370Y0036654D01*
X0078497Y0036616D01*
X0078625Y0036582D01*
X0078754Y0036551D01*
X0078884Y0036524D01*
X0079014Y0036501D01*
X0079145Y0036482D01*
X0079277Y0036467D01*
X0079409Y0036455D01*
X0079541Y0036447D01*
X0079674Y0036443D01*
X0079806Y0036443D01*
X0079939Y0036447D01*
X0080071Y0036455D01*
X0080203Y0036467D01*
X0080335Y0036482D01*
X0080466Y0036501D01*
X0080596Y0036524D01*
X0080726Y0036551D01*
X0080855Y0036582D01*
X0080983Y0036616D01*
X0081110Y0036654D01*
X0081236Y0036696D01*
X0081361Y0036741D01*
X0081484Y0036790D01*
X0081605Y0036843D01*
X0081726Y0036899D01*
X0081844Y0036958D01*
X0081961Y0037021D01*
X0082075Y0037088D01*
X0082188Y0037157D01*
X0082299Y0037230D01*
X0083604Y0036270D02*
X0085843Y0036270D01*
X0085843Y0036344D02*
X0083677Y0036344D01*
X0082988Y0035655D01*
X0085843Y0035655D01*
X0085843Y0036344D01*
X0085843Y0035872D02*
X0083205Y0035872D01*
X0085843Y0035655D02*
X0073638Y0035655D01*
X0073638Y0046285D02*
X0085843Y0046285D01*
X0086252Y0048670D02*
X0089321Y0048670D01*
X0087787Y0048670D02*
X0087787Y0053274D01*
X0086252Y0051739D01*
X0082299Y0044710D02*
X0082188Y0044783D01*
X0082075Y0044852D01*
X0081961Y0044919D01*
X0081844Y0044982D01*
X0081726Y0045041D01*
X0081605Y0045097D01*
X0081484Y0045150D01*
X0081361Y0045199D01*
X0081236Y0045244D01*
X0081110Y0045286D01*
X0080983Y0045324D01*
X0080855Y0045358D01*
X0080726Y0045389D01*
X0080596Y0045416D01*
X0080466Y0045439D01*
X0080335Y0045458D01*
X0080203Y0045473D01*
X0080071Y0045485D01*
X0079939Y0045493D01*
X0079806Y0045497D01*
X0079674Y0045497D01*
X0079541Y0045493D01*
X0079409Y0045485D01*
X0079277Y0045473D01*
X0079145Y0045458D01*
X0079014Y0045439D01*
X0078884Y0045416D01*
X0078754Y0045389D01*
X0078625Y0045358D01*
X0078497Y0045324D01*
X0078370Y0045286D01*
X0078244Y0045244D01*
X0078119Y0045199D01*
X0077996Y0045150D01*
X0077875Y0045097D01*
X0077754Y0045041D01*
X0077636Y0044982D01*
X0077519Y0044919D01*
X0077405Y0044852D01*
X0077292Y0044783D01*
X0077181Y0044710D01*
X0073638Y0114395D02*
X0085843Y0114395D01*
X0082988Y0114395D01*
X0083677Y0115084D01*
X0085843Y0115084D01*
X0085843Y0114395D01*
X0085843Y0114777D02*
X0083370Y0114777D01*
X0085843Y0125025D02*
X0073638Y0125025D01*
X0072440Y0127410D02*
X0072440Y0132014D01*
X0072440Y0127410D02*
X0075509Y0127410D01*
X0077044Y0127410D02*
X0077044Y0132014D01*
X0080113Y0132014D01*
X0081648Y0132014D02*
X0081648Y0127410D01*
X0083950Y0127410D01*
X0084717Y0128178D01*
X0084717Y0131247D01*
X0083950Y0132014D01*
X0081648Y0132014D01*
X0080113Y0127410D02*
X0077044Y0127410D01*
X0077044Y0129712D02*
X0078579Y0129712D01*
X0077181Y0115970D02*
X0077292Y0115897D01*
X0077405Y0115828D01*
X0077519Y0115761D01*
X0077636Y0115698D01*
X0077754Y0115639D01*
X0077875Y0115583D01*
X0077996Y0115530D01*
X0078119Y0115481D01*
X0078244Y0115436D01*
X0078370Y0115394D01*
X0078497Y0115356D01*
X0078625Y0115322D01*
X0078754Y0115291D01*
X0078884Y0115264D01*
X0079014Y0115241D01*
X0079145Y0115222D01*
X0079277Y0115207D01*
X0079409Y0115195D01*
X0079541Y0115187D01*
X0079674Y0115183D01*
X0079806Y0115183D01*
X0079939Y0115187D01*
X0080071Y0115195D01*
X0080203Y0115207D01*
X0080335Y0115222D01*
X0080466Y0115241D01*
X0080596Y0115264D01*
X0080726Y0115291D01*
X0080855Y0115322D01*
X0080983Y0115356D01*
X0081110Y0115394D01*
X0081236Y0115436D01*
X0081361Y0115481D01*
X0081484Y0115530D01*
X0081605Y0115583D01*
X0081726Y0115639D01*
X0081844Y0115698D01*
X0081961Y0115761D01*
X0082075Y0115828D01*
X0082188Y0115897D01*
X0082299Y0115970D01*
X0082299Y0123450D02*
X0082188Y0123523D01*
X0082075Y0123592D01*
X0081961Y0123659D01*
X0081844Y0123722D01*
X0081726Y0123781D01*
X0081605Y0123837D01*
X0081484Y0123890D01*
X0081361Y0123939D01*
X0081236Y0123984D01*
X0081110Y0124026D01*
X0080983Y0124064D01*
X0080855Y0124098D01*
X0080726Y0124129D01*
X0080596Y0124156D01*
X0080466Y0124179D01*
X0080335Y0124198D01*
X0080203Y0124213D01*
X0080071Y0124225D01*
X0079939Y0124233D01*
X0079806Y0124237D01*
X0079674Y0124237D01*
X0079541Y0124233D01*
X0079409Y0124225D01*
X0079277Y0124213D01*
X0079145Y0124198D01*
X0079014Y0124179D01*
X0078884Y0124156D01*
X0078754Y0124129D01*
X0078625Y0124098D01*
X0078497Y0124064D01*
X0078370Y0124026D01*
X0078244Y0123984D01*
X0078119Y0123939D01*
X0077996Y0123890D01*
X0077875Y0123837D01*
X0077754Y0123781D01*
X0077636Y0123722D01*
X0077519Y0123659D01*
X0077405Y0123592D01*
X0077292Y0123523D01*
X0077181Y0123450D01*
X0086252Y0129712D02*
X0089321Y0129712D01*
X0088554Y0127410D02*
X0088554Y0132014D01*
X0086252Y0129712D01*
X0094720Y0149320D02*
X0094720Y0153924D01*
X0097022Y0153924D01*
X0097789Y0153156D01*
X0097789Y0151622D01*
X0097022Y0150854D01*
X0094720Y0150854D01*
X0096254Y0150854D02*
X0097789Y0149320D01*
X0099324Y0149320D02*
X0102393Y0152389D01*
X0102393Y0153156D01*
X0101626Y0153924D01*
X0100091Y0153924D01*
X0099324Y0153156D01*
X0099324Y0149320D02*
X0102393Y0149320D01*
X0111810Y0166780D02*
X0114880Y0166780D01*
X0116414Y0166780D02*
X0119483Y0166780D01*
X0121018Y0166780D02*
X0123320Y0166780D01*
X0124087Y0167548D01*
X0124087Y0170617D01*
X0123320Y0171384D01*
X0121018Y0171384D01*
X0121018Y0166780D01*
X0119483Y0171384D02*
X0116414Y0171384D01*
X0116414Y0166780D01*
X0116414Y0169082D02*
X0117949Y0169082D01*
X0116551Y0155340D02*
X0116662Y0155267D01*
X0116775Y0155198D01*
X0116889Y0155131D01*
X0117006Y0155068D01*
X0117124Y0155009D01*
X0117245Y0154953D01*
X0117366Y0154900D01*
X0117489Y0154851D01*
X0117614Y0154806D01*
X0117740Y0154764D01*
X0117867Y0154726D01*
X0117995Y0154692D01*
X0118124Y0154661D01*
X0118254Y0154634D01*
X0118384Y0154611D01*
X0118515Y0154592D01*
X0118647Y0154577D01*
X0118779Y0154565D01*
X0118911Y0154557D01*
X0119044Y0154553D01*
X0119176Y0154553D01*
X0119309Y0154557D01*
X0119441Y0154565D01*
X0119573Y0154577D01*
X0119705Y0154592D01*
X0119836Y0154611D01*
X0119966Y0154634D01*
X0120096Y0154661D01*
X0120225Y0154692D01*
X0120353Y0154726D01*
X0120480Y0154764D01*
X0120606Y0154806D01*
X0120731Y0154851D01*
X0120854Y0154900D01*
X0120975Y0154953D01*
X0121096Y0155009D01*
X0121214Y0155068D01*
X0121331Y0155131D01*
X0121445Y0155198D01*
X0121558Y0155267D01*
X0121669Y0155340D01*
X0122823Y0154230D02*
X0125213Y0154230D01*
X0125213Y0154454D02*
X0123047Y0154454D01*
X0122358Y0153765D01*
X0125213Y0153765D01*
X0125213Y0154454D01*
X0125213Y0153831D02*
X0122424Y0153831D01*
X0125213Y0153765D02*
X0113008Y0153765D01*
X0113008Y0164395D02*
X0125213Y0164395D01*
X0126389Y0166780D02*
X0125622Y0167548D01*
X0125622Y0169082D01*
X0127924Y0169082D01*
X0128691Y0168315D01*
X0128691Y0167548D01*
X0127924Y0166780D01*
X0126389Y0166780D01*
X0125622Y0169082D02*
X0127157Y0170617D01*
X0128691Y0171384D01*
X0121669Y0162820D02*
X0121558Y0162893D01*
X0121445Y0162962D01*
X0121331Y0163029D01*
X0121214Y0163092D01*
X0121096Y0163151D01*
X0120975Y0163207D01*
X0120854Y0163260D01*
X0120731Y0163309D01*
X0120606Y0163354D01*
X0120480Y0163396D01*
X0120353Y0163434D01*
X0120225Y0163468D01*
X0120096Y0163499D01*
X0119966Y0163526D01*
X0119836Y0163549D01*
X0119705Y0163568D01*
X0119573Y0163583D01*
X0119441Y0163595D01*
X0119309Y0163603D01*
X0119176Y0163607D01*
X0119044Y0163607D01*
X0118911Y0163603D01*
X0118779Y0163595D01*
X0118647Y0163583D01*
X0118515Y0163568D01*
X0118384Y0163549D01*
X0118254Y0163526D01*
X0118124Y0163499D01*
X0117995Y0163468D01*
X0117867Y0163434D01*
X0117740Y0163396D01*
X0117614Y0163354D01*
X0117489Y0163309D01*
X0117366Y0163260D01*
X0117245Y0163207D01*
X0117124Y0163151D01*
X0117006Y0163092D01*
X0116889Y0163029D01*
X0116775Y0162962D01*
X0116662Y0162893D01*
X0116551Y0162820D01*
X0111810Y0166780D02*
X0111810Y0171384D01*
X0113008Y0232506D02*
X0125213Y0232506D01*
X0122358Y0232506D01*
X0123047Y0233194D01*
X0125213Y0233194D01*
X0125213Y0232506D01*
X0125213Y0232737D02*
X0122589Y0232737D01*
X0122988Y0233135D02*
X0125213Y0233135D01*
X0125213Y0243135D02*
X0113008Y0243135D01*
X0111810Y0245520D02*
X0114880Y0245520D01*
X0116414Y0245520D02*
X0116414Y0250124D01*
X0119483Y0250124D01*
X0121018Y0250124D02*
X0121018Y0245520D01*
X0123320Y0245520D01*
X0124087Y0246288D01*
X0124087Y0249357D01*
X0123320Y0250124D01*
X0121018Y0250124D01*
X0119483Y0245520D02*
X0116414Y0245520D01*
X0116414Y0247822D02*
X0117949Y0247822D01*
X0116551Y0234080D02*
X0116662Y0234007D01*
X0116775Y0233938D01*
X0116889Y0233871D01*
X0117006Y0233808D01*
X0117124Y0233749D01*
X0117245Y0233693D01*
X0117366Y0233640D01*
X0117489Y0233591D01*
X0117614Y0233546D01*
X0117740Y0233504D01*
X0117867Y0233466D01*
X0117995Y0233432D01*
X0118124Y0233401D01*
X0118254Y0233374D01*
X0118384Y0233351D01*
X0118515Y0233332D01*
X0118647Y0233317D01*
X0118779Y0233305D01*
X0118911Y0233297D01*
X0119044Y0233293D01*
X0119176Y0233293D01*
X0119309Y0233297D01*
X0119441Y0233305D01*
X0119573Y0233317D01*
X0119705Y0233332D01*
X0119836Y0233351D01*
X0119966Y0233374D01*
X0120096Y0233401D01*
X0120225Y0233432D01*
X0120353Y0233466D01*
X0120480Y0233504D01*
X0120606Y0233546D01*
X0120731Y0233591D01*
X0120854Y0233640D01*
X0120975Y0233693D01*
X0121096Y0233749D01*
X0121214Y0233808D01*
X0121331Y0233871D01*
X0121445Y0233938D01*
X0121558Y0234007D01*
X0121669Y0234080D01*
X0121669Y0241561D02*
X0121558Y0241634D01*
X0121445Y0241703D01*
X0121331Y0241770D01*
X0121214Y0241833D01*
X0121096Y0241892D01*
X0120975Y0241948D01*
X0120854Y0242001D01*
X0120731Y0242050D01*
X0120606Y0242095D01*
X0120480Y0242137D01*
X0120353Y0242175D01*
X0120225Y0242209D01*
X0120096Y0242240D01*
X0119966Y0242267D01*
X0119836Y0242290D01*
X0119705Y0242309D01*
X0119573Y0242324D01*
X0119441Y0242336D01*
X0119309Y0242344D01*
X0119176Y0242348D01*
X0119044Y0242348D01*
X0118911Y0242344D01*
X0118779Y0242336D01*
X0118647Y0242324D01*
X0118515Y0242309D01*
X0118384Y0242290D01*
X0118254Y0242267D01*
X0118124Y0242240D01*
X0117995Y0242209D01*
X0117867Y0242175D01*
X0117740Y0242137D01*
X0117614Y0242095D01*
X0117489Y0242050D01*
X0117366Y0242001D01*
X0117245Y0241948D01*
X0117124Y0241892D01*
X0117006Y0241833D01*
X0116889Y0241770D01*
X0116775Y0241703D01*
X0116662Y0241634D01*
X0116551Y0241561D01*
X0111810Y0245520D02*
X0111810Y0250124D01*
X0125622Y0249357D02*
X0125622Y0248590D01*
X0126389Y0247822D01*
X0128691Y0247822D01*
X0128691Y0246288D02*
X0128691Y0249357D01*
X0127924Y0250124D01*
X0126389Y0250124D01*
X0125622Y0249357D01*
X0125622Y0246288D02*
X0126389Y0245520D01*
X0127924Y0245520D01*
X0128691Y0246288D01*
X0125213Y0311246D02*
X0113008Y0311246D01*
X0113008Y0321876D02*
X0125213Y0321876D01*
X0125622Y0324261D02*
X0128691Y0324261D01*
X0127157Y0324261D02*
X0127157Y0328865D01*
X0125622Y0327330D01*
X0124087Y0328097D02*
X0124087Y0325028D01*
X0123320Y0324261D01*
X0121018Y0324261D01*
X0121018Y0328865D01*
X0123320Y0328865D01*
X0124087Y0328097D01*
X0119483Y0328865D02*
X0116414Y0328865D01*
X0116414Y0324261D01*
X0119483Y0324261D01*
X0117949Y0326563D02*
X0116414Y0326563D01*
X0114880Y0324261D02*
X0111810Y0324261D01*
X0111810Y0328865D01*
X0116551Y0312820D02*
X0116662Y0312747D01*
X0116775Y0312678D01*
X0116889Y0312611D01*
X0117006Y0312548D01*
X0117124Y0312489D01*
X0117245Y0312433D01*
X0117366Y0312380D01*
X0117489Y0312331D01*
X0117614Y0312286D01*
X0117740Y0312244D01*
X0117867Y0312206D01*
X0117995Y0312172D01*
X0118124Y0312141D01*
X0118254Y0312114D01*
X0118384Y0312091D01*
X0118515Y0312072D01*
X0118647Y0312057D01*
X0118779Y0312045D01*
X0118911Y0312037D01*
X0119044Y0312033D01*
X0119176Y0312033D01*
X0119309Y0312037D01*
X0119441Y0312045D01*
X0119573Y0312057D01*
X0119705Y0312072D01*
X0119836Y0312091D01*
X0119966Y0312114D01*
X0120096Y0312141D01*
X0120225Y0312172D01*
X0120353Y0312206D01*
X0120480Y0312244D01*
X0120606Y0312286D01*
X0120731Y0312331D01*
X0120854Y0312380D01*
X0120975Y0312433D01*
X0121096Y0312489D01*
X0121214Y0312548D01*
X0121331Y0312611D01*
X0121445Y0312678D01*
X0121558Y0312747D01*
X0121669Y0312820D01*
X0122754Y0311642D02*
X0125213Y0311642D01*
X0125213Y0311935D02*
X0123047Y0311935D01*
X0122358Y0311246D01*
X0125213Y0311246D01*
X0125213Y0311935D01*
X0130226Y0324261D02*
X0133295Y0327330D01*
X0133295Y0328097D01*
X0132528Y0328865D01*
X0130993Y0328865D01*
X0130226Y0328097D01*
X0130226Y0324261D02*
X0133295Y0324261D01*
X0121669Y0320301D02*
X0121558Y0320374D01*
X0121445Y0320443D01*
X0121331Y0320510D01*
X0121214Y0320573D01*
X0121096Y0320632D01*
X0120975Y0320688D01*
X0120854Y0320741D01*
X0120731Y0320790D01*
X0120606Y0320835D01*
X0120480Y0320877D01*
X0120353Y0320915D01*
X0120225Y0320949D01*
X0120096Y0320980D01*
X0119966Y0321007D01*
X0119836Y0321030D01*
X0119705Y0321049D01*
X0119573Y0321064D01*
X0119441Y0321076D01*
X0119309Y0321084D01*
X0119176Y0321088D01*
X0119044Y0321088D01*
X0118911Y0321084D01*
X0118779Y0321076D01*
X0118647Y0321064D01*
X0118515Y0321049D01*
X0118384Y0321030D01*
X0118254Y0321007D01*
X0118124Y0320980D01*
X0117995Y0320949D01*
X0117867Y0320915D01*
X0117740Y0320877D01*
X0117614Y0320835D01*
X0117489Y0320790D01*
X0117366Y0320741D01*
X0117245Y0320688D01*
X0117124Y0320632D01*
X0117006Y0320573D01*
X0116889Y0320510D01*
X0116775Y0320443D01*
X0116662Y0320374D01*
X0116551Y0320301D01*
X0113008Y0389986D02*
X0125213Y0389986D01*
X0122358Y0389986D01*
X0123047Y0390675D01*
X0125213Y0390675D01*
X0125213Y0389986D01*
X0125213Y0390149D02*
X0122521Y0390149D01*
X0122919Y0390547D02*
X0125213Y0390547D01*
X0125213Y0400616D02*
X0113008Y0400616D01*
X0111810Y0403001D02*
X0111810Y0407605D01*
X0111810Y0403001D02*
X0114880Y0403001D01*
X0116414Y0403001D02*
X0116414Y0407605D01*
X0119483Y0407605D01*
X0121018Y0407605D02*
X0121018Y0403001D01*
X0123320Y0403001D01*
X0124087Y0403768D01*
X0124087Y0406837D01*
X0123320Y0407605D01*
X0121018Y0407605D01*
X0119483Y0403001D02*
X0116414Y0403001D01*
X0116414Y0405303D02*
X0117949Y0405303D01*
X0116551Y0391561D02*
X0116662Y0391488D01*
X0116775Y0391419D01*
X0116889Y0391352D01*
X0117006Y0391289D01*
X0117124Y0391230D01*
X0117245Y0391174D01*
X0117366Y0391121D01*
X0117489Y0391072D01*
X0117614Y0391027D01*
X0117740Y0390985D01*
X0117867Y0390947D01*
X0117995Y0390913D01*
X0118124Y0390882D01*
X0118254Y0390855D01*
X0118384Y0390832D01*
X0118515Y0390813D01*
X0118647Y0390798D01*
X0118779Y0390786D01*
X0118911Y0390778D01*
X0119044Y0390774D01*
X0119176Y0390774D01*
X0119309Y0390778D01*
X0119441Y0390786D01*
X0119573Y0390798D01*
X0119705Y0390813D01*
X0119836Y0390832D01*
X0119966Y0390855D01*
X0120096Y0390882D01*
X0120225Y0390913D01*
X0120353Y0390947D01*
X0120480Y0390985D01*
X0120606Y0391027D01*
X0120731Y0391072D01*
X0120854Y0391121D01*
X0120975Y0391174D01*
X0121096Y0391230D01*
X0121214Y0391289D01*
X0121331Y0391352D01*
X0121445Y0391419D01*
X0121558Y0391488D01*
X0121669Y0391561D01*
X0121669Y0399041D02*
X0121558Y0399114D01*
X0121445Y0399183D01*
X0121331Y0399250D01*
X0121214Y0399313D01*
X0121096Y0399372D01*
X0120975Y0399428D01*
X0120854Y0399481D01*
X0120731Y0399530D01*
X0120606Y0399575D01*
X0120480Y0399617D01*
X0120353Y0399655D01*
X0120225Y0399689D01*
X0120096Y0399720D01*
X0119966Y0399747D01*
X0119836Y0399770D01*
X0119705Y0399789D01*
X0119573Y0399804D01*
X0119441Y0399816D01*
X0119309Y0399824D01*
X0119176Y0399828D01*
X0119044Y0399828D01*
X0118911Y0399824D01*
X0118779Y0399816D01*
X0118647Y0399804D01*
X0118515Y0399789D01*
X0118384Y0399770D01*
X0118254Y0399747D01*
X0118124Y0399720D01*
X0117995Y0399689D01*
X0117867Y0399655D01*
X0117740Y0399617D01*
X0117614Y0399575D01*
X0117489Y0399530D01*
X0117366Y0399481D01*
X0117245Y0399428D01*
X0117124Y0399372D01*
X0117006Y0399313D01*
X0116889Y0399250D01*
X0116775Y0399183D01*
X0116662Y0399114D01*
X0116551Y0399041D01*
X0125622Y0403001D02*
X0128691Y0403001D01*
X0127157Y0403001D02*
X0127157Y0407605D01*
X0125622Y0406070D01*
X0130226Y0405303D02*
X0131761Y0406070D01*
X0132528Y0406070D01*
X0133295Y0405303D01*
X0133295Y0403768D01*
X0132528Y0403001D01*
X0130993Y0403001D01*
X0130226Y0403768D01*
X0130226Y0405303D02*
X0130226Y0407605D01*
X0133295Y0407605D01*
X0125213Y0468726D02*
X0122358Y0468726D01*
X0123047Y0469415D01*
X0125213Y0469415D01*
X0125213Y0468726D01*
X0113008Y0468726D01*
X0113008Y0479356D02*
X0125213Y0479356D01*
X0125622Y0481741D02*
X0128691Y0481741D01*
X0127157Y0481741D02*
X0127157Y0486345D01*
X0125622Y0484810D01*
X0124087Y0485578D02*
X0123320Y0486345D01*
X0121018Y0486345D01*
X0121018Y0481741D01*
X0123320Y0481741D01*
X0124087Y0482508D01*
X0124087Y0485578D01*
X0119483Y0486345D02*
X0116414Y0486345D01*
X0116414Y0481741D01*
X0119483Y0481741D01*
X0117949Y0484043D02*
X0116414Y0484043D01*
X0114880Y0481741D02*
X0111810Y0481741D01*
X0111810Y0486345D01*
X0116551Y0470301D02*
X0116662Y0470228D01*
X0116775Y0470159D01*
X0116889Y0470092D01*
X0117006Y0470029D01*
X0117124Y0469970D01*
X0117245Y0469914D01*
X0117366Y0469861D01*
X0117489Y0469812D01*
X0117614Y0469767D01*
X0117740Y0469725D01*
X0117867Y0469687D01*
X0117995Y0469653D01*
X0118124Y0469622D01*
X0118254Y0469595D01*
X0118384Y0469572D01*
X0118515Y0469553D01*
X0118647Y0469538D01*
X0118779Y0469526D01*
X0118911Y0469518D01*
X0119044Y0469514D01*
X0119176Y0469514D01*
X0119309Y0469518D01*
X0119441Y0469526D01*
X0119573Y0469538D01*
X0119705Y0469553D01*
X0119836Y0469572D01*
X0119966Y0469595D01*
X0120096Y0469622D01*
X0120225Y0469653D01*
X0120353Y0469687D01*
X0120480Y0469725D01*
X0120606Y0469767D01*
X0120731Y0469812D01*
X0120854Y0469861D01*
X0120975Y0469914D01*
X0121096Y0469970D01*
X0121214Y0470029D01*
X0121331Y0470092D01*
X0121445Y0470159D01*
X0121558Y0470228D01*
X0121669Y0470301D01*
X0122686Y0469054D02*
X0125213Y0469054D01*
X0130993Y0481741D02*
X0130226Y0482508D01*
X0130226Y0483276D01*
X0130993Y0484043D01*
X0132528Y0484043D01*
X0133295Y0483276D01*
X0133295Y0482508D01*
X0132528Y0481741D01*
X0130993Y0481741D01*
X0130993Y0484043D02*
X0130226Y0484810D01*
X0130226Y0485578D01*
X0130993Y0486345D01*
X0132528Y0486345D01*
X0133295Y0485578D01*
X0133295Y0484810D01*
X0132528Y0484043D01*
X0121669Y0477781D02*
X0121558Y0477854D01*
X0121445Y0477923D01*
X0121331Y0477990D01*
X0121214Y0478053D01*
X0121096Y0478112D01*
X0120975Y0478168D01*
X0120854Y0478221D01*
X0120731Y0478270D01*
X0120606Y0478315D01*
X0120480Y0478357D01*
X0120353Y0478395D01*
X0120225Y0478429D01*
X0120096Y0478460D01*
X0119966Y0478487D01*
X0119836Y0478510D01*
X0119705Y0478529D01*
X0119573Y0478544D01*
X0119441Y0478556D01*
X0119309Y0478564D01*
X0119176Y0478568D01*
X0119044Y0478568D01*
X0118911Y0478564D01*
X0118779Y0478556D01*
X0118647Y0478544D01*
X0118515Y0478529D01*
X0118384Y0478510D01*
X0118254Y0478487D01*
X0118124Y0478460D01*
X0117995Y0478429D01*
X0117867Y0478395D01*
X0117740Y0478357D01*
X0117614Y0478315D01*
X0117489Y0478270D01*
X0117366Y0478221D01*
X0117245Y0478168D01*
X0117124Y0478112D01*
X0117006Y0478053D01*
X0116889Y0477990D01*
X0116775Y0477923D01*
X0116662Y0477854D01*
X0116551Y0477781D01*
X0093925Y0446975D02*
X0092390Y0446207D01*
X0090856Y0444673D01*
X0093158Y0444673D01*
X0093925Y0443905D01*
X0093925Y0443138D01*
X0093158Y0442371D01*
X0091623Y0442371D01*
X0090856Y0443138D01*
X0090856Y0444673D01*
X0089321Y0442371D02*
X0086252Y0442371D01*
X0087787Y0442371D02*
X0087787Y0446975D01*
X0086252Y0445440D01*
X0084717Y0446207D02*
X0084717Y0443138D01*
X0083950Y0442371D01*
X0081648Y0442371D01*
X0081648Y0446975D01*
X0083950Y0446975D01*
X0084717Y0446207D01*
X0085843Y0439986D02*
X0073638Y0439986D01*
X0072440Y0442371D02*
X0072440Y0446975D01*
X0072440Y0442371D02*
X0075509Y0442371D01*
X0077044Y0442371D02*
X0077044Y0446975D01*
X0080113Y0446975D01*
X0080113Y0442371D02*
X0077044Y0442371D01*
X0077044Y0444673D02*
X0078579Y0444673D01*
X0077181Y0430931D02*
X0077292Y0430858D01*
X0077405Y0430789D01*
X0077519Y0430722D01*
X0077636Y0430659D01*
X0077754Y0430600D01*
X0077875Y0430544D01*
X0077996Y0430491D01*
X0078119Y0430442D01*
X0078244Y0430397D01*
X0078370Y0430355D01*
X0078497Y0430317D01*
X0078625Y0430283D01*
X0078754Y0430252D01*
X0078884Y0430225D01*
X0079014Y0430202D01*
X0079145Y0430183D01*
X0079277Y0430168D01*
X0079409Y0430156D01*
X0079541Y0430148D01*
X0079674Y0430144D01*
X0079806Y0430144D01*
X0079939Y0430148D01*
X0080071Y0430156D01*
X0080203Y0430168D01*
X0080335Y0430183D01*
X0080466Y0430202D01*
X0080596Y0430225D01*
X0080726Y0430252D01*
X0080855Y0430283D01*
X0080983Y0430317D01*
X0081110Y0430355D01*
X0081236Y0430397D01*
X0081361Y0430442D01*
X0081484Y0430491D01*
X0081605Y0430544D01*
X0081726Y0430600D01*
X0081844Y0430659D01*
X0081961Y0430722D01*
X0082075Y0430789D01*
X0082188Y0430858D01*
X0082299Y0430931D01*
X0083233Y0429601D02*
X0085843Y0429601D01*
X0085843Y0429356D02*
X0082988Y0429356D01*
X0083677Y0430045D01*
X0085843Y0430045D01*
X0085843Y0429356D01*
X0073638Y0429356D01*
X0075626Y0425554D02*
X0073324Y0423252D01*
X0076393Y0423252D01*
X0075626Y0420950D02*
X0075626Y0425554D01*
X0071789Y0424786D02*
X0071789Y0423252D01*
X0071022Y0422484D01*
X0068720Y0422484D01*
X0068720Y0420950D02*
X0068720Y0425554D01*
X0071022Y0425554D01*
X0071789Y0424786D01*
X0070254Y0422484D02*
X0071789Y0420950D01*
X0077181Y0438411D02*
X0077292Y0438484D01*
X0077405Y0438553D01*
X0077519Y0438620D01*
X0077636Y0438683D01*
X0077754Y0438742D01*
X0077875Y0438798D01*
X0077996Y0438851D01*
X0078119Y0438900D01*
X0078244Y0438945D01*
X0078370Y0438987D01*
X0078497Y0439025D01*
X0078625Y0439059D01*
X0078754Y0439090D01*
X0078884Y0439117D01*
X0079014Y0439140D01*
X0079145Y0439159D01*
X0079277Y0439174D01*
X0079409Y0439186D01*
X0079541Y0439194D01*
X0079674Y0439198D01*
X0079806Y0439198D01*
X0079939Y0439194D01*
X0080071Y0439186D01*
X0080203Y0439174D01*
X0080335Y0439159D01*
X0080466Y0439140D01*
X0080596Y0439117D01*
X0080726Y0439090D01*
X0080855Y0439059D01*
X0080983Y0439025D01*
X0081110Y0438987D01*
X0081236Y0438945D01*
X0081361Y0438900D01*
X0081484Y0438851D01*
X0081605Y0438798D01*
X0081726Y0438742D01*
X0081844Y0438683D01*
X0081961Y0438620D01*
X0082075Y0438553D01*
X0082188Y0438484D01*
X0082299Y0438411D01*
X0083632Y0430000D02*
X0085843Y0430000D01*
X0085843Y0361246D02*
X0073638Y0361246D01*
X0073638Y0350616D02*
X0085843Y0350616D01*
X0082988Y0350616D01*
X0083677Y0351305D01*
X0085843Y0351305D01*
X0085843Y0350616D01*
X0085843Y0350696D02*
X0083068Y0350696D01*
X0083467Y0351094D02*
X0085843Y0351094D01*
X0086787Y0348235D02*
X0085252Y0346700D01*
X0083717Y0347467D02*
X0082950Y0348235D01*
X0080648Y0348235D01*
X0080648Y0343631D01*
X0082950Y0343631D01*
X0083717Y0344398D01*
X0083717Y0347467D01*
X0085252Y0343631D02*
X0088321Y0343631D01*
X0086787Y0343631D02*
X0086787Y0348235D01*
X0089856Y0347467D02*
X0090623Y0348235D01*
X0092158Y0348235D01*
X0092925Y0347467D01*
X0092925Y0346700D01*
X0092158Y0345933D01*
X0092925Y0345165D01*
X0092925Y0344398D01*
X0092158Y0343631D01*
X0090623Y0343631D01*
X0089856Y0344398D01*
X0091390Y0345933D02*
X0092158Y0345933D01*
X0079113Y0348235D02*
X0076044Y0348235D01*
X0076044Y0343631D01*
X0079113Y0343631D01*
X0077579Y0345933D02*
X0076044Y0345933D01*
X0074509Y0343631D02*
X0071440Y0343631D01*
X0071440Y0348235D01*
X0077181Y0359671D02*
X0077292Y0359744D01*
X0077405Y0359813D01*
X0077519Y0359880D01*
X0077636Y0359943D01*
X0077754Y0360002D01*
X0077875Y0360058D01*
X0077996Y0360111D01*
X0078119Y0360160D01*
X0078244Y0360205D01*
X0078370Y0360247D01*
X0078497Y0360285D01*
X0078625Y0360319D01*
X0078754Y0360350D01*
X0078884Y0360377D01*
X0079014Y0360400D01*
X0079145Y0360419D01*
X0079277Y0360434D01*
X0079409Y0360446D01*
X0079541Y0360454D01*
X0079674Y0360458D01*
X0079806Y0360458D01*
X0079939Y0360454D01*
X0080071Y0360446D01*
X0080203Y0360434D01*
X0080335Y0360419D01*
X0080466Y0360400D01*
X0080596Y0360377D01*
X0080726Y0360350D01*
X0080855Y0360319D01*
X0080983Y0360285D01*
X0081110Y0360247D01*
X0081236Y0360205D01*
X0081361Y0360160D01*
X0081484Y0360111D01*
X0081605Y0360058D01*
X0081726Y0360002D01*
X0081844Y0359943D01*
X0081961Y0359880D01*
X0082075Y0359813D01*
X0082188Y0359744D01*
X0082299Y0359671D01*
X0082299Y0352191D02*
X0082188Y0352118D01*
X0082075Y0352049D01*
X0081961Y0351982D01*
X0081844Y0351919D01*
X0081726Y0351860D01*
X0081605Y0351804D01*
X0081484Y0351751D01*
X0081361Y0351702D01*
X0081236Y0351657D01*
X0081110Y0351615D01*
X0080983Y0351577D01*
X0080855Y0351543D01*
X0080726Y0351512D01*
X0080596Y0351485D01*
X0080466Y0351462D01*
X0080335Y0351443D01*
X0080203Y0351428D01*
X0080071Y0351416D01*
X0079939Y0351408D01*
X0079806Y0351404D01*
X0079674Y0351404D01*
X0079541Y0351408D01*
X0079409Y0351416D01*
X0079277Y0351428D01*
X0079145Y0351443D01*
X0079014Y0351462D01*
X0078884Y0351485D01*
X0078754Y0351512D01*
X0078625Y0351543D01*
X0078497Y0351577D01*
X0078370Y0351615D01*
X0078244Y0351657D01*
X0078119Y0351702D01*
X0077996Y0351751D01*
X0077875Y0351804D01*
X0077754Y0351860D01*
X0077636Y0351919D01*
X0077519Y0351982D01*
X0077405Y0352049D01*
X0077292Y0352118D01*
X0077181Y0352191D01*
X0077044Y0289494D02*
X0077044Y0284891D01*
X0080113Y0284891D01*
X0081648Y0284891D02*
X0081648Y0289494D01*
X0083950Y0289494D01*
X0084717Y0288727D01*
X0084717Y0285658D01*
X0083950Y0284891D01*
X0081648Y0284891D01*
X0080113Y0289494D02*
X0077044Y0289494D01*
X0077044Y0287193D02*
X0078579Y0287193D01*
X0077181Y0273450D02*
X0077292Y0273377D01*
X0077405Y0273308D01*
X0077519Y0273241D01*
X0077636Y0273178D01*
X0077754Y0273119D01*
X0077875Y0273063D01*
X0077996Y0273010D01*
X0078119Y0272961D01*
X0078244Y0272916D01*
X0078370Y0272874D01*
X0078497Y0272836D01*
X0078625Y0272802D01*
X0078754Y0272771D01*
X0078884Y0272744D01*
X0079014Y0272721D01*
X0079145Y0272702D01*
X0079277Y0272687D01*
X0079409Y0272675D01*
X0079541Y0272667D01*
X0079674Y0272663D01*
X0079806Y0272663D01*
X0079939Y0272667D01*
X0080071Y0272675D01*
X0080203Y0272687D01*
X0080335Y0272702D01*
X0080466Y0272721D01*
X0080596Y0272744D01*
X0080726Y0272771D01*
X0080855Y0272802D01*
X0080983Y0272836D01*
X0081110Y0272874D01*
X0081236Y0272916D01*
X0081361Y0272961D01*
X0081484Y0273010D01*
X0081605Y0273063D01*
X0081726Y0273119D01*
X0081844Y0273178D01*
X0081961Y0273241D01*
X0082075Y0273308D01*
X0082188Y0273377D01*
X0082299Y0273450D01*
X0083302Y0272189D02*
X0085843Y0272189D01*
X0085843Y0271876D02*
X0082988Y0271876D01*
X0083677Y0272565D01*
X0085843Y0272565D01*
X0085843Y0271876D01*
X0073638Y0271876D01*
X0073638Y0282506D02*
X0085843Y0282506D01*
X0086252Y0284891D02*
X0089321Y0284891D01*
X0087787Y0284891D02*
X0087787Y0289494D01*
X0086252Y0287960D01*
X0090856Y0288727D02*
X0090856Y0285658D01*
X0093925Y0288727D01*
X0093925Y0285658D01*
X0093158Y0284891D01*
X0091623Y0284891D01*
X0090856Y0285658D01*
X0090856Y0288727D02*
X0091623Y0289494D01*
X0093158Y0289494D01*
X0093925Y0288727D01*
X0082299Y0280931D02*
X0082188Y0281004D01*
X0082075Y0281073D01*
X0081961Y0281140D01*
X0081844Y0281203D01*
X0081726Y0281262D01*
X0081605Y0281318D01*
X0081484Y0281371D01*
X0081361Y0281420D01*
X0081236Y0281465D01*
X0081110Y0281507D01*
X0080983Y0281545D01*
X0080855Y0281579D01*
X0080726Y0281610D01*
X0080596Y0281637D01*
X0080466Y0281660D01*
X0080335Y0281679D01*
X0080203Y0281694D01*
X0080071Y0281706D01*
X0079939Y0281714D01*
X0079806Y0281718D01*
X0079674Y0281718D01*
X0079541Y0281714D01*
X0079409Y0281706D01*
X0079277Y0281694D01*
X0079145Y0281679D01*
X0079014Y0281660D01*
X0078884Y0281637D01*
X0078754Y0281610D01*
X0078625Y0281579D01*
X0078497Y0281545D01*
X0078370Y0281507D01*
X0078244Y0281465D01*
X0078119Y0281420D01*
X0077996Y0281371D01*
X0077875Y0281318D01*
X0077754Y0281262D01*
X0077636Y0281203D01*
X0077519Y0281140D01*
X0077405Y0281073D01*
X0077292Y0281004D01*
X0077181Y0280931D01*
X0075509Y0284891D02*
X0072440Y0284891D01*
X0072440Y0289494D01*
X0054555Y0324261D02*
X0051486Y0324261D01*
X0053020Y0324261D02*
X0053020Y0328865D01*
X0051486Y0327330D01*
X0049951Y0324261D02*
X0046882Y0324261D01*
X0048416Y0324261D02*
X0048416Y0328865D01*
X0046882Y0327330D01*
X0045347Y0328097D02*
X0045347Y0325028D01*
X0044580Y0324261D01*
X0042278Y0324261D01*
X0042278Y0328865D01*
X0044580Y0328865D01*
X0045347Y0328097D01*
X0046472Y0321876D02*
X0034268Y0321876D01*
X0033070Y0324261D02*
X0033070Y0328865D01*
X0033070Y0324261D02*
X0036139Y0324261D01*
X0037674Y0324261D02*
X0037674Y0328865D01*
X0040743Y0328865D01*
X0040743Y0324261D02*
X0037674Y0324261D01*
X0037674Y0326563D02*
X0039209Y0326563D01*
X0037811Y0312820D02*
X0037922Y0312747D01*
X0038035Y0312678D01*
X0038149Y0312611D01*
X0038266Y0312548D01*
X0038384Y0312489D01*
X0038505Y0312433D01*
X0038626Y0312380D01*
X0038749Y0312331D01*
X0038874Y0312286D01*
X0039000Y0312244D01*
X0039127Y0312206D01*
X0039255Y0312172D01*
X0039384Y0312141D01*
X0039514Y0312114D01*
X0039644Y0312091D01*
X0039775Y0312072D01*
X0039907Y0312057D01*
X0040039Y0312045D01*
X0040171Y0312037D01*
X0040304Y0312033D01*
X0040436Y0312033D01*
X0040569Y0312037D01*
X0040701Y0312045D01*
X0040833Y0312057D01*
X0040965Y0312072D01*
X0041096Y0312091D01*
X0041226Y0312114D01*
X0041356Y0312141D01*
X0041485Y0312172D01*
X0041613Y0312206D01*
X0041740Y0312244D01*
X0041866Y0312286D01*
X0041991Y0312331D01*
X0042114Y0312380D01*
X0042235Y0312433D01*
X0042356Y0312489D01*
X0042474Y0312548D01*
X0042591Y0312611D01*
X0042705Y0312678D01*
X0042818Y0312747D01*
X0042929Y0312820D01*
X0044014Y0311642D02*
X0046472Y0311642D01*
X0046472Y0311935D02*
X0044307Y0311935D01*
X0043618Y0311246D01*
X0046472Y0311246D01*
X0046472Y0311935D01*
X0046472Y0311246D02*
X0034268Y0311246D01*
X0039720Y0306239D02*
X0039720Y0301635D01*
X0039720Y0303169D02*
X0042022Y0303169D01*
X0042789Y0303937D01*
X0042789Y0305471D01*
X0042022Y0306239D01*
X0039720Y0306239D01*
X0041254Y0303169D02*
X0042789Y0301635D01*
X0044324Y0302402D02*
X0045091Y0301635D01*
X0046626Y0301635D01*
X0047393Y0302402D01*
X0047393Y0303169D01*
X0046626Y0303937D01*
X0045858Y0303937D01*
X0046626Y0303937D02*
X0047393Y0304704D01*
X0047393Y0305471D01*
X0046626Y0306239D01*
X0045091Y0306239D01*
X0044324Y0305471D01*
X0042929Y0320301D02*
X0042818Y0320374D01*
X0042705Y0320443D01*
X0042591Y0320510D01*
X0042474Y0320573D01*
X0042356Y0320632D01*
X0042235Y0320688D01*
X0042114Y0320741D01*
X0041991Y0320790D01*
X0041866Y0320835D01*
X0041740Y0320877D01*
X0041613Y0320915D01*
X0041485Y0320949D01*
X0041356Y0320980D01*
X0041226Y0321007D01*
X0041096Y0321030D01*
X0040965Y0321049D01*
X0040833Y0321064D01*
X0040701Y0321076D01*
X0040569Y0321084D01*
X0040436Y0321088D01*
X0040304Y0321088D01*
X0040171Y0321084D01*
X0040039Y0321076D01*
X0039907Y0321064D01*
X0039775Y0321049D01*
X0039644Y0321030D01*
X0039514Y0321007D01*
X0039384Y0320980D01*
X0039255Y0320949D01*
X0039127Y0320915D01*
X0039000Y0320877D01*
X0038874Y0320835D01*
X0038749Y0320790D01*
X0038626Y0320741D01*
X0038505Y0320688D01*
X0038384Y0320632D01*
X0038266Y0320573D01*
X0038149Y0320510D01*
X0038035Y0320443D01*
X0037922Y0320374D01*
X0037811Y0320301D01*
X0037674Y0250124D02*
X0037674Y0245520D01*
X0040743Y0245520D01*
X0042278Y0245520D02*
X0042278Y0250124D01*
X0044580Y0250124D01*
X0045347Y0249357D01*
X0045347Y0246288D01*
X0044580Y0245520D01*
X0042278Y0245520D01*
X0040743Y0250124D02*
X0037674Y0250124D01*
X0037674Y0247822D02*
X0039209Y0247822D01*
X0036139Y0245520D02*
X0033070Y0245520D01*
X0033070Y0250124D01*
X0034268Y0243135D02*
X0046472Y0243135D01*
X0047649Y0245520D02*
X0046882Y0246288D01*
X0046882Y0247055D01*
X0047649Y0247822D01*
X0049184Y0247822D01*
X0049951Y0247055D01*
X0049951Y0246288D01*
X0049184Y0245520D01*
X0047649Y0245520D01*
X0047649Y0247822D02*
X0046882Y0248590D01*
X0046882Y0249357D01*
X0047649Y0250124D01*
X0049184Y0250124D01*
X0049951Y0249357D01*
X0049951Y0248590D01*
X0049184Y0247822D01*
X0046472Y0233194D02*
X0044307Y0233194D01*
X0043618Y0232506D01*
X0046472Y0232506D01*
X0046472Y0233194D01*
X0046472Y0233135D02*
X0044248Y0233135D01*
X0043849Y0232737D02*
X0046472Y0232737D01*
X0046472Y0232506D02*
X0034268Y0232506D01*
X0037811Y0241561D02*
X0037922Y0241634D01*
X0038035Y0241703D01*
X0038149Y0241770D01*
X0038266Y0241833D01*
X0038384Y0241892D01*
X0038505Y0241948D01*
X0038626Y0242001D01*
X0038749Y0242050D01*
X0038874Y0242095D01*
X0039000Y0242137D01*
X0039127Y0242175D01*
X0039255Y0242209D01*
X0039384Y0242240D01*
X0039514Y0242267D01*
X0039644Y0242290D01*
X0039775Y0242309D01*
X0039907Y0242324D01*
X0040039Y0242336D01*
X0040171Y0242344D01*
X0040304Y0242348D01*
X0040436Y0242348D01*
X0040569Y0242344D01*
X0040701Y0242336D01*
X0040833Y0242324D01*
X0040965Y0242309D01*
X0041096Y0242290D01*
X0041226Y0242267D01*
X0041356Y0242240D01*
X0041485Y0242209D01*
X0041613Y0242175D01*
X0041740Y0242137D01*
X0041866Y0242095D01*
X0041991Y0242050D01*
X0042114Y0242001D01*
X0042235Y0241948D01*
X0042356Y0241892D01*
X0042474Y0241833D01*
X0042591Y0241770D01*
X0042705Y0241703D01*
X0042818Y0241634D01*
X0042929Y0241561D01*
X0042929Y0234080D02*
X0042818Y0234007D01*
X0042705Y0233938D01*
X0042591Y0233871D01*
X0042474Y0233808D01*
X0042356Y0233749D01*
X0042235Y0233693D01*
X0042114Y0233640D01*
X0041991Y0233591D01*
X0041866Y0233546D01*
X0041740Y0233504D01*
X0041613Y0233466D01*
X0041485Y0233432D01*
X0041356Y0233401D01*
X0041226Y0233374D01*
X0041096Y0233351D01*
X0040965Y0233332D01*
X0040833Y0233317D01*
X0040701Y0233305D01*
X0040569Y0233297D01*
X0040436Y0233293D01*
X0040304Y0233293D01*
X0040171Y0233297D01*
X0040039Y0233305D01*
X0039907Y0233317D01*
X0039775Y0233332D01*
X0039644Y0233351D01*
X0039514Y0233374D01*
X0039384Y0233401D01*
X0039255Y0233432D01*
X0039127Y0233466D01*
X0039000Y0233504D01*
X0038874Y0233546D01*
X0038749Y0233591D01*
X0038626Y0233640D01*
X0038505Y0233693D01*
X0038384Y0233749D01*
X0038266Y0233808D01*
X0038149Y0233871D01*
X0038035Y0233938D01*
X0037922Y0234007D01*
X0037811Y0234080D01*
X0037674Y0171384D02*
X0037674Y0166780D01*
X0040743Y0166780D01*
X0042278Y0166780D02*
X0044580Y0166780D01*
X0045347Y0167548D01*
X0045347Y0170617D01*
X0044580Y0171384D01*
X0042278Y0171384D01*
X0042278Y0166780D01*
X0040743Y0171384D02*
X0037674Y0171384D01*
X0037674Y0169082D02*
X0039209Y0169082D01*
X0036139Y0166780D02*
X0033070Y0166780D01*
X0033070Y0171384D01*
X0034268Y0164395D02*
X0046472Y0164395D01*
X0047649Y0166780D02*
X0046882Y0167548D01*
X0047649Y0166780D02*
X0049184Y0166780D01*
X0049951Y0167548D01*
X0049951Y0169082D01*
X0049184Y0169850D01*
X0048416Y0169850D01*
X0046882Y0169082D01*
X0046882Y0171384D01*
X0049951Y0171384D01*
X0046472Y0154454D02*
X0044307Y0154454D01*
X0043618Y0153765D01*
X0046472Y0153765D01*
X0046472Y0154454D01*
X0046472Y0154230D02*
X0044083Y0154230D01*
X0043684Y0153831D02*
X0046472Y0153831D01*
X0046472Y0153765D02*
X0034268Y0153765D01*
X0037811Y0162820D02*
X0037922Y0162893D01*
X0038035Y0162962D01*
X0038149Y0163029D01*
X0038266Y0163092D01*
X0038384Y0163151D01*
X0038505Y0163207D01*
X0038626Y0163260D01*
X0038749Y0163309D01*
X0038874Y0163354D01*
X0039000Y0163396D01*
X0039127Y0163434D01*
X0039255Y0163468D01*
X0039384Y0163499D01*
X0039514Y0163526D01*
X0039644Y0163549D01*
X0039775Y0163568D01*
X0039907Y0163583D01*
X0040039Y0163595D01*
X0040171Y0163603D01*
X0040304Y0163607D01*
X0040436Y0163607D01*
X0040569Y0163603D01*
X0040701Y0163595D01*
X0040833Y0163583D01*
X0040965Y0163568D01*
X0041096Y0163549D01*
X0041226Y0163526D01*
X0041356Y0163499D01*
X0041485Y0163468D01*
X0041613Y0163434D01*
X0041740Y0163396D01*
X0041866Y0163354D01*
X0041991Y0163309D01*
X0042114Y0163260D01*
X0042235Y0163207D01*
X0042356Y0163151D01*
X0042474Y0163092D01*
X0042591Y0163029D01*
X0042705Y0162962D01*
X0042818Y0162893D01*
X0042929Y0162820D01*
X0042929Y0155340D02*
X0042818Y0155267D01*
X0042705Y0155198D01*
X0042591Y0155131D01*
X0042474Y0155068D01*
X0042356Y0155009D01*
X0042235Y0154953D01*
X0042114Y0154900D01*
X0041991Y0154851D01*
X0041866Y0154806D01*
X0041740Y0154764D01*
X0041613Y0154726D01*
X0041485Y0154692D01*
X0041356Y0154661D01*
X0041226Y0154634D01*
X0041096Y0154611D01*
X0040965Y0154592D01*
X0040833Y0154577D01*
X0040701Y0154565D01*
X0040569Y0154557D01*
X0040436Y0154553D01*
X0040304Y0154553D01*
X0040171Y0154557D01*
X0040039Y0154565D01*
X0039907Y0154577D01*
X0039775Y0154592D01*
X0039644Y0154611D01*
X0039514Y0154634D01*
X0039384Y0154661D01*
X0039255Y0154692D01*
X0039127Y0154726D01*
X0039000Y0154764D01*
X0038874Y0154806D01*
X0038749Y0154851D01*
X0038626Y0154900D01*
X0038505Y0154953D01*
X0038384Y0155009D01*
X0038266Y0155068D01*
X0038149Y0155131D01*
X0038035Y0155198D01*
X0037922Y0155267D01*
X0037811Y0155340D01*
X0033070Y0092644D02*
X0033070Y0088040D01*
X0037811Y0084080D02*
X0037922Y0084153D01*
X0038035Y0084222D01*
X0038149Y0084289D01*
X0038266Y0084352D01*
X0038384Y0084411D01*
X0038505Y0084467D01*
X0038626Y0084520D01*
X0038749Y0084569D01*
X0038874Y0084614D01*
X0039000Y0084656D01*
X0039127Y0084694D01*
X0039255Y0084728D01*
X0039384Y0084759D01*
X0039514Y0084786D01*
X0039644Y0084809D01*
X0039775Y0084828D01*
X0039907Y0084843D01*
X0040039Y0084855D01*
X0040171Y0084863D01*
X0040304Y0084867D01*
X0040436Y0084867D01*
X0040569Y0084863D01*
X0040701Y0084855D01*
X0040833Y0084843D01*
X0040965Y0084828D01*
X0041096Y0084809D01*
X0041226Y0084786D01*
X0041356Y0084759D01*
X0041485Y0084728D01*
X0041613Y0084694D01*
X0041740Y0084656D01*
X0041866Y0084614D01*
X0041991Y0084569D01*
X0042114Y0084520D01*
X0042235Y0084467D01*
X0042356Y0084411D01*
X0042474Y0084352D01*
X0042591Y0084289D01*
X0042705Y0084222D01*
X0042818Y0084153D01*
X0042929Y0084080D01*
X0073638Y0193135D02*
X0085843Y0193135D01*
X0082988Y0193135D01*
X0083677Y0193824D01*
X0085843Y0193824D01*
X0085843Y0193135D01*
X0085843Y0193284D02*
X0083137Y0193284D01*
X0083535Y0193682D02*
X0085843Y0193682D01*
X0085843Y0203765D02*
X0073638Y0203765D01*
X0072440Y0206150D02*
X0075509Y0206150D01*
X0077044Y0206150D02*
X0077044Y0210754D01*
X0080113Y0210754D01*
X0081648Y0210754D02*
X0081648Y0206150D01*
X0083950Y0206150D01*
X0084717Y0206918D01*
X0084717Y0209987D01*
X0083950Y0210754D01*
X0081648Y0210754D01*
X0080113Y0206150D02*
X0077044Y0206150D01*
X0077044Y0208452D02*
X0078579Y0208452D01*
X0077181Y0194710D02*
X0077292Y0194637D01*
X0077405Y0194568D01*
X0077519Y0194501D01*
X0077636Y0194438D01*
X0077754Y0194379D01*
X0077875Y0194323D01*
X0077996Y0194270D01*
X0078119Y0194221D01*
X0078244Y0194176D01*
X0078370Y0194134D01*
X0078497Y0194096D01*
X0078625Y0194062D01*
X0078754Y0194031D01*
X0078884Y0194004D01*
X0079014Y0193981D01*
X0079145Y0193962D01*
X0079277Y0193947D01*
X0079409Y0193935D01*
X0079541Y0193927D01*
X0079674Y0193923D01*
X0079806Y0193923D01*
X0079939Y0193927D01*
X0080071Y0193935D01*
X0080203Y0193947D01*
X0080335Y0193962D01*
X0080466Y0193981D01*
X0080596Y0194004D01*
X0080726Y0194031D01*
X0080855Y0194062D01*
X0080983Y0194096D01*
X0081110Y0194134D01*
X0081236Y0194176D01*
X0081361Y0194221D01*
X0081484Y0194270D01*
X0081605Y0194323D01*
X0081726Y0194379D01*
X0081844Y0194438D01*
X0081961Y0194501D01*
X0082075Y0194568D01*
X0082188Y0194637D01*
X0082299Y0194710D01*
X0082299Y0202191D02*
X0082188Y0202264D01*
X0082075Y0202333D01*
X0081961Y0202400D01*
X0081844Y0202463D01*
X0081726Y0202522D01*
X0081605Y0202578D01*
X0081484Y0202631D01*
X0081361Y0202680D01*
X0081236Y0202725D01*
X0081110Y0202767D01*
X0080983Y0202805D01*
X0080855Y0202839D01*
X0080726Y0202870D01*
X0080596Y0202897D01*
X0080466Y0202920D01*
X0080335Y0202939D01*
X0080203Y0202954D01*
X0080071Y0202966D01*
X0079939Y0202974D01*
X0079806Y0202978D01*
X0079674Y0202978D01*
X0079541Y0202974D01*
X0079409Y0202966D01*
X0079277Y0202954D01*
X0079145Y0202939D01*
X0079014Y0202920D01*
X0078884Y0202897D01*
X0078754Y0202870D01*
X0078625Y0202839D01*
X0078497Y0202805D01*
X0078370Y0202767D01*
X0078244Y0202725D01*
X0078119Y0202680D01*
X0077996Y0202631D01*
X0077875Y0202578D01*
X0077754Y0202522D01*
X0077636Y0202463D01*
X0077519Y0202400D01*
X0077405Y0202333D01*
X0077292Y0202264D01*
X0077181Y0202191D01*
X0072440Y0206150D02*
X0072440Y0210754D01*
X0086252Y0210754D02*
X0089321Y0210754D01*
X0089321Y0209987D01*
X0086252Y0206918D01*
X0086252Y0206150D01*
X0111810Y0092644D02*
X0111810Y0088040D01*
X0114880Y0088040D01*
X0116414Y0088040D02*
X0116414Y0092644D01*
X0119483Y0092644D01*
X0121018Y0092644D02*
X0121018Y0088040D01*
X0123320Y0088040D01*
X0124087Y0088807D01*
X0124087Y0091877D01*
X0123320Y0092644D01*
X0121018Y0092644D01*
X0119483Y0088040D02*
X0116414Y0088040D01*
X0116414Y0090342D02*
X0117949Y0090342D01*
X0116551Y0076600D02*
X0116662Y0076527D01*
X0116775Y0076458D01*
X0116889Y0076391D01*
X0117006Y0076328D01*
X0117124Y0076269D01*
X0117245Y0076213D01*
X0117366Y0076160D01*
X0117489Y0076111D01*
X0117614Y0076066D01*
X0117740Y0076024D01*
X0117867Y0075986D01*
X0117995Y0075952D01*
X0118124Y0075921D01*
X0118254Y0075894D01*
X0118384Y0075871D01*
X0118515Y0075852D01*
X0118647Y0075837D01*
X0118779Y0075825D01*
X0118911Y0075817D01*
X0119044Y0075813D01*
X0119176Y0075813D01*
X0119309Y0075817D01*
X0119441Y0075825D01*
X0119573Y0075837D01*
X0119705Y0075852D01*
X0119836Y0075871D01*
X0119966Y0075894D01*
X0120096Y0075921D01*
X0120225Y0075952D01*
X0120353Y0075986D01*
X0120480Y0076024D01*
X0120606Y0076066D01*
X0120731Y0076111D01*
X0120854Y0076160D01*
X0120975Y0076213D01*
X0121096Y0076269D01*
X0121214Y0076328D01*
X0121331Y0076391D01*
X0121445Y0076458D01*
X0121558Y0076527D01*
X0121669Y0076600D01*
X0122658Y0075325D02*
X0125213Y0075325D01*
X0125213Y0075025D02*
X0122358Y0075025D01*
X0123047Y0075714D01*
X0125213Y0075714D01*
X0125213Y0075025D01*
X0113008Y0075025D01*
X0113008Y0085655D02*
X0125213Y0085655D01*
X0126389Y0088040D02*
X0125622Y0088807D01*
X0126389Y0088040D02*
X0127924Y0088040D01*
X0128691Y0088807D01*
X0128691Y0089575D01*
X0127924Y0090342D01*
X0127157Y0090342D01*
X0127924Y0090342D02*
X0128691Y0091109D01*
X0128691Y0091877D01*
X0127924Y0092644D01*
X0126389Y0092644D01*
X0125622Y0091877D01*
X0121669Y0084080D02*
X0121558Y0084153D01*
X0121445Y0084222D01*
X0121331Y0084289D01*
X0121214Y0084352D01*
X0121096Y0084411D01*
X0120975Y0084467D01*
X0120854Y0084520D01*
X0120731Y0084569D01*
X0120606Y0084614D01*
X0120480Y0084656D01*
X0120353Y0084694D01*
X0120225Y0084728D01*
X0120096Y0084759D01*
X0119966Y0084786D01*
X0119836Y0084809D01*
X0119705Y0084828D01*
X0119573Y0084843D01*
X0119441Y0084855D01*
X0119309Y0084863D01*
X0119176Y0084867D01*
X0119044Y0084867D01*
X0118911Y0084863D01*
X0118779Y0084855D01*
X0118647Y0084843D01*
X0118515Y0084828D01*
X0118384Y0084809D01*
X0118254Y0084786D01*
X0118124Y0084759D01*
X0117995Y0084728D01*
X0117867Y0084694D01*
X0117740Y0084656D01*
X0117614Y0084614D01*
X0117489Y0084569D01*
X0117366Y0084520D01*
X0117245Y0084467D01*
X0117124Y0084411D01*
X0117006Y0084352D01*
X0116889Y0084289D01*
X0116775Y0084222D01*
X0116662Y0084153D01*
X0116551Y0084080D01*
X0046472Y0389986D02*
X0043618Y0389986D01*
X0044307Y0390675D01*
X0046472Y0390675D01*
X0046472Y0389986D01*
X0034268Y0389986D01*
X0034268Y0400616D02*
X0046472Y0400616D01*
X0046882Y0403001D02*
X0049951Y0403001D01*
X0048416Y0403001D02*
X0048416Y0407605D01*
X0046882Y0406070D01*
X0045347Y0406837D02*
X0045347Y0403768D01*
X0044580Y0403001D01*
X0042278Y0403001D01*
X0042278Y0407605D01*
X0044580Y0407605D01*
X0045347Y0406837D01*
X0040743Y0407605D02*
X0037674Y0407605D01*
X0037674Y0403001D01*
X0040743Y0403001D01*
X0042929Y0391561D02*
X0042818Y0391488D01*
X0042705Y0391419D01*
X0042591Y0391352D01*
X0042474Y0391289D01*
X0042356Y0391230D01*
X0042235Y0391174D01*
X0042114Y0391121D01*
X0041991Y0391072D01*
X0041866Y0391027D01*
X0041740Y0390985D01*
X0041613Y0390947D01*
X0041485Y0390913D01*
X0041356Y0390882D01*
X0041226Y0390855D01*
X0041096Y0390832D01*
X0040965Y0390813D01*
X0040833Y0390798D01*
X0040701Y0390786D01*
X0040569Y0390778D01*
X0040436Y0390774D01*
X0040304Y0390774D01*
X0040171Y0390778D01*
X0040039Y0390786D01*
X0039907Y0390798D01*
X0039775Y0390813D01*
X0039644Y0390832D01*
X0039514Y0390855D01*
X0039384Y0390882D01*
X0039255Y0390913D01*
X0039127Y0390947D01*
X0039000Y0390985D01*
X0038874Y0391027D01*
X0038749Y0391072D01*
X0038626Y0391121D01*
X0038505Y0391174D01*
X0038384Y0391230D01*
X0038266Y0391289D01*
X0038149Y0391352D01*
X0038035Y0391419D01*
X0037922Y0391488D01*
X0037811Y0391561D01*
X0037811Y0399041D02*
X0037922Y0399114D01*
X0038035Y0399183D01*
X0038149Y0399250D01*
X0038266Y0399313D01*
X0038384Y0399372D01*
X0038505Y0399428D01*
X0038626Y0399481D01*
X0038749Y0399530D01*
X0038874Y0399575D01*
X0039000Y0399617D01*
X0039127Y0399655D01*
X0039255Y0399689D01*
X0039384Y0399720D01*
X0039514Y0399747D01*
X0039644Y0399770D01*
X0039775Y0399789D01*
X0039907Y0399804D01*
X0040039Y0399816D01*
X0040171Y0399824D01*
X0040304Y0399828D01*
X0040436Y0399828D01*
X0040569Y0399824D01*
X0040701Y0399816D01*
X0040833Y0399804D01*
X0040965Y0399789D01*
X0041096Y0399770D01*
X0041226Y0399747D01*
X0041356Y0399720D01*
X0041485Y0399689D01*
X0041613Y0399655D01*
X0041740Y0399617D01*
X0041866Y0399575D01*
X0041991Y0399530D01*
X0042114Y0399481D01*
X0042235Y0399428D01*
X0042356Y0399372D01*
X0042474Y0399313D01*
X0042591Y0399250D01*
X0042705Y0399183D01*
X0042818Y0399114D01*
X0042929Y0399041D01*
X0044179Y0390547D02*
X0046472Y0390547D01*
X0046472Y0390149D02*
X0043781Y0390149D01*
X0039209Y0405303D02*
X0037674Y0405303D01*
X0036139Y0403001D02*
X0033070Y0403001D01*
X0033070Y0407605D01*
X0034268Y0468726D02*
X0046472Y0468726D01*
X0043618Y0468726D01*
X0044307Y0469415D01*
X0046472Y0469415D01*
X0046472Y0468726D01*
X0046472Y0469054D02*
X0043946Y0469054D01*
X0046472Y0479356D02*
X0034268Y0479356D01*
X0033070Y0481741D02*
X0033070Y0486345D01*
X0033070Y0481741D02*
X0036139Y0481741D01*
X0037674Y0481741D02*
X0037674Y0486345D01*
X0040743Y0486345D01*
X0042278Y0486345D02*
X0042278Y0481741D01*
X0044580Y0481741D01*
X0045347Y0482508D01*
X0045347Y0485578D01*
X0044580Y0486345D01*
X0042278Y0486345D01*
X0040743Y0481741D02*
X0037674Y0481741D01*
X0037674Y0484043D02*
X0039209Y0484043D01*
X0037811Y0470301D02*
X0037922Y0470228D01*
X0038035Y0470159D01*
X0038149Y0470092D01*
X0038266Y0470029D01*
X0038384Y0469970D01*
X0038505Y0469914D01*
X0038626Y0469861D01*
X0038749Y0469812D01*
X0038874Y0469767D01*
X0039000Y0469725D01*
X0039127Y0469687D01*
X0039255Y0469653D01*
X0039384Y0469622D01*
X0039514Y0469595D01*
X0039644Y0469572D01*
X0039775Y0469553D01*
X0039907Y0469538D01*
X0040039Y0469526D01*
X0040171Y0469518D01*
X0040304Y0469514D01*
X0040436Y0469514D01*
X0040569Y0469518D01*
X0040701Y0469526D01*
X0040833Y0469538D01*
X0040965Y0469553D01*
X0041096Y0469572D01*
X0041226Y0469595D01*
X0041356Y0469622D01*
X0041485Y0469653D01*
X0041613Y0469687D01*
X0041740Y0469725D01*
X0041866Y0469767D01*
X0041991Y0469812D01*
X0042114Y0469861D01*
X0042235Y0469914D01*
X0042356Y0469970D01*
X0042474Y0470029D01*
X0042591Y0470092D01*
X0042705Y0470159D01*
X0042818Y0470228D01*
X0042929Y0470301D01*
X0042929Y0477781D02*
X0042818Y0477854D01*
X0042705Y0477923D01*
X0042591Y0477990D01*
X0042474Y0478053D01*
X0042356Y0478112D01*
X0042235Y0478168D01*
X0042114Y0478221D01*
X0041991Y0478270D01*
X0041866Y0478315D01*
X0041740Y0478357D01*
X0041613Y0478395D01*
X0041485Y0478429D01*
X0041356Y0478460D01*
X0041226Y0478487D01*
X0041096Y0478510D01*
X0040965Y0478529D01*
X0040833Y0478544D01*
X0040701Y0478556D01*
X0040569Y0478564D01*
X0040436Y0478568D01*
X0040304Y0478568D01*
X0040171Y0478564D01*
X0040039Y0478556D01*
X0039907Y0478544D01*
X0039775Y0478529D01*
X0039644Y0478510D01*
X0039514Y0478487D01*
X0039384Y0478460D01*
X0039255Y0478429D01*
X0039127Y0478395D01*
X0039000Y0478357D01*
X0038874Y0478315D01*
X0038749Y0478270D01*
X0038626Y0478221D01*
X0038505Y0478168D01*
X0038384Y0478112D01*
X0038266Y0478053D01*
X0038149Y0477990D01*
X0038035Y0477923D01*
X0037922Y0477854D01*
X0037811Y0477781D01*
X0046882Y0481741D02*
X0049951Y0481741D01*
X0048416Y0481741D02*
X0048416Y0486345D01*
X0046882Y0484810D01*
X0051486Y0486345D02*
X0054555Y0486345D01*
X0054555Y0485578D01*
X0051486Y0482508D01*
X0051486Y0481741D01*
X0053788Y0407605D02*
X0051486Y0405303D01*
X0054555Y0405303D01*
X0053788Y0403001D02*
X0053788Y0407605D01*
X0073638Y0508096D02*
X0085843Y0508096D01*
X0082988Y0508096D01*
X0083677Y0508785D01*
X0085843Y0508785D01*
X0085843Y0508096D01*
X0085843Y0508108D02*
X0083000Y0508108D01*
X0083399Y0508506D02*
X0085843Y0508506D01*
X0085843Y0518726D02*
X0073638Y0518726D01*
X0072440Y0521111D02*
X0072440Y0525715D01*
X0072440Y0521111D02*
X0075509Y0521111D01*
X0077044Y0521111D02*
X0077044Y0525715D01*
X0080113Y0525715D01*
X0081648Y0525715D02*
X0081648Y0521111D01*
X0083950Y0521111D01*
X0084717Y0521878D01*
X0084717Y0524948D01*
X0083950Y0525715D01*
X0081648Y0525715D01*
X0080113Y0521111D02*
X0077044Y0521111D01*
X0077044Y0523413D02*
X0078579Y0523413D01*
X0077181Y0509671D02*
X0077292Y0509598D01*
X0077405Y0509529D01*
X0077519Y0509462D01*
X0077636Y0509399D01*
X0077754Y0509340D01*
X0077875Y0509284D01*
X0077996Y0509231D01*
X0078119Y0509182D01*
X0078244Y0509137D01*
X0078370Y0509095D01*
X0078497Y0509057D01*
X0078625Y0509023D01*
X0078754Y0508992D01*
X0078884Y0508965D01*
X0079014Y0508942D01*
X0079145Y0508923D01*
X0079277Y0508908D01*
X0079409Y0508896D01*
X0079541Y0508888D01*
X0079674Y0508884D01*
X0079806Y0508884D01*
X0079939Y0508888D01*
X0080071Y0508896D01*
X0080203Y0508908D01*
X0080335Y0508923D01*
X0080466Y0508942D01*
X0080596Y0508965D01*
X0080726Y0508992D01*
X0080855Y0509023D01*
X0080983Y0509057D01*
X0081110Y0509095D01*
X0081236Y0509137D01*
X0081361Y0509182D01*
X0081484Y0509231D01*
X0081605Y0509284D01*
X0081726Y0509340D01*
X0081844Y0509399D01*
X0081961Y0509462D01*
X0082075Y0509529D01*
X0082188Y0509598D01*
X0082299Y0509671D01*
X0082299Y0517151D02*
X0082188Y0517224D01*
X0082075Y0517293D01*
X0081961Y0517360D01*
X0081844Y0517423D01*
X0081726Y0517482D01*
X0081605Y0517538D01*
X0081484Y0517591D01*
X0081361Y0517640D01*
X0081236Y0517685D01*
X0081110Y0517727D01*
X0080983Y0517765D01*
X0080855Y0517799D01*
X0080726Y0517830D01*
X0080596Y0517857D01*
X0080466Y0517880D01*
X0080335Y0517899D01*
X0080203Y0517914D01*
X0080071Y0517926D01*
X0079939Y0517934D01*
X0079806Y0517938D01*
X0079674Y0517938D01*
X0079541Y0517934D01*
X0079409Y0517926D01*
X0079277Y0517914D01*
X0079145Y0517899D01*
X0079014Y0517880D01*
X0078884Y0517857D01*
X0078754Y0517830D01*
X0078625Y0517799D01*
X0078497Y0517765D01*
X0078370Y0517727D01*
X0078244Y0517685D01*
X0078119Y0517640D01*
X0077996Y0517591D01*
X0077875Y0517538D01*
X0077754Y0517482D01*
X0077636Y0517423D01*
X0077519Y0517360D01*
X0077405Y0517293D01*
X0077292Y0517224D01*
X0077181Y0517151D01*
X0086252Y0521111D02*
X0089321Y0521111D01*
X0087787Y0521111D02*
X0087787Y0525715D01*
X0086252Y0524180D01*
X0090856Y0524180D02*
X0091623Y0523413D01*
X0093925Y0523413D01*
X0093925Y0524948D02*
X0093158Y0525715D01*
X0091623Y0525715D01*
X0090856Y0524948D01*
X0090856Y0524180D01*
X0090856Y0521878D02*
X0091623Y0521111D01*
X0093158Y0521111D01*
X0093925Y0521878D01*
X0093925Y0524948D01*
D12*
X0100397Y0374211D03*
X0102117Y0361776D03*
X0106923Y0366980D03*
X0106967Y0367068D03*
X0093386Y0368787D03*
X0066841Y0368787D03*
X0051893Y0368787D03*
X0051893Y0370243D03*
X0048189Y0368831D03*
D13*
X0045764Y0370551D03*
X0056391Y0370463D03*
X0062035Y0370463D03*
X0080731Y0379767D03*
X0084567Y0370287D03*
X0103131Y0361820D03*
X0103175Y0361865D03*
X0103704Y0362438D03*
X0103748Y0362482D03*
X0104277Y0363055D03*
X0104409Y0363187D03*
X0104454Y0363231D03*
X0104498Y0363276D03*
X0104542Y0363320D03*
X0104939Y0363761D03*
X0104983Y0363805D03*
X0105071Y0363893D03*
X0105115Y0363937D03*
X0105291Y0364113D03*
X0105644Y0364510D03*
X0105688Y0364554D03*
X0105732Y0364598D03*
X0105776Y0364643D03*
X0105820Y0364687D03*
X0108025Y0369317D03*
X0108025Y0379591D03*
X0113052Y0378797D03*
X0114992Y0372183D03*
X0121209Y0370110D03*
D14*
X0114617Y0364687D03*
X0114617Y0364643D03*
X0114617Y0364598D03*
X0114617Y0364554D03*
X0114617Y0364510D03*
X0114617Y0364466D03*
X0114617Y0364422D03*
X0114617Y0364378D03*
X0114617Y0364334D03*
X0114617Y0364290D03*
X0114617Y0364246D03*
X0114617Y0364202D03*
X0114617Y0364157D03*
X0114617Y0364113D03*
X0114617Y0364069D03*
X0114617Y0364025D03*
X0114617Y0363981D03*
X0114617Y0363937D03*
X0114617Y0363893D03*
X0114617Y0363849D03*
X0114617Y0363805D03*
X0114617Y0363761D03*
X0114617Y0363717D03*
X0114617Y0363672D03*
X0114617Y0363628D03*
X0114617Y0363584D03*
X0114617Y0363540D03*
X0114617Y0363496D03*
X0114617Y0363452D03*
X0114617Y0363408D03*
X0114617Y0363364D03*
X0114617Y0363320D03*
X0114617Y0363276D03*
X0114617Y0363231D03*
X0114617Y0363187D03*
X0114617Y0363143D03*
X0114617Y0363099D03*
X0114617Y0363055D03*
X0114617Y0363011D03*
X0114617Y0362967D03*
X0114617Y0362923D03*
X0114617Y0362879D03*
X0114617Y0362835D03*
X0114617Y0362791D03*
X0114617Y0362746D03*
X0114617Y0362702D03*
X0114617Y0362658D03*
X0114617Y0362614D03*
X0114617Y0362570D03*
X0114617Y0362526D03*
X0114617Y0362482D03*
X0114617Y0362438D03*
X0114617Y0362394D03*
X0114617Y0362350D03*
X0114617Y0362306D03*
X0114617Y0362261D03*
X0114617Y0362217D03*
X0114617Y0362173D03*
X0114617Y0362129D03*
X0114617Y0362085D03*
X0114617Y0362041D03*
X0114617Y0361997D03*
X0114617Y0361953D03*
X0114617Y0361909D03*
X0114617Y0361865D03*
X0114617Y0361820D03*
X0114617Y0382765D03*
X0114617Y0382809D03*
X0114617Y0382854D03*
X0114617Y0382898D03*
X0114617Y0382942D03*
X0114617Y0382986D03*
X0114617Y0383030D03*
X0114617Y0383074D03*
X0114617Y0383118D03*
X0114617Y0383162D03*
X0114617Y0383206D03*
X0114617Y0383250D03*
X0114617Y0383294D03*
X0114617Y0383339D03*
X0114617Y0383383D03*
X0114617Y0383427D03*
X0114617Y0383471D03*
X0114617Y0383515D03*
X0114617Y0383559D03*
X0114617Y0383603D03*
X0114617Y0383647D03*
X0114617Y0383691D03*
X0114617Y0383735D03*
X0114617Y0383780D03*
X0114617Y0383824D03*
X0114617Y0383868D03*
X0114617Y0383912D03*
D15*
X0108003Y0379635D03*
X0108003Y0369272D03*
X0105622Y0364466D03*
X0105578Y0364422D03*
X0105534Y0364378D03*
X0105490Y0364334D03*
X0105446Y0364290D03*
X0105402Y0364246D03*
X0105357Y0364202D03*
X0105313Y0364157D03*
X0105225Y0364069D03*
X0105181Y0364025D03*
X0105137Y0363981D03*
X0105049Y0363849D03*
X0104917Y0363717D03*
X0104872Y0363672D03*
X0104828Y0363628D03*
X0104784Y0363584D03*
X0104740Y0363540D03*
X0104696Y0363496D03*
X0104652Y0363452D03*
X0104608Y0363408D03*
X0104564Y0363364D03*
X0104387Y0363143D03*
X0104343Y0363099D03*
X0104255Y0363011D03*
X0104211Y0362967D03*
X0104167Y0362923D03*
X0104123Y0362879D03*
X0104079Y0362835D03*
X0104035Y0362791D03*
X0103991Y0362746D03*
X0103946Y0362702D03*
X0103902Y0362658D03*
X0103858Y0362614D03*
X0103814Y0362570D03*
X0103770Y0362526D03*
X0103682Y0362394D03*
X0103638Y0362350D03*
X0103594Y0362306D03*
X0103550Y0362261D03*
X0103506Y0362217D03*
X0103461Y0362173D03*
X0103417Y0362129D03*
X0103373Y0362085D03*
X0103329Y0362041D03*
X0103285Y0361997D03*
X0103241Y0361953D03*
X0103197Y0361909D03*
X0121231Y0370066D03*
X0084589Y0370110D03*
X0084589Y0370154D03*
X0084589Y0370198D03*
X0084589Y0370243D03*
X0080797Y0379723D03*
X0073124Y0379767D03*
X0067392Y0379767D03*
X0045698Y0379679D03*
X0045698Y0370595D03*
D16*
X0113537Y0364731D03*
D17*
X0113559Y0364775D03*
D18*
X0114992Y0372227D03*
X0113052Y0378753D03*
X0107981Y0379679D03*
X0107981Y0369228D03*
X0105909Y0364819D03*
X0121254Y0370022D03*
X0084611Y0370022D03*
X0084611Y0369978D03*
X0084611Y0369934D03*
X0084611Y0370066D03*
X0080863Y0379679D03*
X0067326Y0379723D03*
X0062079Y0370507D03*
X0056302Y0370507D03*
D19*
X0114639Y0364819D03*
D20*
X0107959Y0369184D03*
X0105931Y0364863D03*
X0107959Y0379723D03*
X0107959Y0379767D03*
X0121276Y0369978D03*
X0084633Y0369890D03*
X0084633Y0369846D03*
X0084633Y0369802D03*
X0073169Y0379723D03*
X0062145Y0370551D03*
X0059235Y0368831D03*
X0056236Y0370551D03*
X0045654Y0370639D03*
X0045609Y0379591D03*
X0045654Y0379635D03*
D21*
X0114661Y0364863D03*
D22*
X0114992Y0372271D03*
X0114772Y0372535D03*
X0114110Y0373241D03*
X0114066Y0373285D03*
X0114022Y0373329D03*
X0113052Y0378709D03*
X0107937Y0379811D03*
X0107937Y0369140D03*
X0105953Y0364907D03*
X0121298Y0369934D03*
X0084655Y0369757D03*
X0084655Y0369713D03*
X0084655Y0369669D03*
X0084655Y0369625D03*
X0080907Y0379635D03*
X0073235Y0379679D03*
X0067282Y0379679D03*
X0067238Y0379635D03*
X0056214Y0370595D03*
X0045587Y0370683D03*
D23*
X0114683Y0364907D03*
D24*
X0114970Y0372315D03*
X0114926Y0372359D03*
X0114882Y0372403D03*
X0114838Y0372447D03*
X0114794Y0372491D03*
X0114706Y0372580D03*
X0114706Y0372624D03*
X0114661Y0372668D03*
X0114617Y0372712D03*
X0114573Y0372756D03*
X0114529Y0372800D03*
X0114485Y0372844D03*
X0114441Y0372888D03*
X0114397Y0372932D03*
X0114353Y0372976D03*
X0114309Y0373020D03*
X0114265Y0373065D03*
X0114220Y0373109D03*
X0114176Y0373153D03*
X0114132Y0373197D03*
X0114000Y0373373D03*
X0107915Y0369096D03*
X0105975Y0364951D03*
X0121320Y0369890D03*
X0084677Y0369581D03*
X0084677Y0369537D03*
X0084677Y0369493D03*
X0080973Y0379546D03*
X0080973Y0379591D03*
X0073257Y0379635D03*
X0062233Y0370639D03*
X0062189Y0370595D03*
X0056148Y0370639D03*
X0045565Y0370728D03*
X0045565Y0379546D03*
D25*
X0114706Y0364951D03*
D26*
X0113669Y0378003D03*
X0113625Y0378047D03*
X0113228Y0378488D03*
X0113052Y0378665D03*
X0107893Y0379855D03*
X0107893Y0379899D03*
X0107893Y0369052D03*
X0105997Y0364995D03*
X0121342Y0369846D03*
X0084699Y0369449D03*
X0084699Y0369405D03*
X0084699Y0369361D03*
X0081083Y0379458D03*
X0081039Y0379502D03*
X0073323Y0379591D03*
X0067194Y0379591D03*
X0062255Y0370683D03*
X0056126Y0370683D03*
X0045543Y0379502D03*
X0045499Y0379458D03*
D27*
X0114728Y0364995D03*
D28*
X0114088Y0377562D03*
X0114044Y0377606D03*
X0114000Y0377650D03*
X0113956Y0377694D03*
X0113912Y0377739D03*
X0113868Y0377783D03*
X0113824Y0377827D03*
X0113780Y0377871D03*
X0113735Y0377915D03*
X0113691Y0377959D03*
X0113559Y0378091D03*
X0113515Y0378135D03*
X0113515Y0378180D03*
X0113471Y0378224D03*
X0113427Y0378268D03*
X0113383Y0378312D03*
X0113339Y0378356D03*
X0113294Y0378400D03*
X0113250Y0378444D03*
X0113162Y0378532D03*
X0113118Y0378576D03*
X0113074Y0378620D03*
X0107871Y0379943D03*
X0107871Y0369008D03*
X0107871Y0368964D03*
X0106019Y0365039D03*
X0121364Y0369802D03*
X0084721Y0369317D03*
X0084721Y0369272D03*
X0084721Y0369228D03*
X0084721Y0369184D03*
X0081238Y0379238D03*
X0081194Y0379326D03*
X0081150Y0379370D03*
X0081106Y0379414D03*
X0073389Y0379502D03*
X0073345Y0379546D03*
X0067172Y0379546D03*
X0067128Y0379502D03*
X0062365Y0370816D03*
X0062321Y0370772D03*
X0062321Y0370728D03*
X0056104Y0370728D03*
X0056060Y0370772D03*
X0045521Y0370772D03*
X0045477Y0370816D03*
X0045433Y0379370D03*
X0045477Y0379414D03*
D29*
X0114750Y0365039D03*
D30*
X0107849Y0368920D03*
X0106041Y0365083D03*
X0107849Y0379987D03*
X0121386Y0369757D03*
X0084743Y0369140D03*
X0084743Y0369096D03*
X0084743Y0369052D03*
X0081348Y0379106D03*
X0081304Y0379150D03*
X0081260Y0379194D03*
X0081216Y0379282D03*
X0073455Y0379370D03*
X0073455Y0379414D03*
X0073411Y0379458D03*
X0067106Y0379458D03*
X0067061Y0379414D03*
X0067017Y0379326D03*
X0062387Y0370860D03*
X0056038Y0370816D03*
X0055994Y0370860D03*
X0055950Y0370948D03*
X0045455Y0370860D03*
X0045411Y0370904D03*
X0045411Y0379326D03*
D31*
X0114772Y0365083D03*
D32*
X0107827Y0368876D03*
X0106063Y0365128D03*
X0107827Y0380031D03*
X0121408Y0369713D03*
X0084765Y0369008D03*
X0084765Y0368964D03*
X0084765Y0368920D03*
X0081502Y0378797D03*
X0081502Y0378841D03*
X0081502Y0378885D03*
X0081458Y0378929D03*
X0081414Y0378973D03*
X0081414Y0379017D03*
X0081370Y0379061D03*
X0073521Y0379238D03*
X0073521Y0379282D03*
X0073477Y0379326D03*
X0067039Y0379370D03*
X0066995Y0379282D03*
X0066951Y0379194D03*
X0062542Y0371169D03*
X0062498Y0371036D03*
X0062454Y0370992D03*
X0062454Y0370948D03*
X0062409Y0370904D03*
X0055972Y0370904D03*
X0055928Y0370992D03*
X0055928Y0371036D03*
X0055883Y0371080D03*
X0045389Y0370992D03*
X0045389Y0370948D03*
X0045345Y0371036D03*
X0045345Y0379194D03*
X0045345Y0379238D03*
X0045389Y0379282D03*
D33*
X0114794Y0365128D03*
D34*
X0107805Y0368831D03*
X0106085Y0365172D03*
X0107805Y0380076D03*
X0121430Y0369669D03*
X0084787Y0368876D03*
X0084787Y0368831D03*
X0081965Y0377915D03*
X0081833Y0378224D03*
X0081745Y0378400D03*
X0081701Y0378444D03*
X0081701Y0378488D03*
X0081657Y0378532D03*
X0081657Y0378576D03*
X0081613Y0378620D03*
X0081613Y0378665D03*
X0081569Y0378709D03*
X0081569Y0378753D03*
X0073720Y0378709D03*
X0073676Y0378885D03*
X0073631Y0379017D03*
X0073587Y0379106D03*
X0073587Y0379150D03*
X0073543Y0379194D03*
X0066973Y0379238D03*
X0066929Y0379150D03*
X0066929Y0379106D03*
X0066885Y0379061D03*
X0066885Y0379017D03*
X0066841Y0378929D03*
X0066797Y0378753D03*
X0062608Y0371301D03*
X0062564Y0371213D03*
X0062520Y0371124D03*
X0062520Y0371080D03*
X0055861Y0371124D03*
X0055861Y0371169D03*
X0055861Y0371213D03*
X0055817Y0371257D03*
X0055773Y0371389D03*
X0045323Y0371124D03*
X0045323Y0371080D03*
X0045279Y0371169D03*
X0045279Y0371213D03*
X0045279Y0371257D03*
X0045279Y0379017D03*
X0045279Y0379061D03*
X0045279Y0379106D03*
X0045323Y0379150D03*
D35*
X0114816Y0365172D03*
D36*
X0107783Y0368787D03*
X0106107Y0365216D03*
X0107783Y0380120D03*
X0121452Y0369625D03*
X0083178Y0374123D03*
X0083090Y0374431D03*
X0083046Y0374564D03*
X0083002Y0374740D03*
X0082957Y0374872D03*
X0082913Y0375049D03*
X0082869Y0375137D03*
X0082869Y0375181D03*
X0082825Y0375313D03*
X0082825Y0375357D03*
X0082781Y0375490D03*
X0082737Y0375622D03*
X0082737Y0375666D03*
X0082693Y0375798D03*
X0082649Y0375931D03*
X0082605Y0376107D03*
X0082561Y0376239D03*
X0082472Y0376548D03*
X0082428Y0376680D03*
X0082384Y0376857D03*
X0082340Y0376945D03*
X0082296Y0377033D03*
X0082296Y0377077D03*
X0082252Y0377209D03*
X0082208Y0377298D03*
X0082208Y0377342D03*
X0082164Y0377386D03*
X0082164Y0377430D03*
X0082120Y0377518D03*
X0082076Y0377650D03*
X0082031Y0377739D03*
X0082031Y0377783D03*
X0081987Y0377827D03*
X0081987Y0377871D03*
X0081943Y0377959D03*
X0081899Y0378003D03*
X0081899Y0378047D03*
X0081899Y0378091D03*
X0081855Y0378135D03*
X0081855Y0378180D03*
X0081811Y0378268D03*
X0081767Y0378312D03*
X0081767Y0378356D03*
X0073918Y0377694D03*
X0073874Y0378003D03*
X0073874Y0378047D03*
X0073830Y0378224D03*
X0073830Y0378268D03*
X0073786Y0378444D03*
X0073786Y0378488D03*
X0073742Y0378620D03*
X0073742Y0378665D03*
X0073698Y0378753D03*
X0073698Y0378797D03*
X0073698Y0378841D03*
X0073654Y0378929D03*
X0073654Y0378973D03*
X0073609Y0379061D03*
X0073962Y0377254D03*
X0073962Y0377209D03*
X0074006Y0376504D03*
X0074050Y0375843D03*
X0074050Y0375798D03*
X0074050Y0375754D03*
X0074139Y0374211D03*
X0074227Y0372844D03*
X0074227Y0372800D03*
X0074227Y0372756D03*
X0074227Y0372712D03*
X0074227Y0372668D03*
X0074227Y0372624D03*
X0074271Y0371698D03*
X0074315Y0370948D03*
X0074359Y0370110D03*
X0074403Y0369317D03*
X0074403Y0369272D03*
X0066113Y0369449D03*
X0066069Y0368831D03*
X0066202Y0371036D03*
X0066202Y0371080D03*
X0066246Y0371786D03*
X0066290Y0372668D03*
X0066378Y0374211D03*
X0066466Y0375754D03*
X0066466Y0375798D03*
X0066466Y0375843D03*
X0066466Y0375887D03*
X0066466Y0375931D03*
X0066554Y0377254D03*
X0066554Y0377298D03*
X0066598Y0377694D03*
X0066598Y0377739D03*
X0066643Y0378003D03*
X0066643Y0378047D03*
X0066643Y0378091D03*
X0066687Y0378268D03*
X0066731Y0378444D03*
X0066731Y0378488D03*
X0066731Y0378532D03*
X0066775Y0378620D03*
X0066775Y0378665D03*
X0066775Y0378709D03*
X0066819Y0378797D03*
X0066819Y0378841D03*
X0066819Y0378885D03*
X0066863Y0378973D03*
X0063247Y0379061D03*
X0063247Y0379106D03*
X0063291Y0379855D03*
X0063291Y0379899D03*
X0063380Y0381398D03*
X0063203Y0378356D03*
X0063203Y0378312D03*
X0063203Y0378268D03*
X0063203Y0378224D03*
X0063203Y0378180D03*
X0063115Y0376857D03*
X0063115Y0376813D03*
X0063115Y0376769D03*
X0063115Y0376724D03*
X0063115Y0376680D03*
X0063115Y0376636D03*
X0063115Y0376592D03*
X0063071Y0375843D03*
X0063071Y0375798D03*
X0063027Y0375093D03*
X0063027Y0375049D03*
X0063027Y0375005D03*
X0062939Y0373461D03*
X0062939Y0373417D03*
X0062939Y0373373D03*
X0062850Y0372535D03*
X0062850Y0372491D03*
X0062850Y0372447D03*
X0062806Y0372183D03*
X0062806Y0372139D03*
X0062762Y0371962D03*
X0062762Y0371918D03*
X0062718Y0371742D03*
X0062718Y0371698D03*
X0062674Y0371609D03*
X0062674Y0371565D03*
X0062674Y0371521D03*
X0062630Y0371433D03*
X0062630Y0371389D03*
X0062630Y0371345D03*
X0062586Y0371257D03*
X0055795Y0371301D03*
X0055795Y0371345D03*
X0055751Y0371433D03*
X0055751Y0371477D03*
X0055751Y0371521D03*
X0055707Y0371565D03*
X0055707Y0371609D03*
X0055707Y0371654D03*
X0055663Y0371742D03*
X0055663Y0371786D03*
X0055663Y0371830D03*
X0055619Y0371962D03*
X0055619Y0372006D03*
X0055619Y0372050D03*
X0055575Y0372315D03*
X0055575Y0372359D03*
X0055531Y0372624D03*
X0055531Y0372668D03*
X0055487Y0373020D03*
X0055487Y0373065D03*
X0055487Y0373109D03*
X0055443Y0373506D03*
X0055443Y0373550D03*
X0055443Y0373594D03*
X0055443Y0373638D03*
X0055443Y0373682D03*
X0055443Y0373726D03*
X0055443Y0373770D03*
X0055354Y0375181D03*
X0055354Y0375225D03*
X0055354Y0375269D03*
X0055354Y0375313D03*
X0055354Y0375357D03*
X0055354Y0375402D03*
X0055310Y0376195D03*
X0055178Y0378532D03*
X0055178Y0378576D03*
X0055178Y0378620D03*
X0055178Y0378665D03*
X0055178Y0378709D03*
X0055178Y0378753D03*
X0055090Y0380164D03*
X0055090Y0380208D03*
X0055090Y0380252D03*
X0055046Y0380913D03*
X0055046Y0380957D03*
X0055046Y0381002D03*
X0055046Y0381046D03*
X0055046Y0381090D03*
X0045257Y0378973D03*
X0045213Y0378929D03*
X0045213Y0378885D03*
X0045213Y0378841D03*
X0045213Y0378797D03*
X0045169Y0378753D03*
X0045169Y0378709D03*
X0045169Y0378665D03*
X0045169Y0378620D03*
X0045124Y0378488D03*
X0045124Y0378444D03*
X0045080Y0378224D03*
X0045080Y0378180D03*
X0045080Y0378135D03*
X0045080Y0378091D03*
X0045036Y0377650D03*
X0045036Y0377606D03*
X0045036Y0377562D03*
X0045036Y0377518D03*
X0045036Y0377474D03*
X0045036Y0372712D03*
X0045036Y0372668D03*
X0045080Y0372094D03*
X0045080Y0372050D03*
X0045080Y0372006D03*
X0045124Y0371830D03*
X0045124Y0371786D03*
X0045169Y0371654D03*
X0045169Y0371609D03*
X0045169Y0371565D03*
X0045169Y0371521D03*
X0045169Y0371477D03*
X0045213Y0371433D03*
X0045213Y0371389D03*
X0045213Y0371345D03*
X0045257Y0371301D03*
D37*
X0114838Y0365216D03*
D38*
X0107761Y0368743D03*
X0106129Y0365304D03*
X0106129Y0365260D03*
X0107761Y0380164D03*
X0099383Y0379106D03*
X0099383Y0379061D03*
X0099383Y0379017D03*
X0099383Y0378973D03*
X0099383Y0378841D03*
X0099383Y0378797D03*
X0099383Y0378753D03*
X0099383Y0378709D03*
X0099383Y0378665D03*
X0099383Y0378620D03*
X0099383Y0378576D03*
X0099383Y0378532D03*
X0099383Y0378488D03*
X0099383Y0378444D03*
X0099383Y0378400D03*
X0099383Y0378356D03*
X0099383Y0378312D03*
X0099383Y0378268D03*
X0099383Y0378224D03*
X0099383Y0378180D03*
X0099383Y0378135D03*
X0099383Y0378091D03*
X0099383Y0378047D03*
X0099383Y0378003D03*
X0099383Y0377959D03*
X0099383Y0377915D03*
X0099383Y0377871D03*
X0099383Y0377827D03*
X0099383Y0377783D03*
X0099383Y0377739D03*
X0099383Y0377694D03*
X0099383Y0377650D03*
X0099383Y0377606D03*
X0099383Y0377562D03*
X0099383Y0377518D03*
X0099383Y0377474D03*
X0099383Y0377430D03*
X0099383Y0377386D03*
X0099383Y0377342D03*
X0099383Y0377298D03*
X0099383Y0377254D03*
X0099383Y0377209D03*
X0099383Y0377165D03*
X0099383Y0377121D03*
X0099383Y0377077D03*
X0099383Y0377033D03*
X0099383Y0376989D03*
X0099383Y0376945D03*
X0099383Y0376901D03*
X0099383Y0376857D03*
X0099383Y0376813D03*
X0099383Y0376769D03*
X0099383Y0376724D03*
X0099383Y0376680D03*
X0099383Y0376636D03*
X0099383Y0376592D03*
X0099383Y0376548D03*
X0099383Y0376504D03*
X0099383Y0376460D03*
X0099383Y0376416D03*
X0099383Y0376372D03*
X0099383Y0376328D03*
X0099383Y0376283D03*
X0099383Y0376239D03*
X0099383Y0376195D03*
X0099383Y0376151D03*
X0099383Y0376107D03*
X0099383Y0376063D03*
X0099383Y0375887D03*
X0099383Y0375843D03*
X0099383Y0375798D03*
X0099383Y0375754D03*
X0099383Y0374211D03*
X0099383Y0374123D03*
X0099383Y0374079D03*
X0099383Y0374035D03*
X0099383Y0373991D03*
X0099383Y0373902D03*
X0099383Y0373858D03*
X0099383Y0373814D03*
X0099383Y0373770D03*
X0099383Y0373726D03*
X0099383Y0373682D03*
X0099383Y0373638D03*
X0099383Y0373594D03*
X0099383Y0373550D03*
X0099383Y0373506D03*
X0099383Y0373461D03*
X0099383Y0373417D03*
X0099383Y0373373D03*
X0099383Y0373329D03*
X0099383Y0373285D03*
X0099383Y0373241D03*
X0099383Y0373197D03*
X0099383Y0373153D03*
X0099383Y0373109D03*
X0099383Y0373065D03*
X0099383Y0373020D03*
X0099383Y0372976D03*
X0099383Y0372932D03*
X0099383Y0372888D03*
X0099383Y0372844D03*
X0099383Y0372800D03*
X0099383Y0372756D03*
X0099383Y0372712D03*
X0099383Y0372668D03*
X0099383Y0372624D03*
X0099383Y0372580D03*
X0099383Y0372535D03*
X0099383Y0372491D03*
X0099383Y0372447D03*
X0099383Y0372403D03*
X0099383Y0372359D03*
X0099383Y0372315D03*
X0099383Y0372271D03*
X0099383Y0372227D03*
X0099383Y0372183D03*
X0099383Y0372139D03*
X0099383Y0372094D03*
X0099383Y0372050D03*
X0099383Y0372006D03*
X0099383Y0371962D03*
X0099383Y0371918D03*
X0099383Y0371874D03*
X0099383Y0371830D03*
X0099383Y0371786D03*
X0099383Y0371742D03*
X0099383Y0371698D03*
X0099383Y0371654D03*
X0099383Y0371609D03*
X0099383Y0371565D03*
X0099383Y0371521D03*
X0099383Y0371477D03*
X0099383Y0371433D03*
X0099383Y0371389D03*
X0099383Y0371345D03*
X0099383Y0371301D03*
X0099383Y0371257D03*
X0099383Y0371213D03*
X0099383Y0371169D03*
X0099383Y0371124D03*
X0099383Y0371080D03*
X0099383Y0371036D03*
X0099383Y0370992D03*
X0099383Y0370948D03*
X0099383Y0370904D03*
X0099383Y0370860D03*
X0099383Y0370816D03*
X0099383Y0370772D03*
X0099383Y0370728D03*
X0099383Y0370683D03*
X0099383Y0370639D03*
X0099383Y0370595D03*
X0099383Y0370551D03*
X0099383Y0370507D03*
X0099383Y0370463D03*
X0099383Y0370419D03*
X0092636Y0370419D03*
X0092636Y0370463D03*
X0092636Y0370507D03*
X0092636Y0370551D03*
X0092636Y0370595D03*
X0092636Y0370639D03*
X0092636Y0370683D03*
X0092636Y0370728D03*
X0092636Y0370772D03*
X0092636Y0370816D03*
X0092636Y0370860D03*
X0092636Y0370904D03*
X0092636Y0370948D03*
X0092636Y0370992D03*
X0092636Y0371036D03*
X0092636Y0371080D03*
X0092636Y0371124D03*
X0092636Y0371169D03*
X0092636Y0371213D03*
X0092636Y0371257D03*
X0092636Y0371301D03*
X0092636Y0371345D03*
X0092636Y0371389D03*
X0092636Y0371433D03*
X0092636Y0371477D03*
X0092636Y0371521D03*
X0092636Y0371565D03*
X0092636Y0371609D03*
X0092636Y0371654D03*
X0092636Y0371698D03*
X0092636Y0371742D03*
X0092636Y0371786D03*
X0092636Y0371830D03*
X0092636Y0371874D03*
X0092636Y0371918D03*
X0092636Y0371962D03*
X0092636Y0372006D03*
X0092636Y0372050D03*
X0092636Y0372094D03*
X0092636Y0372139D03*
X0092636Y0372183D03*
X0092636Y0372227D03*
X0092636Y0372271D03*
X0092636Y0372315D03*
X0092636Y0372359D03*
X0092636Y0372403D03*
X0092636Y0372447D03*
X0092636Y0372491D03*
X0092636Y0372535D03*
X0092636Y0372580D03*
X0092636Y0372624D03*
X0092636Y0372668D03*
X0092636Y0372712D03*
X0092636Y0372756D03*
X0092636Y0372800D03*
X0092636Y0372844D03*
X0092636Y0372888D03*
X0092636Y0372932D03*
X0092636Y0372976D03*
X0092636Y0373020D03*
X0092636Y0373065D03*
X0092636Y0373109D03*
X0092636Y0373153D03*
X0092636Y0373197D03*
X0092636Y0373241D03*
X0092636Y0373285D03*
X0092636Y0373329D03*
X0092636Y0373373D03*
X0092636Y0373417D03*
X0092636Y0373461D03*
X0092636Y0373506D03*
X0092636Y0373550D03*
X0092636Y0373594D03*
X0092636Y0373638D03*
X0092636Y0373682D03*
X0092636Y0373726D03*
X0092636Y0373770D03*
X0092636Y0373814D03*
X0092636Y0373858D03*
X0092636Y0373902D03*
X0092636Y0373946D03*
X0092636Y0373991D03*
X0092636Y0374035D03*
X0092636Y0374079D03*
X0092636Y0374123D03*
X0092636Y0374167D03*
X0092636Y0374211D03*
X0092636Y0374255D03*
X0092636Y0374299D03*
X0092636Y0374343D03*
X0092636Y0374387D03*
X0092636Y0374431D03*
X0092636Y0374476D03*
X0092636Y0374520D03*
X0092636Y0374564D03*
X0092636Y0374608D03*
X0092636Y0374652D03*
X0092636Y0374696D03*
X0092636Y0374740D03*
X0092636Y0374784D03*
X0092636Y0374828D03*
X0092636Y0374872D03*
X0092636Y0374917D03*
X0092636Y0374961D03*
X0092636Y0375005D03*
X0092636Y0375049D03*
X0092636Y0375093D03*
X0092636Y0375137D03*
X0092636Y0375181D03*
X0092636Y0375225D03*
X0092636Y0375269D03*
X0092636Y0375313D03*
X0092636Y0375357D03*
X0092636Y0375402D03*
X0092636Y0375446D03*
X0092636Y0375490D03*
X0092636Y0375534D03*
X0092636Y0375578D03*
X0092636Y0375622D03*
X0092636Y0375666D03*
X0092636Y0375710D03*
X0092636Y0375754D03*
X0092636Y0375798D03*
X0092636Y0375843D03*
X0092636Y0375887D03*
X0092636Y0375931D03*
X0092636Y0375975D03*
X0092636Y0376019D03*
X0092636Y0376063D03*
X0092636Y0376107D03*
X0092636Y0376151D03*
X0092636Y0376195D03*
X0092636Y0376239D03*
X0092636Y0376283D03*
X0092636Y0376328D03*
X0092636Y0376372D03*
X0092636Y0376416D03*
X0092636Y0376460D03*
X0092636Y0376504D03*
X0092636Y0376548D03*
X0092636Y0376592D03*
X0092636Y0376636D03*
X0092636Y0376680D03*
X0092636Y0376724D03*
X0092636Y0376769D03*
X0092636Y0376813D03*
X0092636Y0376857D03*
X0092636Y0376901D03*
X0092636Y0376945D03*
X0092636Y0376989D03*
X0092636Y0377033D03*
X0092636Y0377077D03*
X0092636Y0377121D03*
X0092636Y0377165D03*
X0092636Y0377209D03*
X0092636Y0377254D03*
X0092636Y0377298D03*
X0092636Y0377342D03*
X0092636Y0377386D03*
X0092636Y0377430D03*
X0092636Y0377474D03*
X0092636Y0377518D03*
X0092636Y0377562D03*
X0092636Y0377606D03*
X0092636Y0377650D03*
X0092636Y0377694D03*
X0092636Y0377739D03*
X0092636Y0377783D03*
X0092636Y0377827D03*
X0092636Y0377871D03*
X0092636Y0377915D03*
X0092636Y0377959D03*
X0092636Y0378003D03*
X0092636Y0378047D03*
X0092636Y0378091D03*
X0092636Y0378135D03*
X0092636Y0378180D03*
X0092636Y0378224D03*
X0092636Y0378268D03*
X0092636Y0378312D03*
X0092636Y0378356D03*
X0092636Y0378400D03*
X0092636Y0378444D03*
X0092636Y0378488D03*
X0092636Y0378532D03*
X0092636Y0378576D03*
X0092636Y0378620D03*
X0092636Y0378665D03*
X0092636Y0378709D03*
X0092636Y0378753D03*
X0092636Y0378797D03*
X0092636Y0378841D03*
X0092636Y0378885D03*
X0092636Y0378929D03*
X0092636Y0378973D03*
X0092636Y0379017D03*
X0092636Y0379061D03*
X0092636Y0379106D03*
X0092636Y0379150D03*
X0092636Y0379194D03*
X0092636Y0379238D03*
X0092636Y0379282D03*
X0092636Y0379326D03*
X0092636Y0379370D03*
X0092636Y0379414D03*
X0092636Y0379458D03*
X0092636Y0379502D03*
X0092636Y0379546D03*
X0092636Y0379591D03*
X0092636Y0379635D03*
X0092636Y0379679D03*
X0092636Y0379855D03*
X0092636Y0379899D03*
X0092636Y0379943D03*
X0092636Y0370375D03*
X0092636Y0370331D03*
X0092636Y0370287D03*
X0092636Y0370243D03*
X0092636Y0370198D03*
X0092636Y0370154D03*
X0092636Y0370110D03*
X0092636Y0370066D03*
X0092636Y0370022D03*
X0092636Y0369978D03*
X0092636Y0369934D03*
X0092636Y0369890D03*
X0092636Y0369846D03*
X0092636Y0369802D03*
X0092636Y0369757D03*
X0092636Y0369713D03*
X0092636Y0369669D03*
X0092636Y0369625D03*
X0092636Y0369581D03*
X0092636Y0369537D03*
X0092636Y0369493D03*
X0092636Y0369449D03*
X0092636Y0369405D03*
X0092636Y0369361D03*
X0092636Y0369317D03*
X0092636Y0369272D03*
X0092636Y0369228D03*
X0092636Y0369184D03*
X0092636Y0369140D03*
X0092636Y0369096D03*
X0092636Y0369052D03*
X0092636Y0369008D03*
X0092636Y0368964D03*
X0092636Y0368920D03*
X0092636Y0368876D03*
X0092636Y0368831D03*
X0083244Y0373946D03*
X0083200Y0373991D03*
X0083200Y0374035D03*
X0083200Y0374079D03*
X0083156Y0374167D03*
X0083156Y0374211D03*
X0083156Y0374255D03*
X0083112Y0374299D03*
X0083112Y0374343D03*
X0083112Y0374387D03*
X0083068Y0374476D03*
X0083068Y0374520D03*
X0083024Y0374608D03*
X0083024Y0374652D03*
X0083024Y0374696D03*
X0082980Y0374784D03*
X0082980Y0374828D03*
X0082935Y0374917D03*
X0082935Y0374961D03*
X0082935Y0375005D03*
X0082891Y0375093D03*
X0082847Y0375225D03*
X0082847Y0375269D03*
X0082803Y0375402D03*
X0082803Y0375446D03*
X0082759Y0375534D03*
X0082759Y0375578D03*
X0082715Y0375710D03*
X0082715Y0375754D03*
X0082671Y0375843D03*
X0082671Y0375887D03*
X0082627Y0375975D03*
X0082627Y0376019D03*
X0082627Y0376063D03*
X0082583Y0376151D03*
X0082583Y0376195D03*
X0082539Y0376283D03*
X0082539Y0376328D03*
X0082539Y0376372D03*
X0082494Y0376416D03*
X0082494Y0376460D03*
X0082494Y0376504D03*
X0082450Y0376592D03*
X0082450Y0376636D03*
X0082406Y0376724D03*
X0082406Y0376769D03*
X0082406Y0376813D03*
X0082362Y0376901D03*
X0082318Y0376989D03*
X0082274Y0377121D03*
X0082274Y0377165D03*
X0082230Y0377254D03*
X0082142Y0377474D03*
X0082098Y0377562D03*
X0082098Y0377606D03*
X0082054Y0377694D03*
X0074425Y0369228D03*
X0074425Y0369184D03*
X0074425Y0369140D03*
X0074425Y0369096D03*
X0074425Y0369052D03*
X0074425Y0369008D03*
X0074425Y0368964D03*
X0074425Y0368920D03*
X0074425Y0368876D03*
X0074425Y0368831D03*
X0074381Y0369361D03*
X0074381Y0369405D03*
X0074381Y0369449D03*
X0074381Y0369493D03*
X0074381Y0369537D03*
X0074381Y0369581D03*
X0074381Y0369625D03*
X0074381Y0369669D03*
X0074381Y0369713D03*
X0074381Y0369757D03*
X0074381Y0369802D03*
X0074381Y0369846D03*
X0074381Y0369890D03*
X0074381Y0369934D03*
X0074381Y0369978D03*
X0074381Y0370022D03*
X0074381Y0370066D03*
X0074337Y0370154D03*
X0074337Y0370198D03*
X0074337Y0370243D03*
X0074337Y0370287D03*
X0074337Y0370331D03*
X0074337Y0370375D03*
X0074337Y0370419D03*
X0074337Y0370463D03*
X0074337Y0370507D03*
X0074337Y0370551D03*
X0074337Y0370595D03*
X0074337Y0370639D03*
X0074337Y0370683D03*
X0074337Y0370728D03*
X0074337Y0370772D03*
X0074337Y0370816D03*
X0074337Y0370860D03*
X0074337Y0370904D03*
X0074293Y0370992D03*
X0074293Y0371036D03*
X0074293Y0371080D03*
X0074293Y0371124D03*
X0074293Y0371169D03*
X0074293Y0371213D03*
X0074293Y0371257D03*
X0074293Y0371301D03*
X0074293Y0371345D03*
X0074293Y0371389D03*
X0074293Y0371433D03*
X0074293Y0371477D03*
X0074293Y0371521D03*
X0074293Y0371565D03*
X0074293Y0371609D03*
X0074293Y0371654D03*
X0074249Y0371742D03*
X0074249Y0371786D03*
X0074249Y0371830D03*
X0074249Y0371874D03*
X0074249Y0371918D03*
X0074249Y0371962D03*
X0074249Y0372006D03*
X0074249Y0372050D03*
X0074249Y0372094D03*
X0074249Y0372139D03*
X0074249Y0372183D03*
X0074249Y0372227D03*
X0074249Y0372271D03*
X0074249Y0372315D03*
X0074249Y0372359D03*
X0074249Y0372403D03*
X0074249Y0372447D03*
X0074249Y0372491D03*
X0074249Y0372535D03*
X0074249Y0372580D03*
X0074205Y0372888D03*
X0074205Y0372932D03*
X0074205Y0372976D03*
X0074205Y0373020D03*
X0074205Y0373065D03*
X0074205Y0373109D03*
X0074205Y0373153D03*
X0074205Y0373197D03*
X0074205Y0373241D03*
X0074205Y0373285D03*
X0074161Y0373417D03*
X0074161Y0373461D03*
X0074161Y0373506D03*
X0074161Y0373550D03*
X0074161Y0373594D03*
X0074161Y0373638D03*
X0074161Y0373682D03*
X0074161Y0373726D03*
X0074161Y0373770D03*
X0074161Y0373814D03*
X0074161Y0373858D03*
X0074161Y0373902D03*
X0074161Y0373946D03*
X0074161Y0373991D03*
X0074161Y0374035D03*
X0074161Y0374079D03*
X0074161Y0374123D03*
X0074161Y0374167D03*
X0074072Y0375622D03*
X0074072Y0375666D03*
X0074072Y0375710D03*
X0074028Y0375887D03*
X0074028Y0375931D03*
X0074028Y0375975D03*
X0074028Y0376019D03*
X0074028Y0376063D03*
X0074028Y0376107D03*
X0074028Y0376151D03*
X0074028Y0376195D03*
X0074028Y0376239D03*
X0074028Y0376283D03*
X0074028Y0376328D03*
X0074028Y0376372D03*
X0074028Y0376416D03*
X0074028Y0376460D03*
X0073984Y0376548D03*
X0073984Y0376592D03*
X0073984Y0376636D03*
X0073984Y0376680D03*
X0073984Y0376724D03*
X0073984Y0376769D03*
X0073984Y0376813D03*
X0073984Y0376857D03*
X0073984Y0376901D03*
X0073984Y0376945D03*
X0073984Y0376989D03*
X0073984Y0377033D03*
X0073984Y0377077D03*
X0073984Y0377121D03*
X0073984Y0377165D03*
X0073940Y0377298D03*
X0073940Y0377342D03*
X0073940Y0377386D03*
X0073940Y0377430D03*
X0073940Y0377474D03*
X0073940Y0377518D03*
X0073940Y0377562D03*
X0073940Y0377606D03*
X0073940Y0377650D03*
X0073896Y0377739D03*
X0073896Y0377783D03*
X0073896Y0377827D03*
X0073896Y0377871D03*
X0073896Y0377915D03*
X0073896Y0377959D03*
X0073852Y0378091D03*
X0073852Y0378135D03*
X0073852Y0378180D03*
X0073808Y0378312D03*
X0073808Y0378356D03*
X0073808Y0378400D03*
X0073764Y0378532D03*
X0073764Y0378576D03*
X0066753Y0378576D03*
X0066709Y0378400D03*
X0066709Y0378356D03*
X0066709Y0378312D03*
X0066665Y0378224D03*
X0066665Y0378180D03*
X0066665Y0378135D03*
X0066620Y0377959D03*
X0066620Y0377915D03*
X0066620Y0377871D03*
X0066620Y0377827D03*
X0066620Y0377783D03*
X0066576Y0377650D03*
X0066576Y0377606D03*
X0066576Y0377562D03*
X0066576Y0377518D03*
X0066576Y0377474D03*
X0066576Y0377430D03*
X0066576Y0377386D03*
X0066576Y0377342D03*
X0066532Y0377209D03*
X0066532Y0377165D03*
X0066532Y0377121D03*
X0066532Y0377077D03*
X0066532Y0377033D03*
X0066532Y0376989D03*
X0066532Y0376945D03*
X0066532Y0376901D03*
X0066532Y0376857D03*
X0066532Y0376813D03*
X0066532Y0376769D03*
X0066488Y0376680D03*
X0066488Y0376636D03*
X0066488Y0376592D03*
X0066488Y0376548D03*
X0066488Y0376504D03*
X0066488Y0376460D03*
X0066488Y0376416D03*
X0066488Y0376372D03*
X0066488Y0376328D03*
X0066488Y0376283D03*
X0066488Y0376239D03*
X0066488Y0376195D03*
X0066488Y0376151D03*
X0066488Y0376107D03*
X0066488Y0376063D03*
X0066488Y0376019D03*
X0066488Y0375975D03*
X0066444Y0375710D03*
X0066444Y0375666D03*
X0066444Y0375622D03*
X0066356Y0374167D03*
X0066356Y0374123D03*
X0066356Y0374079D03*
X0066356Y0374035D03*
X0066356Y0373991D03*
X0066356Y0373946D03*
X0066356Y0373902D03*
X0066356Y0373858D03*
X0066356Y0373814D03*
X0066356Y0373770D03*
X0066356Y0373726D03*
X0066356Y0373682D03*
X0066356Y0373638D03*
X0066356Y0373594D03*
X0066356Y0373550D03*
X0066356Y0373506D03*
X0066356Y0373461D03*
X0066312Y0373417D03*
X0066312Y0373373D03*
X0066312Y0373329D03*
X0066312Y0373285D03*
X0066312Y0373241D03*
X0066312Y0373197D03*
X0066312Y0373153D03*
X0066312Y0373109D03*
X0066312Y0373065D03*
X0066312Y0373020D03*
X0066312Y0372976D03*
X0066312Y0372932D03*
X0066312Y0372888D03*
X0066312Y0372844D03*
X0066312Y0372800D03*
X0066312Y0372756D03*
X0066312Y0372712D03*
X0066268Y0372624D03*
X0066268Y0372580D03*
X0066268Y0372535D03*
X0066268Y0372491D03*
X0066268Y0372447D03*
X0066268Y0372403D03*
X0066268Y0372359D03*
X0066268Y0372315D03*
X0066268Y0372271D03*
X0066268Y0372227D03*
X0066268Y0372183D03*
X0066268Y0372139D03*
X0066268Y0372094D03*
X0066268Y0372050D03*
X0066268Y0372006D03*
X0066268Y0371962D03*
X0066268Y0371918D03*
X0066224Y0371830D03*
X0066224Y0371742D03*
X0066224Y0371698D03*
X0066224Y0371654D03*
X0066224Y0371609D03*
X0066224Y0371565D03*
X0066224Y0371521D03*
X0066224Y0371477D03*
X0066224Y0371433D03*
X0066224Y0371389D03*
X0066224Y0371345D03*
X0066224Y0371301D03*
X0066224Y0371257D03*
X0066224Y0371213D03*
X0066224Y0371169D03*
X0066224Y0371124D03*
X0066180Y0370992D03*
X0066180Y0370948D03*
X0066180Y0370904D03*
X0066180Y0370860D03*
X0066180Y0370816D03*
X0066180Y0370772D03*
X0066180Y0370728D03*
X0066180Y0370683D03*
X0066180Y0370639D03*
X0066180Y0370595D03*
X0066180Y0370551D03*
X0066180Y0370507D03*
X0066180Y0370463D03*
X0066180Y0370419D03*
X0066180Y0370375D03*
X0066180Y0370331D03*
X0066180Y0370287D03*
X0066180Y0370243D03*
X0066135Y0370198D03*
X0066135Y0370154D03*
X0066135Y0370110D03*
X0066135Y0370066D03*
X0066135Y0370022D03*
X0066135Y0369978D03*
X0066135Y0369934D03*
X0066135Y0369890D03*
X0066135Y0369846D03*
X0066135Y0369802D03*
X0066135Y0369757D03*
X0066135Y0369713D03*
X0066135Y0369669D03*
X0066135Y0369625D03*
X0066135Y0369581D03*
X0066135Y0369537D03*
X0066135Y0369493D03*
X0066091Y0369405D03*
X0066091Y0369361D03*
X0066091Y0369317D03*
X0066091Y0369272D03*
X0066091Y0369228D03*
X0066091Y0369184D03*
X0066091Y0369140D03*
X0066091Y0369096D03*
X0066091Y0369052D03*
X0066091Y0369008D03*
X0066091Y0368964D03*
X0066091Y0368920D03*
X0066091Y0368876D03*
X0063181Y0377386D03*
X0063181Y0377430D03*
X0063181Y0377518D03*
X0063181Y0377562D03*
X0063181Y0377606D03*
X0063181Y0377650D03*
X0063181Y0377694D03*
X0063181Y0377739D03*
X0063181Y0377783D03*
X0063181Y0377827D03*
X0063181Y0377871D03*
X0063181Y0377915D03*
X0063181Y0377959D03*
X0063181Y0378003D03*
X0063181Y0378047D03*
X0063181Y0378091D03*
X0063181Y0378135D03*
X0063225Y0378400D03*
X0063225Y0378444D03*
X0063225Y0378488D03*
X0063225Y0378532D03*
X0063225Y0378576D03*
X0063225Y0378620D03*
X0063225Y0378665D03*
X0063225Y0378709D03*
X0063225Y0378753D03*
X0063225Y0378797D03*
X0063225Y0378841D03*
X0063225Y0378885D03*
X0063225Y0378929D03*
X0063225Y0378973D03*
X0063225Y0379017D03*
X0063269Y0379150D03*
X0063269Y0379194D03*
X0063269Y0379238D03*
X0063269Y0379282D03*
X0063269Y0379326D03*
X0063269Y0379370D03*
X0063269Y0379414D03*
X0063269Y0379458D03*
X0063269Y0379502D03*
X0063269Y0379546D03*
X0063269Y0379591D03*
X0063269Y0379635D03*
X0063269Y0379679D03*
X0063269Y0379723D03*
X0063269Y0379767D03*
X0063269Y0379811D03*
X0063313Y0379943D03*
X0063313Y0379987D03*
X0063313Y0380031D03*
X0063313Y0380076D03*
X0063313Y0380120D03*
X0063313Y0380164D03*
X0063313Y0380208D03*
X0063313Y0380252D03*
X0063313Y0380296D03*
X0063313Y0380340D03*
X0063313Y0380384D03*
X0063313Y0380428D03*
X0063313Y0380472D03*
X0063313Y0380517D03*
X0063313Y0380561D03*
X0063313Y0380605D03*
X0063357Y0380649D03*
X0063357Y0380693D03*
X0063357Y0380737D03*
X0063357Y0380781D03*
X0063357Y0380825D03*
X0063357Y0380869D03*
X0063357Y0380913D03*
X0063357Y0380957D03*
X0063357Y0381002D03*
X0063357Y0381046D03*
X0063357Y0381090D03*
X0063357Y0381134D03*
X0063357Y0381178D03*
X0063357Y0381222D03*
X0063357Y0381266D03*
X0063357Y0381310D03*
X0063357Y0381354D03*
X0063357Y0381443D03*
X0063137Y0377298D03*
X0063137Y0377254D03*
X0063137Y0377209D03*
X0063137Y0377165D03*
X0063137Y0377121D03*
X0063137Y0377077D03*
X0063137Y0377033D03*
X0063137Y0376989D03*
X0063137Y0376945D03*
X0063137Y0376901D03*
X0063093Y0376548D03*
X0063093Y0376504D03*
X0063093Y0376460D03*
X0063093Y0376416D03*
X0063093Y0376372D03*
X0063093Y0376328D03*
X0063093Y0376283D03*
X0063093Y0376239D03*
X0063093Y0376195D03*
X0063093Y0376151D03*
X0063093Y0376107D03*
X0063093Y0376063D03*
X0063093Y0376019D03*
X0063093Y0375975D03*
X0063093Y0375931D03*
X0063093Y0375887D03*
X0063049Y0375754D03*
X0063049Y0375710D03*
X0063049Y0375666D03*
X0063049Y0375622D03*
X0063049Y0375578D03*
X0063049Y0375534D03*
X0063049Y0375490D03*
X0063049Y0375446D03*
X0063049Y0375402D03*
X0063049Y0375357D03*
X0063049Y0375313D03*
X0063049Y0375269D03*
X0063049Y0375225D03*
X0063049Y0375181D03*
X0063049Y0375137D03*
X0063005Y0374961D03*
X0063005Y0374917D03*
X0063005Y0374872D03*
X0063005Y0374828D03*
X0063005Y0374784D03*
X0063005Y0374740D03*
X0063005Y0374696D03*
X0063005Y0374652D03*
X0063005Y0374608D03*
X0063005Y0374564D03*
X0063005Y0374520D03*
X0063005Y0374476D03*
X0063005Y0374431D03*
X0063005Y0374387D03*
X0063005Y0374343D03*
X0063005Y0374299D03*
X0062961Y0374167D03*
X0062961Y0374123D03*
X0062961Y0374079D03*
X0062961Y0374035D03*
X0062961Y0373991D03*
X0062961Y0373946D03*
X0062961Y0373902D03*
X0062961Y0373858D03*
X0062961Y0373814D03*
X0062961Y0373770D03*
X0062961Y0373726D03*
X0062961Y0373682D03*
X0062961Y0373638D03*
X0062961Y0373594D03*
X0062961Y0373550D03*
X0062961Y0373506D03*
X0062917Y0373329D03*
X0062917Y0373285D03*
X0062917Y0373241D03*
X0062917Y0373197D03*
X0062917Y0373153D03*
X0062917Y0373109D03*
X0062917Y0373065D03*
X0062917Y0373020D03*
X0062917Y0372976D03*
X0062872Y0372844D03*
X0062872Y0372800D03*
X0062872Y0372756D03*
X0062872Y0372712D03*
X0062872Y0372668D03*
X0062872Y0372624D03*
X0062872Y0372580D03*
X0062828Y0372403D03*
X0062828Y0372359D03*
X0062828Y0372315D03*
X0062828Y0372271D03*
X0062828Y0372227D03*
X0062784Y0372094D03*
X0062784Y0372050D03*
X0062784Y0372006D03*
X0062740Y0371874D03*
X0062740Y0371830D03*
X0062740Y0371786D03*
X0062696Y0371654D03*
X0062652Y0371477D03*
X0055685Y0371698D03*
X0055641Y0371874D03*
X0055641Y0371918D03*
X0055597Y0372094D03*
X0055597Y0372139D03*
X0055597Y0372183D03*
X0055597Y0372227D03*
X0055597Y0372271D03*
X0055553Y0372403D03*
X0055553Y0372447D03*
X0055553Y0372491D03*
X0055553Y0372535D03*
X0055553Y0372580D03*
X0055509Y0372712D03*
X0055509Y0372756D03*
X0055509Y0372800D03*
X0055509Y0372844D03*
X0055509Y0372888D03*
X0055509Y0372932D03*
X0055509Y0372976D03*
X0055465Y0373153D03*
X0055465Y0373197D03*
X0055465Y0373241D03*
X0055465Y0373285D03*
X0055465Y0373329D03*
X0055465Y0373373D03*
X0055465Y0373417D03*
X0055465Y0373461D03*
X0055420Y0373814D03*
X0055420Y0373858D03*
X0055420Y0373902D03*
X0055420Y0373946D03*
X0055420Y0373991D03*
X0055420Y0374035D03*
X0055420Y0374079D03*
X0055420Y0374123D03*
X0055420Y0374167D03*
X0055420Y0374211D03*
X0055420Y0374255D03*
X0055420Y0374299D03*
X0055420Y0374343D03*
X0055420Y0374387D03*
X0055420Y0374431D03*
X0055420Y0374476D03*
X0055420Y0374520D03*
X0055376Y0374608D03*
X0055376Y0374652D03*
X0055376Y0374696D03*
X0055376Y0374740D03*
X0055376Y0374784D03*
X0055376Y0374828D03*
X0055376Y0374872D03*
X0055376Y0374917D03*
X0055376Y0374961D03*
X0055376Y0375005D03*
X0055376Y0375049D03*
X0055376Y0375093D03*
X0055376Y0375137D03*
X0055332Y0375446D03*
X0055332Y0375490D03*
X0055332Y0375534D03*
X0055332Y0375578D03*
X0055332Y0375622D03*
X0055332Y0375666D03*
X0055332Y0375710D03*
X0055332Y0375754D03*
X0055332Y0375798D03*
X0055332Y0375843D03*
X0055332Y0375887D03*
X0055332Y0375931D03*
X0055332Y0375975D03*
X0055332Y0376019D03*
X0055332Y0376063D03*
X0055332Y0376107D03*
X0055332Y0376151D03*
X0055288Y0376239D03*
X0055288Y0376283D03*
X0055288Y0376328D03*
X0055288Y0376372D03*
X0055288Y0376416D03*
X0055288Y0376460D03*
X0055288Y0376504D03*
X0055288Y0376548D03*
X0055288Y0376592D03*
X0055288Y0376636D03*
X0055288Y0376680D03*
X0055288Y0376724D03*
X0055288Y0376769D03*
X0055288Y0376813D03*
X0055288Y0376857D03*
X0055288Y0376901D03*
X0055288Y0376945D03*
X0055244Y0376989D03*
X0055244Y0377033D03*
X0055244Y0377077D03*
X0055244Y0377121D03*
X0055244Y0377165D03*
X0055244Y0377209D03*
X0055244Y0377254D03*
X0055244Y0377298D03*
X0055244Y0377342D03*
X0055244Y0377386D03*
X0055244Y0377430D03*
X0055244Y0377474D03*
X0055244Y0377518D03*
X0055244Y0377562D03*
X0055244Y0377606D03*
X0055244Y0377650D03*
X0055244Y0377694D03*
X0055244Y0377739D03*
X0055244Y0377783D03*
X0055200Y0377827D03*
X0055200Y0377871D03*
X0055200Y0377915D03*
X0055200Y0377959D03*
X0055200Y0378003D03*
X0055200Y0378047D03*
X0055200Y0378091D03*
X0055200Y0378135D03*
X0055200Y0378180D03*
X0055200Y0378224D03*
X0055200Y0378268D03*
X0055200Y0378312D03*
X0055200Y0378356D03*
X0055200Y0378400D03*
X0055200Y0378444D03*
X0055200Y0378488D03*
X0055156Y0378797D03*
X0055156Y0378841D03*
X0055156Y0378885D03*
X0055156Y0378929D03*
X0055156Y0378973D03*
X0055156Y0379017D03*
X0055156Y0379061D03*
X0055156Y0379106D03*
X0055156Y0379150D03*
X0055156Y0379194D03*
X0055156Y0379238D03*
X0055156Y0379282D03*
X0055112Y0379326D03*
X0055112Y0379370D03*
X0055112Y0379414D03*
X0055112Y0379458D03*
X0055112Y0379502D03*
X0055112Y0379546D03*
X0055112Y0379591D03*
X0055112Y0379635D03*
X0055112Y0379679D03*
X0055112Y0379723D03*
X0055112Y0379767D03*
X0055112Y0379811D03*
X0055112Y0379855D03*
X0055112Y0379899D03*
X0055112Y0379943D03*
X0055112Y0379987D03*
X0055112Y0380031D03*
X0055112Y0380076D03*
X0055112Y0380120D03*
X0055068Y0380296D03*
X0055068Y0380340D03*
X0055068Y0380384D03*
X0055068Y0380428D03*
X0055068Y0380472D03*
X0055068Y0380517D03*
X0055068Y0380561D03*
X0055068Y0380605D03*
X0055068Y0380649D03*
X0055068Y0380693D03*
X0055068Y0380737D03*
X0055068Y0380781D03*
X0055068Y0380825D03*
X0055068Y0380869D03*
X0055024Y0381134D03*
X0055024Y0381178D03*
X0055024Y0381222D03*
X0055024Y0381266D03*
X0055024Y0381310D03*
X0055024Y0381354D03*
X0055024Y0381398D03*
X0055024Y0381443D03*
X0045146Y0378576D03*
X0045146Y0378532D03*
X0045102Y0378400D03*
X0045102Y0378356D03*
X0045102Y0378312D03*
X0045102Y0378268D03*
X0045058Y0378047D03*
X0045058Y0378003D03*
X0045058Y0377959D03*
X0045058Y0377915D03*
X0045058Y0377871D03*
X0045058Y0377827D03*
X0045058Y0377783D03*
X0045058Y0377739D03*
X0045058Y0377694D03*
X0045014Y0377430D03*
X0045014Y0377386D03*
X0045014Y0377342D03*
X0045014Y0377298D03*
X0045014Y0377254D03*
X0045014Y0377209D03*
X0045014Y0377165D03*
X0045014Y0377121D03*
X0045014Y0377077D03*
X0045014Y0377033D03*
X0045014Y0376989D03*
X0045014Y0376945D03*
X0045014Y0376901D03*
X0045014Y0376857D03*
X0045014Y0376813D03*
X0045014Y0376769D03*
X0045014Y0376724D03*
X0045014Y0376680D03*
X0045014Y0376636D03*
X0045014Y0376592D03*
X0045014Y0376548D03*
X0045014Y0376504D03*
X0045014Y0376460D03*
X0045014Y0376416D03*
X0045014Y0376372D03*
X0045014Y0376328D03*
X0045014Y0376283D03*
X0045014Y0376239D03*
X0045014Y0376195D03*
X0045014Y0376151D03*
X0045014Y0376107D03*
X0045014Y0376063D03*
X0045014Y0376019D03*
X0045014Y0375975D03*
X0045014Y0375931D03*
X0045014Y0375887D03*
X0045014Y0375843D03*
X0045014Y0375798D03*
X0045014Y0375754D03*
X0045014Y0375710D03*
X0045014Y0375666D03*
X0045014Y0375622D03*
X0045014Y0375578D03*
X0045014Y0375534D03*
X0045014Y0375490D03*
X0045014Y0375446D03*
X0045014Y0375402D03*
X0045014Y0375357D03*
X0045014Y0375313D03*
X0045014Y0375269D03*
X0045014Y0375225D03*
X0045014Y0375181D03*
X0045014Y0375137D03*
X0045014Y0375093D03*
X0045014Y0375049D03*
X0045014Y0375005D03*
X0045014Y0374961D03*
X0045014Y0374917D03*
X0045014Y0374872D03*
X0045014Y0374828D03*
X0045014Y0374784D03*
X0045014Y0374740D03*
X0045014Y0374696D03*
X0045014Y0374652D03*
X0045014Y0374608D03*
X0045014Y0374564D03*
X0045014Y0374520D03*
X0045014Y0374476D03*
X0045014Y0374431D03*
X0045014Y0374387D03*
X0045014Y0374343D03*
X0045014Y0374299D03*
X0045014Y0374255D03*
X0045014Y0374211D03*
X0045014Y0374167D03*
X0045014Y0374123D03*
X0045014Y0374079D03*
X0045014Y0374035D03*
X0045014Y0373991D03*
X0045014Y0373946D03*
X0045014Y0373902D03*
X0045014Y0373858D03*
X0045014Y0373814D03*
X0045014Y0373770D03*
X0045014Y0373726D03*
X0045014Y0373682D03*
X0045014Y0373638D03*
X0045014Y0373594D03*
X0045014Y0373550D03*
X0045014Y0373506D03*
X0045014Y0373461D03*
X0045014Y0373417D03*
X0045014Y0373373D03*
X0045014Y0373329D03*
X0045014Y0373285D03*
X0045014Y0373241D03*
X0045014Y0373197D03*
X0045014Y0373153D03*
X0045014Y0373109D03*
X0045014Y0373065D03*
X0045014Y0373020D03*
X0045014Y0372976D03*
X0045014Y0372932D03*
X0045014Y0372888D03*
X0045014Y0372844D03*
X0045014Y0372800D03*
X0045014Y0372756D03*
X0045058Y0372624D03*
X0045058Y0372580D03*
X0045058Y0372535D03*
X0045058Y0372491D03*
X0045058Y0372447D03*
X0045058Y0372403D03*
X0045058Y0372359D03*
X0045058Y0372315D03*
X0045058Y0372271D03*
X0045058Y0372227D03*
X0045058Y0372183D03*
X0045058Y0372139D03*
X0045102Y0371962D03*
X0045102Y0371918D03*
X0045102Y0371874D03*
X0045146Y0371742D03*
X0045146Y0371698D03*
X0121474Y0369581D03*
D39*
X0114860Y0365260D03*
D40*
X0114882Y0365304D03*
D41*
X0121518Y0369449D03*
X0121518Y0369493D03*
X0107717Y0368655D03*
X0106173Y0365392D03*
X0106173Y0365348D03*
X0107717Y0380252D03*
X0084787Y0380296D03*
X0084787Y0380340D03*
X0084787Y0380384D03*
X0084787Y0380428D03*
X0084787Y0380472D03*
X0084787Y0380517D03*
X0084787Y0380561D03*
X0084787Y0380605D03*
X0084787Y0380649D03*
X0084787Y0380693D03*
X0084787Y0380737D03*
X0084787Y0380781D03*
X0084787Y0380825D03*
X0084787Y0380869D03*
X0084787Y0380913D03*
X0084787Y0380957D03*
X0084787Y0381002D03*
X0084787Y0381046D03*
X0084787Y0381090D03*
X0084787Y0381134D03*
X0084787Y0381178D03*
X0084787Y0381222D03*
X0084787Y0381266D03*
X0084787Y0381310D03*
X0084787Y0381354D03*
X0084831Y0378488D03*
X0084831Y0378444D03*
X0084831Y0378400D03*
X0084831Y0378356D03*
X0084831Y0378312D03*
X0084831Y0378268D03*
X0084831Y0378224D03*
X0084831Y0378180D03*
X0084831Y0378135D03*
X0084831Y0378091D03*
X0084831Y0378047D03*
X0084831Y0378003D03*
X0084831Y0377959D03*
X0084831Y0377915D03*
X0084831Y0377871D03*
X0084831Y0377827D03*
X0084831Y0377783D03*
X0084831Y0377739D03*
X0084831Y0377694D03*
X0084831Y0377650D03*
X0084831Y0377606D03*
X0084831Y0377562D03*
X0084831Y0377518D03*
X0084831Y0377474D03*
X0084831Y0377430D03*
X0084831Y0377386D03*
X0084831Y0377342D03*
X0084831Y0377298D03*
X0084831Y0377254D03*
X0084831Y0377209D03*
X0084831Y0377165D03*
X0084831Y0377121D03*
X0084831Y0377077D03*
X0084831Y0377033D03*
X0084831Y0376989D03*
X0084831Y0376945D03*
X0084831Y0376901D03*
X0084831Y0376857D03*
X0084831Y0376813D03*
X0084831Y0376769D03*
X0084831Y0376724D03*
X0084831Y0376680D03*
X0084831Y0376636D03*
X0084831Y0376592D03*
X0084831Y0376548D03*
X0084831Y0376504D03*
X0084831Y0376460D03*
X0084831Y0376416D03*
X0084831Y0376372D03*
X0084831Y0376328D03*
X0084831Y0376283D03*
X0084831Y0376239D03*
X0084831Y0376195D03*
X0084831Y0376151D03*
X0084831Y0376107D03*
X0084831Y0376063D03*
X0084831Y0376019D03*
X0084831Y0375975D03*
X0084831Y0375931D03*
X0084831Y0375887D03*
X0084831Y0375843D03*
X0084831Y0375798D03*
X0084831Y0375754D03*
X0084831Y0375710D03*
X0084831Y0375666D03*
X0084831Y0375622D03*
X0084831Y0375578D03*
X0084831Y0375534D03*
X0084831Y0375490D03*
X0084831Y0375446D03*
X0084831Y0375402D03*
X0084831Y0375357D03*
X0084831Y0375313D03*
X0084831Y0375269D03*
X0084831Y0375225D03*
X0084831Y0375181D03*
X0084831Y0375137D03*
X0084831Y0375093D03*
X0084831Y0375049D03*
X0084831Y0375005D03*
X0084831Y0374961D03*
X0084831Y0374917D03*
X0084831Y0374872D03*
X0084831Y0374828D03*
X0084831Y0374784D03*
X0084831Y0374740D03*
X0084831Y0374696D03*
X0084831Y0374652D03*
X0084831Y0374608D03*
X0084831Y0374564D03*
X0084831Y0374520D03*
X0084831Y0374476D03*
X0084831Y0374431D03*
X0084831Y0374387D03*
X0084831Y0374343D03*
X0084831Y0374299D03*
X0084831Y0374255D03*
X0084831Y0374211D03*
X0084831Y0374167D03*
X0084831Y0374123D03*
X0084831Y0374079D03*
D42*
X0114904Y0365348D03*
D43*
X0114926Y0365392D03*
D44*
X0121540Y0369405D03*
X0107694Y0368611D03*
X0106195Y0365436D03*
X0107694Y0380296D03*
X0084809Y0380252D03*
X0084809Y0380208D03*
X0084809Y0380164D03*
X0084809Y0380120D03*
X0084809Y0380076D03*
X0084809Y0380031D03*
X0084809Y0379987D03*
X0084809Y0379943D03*
X0084809Y0379899D03*
X0084809Y0379855D03*
X0084809Y0379811D03*
X0084809Y0379767D03*
X0084809Y0379723D03*
X0084809Y0379679D03*
X0084809Y0379635D03*
X0084809Y0379591D03*
X0084809Y0379546D03*
X0084809Y0379502D03*
X0084809Y0379458D03*
X0084809Y0379414D03*
X0084809Y0379370D03*
X0084809Y0379326D03*
X0084809Y0379282D03*
X0084809Y0379238D03*
X0084809Y0379194D03*
X0084809Y0379150D03*
X0084809Y0379106D03*
X0084809Y0379061D03*
X0084809Y0379017D03*
X0084809Y0378973D03*
X0084809Y0378929D03*
X0084809Y0378885D03*
X0084809Y0378841D03*
X0084809Y0378797D03*
X0084809Y0378753D03*
X0084809Y0378709D03*
X0084809Y0378665D03*
X0084809Y0378620D03*
X0084809Y0378576D03*
X0084809Y0378532D03*
X0084809Y0381443D03*
X0084854Y0374035D03*
X0084854Y0373991D03*
X0084854Y0373946D03*
D45*
X0114948Y0365480D03*
X0114948Y0365436D03*
D46*
X0121562Y0369361D03*
X0107672Y0368567D03*
X0106217Y0365480D03*
X0107672Y0380340D03*
D47*
X0107650Y0380384D03*
X0107650Y0368523D03*
X0106239Y0365524D03*
X0121584Y0369317D03*
X0070302Y0381443D03*
D48*
X0114970Y0365524D03*
D49*
X0121606Y0369272D03*
X0107628Y0368479D03*
X0106261Y0365569D03*
X0107628Y0380428D03*
D50*
X0114992Y0365569D03*
D51*
X0121628Y0369228D03*
X0107606Y0368435D03*
X0106283Y0365613D03*
X0107606Y0380472D03*
D52*
X0115014Y0365613D03*
D53*
X0121650Y0369184D03*
X0107584Y0368391D03*
X0106306Y0365657D03*
X0107584Y0377827D03*
X0107584Y0380517D03*
X0107584Y0380561D03*
D54*
X0115036Y0365657D03*
D55*
X0121672Y0369140D03*
X0107562Y0368346D03*
X0106328Y0365701D03*
X0107562Y0371742D03*
X0107562Y0371786D03*
X0107562Y0371830D03*
X0107562Y0371874D03*
X0107562Y0371918D03*
X0107562Y0371962D03*
X0107562Y0372006D03*
X0107562Y0372050D03*
X0107562Y0372094D03*
X0107562Y0372139D03*
X0107562Y0372183D03*
X0107562Y0372227D03*
X0107562Y0372271D03*
X0107562Y0372315D03*
X0107562Y0372359D03*
X0107562Y0372403D03*
X0107562Y0372447D03*
X0107562Y0372491D03*
X0107562Y0372535D03*
X0107562Y0372580D03*
X0107562Y0372624D03*
X0107562Y0372668D03*
X0107562Y0372712D03*
X0107562Y0372756D03*
X0107562Y0372800D03*
X0107562Y0372844D03*
X0107562Y0372888D03*
X0107562Y0372932D03*
X0107562Y0372976D03*
X0107562Y0373020D03*
X0107562Y0373065D03*
X0107562Y0373109D03*
X0107562Y0373153D03*
X0107562Y0373197D03*
X0107562Y0373241D03*
X0107562Y0373285D03*
X0107562Y0373329D03*
X0107562Y0373373D03*
X0107562Y0373417D03*
X0107562Y0373461D03*
X0107562Y0373506D03*
X0107562Y0373550D03*
X0107562Y0373594D03*
X0107562Y0373638D03*
X0107562Y0373682D03*
X0107562Y0373726D03*
X0107562Y0373770D03*
X0107562Y0373814D03*
X0107562Y0373858D03*
X0107562Y0373902D03*
X0107562Y0373946D03*
X0107562Y0373991D03*
X0107562Y0374035D03*
X0107562Y0374079D03*
X0107562Y0374123D03*
X0107562Y0374167D03*
X0107562Y0374211D03*
X0107562Y0374255D03*
X0107562Y0374299D03*
X0107562Y0374343D03*
X0107562Y0374387D03*
X0107562Y0374431D03*
X0107562Y0374476D03*
X0107562Y0374520D03*
X0107562Y0374564D03*
X0107562Y0374608D03*
X0107562Y0374652D03*
X0107562Y0374696D03*
X0107562Y0374740D03*
X0107562Y0374784D03*
X0107562Y0374828D03*
X0107562Y0374872D03*
X0107562Y0374917D03*
X0107562Y0374961D03*
X0107562Y0375005D03*
X0107562Y0375049D03*
X0107562Y0375093D03*
X0107562Y0375137D03*
X0107562Y0375181D03*
X0107562Y0375225D03*
X0107562Y0375269D03*
X0107562Y0375313D03*
X0107562Y0375357D03*
X0107562Y0375402D03*
X0107562Y0375446D03*
X0107562Y0375490D03*
X0107562Y0375534D03*
X0107562Y0375578D03*
X0107562Y0375622D03*
X0107562Y0375666D03*
X0107562Y0375710D03*
X0107562Y0375754D03*
X0107562Y0375798D03*
X0107562Y0375843D03*
X0107562Y0375887D03*
X0107562Y0375931D03*
X0107562Y0375975D03*
X0107562Y0376019D03*
X0107562Y0376063D03*
X0107562Y0376107D03*
X0107562Y0376151D03*
X0107562Y0376195D03*
X0107562Y0376239D03*
X0107562Y0376283D03*
X0107562Y0376328D03*
X0107562Y0376372D03*
X0107562Y0376416D03*
X0107562Y0376460D03*
X0107562Y0376504D03*
X0107562Y0376548D03*
X0107562Y0376592D03*
X0107562Y0376636D03*
X0107562Y0376680D03*
X0107562Y0376724D03*
X0107562Y0376769D03*
X0107562Y0376813D03*
X0107562Y0376857D03*
X0107562Y0376901D03*
X0107562Y0376945D03*
X0107562Y0376989D03*
X0107562Y0377033D03*
X0107562Y0377077D03*
X0107562Y0377121D03*
X0107562Y0377165D03*
X0107562Y0377209D03*
X0107562Y0377254D03*
X0107562Y0377298D03*
X0107562Y0377342D03*
X0107562Y0377386D03*
X0107562Y0377430D03*
X0107562Y0377474D03*
X0107562Y0377518D03*
X0107562Y0377562D03*
X0107562Y0377606D03*
X0107562Y0377650D03*
X0107562Y0377694D03*
X0107562Y0377739D03*
X0107562Y0377783D03*
X0107562Y0377871D03*
X0107562Y0377915D03*
X0107562Y0377959D03*
X0107562Y0380605D03*
D56*
X0115058Y0365701D03*
D57*
X0121694Y0369096D03*
X0107540Y0368302D03*
X0106350Y0365745D03*
X0107540Y0380649D03*
D58*
X0115080Y0365745D03*
D59*
X0121717Y0369052D03*
X0107518Y0368258D03*
X0106372Y0365789D03*
X0107518Y0380693D03*
D60*
X0115102Y0365789D03*
D61*
X0121739Y0369008D03*
X0107496Y0368214D03*
X0107496Y0368170D03*
X0106394Y0365833D03*
X0107496Y0380737D03*
D62*
X0115124Y0365833D03*
D63*
X0121761Y0368964D03*
X0107474Y0368126D03*
X0106416Y0365877D03*
X0107474Y0380781D03*
D64*
X0115146Y0365877D03*
D65*
X0121783Y0368920D03*
X0107452Y0368082D03*
X0106438Y0365921D03*
X0107452Y0380825D03*
D66*
X0115169Y0365921D03*
D67*
X0121805Y0368787D03*
X0121805Y0368876D03*
X0107430Y0368038D03*
X0106460Y0366009D03*
X0106460Y0365965D03*
X0107430Y0380869D03*
D68*
X0115191Y0365965D03*
D69*
X0115213Y0366009D03*
D70*
X0121827Y0368831D03*
X0107408Y0367994D03*
X0106482Y0366054D03*
X0107408Y0380913D03*
D71*
X0115235Y0366054D03*
D72*
X0107386Y0367950D03*
X0106504Y0366098D03*
X0107386Y0380957D03*
D73*
X0115257Y0366098D03*
D74*
X0107364Y0367906D03*
X0106526Y0366142D03*
X0107364Y0381002D03*
D75*
X0115279Y0366186D03*
X0115279Y0366142D03*
D76*
X0107342Y0367861D03*
X0106548Y0366186D03*
X0107342Y0381046D03*
D77*
X0107320Y0381090D03*
X0107320Y0367817D03*
X0106570Y0366230D03*
D78*
X0115301Y0366230D03*
D79*
X0107298Y0367773D03*
X0106592Y0366274D03*
X0107298Y0381134D03*
D80*
X0115323Y0366274D03*
D81*
X0107276Y0367729D03*
X0106614Y0366318D03*
X0107276Y0381178D03*
D82*
X0115345Y0366318D03*
D83*
X0107254Y0367685D03*
X0106636Y0366362D03*
X0107254Y0381222D03*
X0107254Y0381266D03*
D84*
X0115367Y0366362D03*
D85*
X0107231Y0367641D03*
X0106658Y0366406D03*
X0107231Y0381310D03*
D86*
X0115389Y0366406D03*
D87*
X0107209Y0367597D03*
X0106680Y0366450D03*
D88*
X0115411Y0366450D03*
D89*
X0107187Y0367553D03*
X0106702Y0366494D03*
X0107187Y0381354D03*
D90*
X0115433Y0366494D03*
D91*
X0107165Y0367509D03*
X0106724Y0366539D03*
X0107165Y0381398D03*
X0107165Y0381443D03*
D92*
X0115455Y0366539D03*
D93*
X0107143Y0367465D03*
X0106746Y0366583D03*
D94*
X0115477Y0366583D03*
D95*
X0107121Y0367376D03*
X0107121Y0367420D03*
X0106769Y0366627D03*
D96*
X0115499Y0366627D03*
D97*
X0107099Y0367332D03*
X0106791Y0366671D03*
D98*
X0115521Y0366671D03*
D99*
X0107077Y0367288D03*
X0106813Y0366759D03*
X0106813Y0366715D03*
D100*
X0115543Y0366715D03*
D101*
X0115565Y0366759D03*
D102*
X0107055Y0367244D03*
X0106835Y0366803D03*
D103*
X0115587Y0366803D03*
D104*
X0107011Y0367156D03*
X0106879Y0366891D03*
X0106879Y0366847D03*
D105*
X0115609Y0366847D03*
X0115609Y0366891D03*
D106*
X0106989Y0367112D03*
X0106901Y0366935D03*
X0085339Y0368787D03*
D107*
X0115631Y0366935D03*
D108*
X0115654Y0366980D03*
D109*
X0115676Y0367024D03*
D110*
X0115698Y0367068D03*
D111*
X0115720Y0367112D03*
D112*
X0115742Y0367156D03*
D113*
X0107033Y0367200D03*
X0073124Y0374211D03*
D114*
X0115764Y0367200D03*
D115*
X0115786Y0367244D03*
D116*
X0115808Y0367288D03*
D117*
X0115830Y0367332D03*
D118*
X0115852Y0367376D03*
D119*
X0115874Y0367420D03*
D120*
X0115896Y0367465D03*
D121*
X0115918Y0367509D03*
D122*
X0115940Y0367553D03*
D123*
X0115962Y0367597D03*
D124*
X0115984Y0367641D03*
X0115984Y0367685D03*
D125*
X0116006Y0367729D03*
D126*
X0116028Y0367773D03*
D127*
X0116050Y0367817D03*
D128*
X0116072Y0367861D03*
D129*
X0116094Y0367906D03*
D130*
X0116117Y0367950D03*
D131*
X0116139Y0367994D03*
D132*
X0116161Y0368038D03*
D133*
X0116183Y0368082D03*
D134*
X0116205Y0368126D03*
D135*
X0116227Y0368170D03*
D136*
X0116249Y0368214D03*
D137*
X0116271Y0368258D03*
X0116271Y0368302D03*
D138*
X0116315Y0368346D03*
D139*
X0116337Y0368391D03*
X0116337Y0368435D03*
D140*
X0116359Y0368479D03*
D141*
X0116381Y0368523D03*
D142*
X0116403Y0368567D03*
D143*
X0116425Y0368611D03*
D144*
X0116447Y0368655D03*
D145*
X0121496Y0369537D03*
X0107739Y0368699D03*
X0107739Y0380208D03*
X0099361Y0378929D03*
X0099361Y0378885D03*
X0099361Y0376019D03*
X0099361Y0375975D03*
X0099361Y0375931D03*
X0099361Y0375710D03*
X0099361Y0375666D03*
X0099361Y0374167D03*
X0099361Y0373946D03*
X0099361Y0370375D03*
X0099361Y0370331D03*
X0099361Y0370287D03*
X0099361Y0370243D03*
X0092614Y0379723D03*
X0092614Y0379767D03*
X0092614Y0379811D03*
X0092614Y0379987D03*
X0084809Y0381398D03*
X0074183Y0373373D03*
X0074183Y0373329D03*
X0066246Y0371874D03*
X0066510Y0376724D03*
X0063159Y0377342D03*
X0063159Y0377474D03*
X0062983Y0374255D03*
X0062983Y0374211D03*
X0062894Y0372932D03*
X0062894Y0372888D03*
X0055398Y0374564D03*
D146*
X0116469Y0368699D03*
D147*
X0116491Y0368743D03*
D148*
X0116006Y0368787D03*
X0112214Y0382369D03*
D149*
X0108797Y0370948D03*
X0120438Y0371786D03*
X0120438Y0381266D03*
X0120438Y0381310D03*
X0050107Y0368831D03*
D150*
X0048674Y0369669D03*
X0101852Y0368876D03*
X0101852Y0368831D03*
X0113052Y0381134D03*
X0113052Y0381178D03*
X0119005Y0378224D03*
X0119005Y0374828D03*
D151*
X0118079Y0376813D03*
X0114992Y0368831D03*
D152*
X0114992Y0371080D03*
X0112479Y0373770D03*
X0113052Y0379899D03*
X0109039Y0371477D03*
X0120195Y0372271D03*
X0120195Y0380781D03*
X0049865Y0368876D03*
D153*
X0059191Y0368876D03*
X0072728Y0379943D03*
X0084280Y0372271D03*
X0084280Y0372227D03*
X0084280Y0372183D03*
X0108312Y0369934D03*
X0108312Y0378973D03*
X0120923Y0382324D03*
X0120923Y0370728D03*
D154*
X0118123Y0376680D03*
X0114992Y0368876D03*
D155*
X0119997Y0372712D03*
X0119997Y0380340D03*
X0059191Y0369096D03*
X0049666Y0368920D03*
D156*
X0059191Y0368920D03*
X0108576Y0370507D03*
X0108576Y0378444D03*
X0120658Y0381751D03*
X0120658Y0371301D03*
D157*
X0118983Y0374872D03*
X0118983Y0378180D03*
X0101874Y0368920D03*
X0070258Y0380561D03*
X0059191Y0369669D03*
X0048652Y0369713D03*
X0048652Y0380561D03*
D158*
X0114992Y0368920D03*
X0118167Y0376592D03*
D159*
X0119865Y0380076D03*
X0119865Y0372976D03*
X0049534Y0368964D03*
D160*
X0059169Y0368964D03*
X0108819Y0370992D03*
X0113052Y0379635D03*
X0113052Y0379679D03*
X0114992Y0371345D03*
X0120416Y0371830D03*
X0120416Y0381222D03*
D161*
X0118961Y0378135D03*
X0118961Y0374917D03*
X0114992Y0369802D03*
X0113052Y0381222D03*
X0101896Y0368964D03*
X0059213Y0369713D03*
X0048630Y0369757D03*
X0048630Y0380517D03*
D162*
X0115014Y0368964D03*
X0118189Y0376548D03*
D163*
X0119798Y0373153D03*
X0119798Y0373109D03*
X0119798Y0379943D03*
X0114992Y0370683D03*
X0113052Y0380296D03*
X0077865Y0381002D03*
X0049468Y0369008D03*
D164*
X0059191Y0369008D03*
X0108929Y0371257D03*
X0115014Y0371213D03*
X0120306Y0372050D03*
X0120306Y0381002D03*
D165*
X0118939Y0378091D03*
X0118939Y0374961D03*
X0115014Y0369757D03*
X0101918Y0369008D03*
X0070258Y0380517D03*
X0048608Y0380472D03*
X0048608Y0369802D03*
D166*
X0115014Y0369008D03*
X0118233Y0376460D03*
D167*
X0119666Y0373417D03*
X0119666Y0379635D03*
X0114992Y0370551D03*
X0113052Y0380428D03*
X0113052Y0380472D03*
X0077997Y0380869D03*
X0049335Y0369052D03*
D168*
X0059191Y0369052D03*
X0109106Y0371609D03*
X0120129Y0372447D03*
X0120129Y0380605D03*
D169*
X0118917Y0378047D03*
X0118917Y0375005D03*
X0113052Y0381266D03*
X0101940Y0369096D03*
X0101940Y0369052D03*
X0048586Y0369846D03*
X0048586Y0380428D03*
D170*
X0115014Y0369052D03*
X0118277Y0376372D03*
D171*
X0119600Y0373550D03*
X0119600Y0379502D03*
X0115014Y0370463D03*
X0078107Y0380737D03*
X0059191Y0369272D03*
X0049269Y0369096D03*
D172*
X0115014Y0369096D03*
X0118321Y0376283D03*
D173*
X0119534Y0373682D03*
X0119534Y0379370D03*
X0114992Y0370375D03*
X0113052Y0380605D03*
X0078173Y0380649D03*
X0049203Y0369140D03*
D174*
X0059213Y0369140D03*
X0077732Y0381090D03*
X0113052Y0380208D03*
X0112479Y0373461D03*
X0114992Y0370772D03*
X0119887Y0372932D03*
X0119887Y0380120D03*
D175*
X0118872Y0377959D03*
X0118872Y0375093D03*
X0114992Y0369669D03*
X0113052Y0381310D03*
X0101984Y0369184D03*
X0101984Y0369140D03*
X0048542Y0369934D03*
X0048542Y0380340D03*
D176*
X0114992Y0369140D03*
X0118343Y0376239D03*
D177*
X0119468Y0379238D03*
X0078283Y0380517D03*
X0078239Y0380561D03*
X0070258Y0380913D03*
X0049137Y0369184D03*
D178*
X0059191Y0369184D03*
X0077887Y0380957D03*
X0119776Y0379899D03*
X0119776Y0373197D03*
D179*
X0118387Y0376107D03*
X0118387Y0376151D03*
X0114992Y0369184D03*
D180*
X0114992Y0370243D03*
X0113052Y0380737D03*
X0119402Y0379061D03*
X0119402Y0373991D03*
X0049071Y0369228D03*
D181*
X0059191Y0369228D03*
X0119688Y0373373D03*
X0119688Y0379679D03*
D182*
X0118850Y0377915D03*
X0118850Y0375137D03*
X0102006Y0369228D03*
X0070258Y0380428D03*
X0059191Y0369802D03*
X0048520Y0369978D03*
X0048520Y0380296D03*
D183*
X0102425Y0370198D03*
X0114992Y0369228D03*
X0118431Y0376019D03*
X0118431Y0376063D03*
D184*
X0119357Y0374079D03*
X0119357Y0378973D03*
X0114992Y0370198D03*
X0113052Y0380781D03*
X0078438Y0380252D03*
X0059213Y0369405D03*
X0049027Y0369272D03*
X0049027Y0381002D03*
D185*
X0048498Y0380252D03*
X0048498Y0370022D03*
X0102028Y0369272D03*
X0113052Y0381354D03*
X0114992Y0369625D03*
X0118828Y0375181D03*
X0118828Y0377871D03*
D186*
X0118476Y0375931D03*
X0114992Y0369272D03*
X0102381Y0370066D03*
X0102381Y0370110D03*
D187*
X0113052Y0380825D03*
X0114992Y0370154D03*
X0119313Y0374167D03*
X0119313Y0378885D03*
X0078526Y0380120D03*
X0078482Y0380164D03*
X0070280Y0380825D03*
X0048983Y0369317D03*
D188*
X0059191Y0369317D03*
X0119512Y0373726D03*
X0119512Y0379326D03*
D189*
X0118806Y0377827D03*
X0118806Y0375225D03*
X0102050Y0369317D03*
X0070258Y0380384D03*
X0059191Y0369846D03*
X0048476Y0370066D03*
X0048476Y0380164D03*
X0048476Y0380208D03*
D190*
X0070236Y0380031D03*
X0102337Y0369978D03*
X0114992Y0369317D03*
X0118520Y0375843D03*
D191*
X0119269Y0374255D03*
X0119269Y0378797D03*
X0114992Y0370110D03*
X0113052Y0380869D03*
X0078570Y0380031D03*
X0048939Y0369361D03*
D192*
X0049093Y0381046D03*
X0059191Y0369361D03*
X0078328Y0380428D03*
X0119424Y0379150D03*
X0119424Y0379106D03*
X0119424Y0373946D03*
X0119424Y0373902D03*
D193*
X0118784Y0375269D03*
X0118784Y0375313D03*
X0118784Y0377739D03*
X0118784Y0377783D03*
X0114992Y0369581D03*
X0113052Y0381398D03*
X0102072Y0369361D03*
X0048454Y0370110D03*
X0048454Y0380120D03*
D194*
X0045786Y0379723D03*
X0045830Y0370507D03*
X0073036Y0379811D03*
X0084545Y0370507D03*
X0084545Y0370463D03*
X0084545Y0370419D03*
X0084545Y0370375D03*
X0084545Y0370331D03*
X0108047Y0369361D03*
X0108047Y0379546D03*
X0121187Y0370154D03*
D195*
X0118564Y0375754D03*
X0114992Y0369361D03*
X0102293Y0369846D03*
X0102293Y0369890D03*
X0102293Y0374255D03*
X0102293Y0374652D03*
X0102293Y0374696D03*
X0102293Y0374740D03*
X0102293Y0374784D03*
X0102293Y0374828D03*
X0102293Y0374872D03*
X0102293Y0374917D03*
X0102293Y0374961D03*
X0102293Y0375005D03*
X0102293Y0375049D03*
X0102293Y0375093D03*
X0102293Y0375137D03*
X0102293Y0375181D03*
X0102293Y0375225D03*
X0102293Y0375269D03*
X0102293Y0375313D03*
X0102293Y0375357D03*
X0102293Y0375402D03*
X0102293Y0375578D03*
X0059213Y0370154D03*
D196*
X0048894Y0369405D03*
X0113052Y0380913D03*
X0114992Y0370066D03*
X0119225Y0374343D03*
X0119225Y0378709D03*
D197*
X0118762Y0375357D03*
X0102094Y0369405D03*
X0070258Y0380340D03*
X0059191Y0369890D03*
X0048431Y0370154D03*
X0048431Y0370198D03*
X0048431Y0380076D03*
D198*
X0067458Y0379811D03*
X0080643Y0379811D03*
X0084523Y0370639D03*
X0084523Y0370595D03*
X0084523Y0370551D03*
X0108069Y0369405D03*
X0108069Y0379502D03*
X0113052Y0378885D03*
X0113052Y0378841D03*
X0114992Y0372139D03*
X0121165Y0370198D03*
D199*
X0118608Y0375666D03*
X0114992Y0369405D03*
X0102249Y0369757D03*
D200*
X0113052Y0380957D03*
X0114992Y0370022D03*
X0119181Y0374431D03*
X0119181Y0378620D03*
X0048850Y0369449D03*
D201*
X0048961Y0380913D03*
X0059191Y0369449D03*
X0078548Y0380076D03*
X0119291Y0378841D03*
X0119291Y0374211D03*
D202*
X0118740Y0375402D03*
X0118740Y0377650D03*
X0118740Y0377694D03*
X0114992Y0369537D03*
X0113052Y0381443D03*
X0102117Y0369493D03*
X0102117Y0369449D03*
X0059213Y0369934D03*
X0048409Y0380031D03*
D203*
X0045874Y0379767D03*
X0056457Y0370419D03*
X0061924Y0370419D03*
X0084501Y0370683D03*
X0084501Y0370728D03*
X0084501Y0370772D03*
X0084501Y0370816D03*
X0108091Y0369449D03*
X0108091Y0379458D03*
X0112501Y0374740D03*
X0115014Y0372094D03*
X0121143Y0370287D03*
X0121143Y0370243D03*
D204*
X0118652Y0375578D03*
X0114992Y0369449D03*
X0102205Y0369669D03*
D205*
X0113052Y0381002D03*
X0114992Y0369978D03*
X0119137Y0374564D03*
X0119137Y0378532D03*
X0048806Y0369493D03*
D206*
X0048872Y0380825D03*
X0059191Y0369493D03*
X0070258Y0380737D03*
X0119203Y0378665D03*
X0119203Y0374387D03*
D207*
X0121121Y0382721D03*
X0112523Y0374696D03*
X0111994Y0375269D03*
X0111906Y0375357D03*
X0111861Y0375402D03*
X0111817Y0375446D03*
X0111773Y0375490D03*
X0108113Y0379414D03*
X0108113Y0369493D03*
X0084479Y0370860D03*
X0084479Y0370904D03*
X0084479Y0370948D03*
X0072970Y0379855D03*
X0067546Y0379855D03*
X0045896Y0370463D03*
D208*
X0059213Y0369978D03*
X0102161Y0369581D03*
X0114992Y0369493D03*
X0118696Y0375490D03*
X0118696Y0377562D03*
D209*
X0119115Y0378488D03*
X0070258Y0380693D03*
X0048784Y0380737D03*
X0048784Y0369537D03*
D210*
X0048828Y0380781D03*
X0059191Y0369537D03*
X0119159Y0374476D03*
X0119159Y0374520D03*
X0119159Y0378576D03*
D211*
X0118718Y0377606D03*
X0118718Y0375446D03*
X0102139Y0369537D03*
X0070258Y0380296D03*
D212*
X0061880Y0370375D03*
X0080576Y0379855D03*
X0084457Y0371124D03*
X0084457Y0371080D03*
X0084457Y0371036D03*
X0084457Y0370992D03*
X0108135Y0369537D03*
X0110869Y0376460D03*
X0110825Y0376504D03*
X0110781Y0376548D03*
X0110693Y0376636D03*
X0110649Y0376680D03*
X0110605Y0376724D03*
X0110517Y0376813D03*
X0110472Y0376857D03*
X0110428Y0376901D03*
X0110384Y0376945D03*
X0110296Y0377077D03*
X0109943Y0377430D03*
X0109899Y0377474D03*
X0109855Y0377518D03*
X0109811Y0377562D03*
X0109767Y0377606D03*
X0109723Y0377650D03*
X0110957Y0376372D03*
X0111046Y0376283D03*
X0111134Y0376195D03*
X0111134Y0376151D03*
X0111178Y0376107D03*
X0111266Y0376019D03*
X0111310Y0375975D03*
X0111354Y0375931D03*
X0111398Y0375887D03*
X0111443Y0375843D03*
X0111487Y0375798D03*
X0111531Y0375754D03*
X0111575Y0375710D03*
X0111619Y0375666D03*
X0111663Y0375622D03*
X0111707Y0375578D03*
X0111751Y0375534D03*
X0111928Y0375313D03*
X0112016Y0375225D03*
X0112060Y0375181D03*
X0112104Y0375137D03*
X0112148Y0375093D03*
X0112192Y0375049D03*
X0112236Y0375005D03*
X0112280Y0374961D03*
X0112324Y0374917D03*
X0112369Y0374872D03*
X0112413Y0374828D03*
X0112457Y0374784D03*
X0113074Y0378929D03*
X0108135Y0379370D03*
X0121099Y0382677D03*
X0121099Y0370375D03*
X0121099Y0370331D03*
D213*
X0119071Y0374696D03*
X0119071Y0378356D03*
X0119071Y0378400D03*
X0115014Y0369890D03*
X0113074Y0381090D03*
X0070258Y0380649D03*
X0048740Y0369581D03*
D214*
X0048762Y0380693D03*
X0059213Y0369581D03*
X0113052Y0381046D03*
X0114992Y0369934D03*
X0119093Y0374608D03*
X0119093Y0374652D03*
X0119093Y0378444D03*
D215*
X0121077Y0382633D03*
X0121077Y0370419D03*
X0114992Y0372050D03*
X0112567Y0374652D03*
X0111244Y0376063D03*
X0111068Y0376239D03*
X0110980Y0376328D03*
X0110891Y0376416D03*
X0110715Y0376592D03*
X0110583Y0376769D03*
X0110362Y0376989D03*
X0110318Y0377033D03*
X0110230Y0377121D03*
X0110186Y0377165D03*
X0110142Y0377209D03*
X0110098Y0377254D03*
X0110054Y0377298D03*
X0110009Y0377342D03*
X0109965Y0377386D03*
X0109701Y0377694D03*
X0109657Y0377739D03*
X0109613Y0377783D03*
X0109569Y0377827D03*
X0109524Y0377871D03*
X0109480Y0377915D03*
X0109436Y0377959D03*
X0108157Y0379326D03*
X0108157Y0369581D03*
X0113052Y0378973D03*
X0084435Y0371213D03*
X0084435Y0371169D03*
X0070236Y0381398D03*
X0067635Y0379899D03*
X0056523Y0370375D03*
X0045940Y0379811D03*
D216*
X0048718Y0380649D03*
X0048718Y0369625D03*
X0119049Y0374740D03*
X0119049Y0378312D03*
D217*
X0119027Y0378268D03*
X0119027Y0374784D03*
X0115014Y0369846D03*
X0070258Y0380605D03*
X0059191Y0369625D03*
X0048696Y0380605D03*
D218*
X0059191Y0370022D03*
X0070258Y0380252D03*
X0102183Y0369625D03*
X0118674Y0375534D03*
D219*
X0121055Y0370463D03*
X0121055Y0382589D03*
X0108180Y0379282D03*
X0108180Y0369669D03*
X0108180Y0369625D03*
X0084413Y0371257D03*
X0084413Y0371301D03*
X0084413Y0371345D03*
X0084413Y0371389D03*
X0084413Y0371433D03*
X0072860Y0379899D03*
D220*
X0070258Y0380164D03*
X0070258Y0380208D03*
X0059191Y0370066D03*
X0102227Y0369713D03*
X0118630Y0375622D03*
D221*
X0121033Y0370507D03*
X0121033Y0382545D03*
X0114992Y0372006D03*
X0112523Y0374608D03*
X0113052Y0379017D03*
X0108202Y0379238D03*
X0108202Y0369713D03*
X0084391Y0371477D03*
X0084391Y0371521D03*
X0084391Y0371565D03*
X0080466Y0379899D03*
X0046028Y0370419D03*
D222*
X0048564Y0369890D03*
X0048564Y0380384D03*
X0059191Y0369757D03*
X0070258Y0380472D03*
X0115014Y0369713D03*
X0118894Y0375049D03*
X0118894Y0378003D03*
D223*
X0121011Y0382501D03*
X0121011Y0370551D03*
X0115014Y0371962D03*
X0108224Y0369757D03*
X0108224Y0379150D03*
X0108224Y0379194D03*
X0084369Y0371698D03*
X0084369Y0371654D03*
X0084369Y0371609D03*
X0056633Y0370331D03*
D224*
X0059191Y0370110D03*
X0070258Y0380120D03*
X0102271Y0375534D03*
X0102271Y0375490D03*
X0102271Y0375446D03*
X0102271Y0374608D03*
X0102271Y0374564D03*
X0102271Y0374520D03*
X0102271Y0374476D03*
X0102271Y0374431D03*
X0102271Y0374387D03*
X0102271Y0374343D03*
X0102271Y0374299D03*
X0102271Y0369802D03*
X0118586Y0375710D03*
D225*
X0120989Y0370595D03*
X0120989Y0382457D03*
X0113052Y0379061D03*
X0112523Y0374564D03*
X0108246Y0379106D03*
X0108246Y0369802D03*
X0084346Y0371742D03*
X0084346Y0371786D03*
X0084346Y0371830D03*
X0084346Y0371874D03*
X0061770Y0370331D03*
X0046072Y0379855D03*
D226*
X0046094Y0370375D03*
X0084324Y0371918D03*
X0084324Y0371962D03*
X0084324Y0372006D03*
X0108268Y0369846D03*
X0115014Y0371918D03*
X0120967Y0370639D03*
X0120967Y0382413D03*
D227*
X0120945Y0382369D03*
X0120945Y0370683D03*
X0114992Y0371874D03*
X0112523Y0374520D03*
X0113052Y0379106D03*
X0108290Y0379061D03*
X0108290Y0379017D03*
X0108290Y0369890D03*
X0084302Y0372050D03*
X0084302Y0372094D03*
X0084302Y0372139D03*
X0080334Y0379943D03*
X0067767Y0379943D03*
D228*
X0070258Y0380076D03*
X0059191Y0370198D03*
X0102315Y0369934D03*
X0118542Y0375798D03*
D229*
X0120901Y0370772D03*
X0120901Y0382280D03*
X0113052Y0379150D03*
X0112523Y0374476D03*
X0108334Y0378929D03*
X0108334Y0369978D03*
X0084258Y0372315D03*
X0084258Y0372359D03*
X0084258Y0372403D03*
D230*
X0102359Y0370022D03*
X0118498Y0375887D03*
D231*
X0120879Y0370816D03*
X0120879Y0382236D03*
X0115014Y0371830D03*
X0108356Y0370022D03*
X0108356Y0378885D03*
X0084236Y0372624D03*
X0084236Y0372580D03*
X0084236Y0372535D03*
X0084236Y0372491D03*
X0084236Y0372447D03*
X0046183Y0379899D03*
D232*
X0056831Y0370287D03*
X0061594Y0370287D03*
X0084170Y0372888D03*
X0084214Y0372712D03*
X0084214Y0372668D03*
X0108378Y0370066D03*
X0108378Y0378841D03*
X0113052Y0379194D03*
X0112523Y0374431D03*
X0114992Y0371786D03*
X0120857Y0370860D03*
X0120857Y0382192D03*
D233*
X0120835Y0382148D03*
X0120835Y0370904D03*
X0111443Y0373373D03*
X0111398Y0373329D03*
X0108400Y0370110D03*
X0108400Y0378797D03*
X0084148Y0373065D03*
X0084148Y0373020D03*
X0084148Y0372976D03*
X0084148Y0372932D03*
X0084192Y0372844D03*
X0084192Y0372800D03*
X0084192Y0372756D03*
X0046271Y0370331D03*
D234*
X0102403Y0370154D03*
X0118454Y0375975D03*
D235*
X0120813Y0370992D03*
X0120813Y0370948D03*
X0120813Y0382104D03*
X0114992Y0371742D03*
X0112523Y0374387D03*
X0111376Y0373285D03*
X0111332Y0373241D03*
X0111068Y0372976D03*
X0113052Y0379238D03*
X0108422Y0378753D03*
X0108422Y0370154D03*
X0084126Y0373109D03*
X0084126Y0373153D03*
X0084126Y0373197D03*
D236*
X0084104Y0373241D03*
X0084104Y0373285D03*
X0084104Y0373329D03*
X0080135Y0379987D03*
X0070258Y0381354D03*
X0108444Y0378709D03*
X0110869Y0372800D03*
X0110825Y0372756D03*
X0110781Y0372712D03*
X0110737Y0372668D03*
X0110693Y0372624D03*
X0110913Y0372844D03*
X0110957Y0372888D03*
X0111002Y0372932D03*
X0111090Y0373020D03*
X0111134Y0373065D03*
X0111178Y0373109D03*
X0111222Y0373153D03*
X0111266Y0373197D03*
X0108444Y0370198D03*
X0120791Y0371036D03*
X0120791Y0382060D03*
D237*
X0120151Y0380693D03*
X0120151Y0380649D03*
X0120151Y0372403D03*
X0120151Y0372359D03*
X0114992Y0371036D03*
X0112479Y0373726D03*
X0113052Y0379943D03*
X0109083Y0371565D03*
X0077424Y0381266D03*
X0046998Y0370243D03*
D238*
X0057118Y0370243D03*
X0108665Y0370683D03*
X0108665Y0378224D03*
X0120570Y0381575D03*
X0120570Y0371521D03*
X0120570Y0371477D03*
D239*
X0120592Y0371433D03*
X0120592Y0381619D03*
X0114992Y0371521D03*
X0112523Y0374167D03*
X0113052Y0379458D03*
X0108643Y0378312D03*
X0108643Y0378268D03*
X0108643Y0370639D03*
X0061285Y0370243D03*
X0050261Y0381443D03*
D240*
X0046337Y0379943D03*
X0067987Y0379987D03*
X0072529Y0379987D03*
X0084082Y0373461D03*
X0084082Y0373417D03*
X0084082Y0373373D03*
X0108466Y0370243D03*
X0110406Y0372315D03*
X0110450Y0372359D03*
X0110494Y0372403D03*
X0110539Y0372447D03*
X0110583Y0372491D03*
X0110627Y0372535D03*
X0110671Y0372580D03*
X0108466Y0378665D03*
X0113052Y0379282D03*
X0112523Y0374343D03*
X0114992Y0371698D03*
X0120769Y0371080D03*
X0120769Y0381972D03*
X0120769Y0382016D03*
D241*
X0120614Y0381663D03*
X0120614Y0371389D03*
X0108620Y0370595D03*
X0046491Y0370287D03*
D242*
X0076828Y0381443D03*
X0084060Y0373638D03*
X0084060Y0373594D03*
X0084060Y0373550D03*
X0084060Y0373506D03*
X0108488Y0370287D03*
X0109899Y0371830D03*
X0109943Y0371874D03*
X0109987Y0371918D03*
X0110031Y0371962D03*
X0110076Y0372006D03*
X0110120Y0372050D03*
X0110164Y0372094D03*
X0110208Y0372139D03*
X0110252Y0372183D03*
X0110296Y0372227D03*
X0110340Y0372271D03*
X0108488Y0378620D03*
X0112545Y0374299D03*
X0120746Y0371124D03*
X0120746Y0381928D03*
D243*
X0119446Y0379194D03*
X0119446Y0373858D03*
X0114992Y0370287D03*
X0113052Y0380693D03*
X0078306Y0380472D03*
D244*
X0084038Y0373770D03*
X0084038Y0373726D03*
X0084038Y0373682D03*
X0108510Y0370331D03*
X0109833Y0371742D03*
X0109877Y0371786D03*
X0108510Y0378576D03*
X0113052Y0379326D03*
X0114992Y0371654D03*
X0120724Y0371169D03*
X0120724Y0381883D03*
D245*
X0119490Y0379282D03*
X0119490Y0373814D03*
X0119490Y0373770D03*
X0114992Y0370331D03*
X0113052Y0380649D03*
X0078217Y0380605D03*
X0049159Y0381090D03*
D246*
X0084016Y0373902D03*
X0084016Y0373858D03*
X0084016Y0373814D03*
X0108532Y0370419D03*
X0108532Y0370375D03*
X0108532Y0378532D03*
X0120702Y0381839D03*
X0120702Y0371213D03*
D247*
X0119556Y0373638D03*
X0119556Y0379414D03*
X0115014Y0370419D03*
X0078151Y0380693D03*
X0070258Y0380957D03*
D248*
X0108554Y0378488D03*
X0108554Y0370463D03*
X0112523Y0374255D03*
X0114992Y0371609D03*
X0113052Y0379370D03*
X0120680Y0381795D03*
X0120680Y0371257D03*
D249*
X0119644Y0373461D03*
X0119644Y0379591D03*
X0115014Y0370507D03*
X0078019Y0380825D03*
X0049313Y0381178D03*
D250*
X0108598Y0378400D03*
X0108598Y0378356D03*
X0108598Y0370551D03*
X0112523Y0374211D03*
X0114992Y0371565D03*
X0113052Y0379414D03*
X0120636Y0381707D03*
X0120636Y0371345D03*
D251*
X0119710Y0373329D03*
X0119710Y0379723D03*
X0114992Y0370595D03*
X0077953Y0380913D03*
X0070236Y0381046D03*
D252*
X0113052Y0380384D03*
X0113052Y0380340D03*
X0114992Y0370639D03*
X0119754Y0373241D03*
X0119754Y0379855D03*
D253*
X0120548Y0381531D03*
X0114992Y0371477D03*
X0112523Y0374123D03*
X0113052Y0379502D03*
X0108687Y0378180D03*
X0108687Y0370728D03*
X0070236Y0381310D03*
D254*
X0077776Y0381046D03*
X0113052Y0380252D03*
X0112479Y0373417D03*
X0114992Y0370728D03*
X0119843Y0373020D03*
X0119843Y0373065D03*
X0119843Y0380031D03*
D255*
X0120526Y0381487D03*
X0120526Y0371565D03*
X0108709Y0370772D03*
X0108709Y0378135D03*
X0077049Y0381398D03*
D256*
X0046646Y0379987D03*
X0108731Y0378091D03*
X0108731Y0370816D03*
X0113052Y0379546D03*
X0114992Y0371433D03*
X0120504Y0371609D03*
X0120504Y0381443D03*
D257*
X0119931Y0380208D03*
X0119931Y0372844D03*
X0114992Y0370816D03*
X0112479Y0373506D03*
X0113052Y0380164D03*
D258*
X0112501Y0374079D03*
X0115014Y0371389D03*
X0120482Y0371654D03*
X0120482Y0371698D03*
X0120482Y0381354D03*
X0120482Y0381398D03*
X0108753Y0378047D03*
X0108753Y0370860D03*
D259*
X0112479Y0373550D03*
X0114992Y0370860D03*
X0113052Y0380120D03*
X0119975Y0380296D03*
X0119975Y0372756D03*
D260*
X0120460Y0371742D03*
X0112479Y0374035D03*
X0113052Y0379591D03*
X0108775Y0378003D03*
X0108775Y0370904D03*
D261*
X0112479Y0373594D03*
X0114992Y0370904D03*
X0113052Y0380076D03*
X0120019Y0380384D03*
X0120019Y0372668D03*
X0077600Y0381178D03*
D262*
X0113052Y0380031D03*
X0112479Y0373638D03*
X0114992Y0370948D03*
X0120063Y0372580D03*
X0120063Y0380472D03*
D263*
X0120107Y0380561D03*
X0120107Y0372491D03*
X0114992Y0370992D03*
X0112479Y0373682D03*
X0113052Y0379987D03*
X0109128Y0371654D03*
D264*
X0108841Y0371036D03*
X0112501Y0373991D03*
X0120394Y0371874D03*
X0120394Y0381178D03*
D265*
X0120372Y0381134D03*
X0120372Y0371918D03*
X0114992Y0371301D03*
X0112523Y0373946D03*
X0113052Y0379723D03*
X0108863Y0371080D03*
D266*
X0108885Y0371124D03*
X0108885Y0371169D03*
X0112501Y0373902D03*
X0120350Y0371962D03*
X0120350Y0381090D03*
X0077225Y0381354D03*
X0070258Y0381266D03*
D267*
X0070258Y0381222D03*
X0109017Y0371433D03*
X0115014Y0371124D03*
X0120217Y0372227D03*
X0120217Y0380825D03*
D268*
X0120261Y0380913D03*
X0120261Y0372139D03*
X0115014Y0371169D03*
X0108973Y0371345D03*
D269*
X0108907Y0371213D03*
X0113052Y0379767D03*
X0114992Y0371257D03*
X0120328Y0372006D03*
X0120328Y0381046D03*
D270*
X0120283Y0380957D03*
X0120283Y0372094D03*
X0112479Y0373858D03*
X0113052Y0379811D03*
X0108951Y0371301D03*
X0049953Y0381398D03*
D271*
X0077335Y0381310D03*
X0108995Y0371389D03*
X0112479Y0373814D03*
X0113052Y0379855D03*
X0120239Y0380869D03*
X0120239Y0372183D03*
D272*
X0120173Y0372315D03*
X0120173Y0380737D03*
X0109061Y0371521D03*
D273*
X0109150Y0371698D03*
X0120085Y0372535D03*
X0120085Y0380517D03*
X0077534Y0381222D03*
X0070258Y0381178D03*
X0049754Y0381354D03*
D274*
X0120041Y0380428D03*
X0120041Y0372624D03*
D275*
X0119953Y0372800D03*
X0119953Y0380252D03*
X0103682Y0374211D03*
X0077666Y0381134D03*
X0049622Y0381310D03*
D276*
X0070258Y0381134D03*
X0119909Y0380164D03*
X0119909Y0372888D03*
D277*
X0119732Y0373285D03*
X0119732Y0379767D03*
X0119732Y0379811D03*
X0049402Y0381222D03*
D278*
X0070280Y0381002D03*
X0078085Y0380781D03*
X0113052Y0380517D03*
X0119622Y0379546D03*
X0119622Y0373506D03*
D279*
X0119578Y0373594D03*
X0119578Y0379458D03*
X0113052Y0380561D03*
X0049247Y0381134D03*
D280*
X0070258Y0380869D03*
X0078372Y0380384D03*
X0078372Y0380340D03*
X0078416Y0380296D03*
X0119380Y0379017D03*
X0119380Y0374035D03*
D281*
X0119335Y0374123D03*
X0119335Y0378929D03*
X0101521Y0375622D03*
X0078460Y0380208D03*
X0049005Y0380957D03*
D282*
X0070258Y0374343D03*
X0070258Y0374299D03*
X0070258Y0374255D03*
D283*
X0070258Y0380781D03*
X0048917Y0380869D03*
X0119247Y0378753D03*
X0119247Y0374299D03*
D284*
X0070258Y0374387D03*
X0070258Y0374431D03*
X0070258Y0374476D03*
X0070258Y0374520D03*
X0070258Y0374564D03*
X0070258Y0374608D03*
X0070258Y0374652D03*
X0070258Y0374696D03*
X0070258Y0374740D03*
X0070258Y0374784D03*
X0070258Y0374828D03*
X0070258Y0374872D03*
X0070258Y0374917D03*
X0070258Y0374961D03*
D285*
X0070236Y0375005D03*
X0070236Y0375049D03*
X0070236Y0375093D03*
D286*
X0070258Y0375137D03*
X0070258Y0375181D03*
X0070258Y0375225D03*
X0070258Y0375269D03*
X0070258Y0375313D03*
X0070258Y0375357D03*
X0070258Y0375402D03*
X0070258Y0375446D03*
X0070258Y0375490D03*
X0070258Y0375534D03*
X0070258Y0375578D03*
D287*
X0118365Y0376195D03*
D288*
X0118299Y0376328D03*
D289*
X0118255Y0376416D03*
D290*
X0118211Y0376504D03*
D291*
X0118145Y0376636D03*
D292*
X0118101Y0376724D03*
X0118101Y0376769D03*
D293*
X0118057Y0376857D03*
D294*
X0118035Y0376901D03*
D295*
X0118013Y0376945D03*
D296*
X0117991Y0376989D03*
D297*
X0117969Y0377033D03*
D298*
X0117946Y0377077D03*
D299*
X0117924Y0377121D03*
D300*
X0117902Y0377165D03*
D301*
X0117880Y0377209D03*
D302*
X0117858Y0377254D03*
D303*
X0117836Y0377298D03*
D304*
X0117814Y0377342D03*
D305*
X0117792Y0377386D03*
D306*
X0117770Y0377430D03*
X0117770Y0377474D03*
D307*
X0117748Y0377518D03*
D308*
X0119820Y0379987D03*
X0070258Y0381090D03*
X0049490Y0381266D03*
D309*
X0096825Y0380031D03*
D310*
X0096803Y0380076D03*
D311*
X0096781Y0380120D03*
D312*
X0096759Y0380164D03*
D313*
X0096737Y0380208D03*
D314*
X0096715Y0380252D03*
D315*
X0096693Y0380296D03*
D316*
X0096671Y0380340D03*
D317*
X0096649Y0380384D03*
D318*
X0096627Y0380428D03*
D319*
X0096605Y0380472D03*
D320*
X0096583Y0380517D03*
X0096583Y0380561D03*
D321*
X0096561Y0380605D03*
D322*
X0096539Y0380649D03*
D323*
X0096517Y0380693D03*
D324*
X0096494Y0380737D03*
D325*
X0096472Y0380781D03*
D326*
X0096450Y0380825D03*
D327*
X0096428Y0380869D03*
D328*
X0096406Y0380913D03*
D329*
X0096384Y0380957D03*
X0096384Y0381002D03*
D330*
X0096362Y0381046D03*
D331*
X0096318Y0381090D03*
D332*
X0096296Y0381134D03*
D333*
X0096274Y0381178D03*
D334*
X0096252Y0381222D03*
X0096252Y0381266D03*
D335*
X0096230Y0381310D03*
D336*
X0096208Y0381354D03*
D337*
X0096164Y0381398D03*
X0096164Y0381443D03*
D338*
X0111795Y0381487D03*
D339*
X0111817Y0381531D03*
D340*
X0111839Y0381575D03*
D341*
X0111861Y0381619D03*
D342*
X0111883Y0381663D03*
D343*
X0111906Y0381707D03*
D344*
X0111928Y0381751D03*
D345*
X0111950Y0381795D03*
D346*
X0111972Y0381839D03*
D347*
X0111994Y0381883D03*
X0111994Y0381928D03*
D348*
X0112016Y0381972D03*
D349*
X0112038Y0382016D03*
D350*
X0112060Y0382060D03*
D351*
X0112082Y0382104D03*
D352*
X0112104Y0382148D03*
D353*
X0112126Y0382192D03*
D354*
X0112148Y0382236D03*
D355*
X0112170Y0382280D03*
D356*
X0112192Y0382324D03*
D357*
X0112236Y0382413D03*
D358*
X0112258Y0382457D03*
D359*
X0112280Y0382501D03*
D360*
X0112302Y0382545D03*
D361*
X0112324Y0382589D03*
X0112324Y0382633D03*
D362*
X0112346Y0382677D03*
D363*
X0112369Y0382721D03*
M02*
