G75*
%MOIN*%
%OFA0B0*%
%FSLAX25Y25*%
%IPPOS*%
%LPD*%
%AMOC8*
5,1,8,0,0,1.08239X$1,22.5*
%
%ADD10C,0.00000*%
%ADD11R,0.05906X0.08661*%
%ADD12C,0.06000*%
%ADD13R,0.07098X0.06299*%
%ADD14C,0.05000*%
%ADD15C,0.04362*%
%ADD16C,0.01200*%
%ADD17C,0.03969*%
%ADD18C,0.04000*%
%ADD19C,0.16598*%
D10*
X0020685Y0060655D02*
X0079740Y0001600D01*
X0138795Y0060655D01*
X0138795Y0493726D01*
X0079740Y0552781D01*
X0020685Y0493726D01*
X0020685Y0060655D01*
D11*
X0034268Y0080340D03*
X0046472Y0080340D03*
X0046472Y0159080D03*
X0034268Y0159080D03*
X0034268Y0237820D03*
X0046472Y0237820D03*
X0046472Y0316561D03*
X0034268Y0316561D03*
X0034268Y0395301D03*
X0046472Y0395301D03*
X0046472Y0474041D03*
X0034268Y0474041D03*
X0073638Y0513411D03*
X0085843Y0513411D03*
X0085843Y0434671D03*
X0073638Y0434671D03*
X0073638Y0355931D03*
X0085843Y0355931D03*
X0085843Y0277191D03*
X0073638Y0277191D03*
X0073638Y0198450D03*
X0085843Y0198450D03*
X0085843Y0119710D03*
X0073638Y0119710D03*
X0073638Y0040970D03*
X0085843Y0040970D03*
X0113008Y0080340D03*
X0125213Y0080340D03*
X0125213Y0159080D03*
X0113008Y0159080D03*
X0113008Y0237820D03*
X0125213Y0237820D03*
X0125213Y0316561D03*
X0113008Y0316561D03*
X0113008Y0395301D03*
X0125213Y0395301D03*
X0125213Y0474041D03*
X0113008Y0474041D03*
D12*
X0082425Y0085120D02*
X0076425Y0085120D01*
X0076425Y0075120D02*
X0082425Y0075120D01*
D13*
X0061795Y0051718D03*
X0061795Y0040521D03*
X0102480Y0159521D03*
X0102480Y0170718D03*
X0064150Y0423482D03*
X0064150Y0434679D03*
X0034835Y0305679D03*
X0034835Y0294482D03*
D14*
X0034835Y0253435D01*
X0026000Y0244600D01*
X0026000Y0224600D01*
X0040000Y0210600D01*
X0054000Y0210600D01*
X0065000Y0199600D01*
X0065000Y0185600D01*
X0079000Y0171600D01*
X0101598Y0171600D01*
X0102480Y0170718D01*
X0094118Y0170718D01*
X0091000Y0167600D01*
X0083000Y0179600D02*
X0074000Y0188600D01*
X0074000Y0198088D01*
X0073638Y0198450D01*
X0085843Y0210757D02*
X0078000Y0218600D01*
X0043000Y0218600D01*
X0034000Y0227600D01*
X0034000Y0237553D01*
X0034268Y0237820D01*
X0034835Y0294482D02*
X0034953Y0294600D01*
X0043000Y0294600D01*
X0046472Y0316561D02*
X0113008Y0316561D01*
X0122000Y0327600D02*
X0082000Y0327600D01*
X0073000Y0336600D01*
X0073000Y0355293D01*
X0073638Y0355931D01*
X0085843Y0367757D02*
X0079000Y0374600D01*
X0043000Y0374600D01*
X0034000Y0383600D01*
X0034000Y0395033D01*
X0034268Y0395301D01*
X0046472Y0395301D02*
X0113008Y0395301D01*
X0124000Y0405600D02*
X0126000Y0403600D01*
X0126000Y0396088D01*
X0125213Y0395301D01*
X0125213Y0335387D01*
X0133000Y0327600D01*
X0133000Y0309600D01*
X0128000Y0304600D01*
X0097000Y0304600D01*
X0088000Y0295600D01*
X0088000Y0279348D01*
X0085843Y0277191D01*
X0085843Y0271757D01*
X0087000Y0270600D01*
X0073000Y0266600D02*
X0084000Y0255600D01*
X0119000Y0255600D01*
X0125213Y0249387D01*
X0125213Y0237820D01*
X0119000Y0179600D02*
X0083000Y0179600D01*
X0085843Y0198450D02*
X0085843Y0210757D01*
X0073000Y0266600D02*
X0073000Y0276553D01*
X0073638Y0277191D01*
X0085843Y0355931D02*
X0085843Y0367757D01*
X0085843Y0434671D02*
X0085843Y0445757D01*
X0077000Y0454600D01*
X0043000Y0454600D01*
X0034000Y0463600D01*
X0034000Y0473773D01*
X0034268Y0474041D01*
X0046472Y0474041D02*
X0047000Y0473513D01*
X0047000Y0464600D01*
X0051000Y0460600D01*
X0091000Y0460600D01*
X0104441Y0474041D01*
X0113008Y0474041D01*
X0125213Y0482387D02*
X0121000Y0486600D01*
X0085000Y0486600D01*
X0074000Y0497600D01*
X0074000Y0513049D01*
X0073638Y0513411D01*
X0085843Y0513411D02*
X0092189Y0513411D01*
X0094000Y0511600D01*
X0073638Y0434671D02*
X0064157Y0434671D01*
X0064150Y0434679D01*
X0064150Y0423482D02*
X0064150Y0416750D01*
X0064000Y0416600D01*
X0034268Y0316561D02*
X0034268Y0306246D01*
X0034835Y0305679D01*
X0034268Y0159080D02*
X0034000Y0158813D01*
X0034000Y0143600D01*
X0042000Y0135600D01*
X0080000Y0135600D01*
X0085843Y0129757D01*
X0085843Y0119710D01*
X0089000Y0095600D02*
X0104000Y0080600D01*
X0112748Y0080600D01*
X0113008Y0080340D01*
X0125213Y0086387D02*
X0118000Y0093600D01*
X0104000Y0093600D01*
X0093000Y0104600D01*
X0078000Y0104600D01*
X0073000Y0109600D01*
X0073000Y0119072D01*
X0073638Y0119710D01*
X0067000Y0095600D02*
X0089000Y0095600D01*
X0079425Y0075120D02*
X0085000Y0069545D01*
X0085000Y0058600D01*
X0078118Y0051718D01*
X0061795Y0051718D01*
X0061795Y0040970D02*
X0061795Y0040521D01*
X0061795Y0040970D02*
X0073638Y0040970D01*
X0085843Y0040970D02*
X0086213Y0040600D01*
X0093000Y0040600D01*
X0051740Y0080340D02*
X0067000Y0095600D01*
X0051740Y0080340D02*
X0046472Y0080340D01*
X0035000Y0073600D02*
X0051000Y0057600D01*
X0035000Y0073600D02*
X0035000Y0079608D01*
X0034268Y0080340D01*
X0046953Y0158600D02*
X0046472Y0159080D01*
X0046953Y0158600D02*
X0054000Y0158600D01*
X0102480Y0159521D02*
X0102921Y0159080D01*
X0113008Y0159080D01*
X0125213Y0173387D02*
X0119000Y0179600D01*
X0125213Y0173387D02*
X0125213Y0159080D01*
X0125213Y0086387D02*
X0125213Y0080340D01*
X0125213Y0316561D02*
X0125213Y0324387D01*
X0122000Y0327600D01*
X0125213Y0474041D02*
X0125213Y0482387D01*
D15*
X0124000Y0405600D03*
X0094000Y0511600D03*
X0064000Y0416600D03*
X0043000Y0294600D03*
X0054000Y0158600D03*
X0087000Y0270600D03*
X0091000Y0167600D03*
D16*
X0089906Y0163399D02*
X0051025Y0163399D01*
X0051025Y0163622D02*
X0050916Y0164029D01*
X0050705Y0164393D01*
X0050408Y0164691D01*
X0050043Y0164902D01*
X0049636Y0165011D01*
X0047072Y0165011D01*
X0047072Y0159680D01*
X0045872Y0159680D01*
X0045872Y0158480D01*
X0041920Y0158480D01*
X0041920Y0154539D01*
X0042029Y0154132D01*
X0042239Y0153767D01*
X0042537Y0153469D01*
X0042902Y0153259D01*
X0043309Y0153150D01*
X0045872Y0153150D01*
X0045872Y0158480D01*
X0047072Y0158480D01*
X0047072Y0153150D01*
X0049636Y0153150D01*
X0050043Y0153259D01*
X0050408Y0153469D01*
X0050705Y0153767D01*
X0050916Y0154132D01*
X0051025Y0154539D01*
X0051025Y0158480D01*
X0047072Y0158480D01*
X0047072Y0159680D01*
X0051025Y0159680D01*
X0051025Y0163622D01*
X0050501Y0164598D02*
X0087921Y0164598D01*
X0087355Y0165164D02*
X0088564Y0163955D01*
X0090145Y0163300D01*
X0091855Y0163300D01*
X0093436Y0163955D01*
X0095899Y0166418D01*
X0097536Y0166418D01*
X0098186Y0165769D01*
X0106775Y0165769D01*
X0107830Y0166823D01*
X0107830Y0174613D01*
X0107143Y0175300D01*
X0117219Y0175300D01*
X0120913Y0171606D01*
X0120913Y0164609D01*
X0120460Y0164157D01*
X0120460Y0154004D01*
X0121514Y0152950D01*
X0128911Y0152950D01*
X0129965Y0154004D01*
X0129965Y0164157D01*
X0129513Y0164609D01*
X0129513Y0174243D01*
X0128858Y0175823D01*
X0122645Y0182036D01*
X0121436Y0183245D01*
X0119855Y0183900D01*
X0084781Y0183900D01*
X0078300Y0190381D01*
X0078300Y0193284D01*
X0078391Y0193374D01*
X0078391Y0203527D01*
X0077336Y0204581D01*
X0069939Y0204581D01*
X0068885Y0203527D01*
X0068885Y0201457D01*
X0068645Y0202036D01*
X0056436Y0214245D01*
X0056304Y0214300D01*
X0076219Y0214300D01*
X0081543Y0208976D01*
X0081543Y0203979D01*
X0081090Y0203527D01*
X0081090Y0193374D01*
X0082144Y0192320D01*
X0089541Y0192320D01*
X0090595Y0193374D01*
X0090595Y0203527D01*
X0090143Y0203979D01*
X0090143Y0211613D01*
X0089488Y0213193D01*
X0088278Y0214403D01*
X0083881Y0218800D01*
X0107756Y0218800D01*
X0109153Y0219379D01*
X0110221Y0220447D01*
X0116229Y0226455D01*
X0116808Y0227852D01*
X0116808Y0231791D01*
X0117761Y0232744D01*
X0117761Y0242897D01*
X0116706Y0243951D01*
X0109310Y0243951D01*
X0108255Y0242897D01*
X0108255Y0232744D01*
X0109208Y0231791D01*
X0109208Y0230182D01*
X0105426Y0226400D01*
X0084574Y0226400D01*
X0084221Y0226753D01*
X0083153Y0227821D01*
X0082481Y0228099D01*
X0083638Y0228409D01*
X0085941Y0229739D01*
X0087822Y0231619D01*
X0089151Y0233922D01*
X0089839Y0236491D01*
X0089839Y0239150D01*
X0089151Y0241719D01*
X0087822Y0244022D01*
X0085941Y0245902D01*
X0083638Y0247231D01*
X0081070Y0247920D01*
X0078411Y0247920D01*
X0075842Y0247231D01*
X0073539Y0245902D01*
X0071659Y0244022D01*
X0070329Y0241719D01*
X0069641Y0239150D01*
X0069641Y0236491D01*
X0070329Y0233922D01*
X0071659Y0231619D01*
X0073539Y0229739D01*
X0075842Y0228409D01*
X0075878Y0228400D01*
X0052574Y0228400D01*
X0049800Y0231174D01*
X0049800Y0231690D01*
X0050171Y0231690D01*
X0051225Y0232744D01*
X0051225Y0242897D01*
X0050171Y0243951D01*
X0042774Y0243951D01*
X0041720Y0242897D01*
X0041720Y0232744D01*
X0042200Y0232264D01*
X0042200Y0228844D01*
X0042779Y0227447D01*
X0043847Y0226379D01*
X0047326Y0222900D01*
X0044781Y0222900D01*
X0038300Y0229381D01*
X0038300Y0232024D01*
X0039020Y0232744D01*
X0039020Y0242897D01*
X0037966Y0243951D01*
X0031432Y0243951D01*
X0038480Y0250999D01*
X0039135Y0252579D01*
X0039135Y0289537D01*
X0039897Y0290300D01*
X0043855Y0290300D01*
X0045436Y0290955D01*
X0046645Y0292164D01*
X0047300Y0293745D01*
X0047300Y0295455D01*
X0046645Y0297036D01*
X0045436Y0298245D01*
X0043855Y0298900D01*
X0039661Y0298900D01*
X0039129Y0299431D01*
X0030540Y0299431D01*
X0029485Y0298377D01*
X0029485Y0290587D01*
X0030535Y0289537D01*
X0030535Y0255216D01*
X0023564Y0248245D01*
X0022485Y0247166D01*
X0022485Y0492980D01*
X0079740Y0550236D01*
X0136995Y0492980D01*
X0136995Y0061401D01*
X0079740Y0004146D01*
X0022485Y0061401D01*
X0022485Y0222034D01*
X0036355Y0208164D01*
X0037564Y0206955D01*
X0039145Y0206300D01*
X0052219Y0206300D01*
X0060700Y0197819D01*
X0060700Y0184745D01*
X0061355Y0183164D01*
X0075355Y0169164D01*
X0076564Y0167955D01*
X0078145Y0167300D01*
X0086700Y0167300D01*
X0086700Y0166745D01*
X0087355Y0165164D01*
X0087093Y0165796D02*
X0022485Y0165796D01*
X0022485Y0164598D02*
X0029956Y0164598D01*
X0029515Y0164157D02*
X0029515Y0154004D01*
X0029700Y0153819D01*
X0029700Y0142745D01*
X0030355Y0141164D01*
X0031564Y0139955D01*
X0039564Y0131955D01*
X0041145Y0131300D01*
X0078219Y0131300D01*
X0081543Y0127976D01*
X0081543Y0125239D01*
X0081090Y0124787D01*
X0081090Y0114634D01*
X0082144Y0113580D01*
X0089541Y0113580D01*
X0090595Y0114634D01*
X0090595Y0124787D01*
X0090143Y0125239D01*
X0090143Y0130613D01*
X0089488Y0132193D01*
X0083645Y0138036D01*
X0082436Y0139245D01*
X0080855Y0139900D01*
X0043781Y0139900D01*
X0038300Y0145381D01*
X0038300Y0153284D01*
X0039020Y0154004D01*
X0039020Y0164157D01*
X0037966Y0165211D01*
X0030569Y0165211D01*
X0029515Y0164157D01*
X0029515Y0163399D02*
X0022485Y0163399D01*
X0022485Y0162201D02*
X0029515Y0162201D01*
X0029515Y0161002D02*
X0022485Y0161002D01*
X0022485Y0159803D02*
X0029515Y0159803D01*
X0029515Y0158605D02*
X0022485Y0158605D01*
X0022485Y0157406D02*
X0029515Y0157406D01*
X0029515Y0156208D02*
X0022485Y0156208D01*
X0022485Y0155009D02*
X0029515Y0155009D01*
X0029700Y0153811D02*
X0022485Y0153811D01*
X0022485Y0152612D02*
X0029700Y0152612D01*
X0029700Y0151414D02*
X0022485Y0151414D01*
X0022485Y0150215D02*
X0029700Y0150215D01*
X0029700Y0149017D02*
X0022485Y0149017D01*
X0022485Y0147818D02*
X0029700Y0147818D01*
X0029700Y0146620D02*
X0022485Y0146620D01*
X0022485Y0145421D02*
X0029700Y0145421D01*
X0029700Y0144223D02*
X0022485Y0144223D01*
X0022485Y0143024D02*
X0029700Y0143024D01*
X0030081Y0141826D02*
X0022485Y0141826D01*
X0022485Y0140627D02*
X0030892Y0140627D01*
X0032090Y0139429D02*
X0022485Y0139429D01*
X0022485Y0138230D02*
X0033289Y0138230D01*
X0034487Y0137032D02*
X0022485Y0137032D01*
X0022485Y0135833D02*
X0035686Y0135833D01*
X0036884Y0134635D02*
X0022485Y0134635D01*
X0022485Y0133436D02*
X0038083Y0133436D01*
X0039281Y0132238D02*
X0022485Y0132238D01*
X0022485Y0131039D02*
X0078480Y0131039D01*
X0079678Y0129841D02*
X0022485Y0129841D01*
X0022485Y0128642D02*
X0080877Y0128642D01*
X0081543Y0127444D02*
X0022485Y0127444D01*
X0022485Y0126245D02*
X0081543Y0126245D01*
X0081350Y0125047D02*
X0078130Y0125047D01*
X0078391Y0124787D02*
X0077336Y0125841D01*
X0069939Y0125841D01*
X0068885Y0124787D01*
X0068885Y0120374D01*
X0068700Y0119928D01*
X0068700Y0108745D01*
X0069355Y0107164D01*
X0070564Y0105955D01*
X0075564Y0100955D01*
X0077145Y0100300D01*
X0091219Y0100300D01*
X0101564Y0089955D01*
X0103145Y0089300D01*
X0116219Y0089300D01*
X0120460Y0085059D01*
X0120460Y0075264D01*
X0121514Y0074209D01*
X0128911Y0074209D01*
X0129965Y0075264D01*
X0129965Y0085416D01*
X0129513Y0085869D01*
X0129513Y0087243D01*
X0128858Y0088823D01*
X0121645Y0096036D01*
X0120436Y0097245D01*
X0118855Y0097900D01*
X0105781Y0097900D01*
X0096645Y0107036D01*
X0095436Y0108245D01*
X0093855Y0108900D01*
X0079781Y0108900D01*
X0077300Y0111381D01*
X0077300Y0113580D01*
X0077336Y0113580D01*
X0078391Y0114634D01*
X0078391Y0124787D01*
X0078391Y0123848D02*
X0081090Y0123848D01*
X0081090Y0122650D02*
X0078391Y0122650D01*
X0078391Y0121451D02*
X0081090Y0121451D01*
X0081090Y0120253D02*
X0078391Y0120253D01*
X0078391Y0119054D02*
X0081090Y0119054D01*
X0081090Y0117856D02*
X0078391Y0117856D01*
X0078391Y0116657D02*
X0081090Y0116657D01*
X0081090Y0115459D02*
X0078391Y0115459D01*
X0078017Y0114260D02*
X0081464Y0114260D01*
X0079215Y0109466D02*
X0136995Y0109466D01*
X0136995Y0108268D02*
X0095382Y0108268D01*
X0096612Y0107069D02*
X0136995Y0107069D01*
X0136995Y0105870D02*
X0097811Y0105870D01*
X0099009Y0104672D02*
X0136995Y0104672D01*
X0136995Y0103473D02*
X0100208Y0103473D01*
X0101406Y0102275D02*
X0136995Y0102275D01*
X0136995Y0101076D02*
X0102605Y0101076D01*
X0103803Y0099878D02*
X0136995Y0099878D01*
X0136995Y0098679D02*
X0105002Y0098679D01*
X0101229Y0090290D02*
X0100391Y0090290D01*
X0100031Y0091488D02*
X0099193Y0091488D01*
X0098832Y0092687D02*
X0097994Y0092687D01*
X0097634Y0093885D02*
X0096796Y0093885D01*
X0096435Y0095084D02*
X0095597Y0095084D01*
X0095236Y0096282D02*
X0094399Y0096282D01*
X0094038Y0097481D02*
X0093200Y0097481D01*
X0092839Y0098679D02*
X0092002Y0098679D01*
X0091436Y0099245D02*
X0089855Y0099900D01*
X0066145Y0099900D01*
X0064564Y0099245D01*
X0063355Y0098036D01*
X0050980Y0085661D01*
X0050171Y0086471D01*
X0042774Y0086471D01*
X0041720Y0085416D01*
X0041720Y0075264D01*
X0042774Y0074209D01*
X0050171Y0074209D01*
X0051225Y0075264D01*
X0051225Y0076040D01*
X0052595Y0076040D01*
X0054176Y0076695D01*
X0068781Y0091300D01*
X0087219Y0091300D01*
X0100355Y0078164D01*
X0101564Y0076955D01*
X0103145Y0076300D01*
X0108255Y0076300D01*
X0108255Y0075264D01*
X0109310Y0074209D01*
X0116706Y0074209D01*
X0117761Y0075264D01*
X0117761Y0085416D01*
X0116706Y0086471D01*
X0109310Y0086471D01*
X0108255Y0085416D01*
X0108255Y0084900D01*
X0105781Y0084900D01*
X0091436Y0099245D01*
X0091641Y0099878D02*
X0089909Y0099878D01*
X0088229Y0090290D02*
X0067771Y0090290D01*
X0066572Y0089091D02*
X0074088Y0089091D01*
X0074014Y0089054D02*
X0073428Y0088628D01*
X0072917Y0088116D01*
X0072491Y0087531D01*
X0072162Y0086885D01*
X0071938Y0086197D01*
X0071831Y0085520D01*
X0079025Y0085520D01*
X0079025Y0089720D01*
X0076063Y0089720D01*
X0075348Y0089606D01*
X0074659Y0089383D01*
X0074014Y0089054D01*
X0072754Y0087893D02*
X0065374Y0087893D01*
X0064175Y0086694D02*
X0072100Y0086694D01*
X0071831Y0084720D02*
X0071938Y0084043D01*
X0072162Y0083354D01*
X0072491Y0082709D01*
X0072917Y0082123D01*
X0073428Y0081611D01*
X0074014Y0081185D01*
X0074659Y0080857D01*
X0075348Y0080633D01*
X0076063Y0080520D01*
X0079025Y0080520D01*
X0079025Y0084720D01*
X0071831Y0084720D01*
X0071898Y0084297D02*
X0061778Y0084297D01*
X0060580Y0083099D02*
X0072292Y0083099D01*
X0073139Y0081900D02*
X0059381Y0081900D01*
X0058183Y0080702D02*
X0075136Y0080702D01*
X0075470Y0079920D02*
X0073706Y0079189D01*
X0072356Y0077839D01*
X0071625Y0076074D01*
X0071625Y0074165D01*
X0072356Y0072401D01*
X0073706Y0071050D01*
X0075470Y0070320D01*
X0078144Y0070320D01*
X0080700Y0067764D01*
X0080700Y0060381D01*
X0076337Y0056018D01*
X0066740Y0056018D01*
X0066090Y0056668D01*
X0057500Y0056668D01*
X0056446Y0055613D01*
X0056446Y0047823D01*
X0057500Y0046769D01*
X0066090Y0046769D01*
X0066740Y0047418D01*
X0078973Y0047418D01*
X0080554Y0048073D01*
X0088645Y0056164D01*
X0089300Y0057745D01*
X0089300Y0070400D01*
X0088645Y0071981D01*
X0087001Y0073625D01*
X0087225Y0074165D01*
X0087225Y0076074D01*
X0086494Y0077839D01*
X0085144Y0079189D01*
X0083380Y0079920D01*
X0075470Y0079920D01*
X0074465Y0079503D02*
X0056984Y0079503D01*
X0055786Y0078305D02*
X0072822Y0078305D01*
X0072053Y0077106D02*
X0054587Y0077106D01*
X0051225Y0075908D02*
X0071625Y0075908D01*
X0071625Y0074709D02*
X0050671Y0074709D01*
X0048361Y0066320D02*
X0080700Y0066320D01*
X0080700Y0067518D02*
X0047163Y0067518D01*
X0045964Y0068717D02*
X0079747Y0068717D01*
X0078549Y0069915D02*
X0044766Y0069915D01*
X0043567Y0071114D02*
X0073643Y0071114D01*
X0072444Y0072312D02*
X0042369Y0072312D01*
X0041170Y0073511D02*
X0071896Y0073511D01*
X0077050Y0056732D02*
X0055295Y0056732D01*
X0055300Y0056745D02*
X0055300Y0058455D01*
X0054645Y0060036D01*
X0039300Y0075381D01*
X0039300Y0080463D01*
X0039020Y0081138D01*
X0039020Y0085416D01*
X0037966Y0086471D01*
X0030569Y0086471D01*
X0029515Y0085416D01*
X0029515Y0075264D01*
X0030569Y0074209D01*
X0030700Y0074209D01*
X0030700Y0072745D01*
X0031355Y0071164D01*
X0032564Y0069955D01*
X0048564Y0053955D01*
X0050145Y0053300D01*
X0051855Y0053300D01*
X0053436Y0053955D01*
X0054645Y0055164D01*
X0055300Y0056745D01*
X0055300Y0057930D02*
X0078249Y0057930D01*
X0079447Y0059129D02*
X0055021Y0059129D01*
X0054354Y0060327D02*
X0080646Y0060327D01*
X0080700Y0061526D02*
X0053156Y0061526D01*
X0051957Y0062724D02*
X0080700Y0062724D01*
X0080700Y0063923D02*
X0050759Y0063923D01*
X0049560Y0065121D02*
X0080700Y0065121D01*
X0083220Y0050739D02*
X0126334Y0050739D01*
X0127532Y0051937D02*
X0084419Y0051937D01*
X0085617Y0053136D02*
X0128731Y0053136D01*
X0129929Y0054334D02*
X0086816Y0054334D01*
X0088014Y0055533D02*
X0131128Y0055533D01*
X0132326Y0056732D02*
X0088880Y0056732D01*
X0089300Y0057930D02*
X0133525Y0057930D01*
X0134723Y0059129D02*
X0089300Y0059129D01*
X0089300Y0060327D02*
X0135922Y0060327D01*
X0136995Y0061526D02*
X0089300Y0061526D01*
X0089300Y0062724D02*
X0136995Y0062724D01*
X0136995Y0063923D02*
X0089300Y0063923D01*
X0089300Y0065121D02*
X0136995Y0065121D01*
X0136995Y0066320D02*
X0089300Y0066320D01*
X0089300Y0067518D02*
X0136995Y0067518D01*
X0136995Y0068717D02*
X0089300Y0068717D01*
X0089300Y0069915D02*
X0136995Y0069915D01*
X0136995Y0071114D02*
X0089004Y0071114D01*
X0088314Y0072312D02*
X0136995Y0072312D01*
X0136995Y0073511D02*
X0087115Y0073511D01*
X0087225Y0074709D02*
X0108810Y0074709D01*
X0108255Y0075908D02*
X0087225Y0075908D01*
X0086798Y0077106D02*
X0101413Y0077106D01*
X0100214Y0078305D02*
X0086028Y0078305D01*
X0084385Y0079503D02*
X0099016Y0079503D01*
X0097817Y0080702D02*
X0083714Y0080702D01*
X0083502Y0080633D02*
X0084191Y0080857D01*
X0084836Y0081185D01*
X0085422Y0081611D01*
X0085934Y0082123D01*
X0086359Y0082709D01*
X0086688Y0083354D01*
X0086912Y0084043D01*
X0087019Y0084720D01*
X0079825Y0084720D01*
X0079825Y0085520D01*
X0079025Y0085520D01*
X0079025Y0084720D01*
X0079825Y0084720D01*
X0079825Y0080520D01*
X0082787Y0080520D01*
X0083502Y0080633D01*
X0085934Y0088116D02*
X0085422Y0088628D01*
X0084836Y0089054D01*
X0084191Y0089383D01*
X0083502Y0089606D01*
X0082787Y0089720D01*
X0079825Y0089720D01*
X0079825Y0085520D01*
X0087019Y0085520D01*
X0086912Y0086197D01*
X0086688Y0086885D01*
X0086359Y0087531D01*
X0085934Y0088116D01*
X0086096Y0087893D02*
X0090626Y0087893D01*
X0089428Y0089091D02*
X0084763Y0089091D01*
X0086750Y0086694D02*
X0091825Y0086694D01*
X0093023Y0085496D02*
X0079825Y0085496D01*
X0079025Y0085496D02*
X0062977Y0085496D01*
X0059204Y0093885D02*
X0022485Y0093885D01*
X0022485Y0092687D02*
X0058006Y0092687D01*
X0056807Y0091488D02*
X0022485Y0091488D01*
X0022485Y0090290D02*
X0055609Y0090290D01*
X0054410Y0089091D02*
X0022485Y0089091D01*
X0022485Y0087893D02*
X0053212Y0087893D01*
X0052013Y0086694D02*
X0022485Y0086694D01*
X0022485Y0085496D02*
X0029594Y0085496D01*
X0029515Y0084297D02*
X0022485Y0084297D01*
X0022485Y0083099D02*
X0029515Y0083099D01*
X0029515Y0081900D02*
X0022485Y0081900D01*
X0022485Y0080702D02*
X0029515Y0080702D01*
X0029515Y0079503D02*
X0022485Y0079503D01*
X0022485Y0078305D02*
X0029515Y0078305D01*
X0029515Y0077106D02*
X0022485Y0077106D01*
X0022485Y0075908D02*
X0029515Y0075908D01*
X0030070Y0074709D02*
X0022485Y0074709D01*
X0022485Y0073511D02*
X0030700Y0073511D01*
X0030879Y0072312D02*
X0022485Y0072312D01*
X0022485Y0071114D02*
X0031405Y0071114D01*
X0032604Y0069915D02*
X0022485Y0069915D01*
X0022485Y0068717D02*
X0033802Y0068717D01*
X0035001Y0067518D02*
X0022485Y0067518D01*
X0022485Y0066320D02*
X0036199Y0066320D01*
X0037398Y0065121D02*
X0022485Y0065121D01*
X0022485Y0063923D02*
X0038596Y0063923D01*
X0039795Y0062724D02*
X0022485Y0062724D01*
X0022485Y0061526D02*
X0040993Y0061526D01*
X0042192Y0060327D02*
X0023559Y0060327D01*
X0024757Y0059129D02*
X0043390Y0059129D01*
X0044589Y0057930D02*
X0025956Y0057930D01*
X0027154Y0056732D02*
X0045787Y0056732D01*
X0046986Y0055533D02*
X0028353Y0055533D01*
X0029551Y0054334D02*
X0048184Y0054334D01*
X0043933Y0039952D02*
X0056446Y0039952D01*
X0056446Y0038754D02*
X0045132Y0038754D01*
X0046330Y0037555D02*
X0056446Y0037555D01*
X0056446Y0036626D02*
X0057500Y0035572D01*
X0066090Y0035572D01*
X0067144Y0036626D01*
X0067144Y0036670D01*
X0068885Y0036670D01*
X0068885Y0035894D01*
X0069939Y0034839D01*
X0077336Y0034839D01*
X0078391Y0035894D01*
X0078391Y0046046D01*
X0077336Y0047101D01*
X0069939Y0047101D01*
X0068885Y0046046D01*
X0068885Y0045270D01*
X0066291Y0045270D01*
X0066090Y0045471D01*
X0057500Y0045471D01*
X0056446Y0044416D01*
X0056446Y0036626D01*
X0056715Y0036357D02*
X0047529Y0036357D01*
X0048727Y0035158D02*
X0069620Y0035158D01*
X0068885Y0036357D02*
X0066875Y0036357D01*
X0068885Y0045945D02*
X0037941Y0045945D01*
X0039139Y0044746D02*
X0056776Y0044746D01*
X0056446Y0043548D02*
X0040338Y0043548D01*
X0041536Y0042349D02*
X0056446Y0042349D01*
X0056446Y0041151D02*
X0042735Y0041151D01*
X0036742Y0047143D02*
X0057126Y0047143D01*
X0056446Y0048342D02*
X0035544Y0048342D01*
X0034345Y0049540D02*
X0056446Y0049540D01*
X0056446Y0050739D02*
X0033147Y0050739D01*
X0031948Y0051937D02*
X0056446Y0051937D01*
X0056446Y0053136D02*
X0030750Y0053136D01*
X0039300Y0075908D02*
X0041720Y0075908D01*
X0041720Y0077106D02*
X0039300Y0077106D01*
X0039300Y0078305D02*
X0041720Y0078305D01*
X0041720Y0079503D02*
X0039300Y0079503D01*
X0039201Y0080702D02*
X0041720Y0080702D01*
X0041720Y0081900D02*
X0039020Y0081900D01*
X0039020Y0083099D02*
X0041720Y0083099D01*
X0041720Y0084297D02*
X0039020Y0084297D01*
X0038941Y0085496D02*
X0041799Y0085496D01*
X0042274Y0074709D02*
X0039972Y0074709D01*
X0049926Y0033960D02*
X0109554Y0033960D01*
X0108356Y0032761D02*
X0051124Y0032761D01*
X0052323Y0031563D02*
X0107157Y0031563D01*
X0105959Y0030364D02*
X0084213Y0030364D01*
X0083638Y0030696D02*
X0081070Y0031384D01*
X0078411Y0031384D01*
X0075842Y0030696D01*
X0073539Y0029366D01*
X0071659Y0027486D01*
X0070329Y0025183D01*
X0069641Y0022615D01*
X0069641Y0019955D01*
X0070329Y0017387D01*
X0071659Y0015084D01*
X0073539Y0013204D01*
X0075842Y0011874D01*
X0078411Y0011186D01*
X0081070Y0011186D01*
X0083638Y0011874D01*
X0085941Y0013204D01*
X0087822Y0015084D01*
X0089151Y0017387D01*
X0089839Y0019955D01*
X0089839Y0022615D01*
X0089151Y0025183D01*
X0087822Y0027486D01*
X0085941Y0029366D01*
X0083638Y0030696D01*
X0082144Y0034839D02*
X0089541Y0034839D01*
X0090595Y0035894D01*
X0090595Y0036300D01*
X0093855Y0036300D01*
X0095436Y0036955D01*
X0096645Y0038164D01*
X0097300Y0039745D01*
X0097300Y0041455D01*
X0096645Y0043036D01*
X0095436Y0044245D01*
X0093855Y0044900D01*
X0090595Y0044900D01*
X0090595Y0046046D01*
X0089541Y0047101D01*
X0082144Y0047101D01*
X0081090Y0046046D01*
X0081090Y0035894D01*
X0082144Y0034839D01*
X0081825Y0035158D02*
X0077655Y0035158D01*
X0078391Y0036357D02*
X0081090Y0036357D01*
X0081090Y0037555D02*
X0078391Y0037555D01*
X0078391Y0038754D02*
X0081090Y0038754D01*
X0081090Y0039952D02*
X0078391Y0039952D01*
X0078391Y0041151D02*
X0081090Y0041151D01*
X0081090Y0042349D02*
X0078391Y0042349D01*
X0078391Y0043548D02*
X0081090Y0043548D01*
X0081090Y0044746D02*
X0078391Y0044746D01*
X0078391Y0045945D02*
X0081090Y0045945D01*
X0080823Y0048342D02*
X0123937Y0048342D01*
X0125135Y0049540D02*
X0082022Y0049540D01*
X0086142Y0029166D02*
X0104760Y0029166D01*
X0103562Y0027967D02*
X0087340Y0027967D01*
X0088236Y0026769D02*
X0102363Y0026769D01*
X0101165Y0025570D02*
X0088928Y0025570D01*
X0089369Y0024372D02*
X0099966Y0024372D01*
X0098768Y0023173D02*
X0089690Y0023173D01*
X0089839Y0021975D02*
X0097569Y0021975D01*
X0096371Y0020776D02*
X0089839Y0020776D01*
X0089738Y0019578D02*
X0095172Y0019578D01*
X0093974Y0018379D02*
X0089417Y0018379D01*
X0089032Y0017181D02*
X0092775Y0017181D01*
X0091577Y0015982D02*
X0088340Y0015982D01*
X0087521Y0014784D02*
X0090378Y0014784D01*
X0089180Y0013585D02*
X0086323Y0013585D01*
X0087981Y0012387D02*
X0084526Y0012387D01*
X0086783Y0011188D02*
X0081078Y0011188D01*
X0081989Y0006394D02*
X0077492Y0006394D01*
X0078690Y0005196D02*
X0080790Y0005196D01*
X0083187Y0007593D02*
X0076293Y0007593D01*
X0075095Y0008791D02*
X0084386Y0008791D01*
X0085584Y0009990D02*
X0073896Y0009990D01*
X0072698Y0011188D02*
X0078402Y0011188D01*
X0074954Y0012387D02*
X0071499Y0012387D01*
X0070301Y0013585D02*
X0073158Y0013585D01*
X0071959Y0014784D02*
X0069102Y0014784D01*
X0067904Y0015982D02*
X0071140Y0015982D01*
X0070448Y0017181D02*
X0066705Y0017181D01*
X0065507Y0018379D02*
X0070063Y0018379D01*
X0069742Y0019578D02*
X0064308Y0019578D01*
X0063110Y0020776D02*
X0069641Y0020776D01*
X0069641Y0021975D02*
X0061911Y0021975D01*
X0060713Y0023173D02*
X0069791Y0023173D01*
X0070112Y0024372D02*
X0059514Y0024372D01*
X0058316Y0025570D02*
X0070553Y0025570D01*
X0071245Y0026769D02*
X0057117Y0026769D01*
X0055918Y0027967D02*
X0072140Y0027967D01*
X0073338Y0029166D02*
X0054720Y0029166D01*
X0053521Y0030364D02*
X0075267Y0030364D01*
X0066465Y0047143D02*
X0122738Y0047143D01*
X0121539Y0045945D02*
X0090595Y0045945D01*
X0093993Y0036357D02*
X0111951Y0036357D01*
X0110753Y0035158D02*
X0089860Y0035158D01*
X0094226Y0044746D02*
X0120341Y0044746D01*
X0119142Y0043548D02*
X0096133Y0043548D01*
X0096930Y0042349D02*
X0117944Y0042349D01*
X0116745Y0041151D02*
X0097300Y0041151D01*
X0097300Y0039952D02*
X0115547Y0039952D01*
X0114348Y0038754D02*
X0096890Y0038754D01*
X0096036Y0037555D02*
X0113150Y0037555D01*
X0117206Y0074709D02*
X0121015Y0074709D01*
X0120460Y0075908D02*
X0117761Y0075908D01*
X0117761Y0077106D02*
X0120460Y0077106D01*
X0120460Y0078305D02*
X0117761Y0078305D01*
X0117761Y0079503D02*
X0120460Y0079503D01*
X0120460Y0080702D02*
X0117761Y0080702D01*
X0117761Y0081900D02*
X0120460Y0081900D01*
X0120460Y0083099D02*
X0117761Y0083099D01*
X0117761Y0084297D02*
X0120460Y0084297D01*
X0120023Y0085496D02*
X0117681Y0085496D01*
X0118825Y0086694D02*
X0103987Y0086694D01*
X0105185Y0085496D02*
X0108334Y0085496D01*
X0102788Y0087893D02*
X0117626Y0087893D01*
X0116428Y0089091D02*
X0101590Y0089091D01*
X0096619Y0081900D02*
X0085711Y0081900D01*
X0086558Y0083099D02*
X0095420Y0083099D01*
X0094222Y0084297D02*
X0086952Y0084297D01*
X0079825Y0084297D02*
X0079025Y0084297D01*
X0079025Y0083099D02*
X0079825Y0083099D01*
X0079825Y0081900D02*
X0079025Y0081900D01*
X0079025Y0080702D02*
X0079825Y0080702D01*
X0079825Y0086694D02*
X0079025Y0086694D01*
X0079025Y0087893D02*
X0079825Y0087893D01*
X0079825Y0089091D02*
X0079025Y0089091D01*
X0075442Y0101076D02*
X0022485Y0101076D01*
X0022485Y0099878D02*
X0066091Y0099878D01*
X0068700Y0109466D02*
X0022485Y0109466D01*
X0022485Y0108268D02*
X0068898Y0108268D01*
X0069450Y0107069D02*
X0022485Y0107069D01*
X0022485Y0105870D02*
X0070648Y0105870D01*
X0071847Y0104672D02*
X0022485Y0104672D01*
X0022485Y0103473D02*
X0073045Y0103473D01*
X0074244Y0102275D02*
X0022485Y0102275D01*
X0022485Y0098679D02*
X0063998Y0098679D01*
X0062800Y0097481D02*
X0022485Y0097481D01*
X0022485Y0096282D02*
X0061601Y0096282D01*
X0060403Y0095084D02*
X0022485Y0095084D01*
X0022485Y0110665D02*
X0068700Y0110665D01*
X0068700Y0111863D02*
X0022485Y0111863D01*
X0022485Y0113062D02*
X0068700Y0113062D01*
X0068700Y0114260D02*
X0022485Y0114260D01*
X0022485Y0115459D02*
X0068700Y0115459D01*
X0068700Y0116657D02*
X0022485Y0116657D01*
X0022485Y0117856D02*
X0068700Y0117856D01*
X0068700Y0119054D02*
X0022485Y0119054D01*
X0022485Y0120253D02*
X0068835Y0120253D01*
X0068885Y0121451D02*
X0022485Y0121451D01*
X0022485Y0122650D02*
X0068885Y0122650D01*
X0068885Y0123848D02*
X0022485Y0123848D01*
X0022485Y0125047D02*
X0069145Y0125047D01*
X0077300Y0113062D02*
X0136995Y0113062D01*
X0136995Y0114260D02*
X0090221Y0114260D01*
X0090595Y0115459D02*
X0136995Y0115459D01*
X0136995Y0116657D02*
X0090595Y0116657D01*
X0090595Y0117856D02*
X0136995Y0117856D01*
X0136995Y0119054D02*
X0090595Y0119054D01*
X0090595Y0120253D02*
X0136995Y0120253D01*
X0136995Y0121451D02*
X0090595Y0121451D01*
X0090595Y0122650D02*
X0136995Y0122650D01*
X0136995Y0123848D02*
X0090595Y0123848D01*
X0090335Y0125047D02*
X0136995Y0125047D01*
X0136995Y0126245D02*
X0090143Y0126245D01*
X0090143Y0127444D02*
X0136995Y0127444D01*
X0136995Y0128642D02*
X0090143Y0128642D01*
X0090143Y0129841D02*
X0136995Y0129841D01*
X0136995Y0131039D02*
X0089966Y0131039D01*
X0089443Y0132238D02*
X0136995Y0132238D01*
X0136995Y0133436D02*
X0088245Y0133436D01*
X0087046Y0134635D02*
X0136995Y0134635D01*
X0136995Y0135833D02*
X0085848Y0135833D01*
X0084649Y0137032D02*
X0136995Y0137032D01*
X0136995Y0138230D02*
X0083451Y0138230D01*
X0081993Y0139429D02*
X0136995Y0139429D01*
X0136995Y0140627D02*
X0043054Y0140627D01*
X0041855Y0141826D02*
X0136995Y0141826D01*
X0136995Y0143024D02*
X0040657Y0143024D01*
X0039458Y0144223D02*
X0136995Y0144223D01*
X0136995Y0145421D02*
X0038300Y0145421D01*
X0038300Y0146620D02*
X0136995Y0146620D01*
X0136995Y0147818D02*
X0038300Y0147818D01*
X0038300Y0149017D02*
X0136995Y0149017D01*
X0136995Y0150215D02*
X0038300Y0150215D01*
X0038300Y0151414D02*
X0136995Y0151414D01*
X0136995Y0152612D02*
X0038300Y0152612D01*
X0038827Y0153811D02*
X0042214Y0153811D01*
X0041920Y0155009D02*
X0039020Y0155009D01*
X0039020Y0156208D02*
X0041920Y0156208D01*
X0041920Y0157406D02*
X0039020Y0157406D01*
X0039020Y0158605D02*
X0045872Y0158605D01*
X0045872Y0159680D02*
X0041920Y0159680D01*
X0041920Y0163622D01*
X0042029Y0164029D01*
X0042239Y0164393D01*
X0042537Y0164691D01*
X0042902Y0164902D01*
X0043309Y0165011D01*
X0045872Y0165011D01*
X0045872Y0159680D01*
X0045872Y0159803D02*
X0047072Y0159803D01*
X0047072Y0158605D02*
X0097131Y0158605D01*
X0097131Y0159803D02*
X0051025Y0159803D01*
X0051025Y0161002D02*
X0097131Y0161002D01*
X0097131Y0162201D02*
X0051025Y0162201D01*
X0051025Y0157406D02*
X0097131Y0157406D01*
X0097131Y0156208D02*
X0051025Y0156208D01*
X0051025Y0155009D02*
X0097748Y0155009D01*
X0098186Y0154572D02*
X0106775Y0154572D01*
X0106984Y0154780D01*
X0108255Y0154780D01*
X0108255Y0154004D01*
X0109310Y0152950D01*
X0116706Y0152950D01*
X0117761Y0154004D01*
X0117761Y0164157D01*
X0116706Y0165211D01*
X0109310Y0165211D01*
X0108255Y0164157D01*
X0108255Y0163380D01*
X0107830Y0163380D01*
X0107830Y0163416D01*
X0106775Y0164471D01*
X0098186Y0164471D01*
X0097131Y0163416D01*
X0097131Y0155626D01*
X0098186Y0154572D01*
X0097131Y0163399D02*
X0092094Y0163399D01*
X0094079Y0164598D02*
X0108696Y0164598D01*
X0108255Y0163399D02*
X0107830Y0163399D01*
X0106803Y0165796D02*
X0120913Y0165796D01*
X0120901Y0164598D02*
X0117320Y0164598D01*
X0117761Y0163399D02*
X0120460Y0163399D01*
X0120460Y0162201D02*
X0117761Y0162201D01*
X0117761Y0161002D02*
X0120460Y0161002D01*
X0120460Y0159803D02*
X0117761Y0159803D01*
X0117761Y0158605D02*
X0120460Y0158605D01*
X0120460Y0157406D02*
X0117761Y0157406D01*
X0117761Y0156208D02*
X0120460Y0156208D01*
X0120460Y0155009D02*
X0117761Y0155009D01*
X0117568Y0153811D02*
X0120653Y0153811D01*
X0120913Y0166995D02*
X0107830Y0166995D01*
X0107830Y0168193D02*
X0120913Y0168193D01*
X0120913Y0169392D02*
X0107830Y0169392D01*
X0107830Y0170590D02*
X0120913Y0170590D01*
X0120730Y0171789D02*
X0107830Y0171789D01*
X0107830Y0172987D02*
X0119532Y0172987D01*
X0118333Y0174186D02*
X0107830Y0174186D01*
X0108448Y0153811D02*
X0050731Y0153811D01*
X0047072Y0153811D02*
X0045872Y0153811D01*
X0045872Y0155009D02*
X0047072Y0155009D01*
X0047072Y0156208D02*
X0045872Y0156208D01*
X0045872Y0157406D02*
X0047072Y0157406D01*
X0047072Y0161002D02*
X0045872Y0161002D01*
X0045872Y0162201D02*
X0047072Y0162201D01*
X0047072Y0163399D02*
X0045872Y0163399D01*
X0045872Y0164598D02*
X0047072Y0164598D01*
X0042443Y0164598D02*
X0038580Y0164598D01*
X0039020Y0163399D02*
X0041920Y0163399D01*
X0041920Y0162201D02*
X0039020Y0162201D01*
X0039020Y0161002D02*
X0041920Y0161002D01*
X0041920Y0159803D02*
X0039020Y0159803D01*
X0038552Y0206545D02*
X0022485Y0206545D01*
X0022485Y0205347D02*
X0053172Y0205347D01*
X0054370Y0204148D02*
X0022485Y0204148D01*
X0022485Y0202950D02*
X0055569Y0202950D01*
X0056767Y0201751D02*
X0022485Y0201751D01*
X0022485Y0200553D02*
X0057966Y0200553D01*
X0059165Y0199354D02*
X0022485Y0199354D01*
X0022485Y0198156D02*
X0060363Y0198156D01*
X0060700Y0196957D02*
X0022485Y0196957D01*
X0022485Y0195759D02*
X0060700Y0195759D01*
X0060700Y0194560D02*
X0022485Y0194560D01*
X0022485Y0193362D02*
X0060700Y0193362D01*
X0060700Y0192163D02*
X0022485Y0192163D01*
X0022485Y0190965D02*
X0060700Y0190965D01*
X0060700Y0189766D02*
X0022485Y0189766D01*
X0022485Y0188568D02*
X0060700Y0188568D01*
X0060700Y0187369D02*
X0022485Y0187369D01*
X0022485Y0186171D02*
X0060700Y0186171D01*
X0060700Y0184972D02*
X0022485Y0184972D01*
X0022485Y0183774D02*
X0061102Y0183774D01*
X0061944Y0182575D02*
X0022485Y0182575D01*
X0022485Y0181377D02*
X0063142Y0181377D01*
X0064341Y0180178D02*
X0022485Y0180178D01*
X0022485Y0178980D02*
X0065539Y0178980D01*
X0066738Y0177781D02*
X0022485Y0177781D01*
X0022485Y0176583D02*
X0067936Y0176583D01*
X0069135Y0175384D02*
X0022485Y0175384D01*
X0022485Y0174186D02*
X0070333Y0174186D01*
X0071532Y0172987D02*
X0022485Y0172987D01*
X0022485Y0171789D02*
X0072730Y0171789D01*
X0073929Y0170590D02*
X0022485Y0170590D01*
X0022485Y0169392D02*
X0075127Y0169392D01*
X0075355Y0169164D02*
X0075355Y0169164D01*
X0076326Y0168193D02*
X0022485Y0168193D01*
X0022485Y0166995D02*
X0086700Y0166995D01*
X0083709Y0184972D02*
X0136995Y0184972D01*
X0136995Y0183774D02*
X0120160Y0183774D01*
X0122106Y0182575D02*
X0136995Y0182575D01*
X0136995Y0181377D02*
X0123304Y0181377D01*
X0124503Y0180178D02*
X0136995Y0180178D01*
X0136995Y0178980D02*
X0125701Y0178980D01*
X0126900Y0177781D02*
X0136995Y0177781D01*
X0136995Y0176583D02*
X0128098Y0176583D01*
X0129040Y0175384D02*
X0136995Y0175384D01*
X0136995Y0174186D02*
X0129513Y0174186D01*
X0129513Y0172987D02*
X0136995Y0172987D01*
X0136995Y0171789D02*
X0129513Y0171789D01*
X0129513Y0170590D02*
X0136995Y0170590D01*
X0136995Y0169392D02*
X0129513Y0169392D01*
X0129513Y0168193D02*
X0136995Y0168193D01*
X0136995Y0166995D02*
X0129513Y0166995D01*
X0129513Y0165796D02*
X0136995Y0165796D01*
X0136995Y0164598D02*
X0129524Y0164598D01*
X0129965Y0163399D02*
X0136995Y0163399D01*
X0136995Y0162201D02*
X0129965Y0162201D01*
X0129965Y0161002D02*
X0136995Y0161002D01*
X0136995Y0159803D02*
X0129965Y0159803D01*
X0129965Y0158605D02*
X0136995Y0158605D01*
X0136995Y0157406D02*
X0129965Y0157406D01*
X0129965Y0156208D02*
X0136995Y0156208D01*
X0136995Y0155009D02*
X0129965Y0155009D01*
X0129772Y0153811D02*
X0136995Y0153811D01*
X0136995Y0186171D02*
X0082510Y0186171D01*
X0081312Y0187369D02*
X0136995Y0187369D01*
X0136995Y0188568D02*
X0080113Y0188568D01*
X0078915Y0189766D02*
X0136995Y0189766D01*
X0136995Y0190965D02*
X0078300Y0190965D01*
X0078300Y0192163D02*
X0136995Y0192163D01*
X0136995Y0193362D02*
X0090583Y0193362D01*
X0090595Y0194560D02*
X0136995Y0194560D01*
X0136995Y0195759D02*
X0090595Y0195759D01*
X0090595Y0196957D02*
X0136995Y0196957D01*
X0136995Y0198156D02*
X0090595Y0198156D01*
X0090595Y0199354D02*
X0136995Y0199354D01*
X0136995Y0200553D02*
X0090595Y0200553D01*
X0090595Y0201751D02*
X0136995Y0201751D01*
X0136995Y0202950D02*
X0090595Y0202950D01*
X0090143Y0204148D02*
X0136995Y0204148D01*
X0136995Y0205347D02*
X0090143Y0205347D01*
X0090143Y0206545D02*
X0136995Y0206545D01*
X0136995Y0207744D02*
X0090143Y0207744D01*
X0090143Y0208942D02*
X0136995Y0208942D01*
X0136995Y0210141D02*
X0090143Y0210141D01*
X0090143Y0211339D02*
X0136995Y0211339D01*
X0136995Y0212538D02*
X0089759Y0212538D01*
X0088945Y0213737D02*
X0136995Y0213737D01*
X0136995Y0214935D02*
X0087746Y0214935D01*
X0088278Y0214403D02*
X0088278Y0214403D01*
X0086548Y0216134D02*
X0136995Y0216134D01*
X0136995Y0217332D02*
X0085349Y0217332D01*
X0084151Y0218531D02*
X0136995Y0218531D01*
X0136995Y0219729D02*
X0109503Y0219729D01*
X0110702Y0220928D02*
X0136995Y0220928D01*
X0136995Y0222126D02*
X0111900Y0222126D01*
X0113099Y0223325D02*
X0136995Y0223325D01*
X0136995Y0224523D02*
X0114297Y0224523D01*
X0115496Y0225722D02*
X0136995Y0225722D01*
X0136995Y0226920D02*
X0116422Y0226920D01*
X0116808Y0228119D02*
X0136995Y0228119D01*
X0136995Y0229317D02*
X0116808Y0229317D01*
X0116808Y0230516D02*
X0136995Y0230516D01*
X0136995Y0231714D02*
X0128935Y0231714D01*
X0128911Y0231690D02*
X0129965Y0232744D01*
X0129965Y0242897D01*
X0129513Y0243350D01*
X0129513Y0250243D01*
X0128858Y0251823D01*
X0122645Y0258036D01*
X0121436Y0259245D01*
X0119855Y0259900D01*
X0085781Y0259900D01*
X0077300Y0268381D01*
X0077300Y0271060D01*
X0077336Y0271060D01*
X0078391Y0272114D01*
X0078391Y0282267D01*
X0077336Y0283321D01*
X0069939Y0283321D01*
X0068885Y0282267D01*
X0068885Y0277855D01*
X0068700Y0277408D01*
X0068700Y0265745D01*
X0069355Y0264164D01*
X0070564Y0262955D01*
X0081564Y0251955D01*
X0083145Y0251300D01*
X0117219Y0251300D01*
X0120913Y0247606D01*
X0120913Y0243350D01*
X0120460Y0242897D01*
X0120460Y0232744D01*
X0121514Y0231690D01*
X0128911Y0231690D01*
X0129965Y0232913D02*
X0136995Y0232913D01*
X0136995Y0234111D02*
X0129965Y0234111D01*
X0129965Y0235310D02*
X0136995Y0235310D01*
X0136995Y0236508D02*
X0129965Y0236508D01*
X0129965Y0237707D02*
X0136995Y0237707D01*
X0136995Y0238905D02*
X0129965Y0238905D01*
X0129965Y0240104D02*
X0136995Y0240104D01*
X0136995Y0241302D02*
X0129965Y0241302D01*
X0129965Y0242501D02*
X0136995Y0242501D01*
X0136995Y0243699D02*
X0129513Y0243699D01*
X0129513Y0244898D02*
X0136995Y0244898D01*
X0136995Y0246096D02*
X0129513Y0246096D01*
X0129513Y0247295D02*
X0136995Y0247295D01*
X0136995Y0248493D02*
X0129513Y0248493D01*
X0129513Y0249692D02*
X0136995Y0249692D01*
X0136995Y0250890D02*
X0129244Y0250890D01*
X0128592Y0252089D02*
X0136995Y0252089D01*
X0136995Y0253287D02*
X0127394Y0253287D01*
X0126195Y0254486D02*
X0136995Y0254486D01*
X0136995Y0255684D02*
X0124997Y0255684D01*
X0123798Y0256883D02*
X0136995Y0256883D01*
X0136995Y0258081D02*
X0122600Y0258081D01*
X0121352Y0259280D02*
X0136995Y0259280D01*
X0136995Y0260478D02*
X0085203Y0260478D01*
X0084004Y0261677D02*
X0136995Y0261677D01*
X0136995Y0262875D02*
X0082806Y0262875D01*
X0081607Y0264074D02*
X0136995Y0264074D01*
X0136995Y0265272D02*
X0080409Y0265272D01*
X0079210Y0266471D02*
X0136995Y0266471D01*
X0136995Y0267670D02*
X0078012Y0267670D01*
X0077300Y0268868D02*
X0136995Y0268868D01*
X0136995Y0270067D02*
X0077300Y0270067D01*
X0077541Y0271265D02*
X0082660Y0271265D01*
X0082679Y0271260D02*
X0085243Y0271260D01*
X0085243Y0276591D01*
X0086442Y0276591D01*
X0086442Y0271260D01*
X0089006Y0271260D01*
X0089413Y0271369D01*
X0089778Y0271580D01*
X0090076Y0271877D01*
X0090286Y0272242D01*
X0090395Y0272649D01*
X0090395Y0276591D01*
X0086443Y0276591D01*
X0086443Y0277791D01*
X0090395Y0277791D01*
X0090395Y0281732D01*
X0090286Y0282139D01*
X0090076Y0282504D01*
X0089778Y0282802D01*
X0089413Y0283012D01*
X0089006Y0283121D01*
X0086442Y0283121D01*
X0086442Y0277791D01*
X0085243Y0277791D01*
X0085243Y0283121D01*
X0082679Y0283121D01*
X0082272Y0283012D01*
X0081907Y0282802D01*
X0081609Y0282504D01*
X0081399Y0282139D01*
X0081290Y0281732D01*
X0081290Y0277791D01*
X0085242Y0277791D01*
X0085242Y0276591D01*
X0081290Y0276591D01*
X0081290Y0272649D01*
X0081399Y0272242D01*
X0081609Y0271877D01*
X0081907Y0271580D01*
X0082272Y0271369D01*
X0082679Y0271260D01*
X0081339Y0272464D02*
X0078391Y0272464D01*
X0078391Y0273662D02*
X0081290Y0273662D01*
X0081290Y0274861D02*
X0078391Y0274861D01*
X0078391Y0276059D02*
X0081290Y0276059D01*
X0081290Y0278456D02*
X0078391Y0278456D01*
X0078391Y0277258D02*
X0085242Y0277258D01*
X0085243Y0278456D02*
X0086442Y0278456D01*
X0086443Y0277258D02*
X0136995Y0277258D01*
X0136995Y0278456D02*
X0090395Y0278456D01*
X0090395Y0279655D02*
X0136995Y0279655D01*
X0136995Y0280853D02*
X0090395Y0280853D01*
X0090310Y0282052D02*
X0136995Y0282052D01*
X0136995Y0283250D02*
X0077407Y0283250D01*
X0078391Y0282052D02*
X0081375Y0282052D01*
X0081290Y0280853D02*
X0078391Y0280853D01*
X0078391Y0279655D02*
X0081290Y0279655D01*
X0085243Y0279655D02*
X0086442Y0279655D01*
X0086442Y0280853D02*
X0085243Y0280853D01*
X0085243Y0282052D02*
X0086442Y0282052D01*
X0086442Y0276059D02*
X0085243Y0276059D01*
X0085243Y0274861D02*
X0086442Y0274861D01*
X0086442Y0273662D02*
X0085243Y0273662D01*
X0085243Y0272464D02*
X0086442Y0272464D01*
X0086442Y0271265D02*
X0085243Y0271265D01*
X0089025Y0271265D02*
X0136995Y0271265D01*
X0136995Y0272464D02*
X0090346Y0272464D01*
X0090395Y0273662D02*
X0136995Y0273662D01*
X0136995Y0274861D02*
X0090395Y0274861D01*
X0090395Y0276059D02*
X0136995Y0276059D01*
X0136995Y0284449D02*
X0039135Y0284449D01*
X0039135Y0285647D02*
X0136995Y0285647D01*
X0136995Y0286846D02*
X0039135Y0286846D01*
X0039135Y0288044D02*
X0136995Y0288044D01*
X0136995Y0289243D02*
X0039135Y0289243D01*
X0039135Y0283250D02*
X0069868Y0283250D01*
X0068885Y0282052D02*
X0039135Y0282052D01*
X0039135Y0280853D02*
X0068885Y0280853D01*
X0068885Y0279655D02*
X0039135Y0279655D01*
X0039135Y0278456D02*
X0068885Y0278456D01*
X0068700Y0277258D02*
X0039135Y0277258D01*
X0039135Y0276059D02*
X0068700Y0276059D01*
X0068700Y0274861D02*
X0039135Y0274861D01*
X0039135Y0273662D02*
X0068700Y0273662D01*
X0068700Y0272464D02*
X0039135Y0272464D01*
X0039135Y0271265D02*
X0068700Y0271265D01*
X0068700Y0270067D02*
X0039135Y0270067D01*
X0039135Y0268868D02*
X0068700Y0268868D01*
X0068700Y0267670D02*
X0039135Y0267670D01*
X0039135Y0266471D02*
X0068700Y0266471D01*
X0068896Y0265272D02*
X0039135Y0265272D01*
X0039135Y0264074D02*
X0069445Y0264074D01*
X0070643Y0262875D02*
X0039135Y0262875D01*
X0039135Y0261677D02*
X0071842Y0261677D01*
X0073040Y0260478D02*
X0039135Y0260478D01*
X0039135Y0259280D02*
X0074239Y0259280D01*
X0075437Y0258081D02*
X0039135Y0258081D01*
X0039135Y0256883D02*
X0076636Y0256883D01*
X0077834Y0255684D02*
X0039135Y0255684D01*
X0039135Y0254486D02*
X0079033Y0254486D01*
X0080231Y0253287D02*
X0039135Y0253287D01*
X0038931Y0252089D02*
X0081430Y0252089D01*
X0083402Y0247295D02*
X0120913Y0247295D01*
X0120913Y0246096D02*
X0085604Y0246096D01*
X0086945Y0244898D02*
X0120913Y0244898D01*
X0120913Y0243699D02*
X0116958Y0243699D01*
X0117761Y0242501D02*
X0120460Y0242501D01*
X0120460Y0241302D02*
X0117761Y0241302D01*
X0117761Y0240104D02*
X0120460Y0240104D01*
X0120460Y0238905D02*
X0117761Y0238905D01*
X0117761Y0237707D02*
X0120460Y0237707D01*
X0120460Y0236508D02*
X0117761Y0236508D01*
X0117761Y0235310D02*
X0120460Y0235310D01*
X0120460Y0234111D02*
X0117761Y0234111D01*
X0117761Y0232913D02*
X0120460Y0232913D01*
X0121490Y0231714D02*
X0116808Y0231714D01*
X0120026Y0248493D02*
X0035974Y0248493D01*
X0034776Y0247295D02*
X0076079Y0247295D01*
X0073876Y0246096D02*
X0033577Y0246096D01*
X0032379Y0244898D02*
X0072535Y0244898D01*
X0071473Y0243699D02*
X0050423Y0243699D01*
X0051225Y0242501D02*
X0070781Y0242501D01*
X0070218Y0241302D02*
X0051225Y0241302D01*
X0051225Y0240104D02*
X0069896Y0240104D01*
X0069641Y0238905D02*
X0051225Y0238905D01*
X0051225Y0237707D02*
X0069641Y0237707D01*
X0069641Y0236508D02*
X0051225Y0236508D01*
X0051225Y0235310D02*
X0069957Y0235310D01*
X0070279Y0234111D02*
X0051225Y0234111D01*
X0051225Y0232913D02*
X0070912Y0232913D01*
X0071604Y0231714D02*
X0050195Y0231714D01*
X0050458Y0230516D02*
X0072763Y0230516D01*
X0074270Y0229317D02*
X0051657Y0229317D01*
X0046901Y0223325D02*
X0044357Y0223325D01*
X0043158Y0224523D02*
X0045703Y0224523D01*
X0044504Y0225722D02*
X0041959Y0225722D01*
X0040761Y0226920D02*
X0043306Y0226920D01*
X0042501Y0228119D02*
X0039562Y0228119D01*
X0038364Y0229317D02*
X0042200Y0229317D01*
X0042200Y0230516D02*
X0038300Y0230516D01*
X0038300Y0231714D02*
X0042200Y0231714D01*
X0041720Y0232913D02*
X0039020Y0232913D01*
X0039020Y0234111D02*
X0041720Y0234111D01*
X0041720Y0235310D02*
X0039020Y0235310D01*
X0039020Y0236508D02*
X0041720Y0236508D01*
X0041720Y0237707D02*
X0039020Y0237707D01*
X0039020Y0238905D02*
X0041720Y0238905D01*
X0041720Y0240104D02*
X0039020Y0240104D01*
X0039020Y0241302D02*
X0041720Y0241302D01*
X0041720Y0242501D02*
X0039020Y0242501D01*
X0038218Y0243699D02*
X0042522Y0243699D01*
X0038371Y0250890D02*
X0117629Y0250890D01*
X0118827Y0249692D02*
X0037173Y0249692D01*
X0029805Y0254486D02*
X0022485Y0254486D01*
X0022485Y0255684D02*
X0030535Y0255684D01*
X0030535Y0256883D02*
X0022485Y0256883D01*
X0022485Y0258081D02*
X0030535Y0258081D01*
X0030535Y0259280D02*
X0022485Y0259280D01*
X0022485Y0260478D02*
X0030535Y0260478D01*
X0030535Y0261677D02*
X0022485Y0261677D01*
X0022485Y0262875D02*
X0030535Y0262875D01*
X0030535Y0264074D02*
X0022485Y0264074D01*
X0022485Y0265272D02*
X0030535Y0265272D01*
X0030535Y0266471D02*
X0022485Y0266471D01*
X0022485Y0267670D02*
X0030535Y0267670D01*
X0030535Y0268868D02*
X0022485Y0268868D01*
X0022485Y0270067D02*
X0030535Y0270067D01*
X0030535Y0271265D02*
X0022485Y0271265D01*
X0022485Y0272464D02*
X0030535Y0272464D01*
X0030535Y0273662D02*
X0022485Y0273662D01*
X0022485Y0274861D02*
X0030535Y0274861D01*
X0030535Y0276059D02*
X0022485Y0276059D01*
X0022485Y0277258D02*
X0030535Y0277258D01*
X0030535Y0278456D02*
X0022485Y0278456D01*
X0022485Y0279655D02*
X0030535Y0279655D01*
X0030535Y0280853D02*
X0022485Y0280853D01*
X0022485Y0282052D02*
X0030535Y0282052D01*
X0030535Y0283250D02*
X0022485Y0283250D01*
X0022485Y0284449D02*
X0030535Y0284449D01*
X0030535Y0285647D02*
X0022485Y0285647D01*
X0022485Y0286846D02*
X0030535Y0286846D01*
X0030535Y0288044D02*
X0022485Y0288044D01*
X0022485Y0289243D02*
X0030535Y0289243D01*
X0029631Y0290441D02*
X0022485Y0290441D01*
X0022485Y0291640D02*
X0029485Y0291640D01*
X0029485Y0292838D02*
X0022485Y0292838D01*
X0022485Y0294037D02*
X0029485Y0294037D01*
X0029485Y0295235D02*
X0022485Y0295235D01*
X0022485Y0296434D02*
X0029485Y0296434D01*
X0029485Y0297632D02*
X0022485Y0297632D01*
X0022485Y0298831D02*
X0029939Y0298831D01*
X0030540Y0300729D02*
X0039129Y0300729D01*
X0040184Y0301784D01*
X0040184Y0309574D01*
X0039129Y0310628D01*
X0038568Y0310628D01*
X0038568Y0311032D01*
X0039020Y0311484D01*
X0039020Y0321637D01*
X0037966Y0322691D01*
X0030569Y0322691D01*
X0029515Y0321637D01*
X0029515Y0311484D01*
X0029968Y0311032D01*
X0029968Y0310056D01*
X0029485Y0309574D01*
X0029485Y0301784D01*
X0030540Y0300729D01*
X0030041Y0301228D02*
X0022485Y0301228D01*
X0022485Y0302426D02*
X0029485Y0302426D01*
X0029485Y0303625D02*
X0022485Y0303625D01*
X0022485Y0304823D02*
X0029485Y0304823D01*
X0029485Y0306022D02*
X0022485Y0306022D01*
X0022485Y0307220D02*
X0029485Y0307220D01*
X0029485Y0308419D02*
X0022485Y0308419D01*
X0022485Y0309617D02*
X0029529Y0309617D01*
X0029968Y0310816D02*
X0022485Y0310816D01*
X0022485Y0312014D02*
X0029515Y0312014D01*
X0029515Y0313213D02*
X0022485Y0313213D01*
X0022485Y0314411D02*
X0029515Y0314411D01*
X0029515Y0315610D02*
X0022485Y0315610D01*
X0022485Y0316808D02*
X0029515Y0316808D01*
X0029515Y0318007D02*
X0022485Y0318007D01*
X0022485Y0319205D02*
X0029515Y0319205D01*
X0029515Y0320404D02*
X0022485Y0320404D01*
X0022485Y0321603D02*
X0029515Y0321603D01*
X0022485Y0322801D02*
X0120718Y0322801D01*
X0120913Y0322606D02*
X0120219Y0323300D01*
X0081145Y0323300D01*
X0079564Y0323955D01*
X0070564Y0332955D01*
X0069355Y0334164D01*
X0068700Y0335745D01*
X0068700Y0356148D01*
X0068885Y0356595D01*
X0068885Y0361007D01*
X0069939Y0362061D01*
X0077336Y0362061D01*
X0078391Y0361007D01*
X0078391Y0350854D01*
X0077336Y0349800D01*
X0077300Y0349800D01*
X0077300Y0338381D01*
X0083781Y0331900D01*
X0122855Y0331900D01*
X0124436Y0331245D01*
X0125645Y0330036D01*
X0128858Y0326823D01*
X0129513Y0325243D01*
X0129513Y0322090D01*
X0129965Y0321637D01*
X0129965Y0311484D01*
X0128911Y0310430D01*
X0121514Y0310430D01*
X0120460Y0311484D01*
X0120460Y0321637D01*
X0120913Y0322090D01*
X0120913Y0322606D01*
X0120460Y0321603D02*
X0117761Y0321603D01*
X0117761Y0321637D02*
X0116706Y0322691D01*
X0109310Y0322691D01*
X0108255Y0321637D01*
X0108255Y0320861D01*
X0051225Y0320861D01*
X0051225Y0321637D01*
X0050171Y0322691D01*
X0042774Y0322691D01*
X0041720Y0321637D01*
X0041720Y0311484D01*
X0042774Y0310430D01*
X0050171Y0310430D01*
X0051225Y0311484D01*
X0051225Y0312261D01*
X0108255Y0312261D01*
X0108255Y0311484D01*
X0109310Y0310430D01*
X0116706Y0310430D01*
X0117761Y0311484D01*
X0117761Y0321637D01*
X0117761Y0320404D02*
X0120460Y0320404D01*
X0120460Y0319205D02*
X0117761Y0319205D01*
X0117761Y0318007D02*
X0120460Y0318007D01*
X0120460Y0316808D02*
X0117761Y0316808D01*
X0117761Y0315610D02*
X0120460Y0315610D01*
X0120460Y0314411D02*
X0117761Y0314411D01*
X0117761Y0313213D02*
X0120460Y0313213D01*
X0120460Y0312014D02*
X0117761Y0312014D01*
X0117092Y0310816D02*
X0121128Y0310816D01*
X0125689Y0329992D02*
X0136995Y0329992D01*
X0136995Y0328794D02*
X0126888Y0328794D01*
X0128086Y0327595D02*
X0136995Y0327595D01*
X0136995Y0326397D02*
X0129035Y0326397D01*
X0129513Y0325198D02*
X0136995Y0325198D01*
X0136995Y0324000D02*
X0129513Y0324000D01*
X0129513Y0322801D02*
X0136995Y0322801D01*
X0136995Y0321603D02*
X0129965Y0321603D01*
X0129965Y0320404D02*
X0136995Y0320404D01*
X0136995Y0319205D02*
X0129965Y0319205D01*
X0129965Y0318007D02*
X0136995Y0318007D01*
X0136995Y0316808D02*
X0129965Y0316808D01*
X0129965Y0315610D02*
X0136995Y0315610D01*
X0136995Y0314411D02*
X0129965Y0314411D01*
X0129965Y0313213D02*
X0136995Y0313213D01*
X0136995Y0312014D02*
X0129965Y0312014D01*
X0129297Y0310816D02*
X0136995Y0310816D01*
X0136995Y0309617D02*
X0040140Y0309617D01*
X0040184Y0308419D02*
X0136995Y0308419D01*
X0136995Y0307220D02*
X0040184Y0307220D01*
X0040184Y0306022D02*
X0136995Y0306022D01*
X0136995Y0304823D02*
X0040184Y0304823D01*
X0040184Y0303625D02*
X0136995Y0303625D01*
X0136995Y0302426D02*
X0040184Y0302426D01*
X0039628Y0301228D02*
X0136995Y0301228D01*
X0136995Y0300029D02*
X0022485Y0300029D01*
X0022485Y0324000D02*
X0079519Y0324000D01*
X0078321Y0325198D02*
X0022485Y0325198D01*
X0022485Y0326397D02*
X0077122Y0326397D01*
X0075924Y0327595D02*
X0022485Y0327595D01*
X0022485Y0328794D02*
X0074725Y0328794D01*
X0073527Y0329992D02*
X0022485Y0329992D01*
X0022485Y0331191D02*
X0072328Y0331191D01*
X0071130Y0332389D02*
X0022485Y0332389D01*
X0022485Y0333588D02*
X0069931Y0333588D01*
X0069097Y0334786D02*
X0022485Y0334786D01*
X0022485Y0335985D02*
X0068700Y0335985D01*
X0068700Y0337183D02*
X0022485Y0337183D01*
X0022485Y0338382D02*
X0068700Y0338382D01*
X0068700Y0339580D02*
X0022485Y0339580D01*
X0022485Y0340779D02*
X0068700Y0340779D01*
X0068700Y0341977D02*
X0022485Y0341977D01*
X0022485Y0343176D02*
X0068700Y0343176D01*
X0068700Y0344374D02*
X0022485Y0344374D01*
X0022485Y0345573D02*
X0068700Y0345573D01*
X0068700Y0346771D02*
X0022485Y0346771D01*
X0022485Y0347970D02*
X0068700Y0347970D01*
X0068700Y0349168D02*
X0022485Y0349168D01*
X0022485Y0350367D02*
X0068700Y0350367D01*
X0068700Y0351565D02*
X0022485Y0351565D01*
X0022485Y0352764D02*
X0068700Y0352764D01*
X0068700Y0353962D02*
X0022485Y0353962D01*
X0022485Y0355161D02*
X0068700Y0355161D01*
X0068787Y0356359D02*
X0022485Y0356359D01*
X0022485Y0357558D02*
X0068885Y0357558D01*
X0068885Y0358756D02*
X0022485Y0358756D01*
X0022485Y0359955D02*
X0068885Y0359955D01*
X0069031Y0361153D02*
X0022485Y0361153D01*
X0022485Y0362352D02*
X0081543Y0362352D01*
X0081543Y0361460D02*
X0081090Y0361007D01*
X0081090Y0350854D01*
X0082144Y0349800D01*
X0089541Y0349800D01*
X0090595Y0350854D01*
X0090595Y0361007D01*
X0090143Y0361460D01*
X0090143Y0368613D01*
X0089488Y0370193D01*
X0082645Y0377036D01*
X0081436Y0378245D01*
X0079855Y0378900D01*
X0044781Y0378900D01*
X0038300Y0385381D01*
X0038300Y0389504D01*
X0039020Y0390224D01*
X0039020Y0400377D01*
X0037966Y0401431D01*
X0030569Y0401431D01*
X0029515Y0400377D01*
X0029515Y0390224D01*
X0029700Y0390039D01*
X0029700Y0382745D01*
X0030355Y0381164D01*
X0031564Y0379955D01*
X0040564Y0370955D01*
X0042145Y0370300D01*
X0077219Y0370300D01*
X0081543Y0365976D01*
X0081543Y0361460D01*
X0081236Y0361153D02*
X0078244Y0361153D01*
X0078391Y0359955D02*
X0081090Y0359955D01*
X0081090Y0358756D02*
X0078391Y0358756D01*
X0078391Y0357558D02*
X0081090Y0357558D01*
X0081090Y0356359D02*
X0078391Y0356359D01*
X0078391Y0355161D02*
X0081090Y0355161D01*
X0081090Y0353962D02*
X0078391Y0353962D01*
X0078391Y0352764D02*
X0081090Y0352764D01*
X0081090Y0351565D02*
X0078391Y0351565D01*
X0077903Y0350367D02*
X0081577Y0350367D01*
X0081543Y0363550D02*
X0022485Y0363550D01*
X0022485Y0364749D02*
X0081543Y0364749D01*
X0081543Y0365947D02*
X0022485Y0365947D01*
X0022485Y0367146D02*
X0080373Y0367146D01*
X0079174Y0368344D02*
X0022485Y0368344D01*
X0022485Y0369543D02*
X0077976Y0369543D01*
X0081749Y0377933D02*
X0136995Y0377933D01*
X0136995Y0379131D02*
X0044550Y0379131D01*
X0043352Y0380330D02*
X0136995Y0380330D01*
X0136995Y0381528D02*
X0042153Y0381528D01*
X0040955Y0382727D02*
X0136995Y0382727D01*
X0136995Y0383925D02*
X0039756Y0383925D01*
X0038557Y0385124D02*
X0136995Y0385124D01*
X0136995Y0386322D02*
X0038300Y0386322D01*
X0038300Y0387521D02*
X0136995Y0387521D01*
X0136995Y0388719D02*
X0038300Y0388719D01*
X0038714Y0389918D02*
X0042027Y0389918D01*
X0041720Y0390224D02*
X0042774Y0389170D01*
X0050171Y0389170D01*
X0051225Y0390224D01*
X0051225Y0391001D01*
X0108255Y0391001D01*
X0108255Y0390224D01*
X0109310Y0389170D01*
X0116706Y0389170D01*
X0117761Y0390224D01*
X0117761Y0400377D01*
X0116706Y0401431D01*
X0109310Y0401431D01*
X0108255Y0400377D01*
X0108255Y0399601D01*
X0051225Y0399601D01*
X0051225Y0400377D01*
X0050171Y0401431D01*
X0042774Y0401431D01*
X0041720Y0400377D01*
X0041720Y0390224D01*
X0041720Y0391116D02*
X0039020Y0391116D01*
X0039020Y0392315D02*
X0041720Y0392315D01*
X0041720Y0393513D02*
X0039020Y0393513D01*
X0039020Y0394712D02*
X0041720Y0394712D01*
X0041720Y0395910D02*
X0039020Y0395910D01*
X0039020Y0397109D02*
X0041720Y0397109D01*
X0041720Y0398307D02*
X0039020Y0398307D01*
X0039020Y0399506D02*
X0041720Y0399506D01*
X0042047Y0400704D02*
X0038693Y0400704D01*
X0032388Y0379131D02*
X0022485Y0379131D01*
X0022485Y0377933D02*
X0033586Y0377933D01*
X0034785Y0376734D02*
X0022485Y0376734D01*
X0022485Y0375536D02*
X0035983Y0375536D01*
X0037182Y0374337D02*
X0022485Y0374337D01*
X0022485Y0373139D02*
X0038380Y0373139D01*
X0039579Y0371940D02*
X0022485Y0371940D01*
X0022485Y0370741D02*
X0041079Y0370741D01*
X0031189Y0380330D02*
X0022485Y0380330D01*
X0022485Y0381528D02*
X0030204Y0381528D01*
X0029707Y0382727D02*
X0022485Y0382727D01*
X0022485Y0383925D02*
X0029700Y0383925D01*
X0029700Y0385124D02*
X0022485Y0385124D01*
X0022485Y0386322D02*
X0029700Y0386322D01*
X0029700Y0387521D02*
X0022485Y0387521D01*
X0022485Y0388719D02*
X0029700Y0388719D01*
X0029700Y0389918D02*
X0022485Y0389918D01*
X0022485Y0391116D02*
X0029515Y0391116D01*
X0029515Y0392315D02*
X0022485Y0392315D01*
X0022485Y0393513D02*
X0029515Y0393513D01*
X0029515Y0394712D02*
X0022485Y0394712D01*
X0022485Y0395910D02*
X0029515Y0395910D01*
X0029515Y0397109D02*
X0022485Y0397109D01*
X0022485Y0398307D02*
X0029515Y0398307D01*
X0029515Y0399506D02*
X0022485Y0399506D01*
X0022485Y0400704D02*
X0029842Y0400704D01*
X0022485Y0401903D02*
X0136995Y0401903D01*
X0136995Y0403101D02*
X0022485Y0403101D01*
X0022485Y0404300D02*
X0136995Y0404300D01*
X0136995Y0405498D02*
X0022485Y0405498D01*
X0022485Y0406697D02*
X0136995Y0406697D01*
X0136995Y0407895D02*
X0022485Y0407895D01*
X0022485Y0409094D02*
X0136995Y0409094D01*
X0136995Y0410292D02*
X0022485Y0410292D01*
X0022485Y0411491D02*
X0136995Y0411491D01*
X0136995Y0412689D02*
X0065795Y0412689D01*
X0066436Y0412955D02*
X0064855Y0412300D01*
X0063145Y0412300D01*
X0061564Y0412955D01*
X0060355Y0414164D01*
X0059700Y0415745D01*
X0059700Y0417455D01*
X0059850Y0417816D01*
X0059850Y0418537D01*
X0058800Y0419587D01*
X0058800Y0427377D01*
X0059855Y0428431D01*
X0068444Y0428431D01*
X0069499Y0427377D01*
X0069499Y0419587D01*
X0068450Y0418537D01*
X0068450Y0415894D01*
X0067795Y0414314D01*
X0066436Y0412955D01*
X0067369Y0413888D02*
X0136995Y0413888D01*
X0136995Y0415086D02*
X0068115Y0415086D01*
X0068450Y0416285D02*
X0136995Y0416285D01*
X0136995Y0417483D02*
X0068450Y0417483D01*
X0068594Y0418682D02*
X0136995Y0418682D01*
X0136995Y0419880D02*
X0069499Y0419880D01*
X0069499Y0421079D02*
X0136995Y0421079D01*
X0136995Y0422277D02*
X0069499Y0422277D01*
X0069499Y0423476D02*
X0136995Y0423476D01*
X0136995Y0424674D02*
X0069499Y0424674D01*
X0069499Y0425873D02*
X0136995Y0425873D01*
X0136995Y0427072D02*
X0069499Y0427072D01*
X0068606Y0428270D02*
X0136995Y0428270D01*
X0136995Y0429469D02*
X0090469Y0429469D01*
X0090595Y0429595D02*
X0090595Y0439747D01*
X0090143Y0440200D01*
X0090143Y0446613D01*
X0089488Y0448193D01*
X0081381Y0456300D01*
X0091855Y0456300D01*
X0093436Y0456955D01*
X0094645Y0458164D01*
X0106222Y0469741D01*
X0108255Y0469741D01*
X0108255Y0468965D01*
X0109310Y0467910D01*
X0116706Y0467910D01*
X0117761Y0468965D01*
X0117761Y0479117D01*
X0116706Y0480172D01*
X0109310Y0480172D01*
X0108255Y0479117D01*
X0108255Y0478341D01*
X0103586Y0478341D01*
X0102005Y0477686D01*
X0089219Y0464900D01*
X0084106Y0464900D01*
X0085941Y0465960D01*
X0087822Y0467840D01*
X0089151Y0470143D01*
X0089839Y0472711D01*
X0089839Y0475371D01*
X0089151Y0477939D01*
X0087822Y0480242D01*
X0085941Y0482122D01*
X0085633Y0482300D01*
X0119219Y0482300D01*
X0120913Y0480606D01*
X0120913Y0479570D01*
X0120460Y0479117D01*
X0120460Y0468965D01*
X0121514Y0467910D01*
X0128911Y0467910D01*
X0129965Y0468965D01*
X0129965Y0479117D01*
X0129513Y0479570D01*
X0129513Y0483243D01*
X0128858Y0484823D01*
X0124645Y0489036D01*
X0123436Y0490245D01*
X0121855Y0490900D01*
X0086781Y0490900D01*
X0078300Y0499381D01*
X0078300Y0508244D01*
X0078391Y0508335D01*
X0078391Y0518487D01*
X0077336Y0519542D01*
X0069939Y0519542D01*
X0068885Y0518487D01*
X0068885Y0508335D01*
X0069700Y0507520D01*
X0069700Y0496745D01*
X0070355Y0495164D01*
X0071564Y0493955D01*
X0081492Y0484027D01*
X0081070Y0484140D01*
X0078411Y0484140D01*
X0075842Y0483452D01*
X0073539Y0482122D01*
X0071659Y0480242D01*
X0070329Y0477939D01*
X0069641Y0475371D01*
X0069641Y0472711D01*
X0070329Y0470143D01*
X0071659Y0467840D01*
X0073539Y0465960D01*
X0075374Y0464900D01*
X0052781Y0464900D01*
X0051300Y0466381D01*
X0051300Y0474369D01*
X0051225Y0474549D01*
X0051225Y0479117D01*
X0050171Y0480172D01*
X0042774Y0480172D01*
X0041720Y0479117D01*
X0041720Y0468965D01*
X0042700Y0467984D01*
X0042700Y0463745D01*
X0043355Y0462164D01*
X0044564Y0460955D01*
X0046619Y0458900D01*
X0044781Y0458900D01*
X0038300Y0465381D01*
X0038300Y0468244D01*
X0039020Y0468965D01*
X0039020Y0479117D01*
X0037966Y0480172D01*
X0030569Y0480172D01*
X0029515Y0479117D01*
X0029515Y0468965D01*
X0029700Y0468780D01*
X0029700Y0462745D01*
X0030355Y0461164D01*
X0031564Y0459955D01*
X0040564Y0450955D01*
X0042145Y0450300D01*
X0075219Y0450300D01*
X0081543Y0443976D01*
X0081543Y0440200D01*
X0081090Y0439747D01*
X0081090Y0429595D01*
X0082144Y0428540D01*
X0089541Y0428540D01*
X0090595Y0429595D01*
X0090595Y0430667D02*
X0136995Y0430667D01*
X0136995Y0431866D02*
X0090595Y0431866D01*
X0090595Y0433064D02*
X0136995Y0433064D01*
X0136995Y0434263D02*
X0090595Y0434263D01*
X0090595Y0435461D02*
X0136995Y0435461D01*
X0136995Y0436660D02*
X0090595Y0436660D01*
X0090595Y0437858D02*
X0136995Y0437858D01*
X0136995Y0439057D02*
X0090595Y0439057D01*
X0090143Y0440255D02*
X0136995Y0440255D01*
X0136995Y0441454D02*
X0090143Y0441454D01*
X0090143Y0442652D02*
X0136995Y0442652D01*
X0136995Y0443851D02*
X0090143Y0443851D01*
X0090143Y0445049D02*
X0136995Y0445049D01*
X0136995Y0446248D02*
X0090143Y0446248D01*
X0089797Y0447446D02*
X0136995Y0447446D01*
X0136995Y0448645D02*
X0089036Y0448645D01*
X0087838Y0449843D02*
X0136995Y0449843D01*
X0136995Y0451042D02*
X0086639Y0451042D01*
X0085441Y0452240D02*
X0136995Y0452240D01*
X0136995Y0453439D02*
X0084242Y0453439D01*
X0083044Y0454637D02*
X0136995Y0454637D01*
X0136995Y0455836D02*
X0081845Y0455836D01*
X0079271Y0446248D02*
X0022485Y0446248D01*
X0022485Y0447446D02*
X0078073Y0447446D01*
X0076874Y0448645D02*
X0022485Y0448645D01*
X0022485Y0449843D02*
X0075676Y0449843D01*
X0077336Y0440802D02*
X0069939Y0440802D01*
X0068885Y0439747D01*
X0068885Y0439188D01*
X0068444Y0439628D01*
X0059855Y0439628D01*
X0058800Y0438574D01*
X0058800Y0430784D01*
X0059855Y0429729D01*
X0068444Y0429729D01*
X0068885Y0430170D01*
X0068885Y0429595D01*
X0069939Y0428540D01*
X0077336Y0428540D01*
X0078391Y0429595D01*
X0078391Y0439747D01*
X0077336Y0440802D01*
X0077883Y0440255D02*
X0081543Y0440255D01*
X0081543Y0441454D02*
X0022485Y0441454D01*
X0022485Y0442652D02*
X0081543Y0442652D01*
X0081543Y0443851D02*
X0022485Y0443851D01*
X0022485Y0445049D02*
X0080470Y0445049D01*
X0081090Y0439057D02*
X0078391Y0439057D01*
X0078391Y0437858D02*
X0081090Y0437858D01*
X0081090Y0436660D02*
X0078391Y0436660D01*
X0078391Y0435461D02*
X0081090Y0435461D01*
X0081090Y0434263D02*
X0078391Y0434263D01*
X0078391Y0433064D02*
X0081090Y0433064D01*
X0081090Y0431866D02*
X0078391Y0431866D01*
X0078391Y0430667D02*
X0081090Y0430667D01*
X0081216Y0429469D02*
X0078265Y0429469D01*
X0069011Y0429469D02*
X0022485Y0429469D01*
X0022485Y0430667D02*
X0058917Y0430667D01*
X0058800Y0431866D02*
X0022485Y0431866D01*
X0022485Y0433064D02*
X0058800Y0433064D01*
X0058800Y0434263D02*
X0022485Y0434263D01*
X0022485Y0435461D02*
X0058800Y0435461D01*
X0058800Y0436660D02*
X0022485Y0436660D01*
X0022485Y0437858D02*
X0058800Y0437858D01*
X0059283Y0439057D02*
X0022485Y0439057D01*
X0022485Y0440255D02*
X0069393Y0440255D01*
X0074467Y0465424D02*
X0052257Y0465424D01*
X0051300Y0466622D02*
X0072876Y0466622D01*
X0071678Y0467821D02*
X0051300Y0467821D01*
X0051300Y0469019D02*
X0070978Y0469019D01*
X0070309Y0470218D02*
X0051300Y0470218D01*
X0051300Y0471416D02*
X0069988Y0471416D01*
X0069667Y0472615D02*
X0051300Y0472615D01*
X0051300Y0473813D02*
X0069641Y0473813D01*
X0069641Y0475012D02*
X0051225Y0475012D01*
X0051225Y0476210D02*
X0069866Y0476210D01*
X0070187Y0477409D02*
X0051225Y0477409D01*
X0051225Y0478608D02*
X0070715Y0478608D01*
X0071407Y0479806D02*
X0050536Y0479806D01*
X0043691Y0461828D02*
X0041853Y0461828D01*
X0042997Y0463027D02*
X0040654Y0463027D01*
X0039456Y0464225D02*
X0042700Y0464225D01*
X0042700Y0465424D02*
X0038300Y0465424D01*
X0038300Y0466622D02*
X0042700Y0466622D01*
X0042700Y0467821D02*
X0038300Y0467821D01*
X0039020Y0469019D02*
X0041720Y0469019D01*
X0041720Y0470218D02*
X0039020Y0470218D01*
X0039020Y0471416D02*
X0041720Y0471416D01*
X0041720Y0472615D02*
X0039020Y0472615D01*
X0039020Y0473813D02*
X0041720Y0473813D01*
X0041720Y0475012D02*
X0039020Y0475012D01*
X0039020Y0476210D02*
X0041720Y0476210D01*
X0041720Y0477409D02*
X0039020Y0477409D01*
X0039020Y0478608D02*
X0041720Y0478608D01*
X0042408Y0479806D02*
X0038332Y0479806D01*
X0043051Y0460630D02*
X0044889Y0460630D01*
X0044250Y0459431D02*
X0046088Y0459431D01*
X0040477Y0451042D02*
X0022485Y0451042D01*
X0022485Y0452240D02*
X0039279Y0452240D01*
X0038080Y0453439D02*
X0022485Y0453439D01*
X0022485Y0454637D02*
X0036882Y0454637D01*
X0035683Y0455836D02*
X0022485Y0455836D01*
X0022485Y0457034D02*
X0034485Y0457034D01*
X0033286Y0458233D02*
X0022485Y0458233D01*
X0022485Y0459431D02*
X0032088Y0459431D01*
X0030889Y0460630D02*
X0022485Y0460630D01*
X0022485Y0461828D02*
X0030080Y0461828D01*
X0029700Y0463027D02*
X0022485Y0463027D01*
X0022485Y0464225D02*
X0029700Y0464225D01*
X0029700Y0465424D02*
X0022485Y0465424D01*
X0022485Y0466622D02*
X0029700Y0466622D01*
X0029700Y0467821D02*
X0022485Y0467821D01*
X0022485Y0469019D02*
X0029515Y0469019D01*
X0029515Y0470218D02*
X0022485Y0470218D01*
X0022485Y0471416D02*
X0029515Y0471416D01*
X0029515Y0472615D02*
X0022485Y0472615D01*
X0022485Y0473813D02*
X0029515Y0473813D01*
X0029515Y0475012D02*
X0022485Y0475012D01*
X0022485Y0476210D02*
X0029515Y0476210D01*
X0029515Y0477409D02*
X0022485Y0477409D01*
X0022485Y0478608D02*
X0029515Y0478608D01*
X0030204Y0479806D02*
X0022485Y0479806D01*
X0022485Y0481005D02*
X0072421Y0481005D01*
X0073679Y0482203D02*
X0022485Y0482203D01*
X0022485Y0483402D02*
X0075755Y0483402D01*
X0076125Y0489394D02*
X0022485Y0489394D01*
X0022485Y0488196D02*
X0077323Y0488196D01*
X0078522Y0486997D02*
X0022485Y0486997D01*
X0022485Y0485799D02*
X0079720Y0485799D01*
X0080919Y0484600D02*
X0022485Y0484600D01*
X0022485Y0490593D02*
X0074926Y0490593D01*
X0073728Y0491791D02*
X0022485Y0491791D01*
X0022494Y0492990D02*
X0072529Y0492990D01*
X0071331Y0494188D02*
X0023693Y0494188D01*
X0024891Y0495387D02*
X0070263Y0495387D01*
X0069766Y0496585D02*
X0026090Y0496585D01*
X0027288Y0497784D02*
X0069700Y0497784D01*
X0069700Y0498982D02*
X0028487Y0498982D01*
X0029685Y0500181D02*
X0069700Y0500181D01*
X0069700Y0501379D02*
X0030884Y0501379D01*
X0032082Y0502578D02*
X0069700Y0502578D01*
X0069700Y0503776D02*
X0033281Y0503776D01*
X0034479Y0504975D02*
X0069700Y0504975D01*
X0069700Y0506173D02*
X0035678Y0506173D01*
X0036876Y0507372D02*
X0069700Y0507372D01*
X0068885Y0508570D02*
X0038075Y0508570D01*
X0039273Y0509769D02*
X0068885Y0509769D01*
X0068885Y0510967D02*
X0040472Y0510967D01*
X0041670Y0512166D02*
X0068885Y0512166D01*
X0068885Y0513364D02*
X0042869Y0513364D01*
X0044067Y0514563D02*
X0068885Y0514563D01*
X0068885Y0515761D02*
X0045266Y0515761D01*
X0046464Y0516960D02*
X0068885Y0516960D01*
X0068885Y0518158D02*
X0047663Y0518158D01*
X0048862Y0519357D02*
X0069755Y0519357D01*
X0073539Y0525015D02*
X0071659Y0526895D01*
X0070329Y0529198D01*
X0069641Y0531766D01*
X0069641Y0534426D01*
X0070329Y0536994D01*
X0071659Y0539297D01*
X0073539Y0541177D01*
X0075842Y0542507D01*
X0078411Y0543195D01*
X0081070Y0543195D01*
X0083638Y0542507D01*
X0085941Y0541177D01*
X0087822Y0539297D01*
X0089151Y0536994D01*
X0089839Y0534426D01*
X0089839Y0531766D01*
X0089151Y0529198D01*
X0087822Y0526895D01*
X0085941Y0525015D01*
X0083638Y0523685D01*
X0081070Y0522997D01*
X0078411Y0522997D01*
X0075842Y0523685D01*
X0073539Y0525015D01*
X0073204Y0525349D02*
X0054854Y0525349D01*
X0053656Y0524151D02*
X0075035Y0524151D01*
X0072006Y0526548D02*
X0056053Y0526548D01*
X0057251Y0527746D02*
X0071167Y0527746D01*
X0070475Y0528945D02*
X0058450Y0528945D01*
X0059648Y0530143D02*
X0070076Y0530143D01*
X0069755Y0531342D02*
X0060847Y0531342D01*
X0062045Y0532541D02*
X0069641Y0532541D01*
X0069641Y0533739D02*
X0063244Y0533739D01*
X0064442Y0534938D02*
X0069778Y0534938D01*
X0070099Y0536136D02*
X0065641Y0536136D01*
X0066839Y0537335D02*
X0070526Y0537335D01*
X0071218Y0538533D02*
X0068038Y0538533D01*
X0069236Y0539732D02*
X0072093Y0539732D01*
X0073292Y0540930D02*
X0070435Y0540930D01*
X0071633Y0542129D02*
X0075187Y0542129D01*
X0074030Y0544526D02*
X0085450Y0544526D01*
X0084252Y0545724D02*
X0075229Y0545724D01*
X0076427Y0546923D02*
X0083053Y0546923D01*
X0081855Y0548121D02*
X0077626Y0548121D01*
X0078824Y0549320D02*
X0080656Y0549320D01*
X0084294Y0542129D02*
X0087847Y0542129D01*
X0086649Y0543327D02*
X0072832Y0543327D01*
X0077521Y0519357D02*
X0110619Y0519357D01*
X0111817Y0518158D02*
X0090340Y0518158D01*
X0090286Y0518359D02*
X0090076Y0518724D01*
X0089778Y0519022D01*
X0089413Y0519233D01*
X0089006Y0519342D01*
X0086442Y0519342D01*
X0086442Y0514011D01*
X0085243Y0514011D01*
X0085243Y0519342D01*
X0082679Y0519342D01*
X0082272Y0519233D01*
X0081907Y0519022D01*
X0081609Y0518724D01*
X0081399Y0518359D01*
X0081290Y0517952D01*
X0081290Y0514011D01*
X0085242Y0514011D01*
X0085242Y0512811D01*
X0081290Y0512811D01*
X0081290Y0508870D01*
X0081399Y0508463D01*
X0081609Y0508098D01*
X0081907Y0507800D01*
X0082272Y0507589D01*
X0082679Y0507480D01*
X0085243Y0507480D01*
X0085243Y0512811D01*
X0086442Y0512811D01*
X0086442Y0507480D01*
X0089006Y0507480D01*
X0089413Y0507589D01*
X0089778Y0507800D01*
X0090076Y0508098D01*
X0090286Y0508463D01*
X0090395Y0508870D01*
X0090395Y0512811D01*
X0086443Y0512811D01*
X0086443Y0514011D01*
X0090395Y0514011D01*
X0090395Y0517952D01*
X0090286Y0518359D01*
X0090395Y0516960D02*
X0113016Y0516960D01*
X0114214Y0515761D02*
X0090395Y0515761D01*
X0090395Y0514563D02*
X0115413Y0514563D01*
X0116611Y0513364D02*
X0086443Y0513364D01*
X0086442Y0512166D02*
X0085243Y0512166D01*
X0085242Y0513364D02*
X0078391Y0513364D01*
X0078391Y0512166D02*
X0081290Y0512166D01*
X0081290Y0510967D02*
X0078391Y0510967D01*
X0078391Y0509769D02*
X0081290Y0509769D01*
X0081370Y0508570D02*
X0078391Y0508570D01*
X0078300Y0507372D02*
X0122604Y0507372D01*
X0121405Y0508570D02*
X0090315Y0508570D01*
X0090395Y0509769D02*
X0120207Y0509769D01*
X0119008Y0510967D02*
X0090395Y0510967D01*
X0090395Y0512166D02*
X0117810Y0512166D01*
X0122597Y0490593D02*
X0136995Y0490593D01*
X0136995Y0491791D02*
X0085890Y0491791D01*
X0084691Y0492990D02*
X0136986Y0492990D01*
X0135788Y0494188D02*
X0083493Y0494188D01*
X0082294Y0495387D02*
X0134589Y0495387D01*
X0133390Y0496585D02*
X0081096Y0496585D01*
X0079897Y0497784D02*
X0132192Y0497784D01*
X0130993Y0498982D02*
X0078699Y0498982D01*
X0078300Y0500181D02*
X0129795Y0500181D01*
X0128596Y0501379D02*
X0078300Y0501379D01*
X0078300Y0502578D02*
X0127398Y0502578D01*
X0126199Y0503776D02*
X0078300Y0503776D01*
X0078300Y0504975D02*
X0125001Y0504975D01*
X0123802Y0506173D02*
X0078300Y0506173D01*
X0078391Y0514563D02*
X0081290Y0514563D01*
X0081290Y0515761D02*
X0078391Y0515761D01*
X0078391Y0516960D02*
X0081290Y0516960D01*
X0081345Y0518158D02*
X0078391Y0518158D01*
X0085243Y0518158D02*
X0086442Y0518158D01*
X0086442Y0516960D02*
X0085243Y0516960D01*
X0085243Y0515761D02*
X0086442Y0515761D01*
X0086442Y0514563D02*
X0085243Y0514563D01*
X0085243Y0510967D02*
X0086442Y0510967D01*
X0086442Y0509769D02*
X0085243Y0509769D01*
X0085243Y0508570D02*
X0086442Y0508570D01*
X0084445Y0524151D02*
X0105825Y0524151D01*
X0107023Y0522952D02*
X0052457Y0522952D01*
X0051259Y0521754D02*
X0108222Y0521754D01*
X0109420Y0520555D02*
X0050060Y0520555D01*
X0059693Y0428270D02*
X0022485Y0428270D01*
X0022485Y0427072D02*
X0058800Y0427072D01*
X0058800Y0425873D02*
X0022485Y0425873D01*
X0022485Y0424674D02*
X0058800Y0424674D01*
X0058800Y0423476D02*
X0022485Y0423476D01*
X0022485Y0422277D02*
X0058800Y0422277D01*
X0058800Y0421079D02*
X0022485Y0421079D01*
X0022485Y0419880D02*
X0058800Y0419880D01*
X0059705Y0418682D02*
X0022485Y0418682D01*
X0022485Y0417483D02*
X0059712Y0417483D01*
X0059700Y0416285D02*
X0022485Y0416285D01*
X0022485Y0415086D02*
X0059973Y0415086D01*
X0060631Y0413888D02*
X0022485Y0413888D01*
X0022485Y0412689D02*
X0062205Y0412689D01*
X0050898Y0400704D02*
X0108582Y0400704D01*
X0108562Y0389918D02*
X0050918Y0389918D01*
X0051225Y0321603D02*
X0108255Y0321603D01*
X0108255Y0312014D02*
X0051225Y0312014D01*
X0050557Y0310816D02*
X0108924Y0310816D01*
X0124490Y0331191D02*
X0136995Y0331191D01*
X0136995Y0332389D02*
X0083292Y0332389D01*
X0082093Y0333588D02*
X0136995Y0333588D01*
X0136995Y0334786D02*
X0080895Y0334786D01*
X0079696Y0335985D02*
X0136995Y0335985D01*
X0136995Y0337183D02*
X0078498Y0337183D01*
X0077300Y0338382D02*
X0136995Y0338382D01*
X0136995Y0339580D02*
X0077300Y0339580D01*
X0077300Y0340779D02*
X0136995Y0340779D01*
X0136995Y0341977D02*
X0077300Y0341977D01*
X0077300Y0343176D02*
X0136995Y0343176D01*
X0136995Y0344374D02*
X0077300Y0344374D01*
X0077300Y0345573D02*
X0136995Y0345573D01*
X0136995Y0346771D02*
X0077300Y0346771D01*
X0077300Y0347970D02*
X0136995Y0347970D01*
X0136995Y0349168D02*
X0077300Y0349168D01*
X0085344Y0374337D02*
X0136995Y0374337D01*
X0136995Y0373139D02*
X0086543Y0373139D01*
X0087741Y0371940D02*
X0136995Y0371940D01*
X0136995Y0370741D02*
X0088940Y0370741D01*
X0089757Y0369543D02*
X0136995Y0369543D01*
X0136995Y0368344D02*
X0090143Y0368344D01*
X0090143Y0367146D02*
X0136995Y0367146D01*
X0136995Y0365947D02*
X0090143Y0365947D01*
X0090143Y0364749D02*
X0136995Y0364749D01*
X0136995Y0363550D02*
X0090143Y0363550D01*
X0090143Y0362352D02*
X0136995Y0362352D01*
X0136995Y0361153D02*
X0090449Y0361153D01*
X0090595Y0359955D02*
X0136995Y0359955D01*
X0136995Y0358756D02*
X0090595Y0358756D01*
X0090595Y0357558D02*
X0136995Y0357558D01*
X0136995Y0356359D02*
X0090595Y0356359D01*
X0090595Y0355161D02*
X0136995Y0355161D01*
X0136995Y0353962D02*
X0090595Y0353962D01*
X0090595Y0352764D02*
X0136995Y0352764D01*
X0136995Y0351565D02*
X0090595Y0351565D01*
X0090108Y0350367D02*
X0136995Y0350367D01*
X0136995Y0375536D02*
X0084146Y0375536D01*
X0082947Y0376734D02*
X0136995Y0376734D01*
X0136995Y0389918D02*
X0129376Y0389918D01*
X0129446Y0389988D02*
X0129656Y0390352D01*
X0129765Y0390759D01*
X0129765Y0394701D01*
X0125813Y0394701D01*
X0125813Y0395901D01*
X0129765Y0395901D01*
X0129765Y0399842D01*
X0129656Y0400249D01*
X0129446Y0400614D01*
X0129148Y0400912D01*
X0128783Y0401122D01*
X0128376Y0401231D01*
X0125813Y0401231D01*
X0125813Y0395901D01*
X0124613Y0395901D01*
X0124613Y0401231D01*
X0122049Y0401231D01*
X0121642Y0401122D01*
X0121277Y0400912D01*
X0120980Y0400614D01*
X0120769Y0400249D01*
X0120660Y0399842D01*
X0120660Y0395901D01*
X0124613Y0395901D01*
X0124613Y0394701D01*
X0125813Y0394701D01*
X0125813Y0389370D01*
X0128376Y0389370D01*
X0128783Y0389479D01*
X0129148Y0389690D01*
X0129446Y0389988D01*
X0129765Y0391116D02*
X0136995Y0391116D01*
X0136995Y0392315D02*
X0129765Y0392315D01*
X0129765Y0393513D02*
X0136995Y0393513D01*
X0136995Y0394712D02*
X0125813Y0394712D01*
X0125813Y0395910D02*
X0124613Y0395910D01*
X0124613Y0394712D02*
X0117761Y0394712D01*
X0117761Y0395910D02*
X0120660Y0395910D01*
X0120660Y0397109D02*
X0117761Y0397109D01*
X0117761Y0398307D02*
X0120660Y0398307D01*
X0120660Y0399506D02*
X0117761Y0399506D01*
X0117433Y0400704D02*
X0121070Y0400704D01*
X0120660Y0394701D02*
X0120660Y0390759D01*
X0120769Y0390352D01*
X0120980Y0389988D01*
X0121277Y0389690D01*
X0121642Y0389479D01*
X0122049Y0389370D01*
X0124613Y0389370D01*
X0124613Y0394701D01*
X0120660Y0394701D01*
X0120660Y0393513D02*
X0117761Y0393513D01*
X0117761Y0392315D02*
X0120660Y0392315D01*
X0120660Y0391116D02*
X0117761Y0391116D01*
X0117454Y0389918D02*
X0121050Y0389918D01*
X0124613Y0389918D02*
X0125813Y0389918D01*
X0125813Y0391116D02*
X0124613Y0391116D01*
X0124613Y0392315D02*
X0125813Y0392315D01*
X0125813Y0393513D02*
X0124613Y0393513D01*
X0124613Y0397109D02*
X0125813Y0397109D01*
X0125813Y0398307D02*
X0124613Y0398307D01*
X0124613Y0399506D02*
X0125813Y0399506D01*
X0125813Y0400704D02*
X0124613Y0400704D01*
X0129355Y0400704D02*
X0136995Y0400704D01*
X0136995Y0399506D02*
X0129765Y0399506D01*
X0129765Y0398307D02*
X0136995Y0398307D01*
X0136995Y0397109D02*
X0129765Y0397109D01*
X0129765Y0395910D02*
X0136995Y0395910D01*
X0136995Y0457034D02*
X0093515Y0457034D01*
X0094714Y0458233D02*
X0136995Y0458233D01*
X0136995Y0459431D02*
X0095912Y0459431D01*
X0097111Y0460630D02*
X0136995Y0460630D01*
X0136995Y0461828D02*
X0098309Y0461828D01*
X0099508Y0463027D02*
X0136995Y0463027D01*
X0136995Y0464225D02*
X0100706Y0464225D01*
X0101905Y0465424D02*
X0136995Y0465424D01*
X0136995Y0466622D02*
X0103104Y0466622D01*
X0104302Y0467821D02*
X0136995Y0467821D01*
X0136995Y0469019D02*
X0129965Y0469019D01*
X0129965Y0470218D02*
X0136995Y0470218D01*
X0136995Y0471416D02*
X0129965Y0471416D01*
X0129965Y0472615D02*
X0136995Y0472615D01*
X0136995Y0473813D02*
X0129965Y0473813D01*
X0129965Y0475012D02*
X0136995Y0475012D01*
X0136995Y0476210D02*
X0129965Y0476210D01*
X0129965Y0477409D02*
X0136995Y0477409D01*
X0136995Y0478608D02*
X0129965Y0478608D01*
X0129513Y0479806D02*
X0136995Y0479806D01*
X0136995Y0481005D02*
X0129513Y0481005D01*
X0129513Y0482203D02*
X0136995Y0482203D01*
X0136995Y0483402D02*
X0129447Y0483402D01*
X0128950Y0484600D02*
X0136995Y0484600D01*
X0136995Y0485799D02*
X0127883Y0485799D01*
X0126684Y0486997D02*
X0136995Y0486997D01*
X0136995Y0488196D02*
X0125486Y0488196D01*
X0124287Y0489394D02*
X0136995Y0489394D01*
X0120913Y0479806D02*
X0117072Y0479806D01*
X0117761Y0478608D02*
X0120460Y0478608D01*
X0120460Y0477409D02*
X0117761Y0477409D01*
X0117761Y0476210D02*
X0120460Y0476210D01*
X0120460Y0475012D02*
X0117761Y0475012D01*
X0117761Y0473813D02*
X0120460Y0473813D01*
X0120460Y0472615D02*
X0117761Y0472615D01*
X0117761Y0471416D02*
X0120460Y0471416D01*
X0120460Y0470218D02*
X0117761Y0470218D01*
X0117761Y0469019D02*
X0120460Y0469019D01*
X0120514Y0481005D02*
X0087059Y0481005D01*
X0088073Y0479806D02*
X0108944Y0479806D01*
X0108255Y0478608D02*
X0088765Y0478608D01*
X0089293Y0477409D02*
X0101728Y0477409D01*
X0100529Y0476210D02*
X0089614Y0476210D01*
X0089839Y0475012D02*
X0099331Y0475012D01*
X0098132Y0473813D02*
X0089839Y0473813D01*
X0089814Y0472615D02*
X0096934Y0472615D01*
X0095735Y0471416D02*
X0089492Y0471416D01*
X0089171Y0470218D02*
X0094537Y0470218D01*
X0093338Y0469019D02*
X0088503Y0469019D01*
X0087803Y0467821D02*
X0092140Y0467821D01*
X0090941Y0466622D02*
X0086604Y0466622D01*
X0085013Y0465424D02*
X0089743Y0465424D01*
X0085801Y0482203D02*
X0119316Y0482203D01*
X0108255Y0469019D02*
X0105501Y0469019D01*
X0104626Y0525349D02*
X0086276Y0525349D01*
X0087474Y0526548D02*
X0103428Y0526548D01*
X0102229Y0527746D02*
X0088313Y0527746D01*
X0089005Y0528945D02*
X0101031Y0528945D01*
X0099832Y0530143D02*
X0089404Y0530143D01*
X0089726Y0531342D02*
X0098634Y0531342D01*
X0097435Y0532541D02*
X0089839Y0532541D01*
X0089839Y0533739D02*
X0096237Y0533739D01*
X0095038Y0534938D02*
X0089702Y0534938D01*
X0089381Y0536136D02*
X0093840Y0536136D01*
X0092641Y0537335D02*
X0088955Y0537335D01*
X0088263Y0538533D02*
X0091443Y0538533D01*
X0090244Y0539732D02*
X0087387Y0539732D01*
X0086189Y0540930D02*
X0089046Y0540930D01*
X0041720Y0321603D02*
X0039020Y0321603D01*
X0039020Y0320404D02*
X0041720Y0320404D01*
X0041720Y0319205D02*
X0039020Y0319205D01*
X0039020Y0318007D02*
X0041720Y0318007D01*
X0041720Y0316808D02*
X0039020Y0316808D01*
X0039020Y0315610D02*
X0041720Y0315610D01*
X0041720Y0314411D02*
X0039020Y0314411D01*
X0039020Y0313213D02*
X0041720Y0313213D01*
X0041720Y0312014D02*
X0039020Y0312014D01*
X0038568Y0310816D02*
X0042388Y0310816D01*
X0044022Y0298831D02*
X0136995Y0298831D01*
X0136995Y0297632D02*
X0046049Y0297632D01*
X0046895Y0296434D02*
X0136995Y0296434D01*
X0136995Y0295235D02*
X0047300Y0295235D01*
X0047300Y0294037D02*
X0136995Y0294037D01*
X0136995Y0292838D02*
X0046925Y0292838D01*
X0046121Y0291640D02*
X0136995Y0291640D01*
X0136995Y0290441D02*
X0044196Y0290441D01*
X0028606Y0253287D02*
X0022485Y0253287D01*
X0022485Y0252089D02*
X0027408Y0252089D01*
X0026209Y0250890D02*
X0022485Y0250890D01*
X0022485Y0249692D02*
X0025011Y0249692D01*
X0023812Y0248493D02*
X0022485Y0248493D01*
X0022485Y0247295D02*
X0022614Y0247295D01*
X0022485Y0220928D02*
X0023591Y0220928D01*
X0022485Y0219729D02*
X0024790Y0219729D01*
X0025988Y0218531D02*
X0022485Y0218531D01*
X0022485Y0217332D02*
X0027187Y0217332D01*
X0028385Y0216134D02*
X0022485Y0216134D01*
X0022485Y0214935D02*
X0029584Y0214935D01*
X0030782Y0213737D02*
X0022485Y0213737D01*
X0022485Y0212538D02*
X0031981Y0212538D01*
X0033179Y0211339D02*
X0022485Y0211339D01*
X0022485Y0210141D02*
X0034378Y0210141D01*
X0035576Y0208942D02*
X0022485Y0208942D01*
X0022485Y0207744D02*
X0036775Y0207744D01*
X0056945Y0213737D02*
X0076782Y0213737D01*
X0077981Y0212538D02*
X0058143Y0212538D01*
X0059342Y0211339D02*
X0079179Y0211339D01*
X0080378Y0210141D02*
X0060540Y0210141D01*
X0061739Y0208942D02*
X0081543Y0208942D01*
X0081543Y0207744D02*
X0062937Y0207744D01*
X0064136Y0206545D02*
X0081543Y0206545D01*
X0081543Y0205347D02*
X0065334Y0205347D01*
X0066533Y0204148D02*
X0069507Y0204148D01*
X0068885Y0202950D02*
X0067731Y0202950D01*
X0068763Y0201751D02*
X0068885Y0201751D01*
X0077769Y0204148D02*
X0081543Y0204148D01*
X0081090Y0202950D02*
X0078391Y0202950D01*
X0078391Y0201751D02*
X0081090Y0201751D01*
X0081090Y0200553D02*
X0078391Y0200553D01*
X0078391Y0199354D02*
X0081090Y0199354D01*
X0081090Y0198156D02*
X0078391Y0198156D01*
X0078391Y0196957D02*
X0081090Y0196957D01*
X0081090Y0195759D02*
X0078391Y0195759D01*
X0078391Y0194560D02*
X0081090Y0194560D01*
X0081102Y0193362D02*
X0078378Y0193362D01*
X0084054Y0226920D02*
X0105946Y0226920D01*
X0107145Y0228119D02*
X0082553Y0228119D01*
X0085210Y0229317D02*
X0108343Y0229317D01*
X0109208Y0230516D02*
X0086718Y0230516D01*
X0087876Y0231714D02*
X0109208Y0231714D01*
X0108255Y0232913D02*
X0088568Y0232913D01*
X0089202Y0234111D02*
X0108255Y0234111D01*
X0108255Y0235310D02*
X0089523Y0235310D01*
X0089839Y0236508D02*
X0108255Y0236508D01*
X0108255Y0237707D02*
X0089839Y0237707D01*
X0089839Y0238905D02*
X0108255Y0238905D01*
X0108255Y0240104D02*
X0089584Y0240104D01*
X0089263Y0241302D02*
X0108255Y0241302D01*
X0108255Y0242501D02*
X0088700Y0242501D01*
X0088008Y0243699D02*
X0109058Y0243699D01*
X0098158Y0165796D02*
X0095277Y0165796D01*
X0077300Y0111863D02*
X0136995Y0111863D01*
X0136995Y0110665D02*
X0078017Y0110665D01*
X0056446Y0055533D02*
X0054798Y0055533D01*
X0053816Y0054334D02*
X0056446Y0054334D01*
X0119867Y0097481D02*
X0136995Y0097481D01*
X0136995Y0096282D02*
X0121399Y0096282D01*
X0121645Y0096036D02*
X0121645Y0096036D01*
X0122597Y0095084D02*
X0136995Y0095084D01*
X0136995Y0093885D02*
X0123796Y0093885D01*
X0124994Y0092687D02*
X0136995Y0092687D01*
X0136995Y0091488D02*
X0126193Y0091488D01*
X0127391Y0090290D02*
X0136995Y0090290D01*
X0136995Y0089091D02*
X0128590Y0089091D01*
X0129243Y0087893D02*
X0136995Y0087893D01*
X0136995Y0086694D02*
X0129513Y0086694D01*
X0129886Y0085496D02*
X0136995Y0085496D01*
X0136995Y0084297D02*
X0129965Y0084297D01*
X0129965Y0083099D02*
X0136995Y0083099D01*
X0136995Y0081900D02*
X0129965Y0081900D01*
X0129965Y0080702D02*
X0136995Y0080702D01*
X0136995Y0079503D02*
X0129965Y0079503D01*
X0129965Y0078305D02*
X0136995Y0078305D01*
X0136995Y0077106D02*
X0129965Y0077106D01*
X0129965Y0075908D02*
X0136995Y0075908D01*
X0136995Y0074709D02*
X0129411Y0074709D01*
D17*
X0093000Y0040600D03*
X0051000Y0057600D03*
D18*
X0051000Y0224600D02*
X0046000Y0229600D01*
X0046000Y0237348D01*
X0046472Y0237820D01*
X0051000Y0224600D02*
X0081000Y0224600D01*
X0083000Y0222600D01*
X0107000Y0222600D01*
X0113008Y0228608D01*
X0113008Y0237820D01*
D19*
X0079740Y0237820D03*
X0079740Y0021285D03*
X0079740Y0474041D03*
X0079740Y0533096D03*
M02*
