G75*
%MOIN*%
%OFA0B0*%
%FSLAX25Y25*%
%IPPOS*%
%LPD*%
%AMOC8*
5,1,8,0,0,1.08239X$1,22.5*
%
%ADD10C,0.00000*%
%ADD11R,0.06706X0.09461*%
%ADD12C,0.06800*%
%ADD13R,0.07898X0.07099*%
%ADD14C,0.05162*%
%ADD15C,0.04769*%
%ADD16C,0.17398*%
D10*
X0020685Y0060655D02*
X0079740Y0001600D01*
X0138795Y0060655D01*
X0138795Y0493726D01*
X0079740Y0552781D01*
X0020685Y0493726D01*
X0020685Y0060655D01*
D11*
X0034268Y0080340D03*
X0046472Y0080340D03*
X0046472Y0159080D03*
X0034268Y0159080D03*
X0034268Y0237820D03*
X0046472Y0237820D03*
X0046472Y0316561D03*
X0034268Y0316561D03*
X0034268Y0395301D03*
X0046472Y0395301D03*
X0046472Y0474041D03*
X0034268Y0474041D03*
X0073638Y0513411D03*
X0085843Y0513411D03*
X0085843Y0434671D03*
X0073638Y0434671D03*
X0073638Y0355931D03*
X0085843Y0355931D03*
X0085843Y0277191D03*
X0073638Y0277191D03*
X0073638Y0198450D03*
X0085843Y0198450D03*
X0085843Y0119710D03*
X0073638Y0119710D03*
X0073638Y0040970D03*
X0085843Y0040970D03*
X0113008Y0080340D03*
X0125213Y0080340D03*
X0125213Y0159080D03*
X0113008Y0159080D03*
X0113008Y0237820D03*
X0125213Y0237820D03*
X0125213Y0316561D03*
X0113008Y0316561D03*
X0113008Y0395301D03*
X0125213Y0395301D03*
X0125213Y0474041D03*
X0113008Y0474041D03*
D12*
X0082425Y0085120D02*
X0076425Y0085120D01*
X0076425Y0075120D02*
X0082425Y0075120D01*
D13*
X0061795Y0051718D03*
X0061795Y0040521D03*
X0102480Y0159521D03*
X0102480Y0170718D03*
X0064150Y0423482D03*
X0064150Y0434679D03*
X0034835Y0305679D03*
X0034835Y0294482D03*
D14*
X0043000Y0294600D03*
X0064000Y0416600D03*
X0094000Y0511600D03*
X0124000Y0405600D03*
X0087000Y0270600D03*
X0091000Y0167600D03*
X0054000Y0158600D03*
D15*
X0051000Y0057600D03*
X0093000Y0040600D03*
D16*
X0079740Y0021285D03*
X0079740Y0237820D03*
X0079740Y0474041D03*
X0079740Y0533096D03*
M02*
